<svg width="317" height="250" viewBox="0 0 317 250" fill="none" xmlns="http://www.w3.org/2000/svg">
<g clip-path="url(#clip0_475_6228)">
<path d="M39.4749 175.931C25.1428 171.483 5.07398 153.53 1.07076 129.774C-1.80236 112.722 1.62144 99.9692 6.94151 90.6046C16.1595 74.3962 33.9728 67.9551 52.6338 64.5188C76.4424 60.1337 87.1543 46.0916 102.923 28.8385C120.54 9.55811 167.669 -10.9827 194.748 9.25618C212.375 22.4261 207.016 45.0995 219.318 56.0696C231.687 67.102 247.796 62.8079 255.05 84.6522C260.705 101.671 250.453 131.13 218.676 154.283C189.404 175.614 89.4912 191.449 39.4749 175.931Z" fill="#E6F4FF"/>
<path d="M179.468 238.579C255.3 238.579 316.774 234.195 316.774 228.788C316.774 223.38 255.3 218.997 179.468 218.997C103.635 218.997 42.161 223.38 42.161 228.788C42.161 234.195 103.635 238.579 179.468 238.579Z" fill="#D3E1EF"/>
<path d="M204.291 144.013H303.668C306.101 144.013 308.078 145.992 308.078 148.427V216.135C308.078 218.57 306.101 220.549 303.668 220.549H204.291C201.859 220.549 199.881 218.57 199.881 216.135V148.427C199.881 145.992 201.859 144.013 204.291 144.013Z" fill="#9CBFF7"/>
<path d="M41.9457 230.432L63.6952 228.788L63.4414 231.802L48.1708 232.286L41.9457 230.432Z" fill="#373844"/>
<path d="M304.793 151.959V212.608C304.793 215.177 302.715 217.257 300.148 217.257H293.138V151.24H205.848C204.765 151.24 203.884 150.363 203.884 149.275C203.884 148.192 204.761 147.31 205.848 147.31H300.144C302.71 147.31 304.789 149.39 304.789 151.959H304.793Z" fill="#597DCA"/>
<path d="M272.25 131.015C263.114 128.552 253.714 133.972 251.257 143.116C248.796 152.261 254.207 161.668 263.349 164.127C272.485 166.59 281.885 161.175 284.342 152.026C286.803 142.882 281.387 133.474 272.25 131.015ZM281.114 151.158C280.156 154.719 277.872 157.691 274.678 159.531C271.489 161.371 267.773 161.86 264.215 160.902C256.874 158.922 252.507 151.336 254.485 143.989C255.443 140.428 257.727 137.457 260.921 135.616C264 133.843 267.567 133.325 271.01 134.154C271.135 134.183 271.259 134.217 271.384 134.25C278.605 136.196 282.943 143.567 281.21 150.794C281.181 150.914 281.152 151.039 281.119 151.158H281.114Z" fill="#8F8F8F"/>
<path d="M281.205 150.794C281.176 150.914 281.148 151.038 281.114 151.158C280.156 154.719 277.872 157.69 274.678 159.531C271.489 161.371 267.773 161.86 264.215 160.901C256.874 158.922 252.507 151.336 254.485 143.989C255.443 140.428 257.727 137.456 260.921 135.616C264 133.843 267.567 133.325 271.015 134.154C271.14 134.183 271.264 134.217 271.389 134.25C278.61 136.196 282.948 143.567 281.215 150.799L281.205 150.794Z" fill="#476CFF"/>
<path d="M264.488 157.633L265.096 155.107C263.655 154.733 262.262 153.923 261.538 153.089L262.539 151.561C263.296 152.375 264.479 153.166 265.877 153.502C267.649 153.928 269.095 153.19 269.44 151.767C269.77 150.391 268.999 149.308 267.333 148.115C265.024 146.5 263.727 144.976 264.249 142.8C264.747 140.725 266.6 139.503 268.985 139.68L269.593 137.154L271.139 137.528L270.555 139.953C272.04 140.365 272.969 141.007 273.591 141.607L272.571 143.107C272.121 142.68 271.226 141.885 269.626 141.501C267.701 141.041 266.701 142.014 266.461 143.016C266.15 144.314 266.916 145.187 268.874 146.61C271.197 148.278 272.183 149.893 271.647 152.117C271.173 154.091 269.353 155.61 266.681 155.419L266.059 158.016L264.483 157.638L264.488 157.633Z" fill="#8F8F8F"/>
<path d="M235.096 120.175C224.767 122.312 218.126 132.424 220.256 142.767C222.392 153.104 232.496 159.756 242.83 157.619C253.159 155.481 259.805 145.369 257.669 135.027C255.534 124.689 245.43 118.042 235.096 120.175ZM254.02 135.779C254.849 139.805 254.068 143.912 251.808 147.348C249.553 150.785 246.1 153.133 242.073 153.967C233.775 155.683 225.62 150.32 223.905 142.01C223.077 137.984 223.857 133.877 226.113 130.44C228.287 127.129 231.586 124.824 235.427 123.918C235.565 123.884 235.704 123.855 235.843 123.827C244.008 122.135 252.024 127.296 253.92 135.367C253.953 135.501 253.982 135.64 254.011 135.779H254.02Z" fill="#8F8F8F"/>
<path d="M253.929 135.367C253.963 135.501 253.992 135.64 254.02 135.779C254.849 139.805 254.068 143.912 251.808 147.348C249.553 150.785 246.1 153.133 242.073 153.967C233.774 155.683 225.62 150.32 223.905 142.01C223.077 137.984 223.857 133.877 226.113 130.44C228.287 127.129 231.586 124.824 235.426 123.918C235.565 123.884 235.704 123.855 235.843 123.827C244.008 122.135 252.024 127.296 253.92 135.367H253.929Z" fill="#476CFF"/>
<path d="M240.708 150.574L240.047 147.756C238.424 148.11 236.633 148 235.494 147.53L235.723 145.503C236.882 145.934 238.458 146.126 240.019 145.757C241.996 145.292 243.069 143.83 242.695 142.239C242.336 140.706 241.024 140.011 238.764 139.661C235.656 139.215 233.597 138.343 233.027 135.918C232.482 133.603 233.717 131.456 236.183 130.435L235.522 127.617L237.251 127.21L237.888 129.918C239.573 129.577 240.823 129.755 241.743 130.042L241.479 132.05C240.814 131.854 239.525 131.509 237.744 131.931C235.599 132.434 235.091 133.91 235.355 135.027C235.695 136.479 236.897 136.958 239.559 137.394C242.705 137.888 244.496 139 245.08 141.482C245.597 143.687 244.549 146.112 241.79 147.262L242.47 150.166L240.713 150.578L240.708 150.574Z" fill="#8F8F8F"/>
<path d="M242.906 157.969L242.763 157.264C247.666 156.248 251.88 153.387 254.629 149.198C257.377 145.01 258.335 140.001 257.32 135.094C257.234 134.672 257.133 134.26 257.023 133.862L257.717 133.67C257.832 134.087 257.937 134.514 258.028 134.95C259.082 140.044 258.091 145.244 255.232 149.596C252.378 153.943 248.001 156.919 242.911 157.969H242.906Z" fill="#373844"/>
<path d="M296.753 151.316H204.157C201.796 151.316 199.881 153.233 199.881 155.596V222.605C199.881 224.969 201.796 226.885 204.157 226.885H296.753C299.115 226.885 301.03 224.969 301.03 222.605V155.596C301.03 153.233 299.115 151.316 296.753 151.316Z" fill="#9CBFF7"/>
<path d="M293.253 222.955H289.432V222.476H293.224L293.253 222.955ZM286.583 222.955H282.79V222.476H286.583V222.955ZM279.941 222.955H276.148V222.476H279.941V222.955ZM273.304 222.955H269.511V222.476H273.304V222.955ZM266.662 222.955H262.87V222.476H266.662V222.955ZM260.021 222.955H256.228V222.476H260.021V222.955ZM253.379 222.955H249.586V222.476H253.379V222.955ZM246.742 222.955H242.949V222.476H246.742V222.955ZM240.1 222.955H236.308V222.476H240.1V222.955ZM233.459 222.955H229.666V222.476H233.459V222.955ZM226.817 222.955H223.024V222.476H226.817V222.955ZM220.18 222.955H216.387V222.476H220.18V222.955ZM213.538 222.955H211.972C211.173 222.955 210.402 222.721 209.741 222.275L210.009 221.877C210.593 222.27 211.273 222.476 211.977 222.476H213.543V222.955H213.538ZM295.992 221.843L295.662 221.498C296.37 220.823 296.758 219.912 296.758 218.934V218.201H297.237V218.934C297.237 220.046 296.797 221.081 295.992 221.843ZM208.055 219.845C207.988 219.548 207.95 219.241 207.955 218.934V216.001H208.434V218.934C208.434 219.203 208.462 219.471 208.525 219.735L208.06 219.845H208.055ZM297.242 215.35H296.763V211.554H297.242V215.35ZM208.434 213.15H207.955V209.354H208.434V213.15ZM297.242 208.702H296.763V204.907H297.242V208.702ZM208.434 206.503H207.955V202.707H208.434V206.503ZM297.242 202.06H296.763V198.264H297.242V202.06ZM208.434 199.86H207.955V196.064H208.434V199.86ZM297.242 195.413H296.763V191.617H297.242V195.413ZM208.434 193.213H207.955V189.417H208.434V193.213ZM297.242 188.765H296.763V184.97H297.242V188.765ZM208.434 186.566H207.955V182.77H208.434V186.566ZM297.242 182.123H296.763V178.327H297.242V182.123ZM208.434 179.918H207.955V176.123H208.434V179.918ZM297.242 175.476H296.763V171.68H297.242V175.476ZM208.434 173.276H207.955V169.48H208.434V173.276ZM297.242 168.829H296.763V165.033H297.242V168.829ZM208.434 166.629H207.955V162.833H208.434V166.629ZM297.242 162.181H296.763V159.263C296.763 158.985 296.729 158.711 296.667 158.448L297.132 158.338C297.204 158.64 297.237 158.951 297.237 159.263V162.181H297.242ZM208.434 159.982H207.955V159.263C207.955 158.146 208.4 157.106 209.214 156.339L209.545 156.689C208.831 157.365 208.438 158.28 208.438 159.263V159.982H208.434ZM295.178 156.31C294.599 155.927 293.923 155.721 293.224 155.721H291.644V155.242H293.224C294.019 155.242 294.785 155.472 295.446 155.913L295.183 156.31H295.178ZM288.795 155.721H285.002V155.242H288.795V155.721ZM282.158 155.721H278.365V155.242H282.158V155.721ZM275.516 155.721H271.724V155.242H275.516V155.721ZM268.875 155.721H265.082V155.242H268.875V155.721ZM262.233 155.721H258.44V155.242H262.233V155.721ZM255.596 155.721H251.803V155.242H255.596V155.721ZM248.954 155.721H245.162V155.242H248.954V155.721ZM242.313 155.721H238.52V155.242H242.313V155.721ZM235.671 155.721H231.878V155.242H235.671V155.721ZM229.034 155.721H225.241V155.242H229.034V155.721ZM222.392 155.721H218.6V155.242H222.392V155.721ZM215.75 155.721H211.972L211.958 155.242H215.75V155.721Z" fill="#FEFEFE"/>
<path d="M307.954 173.583V194.938C307.954 197.622 305.785 199.793 303.103 199.793H284.643C278.744 199.793 273.96 195.005 273.96 189.101C273.96 186.149 275.157 183.474 277.087 181.538C279.021 179.602 281.693 178.404 284.643 178.404H303.103C303.237 178.404 303.371 178.409 303.51 178.423C306.005 178.217 307.954 176.127 307.954 173.583Z" fill="#597DCA"/>
<path d="M283.666 194.085C286.419 194.085 288.651 191.851 288.651 189.096C288.651 186.341 286.419 184.107 283.666 184.107C280.913 184.107 278.681 186.341 278.681 189.096C278.681 191.851 280.913 194.085 283.666 194.085Z" fill="white"/>
<path d="M32.9718 16.5938V36.895C32.9718 39.6459 35.3182 41.8792 38.2153 41.8792H55.7269L65.0742 51.9675V41.8792H67.751C70.648 41.8792 72.9944 39.6507 72.9944 36.895V16.5938C72.9944 13.8429 70.648 11.6096 67.751 11.6096H38.22C35.323 11.6096 32.9766 13.8381 32.9766 16.5938H32.9718Z" fill="#9CBFF7"/>
<path d="M44.7899 37.9732V41.8743H36.1083C33.8576 41.8743 32.0332 37.8917 32.0332 35.7543V34.1008H40.7148C42.9654 34.1008 44.7899 35.8357 44.7899 37.9732Z" fill="#709CE8"/>
<path d="M43.1379 37.9732V53.7502C43.1379 55.8877 41.3182 57.6226 39.0676 57.6226H27.2591L22.097 63.1963L19.9949 65.4583V57.6226H16.1162C13.8655 57.6226 12.0459 55.8877 12.0459 53.7502V37.9732C12.0459 35.8357 13.8655 34.1008 16.1162 34.1008H39.0676C41.3182 34.1008 43.1379 35.8357 43.1379 37.9732Z" fill="#FEFEFE"/>
<path d="M22.6191 46.1589C22.6191 47.2132 21.7667 48.0663 20.7132 48.0663C19.6597 48.0663 18.8074 47.2132 18.8074 46.1589C18.8074 45.1045 19.6597 44.2515 20.7132 44.2515C21.7667 44.2515 22.6191 45.1045 22.6191 46.1589Z" fill="#9CBFF7"/>
<path d="M29.5002 46.1589C29.5002 47.2132 28.6478 48.0663 27.5943 48.0663C26.5408 48.0663 25.6885 47.2132 25.6885 46.1589C25.6885 45.1045 26.5408 44.2515 27.5943 44.2515C28.6478 44.2515 29.5002 45.1045 29.5002 46.1589Z" fill="#9CBFF7"/>
<path d="M36.386 46.1589C36.386 47.2132 35.5337 48.0663 34.4802 48.0663C33.4267 48.0663 32.5743 47.2132 32.5743 46.1589C32.5743 45.1045 33.4267 44.2515 34.4802 44.2515C35.5337 44.2515 36.386 45.1045 36.386 46.1589Z" fill="#9CBFF7"/>
<path d="M59.8929 24.2139H58.7197V21.1419C58.7197 18.391 56.359 16.1433 53.4571 16.1433H52.8873C49.9854 16.1433 47.6343 18.391 47.6343 21.1419V24.2139H46.4515C45.7236 24.2139 45.1346 24.7794 45.1346 25.4792V34.839C45.1346 35.5339 45.7236 36.0994 46.4515 36.0994H59.8881C60.6208 36.0994 61.2194 35.5387 61.2194 34.839V25.4792C61.2194 24.7842 60.6208 24.2139 59.8881 24.2139H59.8929ZM54.4962 33.1089H51.8625L52.5186 30.3196C51.9966 30.0848 51.6375 29.5864 51.6375 28.9969C51.6375 28.1869 52.327 27.5352 53.1746 27.5352C54.0222 27.5352 54.7165 28.1869 54.7165 28.9969C54.7165 29.5816 54.3622 30.0848 53.8402 30.3148L54.4915 33.1089H54.4962ZM56.8474 24.2139H49.5018V21.1419C49.5018 19.3639 51.0246 17.9213 52.8921 17.9213H53.4619C55.3294 17.9213 56.8522 19.3639 56.8522 21.1419V24.2139H56.8474Z" fill="#FEFEFE"/>
<path d="M33.331 31.0912H32.6127V16.5986C32.6127 13.6511 35.1267 11.2549 38.2153 11.2549H67.7462V11.9738H38.2153C35.5241 11.9738 33.331 14.0489 33.331 16.5986V31.0912Z" fill="#373844"/>
<path d="M65.4285 52.883L55.5689 42.234H46.5616V41.5151H55.8849L64.715 51.0475V41.5151H67.7509C70.4421 41.5151 72.6353 39.44 72.6353 36.8904V16.594H73.3535V36.8904C73.3535 39.8378 70.8395 42.234 67.7509 42.234H65.4333V52.883H65.4285Z" fill="#373844"/>
<path d="M19.6357 66.374V57.9823H16.1162C13.674 57.9823 11.6868 56.0845 11.6868 53.7505V37.9735C11.6868 35.6395 13.674 33.7417 16.1162 33.7417H39.0676C41.5098 33.7417 43.497 35.6395 43.497 37.9735V53.7505C43.497 56.0845 41.5098 57.9823 39.0676 57.9823H27.4123L19.631 66.374H19.6357ZM16.121 34.4654C14.0762 34.4654 12.4098 36.0421 12.4098 37.9783V53.7553C12.4098 55.6915 14.0762 57.2682 16.121 57.2682H20.3588V64.5481L27.1059 57.2682H39.0724C41.1171 57.2682 42.7835 55.6915 42.7835 53.7553V37.9783C42.7835 36.0421 41.1171 34.4654 39.0724 34.4654H16.121Z" fill="#373844"/>
<path d="M215.468 227.053L84.6307 226.89C80.8621 226.89 77.9938 223.808 78.2284 220.017L89.6347 34.0865C89.8693 30.2956 93.1255 27.2284 96.9085 27.2332L228.282 27.3961C232.065 27.4009 234.938 30.4777 234.694 34.2686L222.732 220.2C222.488 223.99 219.237 227.058 215.463 227.053H215.468Z" fill="#373844"/>
<path d="M210.991 227.053L80.1534 226.89C76.3848 226.89 73.5165 223.808 73.7463 220.017L85.1382 34.0865C85.3729 30.2956 88.6291 27.2284 92.412 27.2332L223.786 27.3961C227.569 27.4009 230.442 30.4777 230.197 34.2686L218.255 220.2C218.011 223.99 214.759 227.058 210.986 227.053H210.991Z" fill="#FEFEFE"/>
<path d="M207.845 210.648L85.4639 210.495L96.1663 36.478L218.983 36.6314L207.845 210.648Z" fill="#D9E9FD"/>
<path d="M83.0696 73.7684L82.3513 73.7253L84.7791 34.0671C85.0233 30.0989 88.4423 26.8735 92.4025 26.8735H92.412L223.786 27.0365C225.715 27.0365 227.478 27.7937 228.756 29.1596C230.039 30.5302 230.676 32.3514 230.552 34.2924L229.834 34.2444C229.944 32.5096 229.374 30.8753 228.229 29.6532C227.09 28.4311 225.51 27.7602 223.781 27.7554L92.4073 27.5924H92.3977C88.8063 27.5924 85.7081 30.5159 85.4878 34.1103L83.06 73.7684H83.0696Z" fill="#373844"/>
<path d="M211 227.412H210.991L80.1533 227.244C78.2379 227.244 76.4805 226.492 75.202 225.131C73.9139 223.76 73.2674 221.934 73.3871 219.993L74.6561 199.203L75.3744 199.247L74.1054 220.036C74.0001 221.776 74.5747 223.415 75.7239 224.642C76.8636 225.855 78.4343 226.526 80.1486 226.53L210.986 226.698H210.995C214.572 226.698 217.666 223.775 217.896 220.18L218.614 220.228C218.36 224.196 214.946 227.422 210.995 227.422L211 227.412Z" fill="#373844"/>
<path d="M170.063 20.6626V20.5476C170.513 13.56 164.422 8.04864 156.976 9.4864C151.594 10.5264 147.547 15.2566 147.212 20.6051V20.6338L132.219 20.6146C130.347 20.6146 128.733 22.1099 128.618 23.955L127.694 38.8071C127.579 40.6522 129.001 42.1523 130.874 42.1571L183.686 42.2242C185.559 42.2242 187.172 40.7289 187.287 38.8838L188.231 24.0317C188.346 22.1866 186.923 20.6865 185.051 20.6817L170.063 20.6626ZM159.322 21.8847C156.895 22.4118 154.926 20.3559 155.602 17.9931C155.942 16.7998 156.976 15.8365 158.202 15.5729C160.634 15.0457 162.602 17.1113 161.922 19.474C161.583 20.6626 160.548 21.6211 159.327 21.8847H159.322Z" fill="#373844"/>
<path d="M158.537 22.4262C157.531 22.4262 156.593 22.038 155.923 21.3191C155.085 20.4229 154.802 19.1385 155.156 17.8924C155.549 16.517 156.717 15.4291 158.125 15.1224C159.437 14.8348 160.735 15.2182 161.592 16.1384C162.43 17.0394 162.717 18.3238 162.358 19.5746C161.966 20.9453 160.797 22.0284 159.389 22.3351C159.102 22.3974 158.815 22.4262 158.532 22.4262H158.537ZM158.92 15.9515C158.705 15.9515 158.484 15.9754 158.264 16.0234C157.22 16.2486 156.325 17.0825 156.037 18.0937C155.765 19.0474 155.975 19.9868 156.612 20.6673C157.259 21.3622 158.245 21.6498 159.246 21.4341C160.285 21.2089 161.18 20.3798 161.468 19.3733C161.741 18.4196 161.535 17.4755 160.893 16.7902C160.385 16.2486 159.677 15.9515 158.915 15.9515H158.92Z" fill="#373844"/>
<path d="M258.383 7.3393L237.088 2.70972L215.353 7.3393C215.353 7.3393 212.81 30.5543 216.397 42.2625C219.979 53.9514 233.459 60.129 233.459 60.129C233.459 60.129 247.867 53.9514 252.924 42.2625C257.99 30.5543 258.383 7.3393 258.383 7.3393ZM249.797 40.149C245.617 50.1845 233.765 55.4898 233.765 55.4898C233.765 55.4898 222.703 50.1845 219.792 40.149C216.876 30.0942 219.016 10.1621 219.016 10.1621L236.878 6.1843L254.356 10.1621C254.356 10.1621 253.982 30.0942 249.792 40.149H249.797Z" fill="#9CBFF7"/>
<path d="M225.888 55.7437C221.305 52.2835 218.116 48.138 216.406 43.4222L217.082 43.1777C218.743 47.7594 221.851 51.7947 226.319 55.1686L225.888 55.7437Z" fill="#373844"/>
<path d="M249.773 40.5468C245.583 50.7022 233.731 56.0698 233.731 56.0698C233.731 56.0698 223.139 50.9275 219.964 41.189C219.897 40.9782 219.83 40.7625 219.768 40.5516C216.857 30.3819 219.016 10.2101 219.016 10.2101L234.79 6.65888L236.882 6.18921L254.36 10.2149C254.36 10.2149 253.973 30.3819 249.773 40.5564V40.5468Z" fill="#D9E9FD"/>
<path d="M223.494 29.6437C223.249 34.0576 223.063 38.0881 222.967 40.2879C222.885 40.0627 222.809 39.8374 222.737 39.6026C221.88 36.8421 221.458 33.286 221.281 29.6389H223.494V29.6437Z" fill="white"/>
<path d="M223.637 27.0702H221.161C221.061 19.4213 221.846 12.2756 221.846 12.2756L224.992 11.6143C224.509 13.8907 224.025 20.5284 223.637 27.0702Z" fill="white"/>
<path d="M253.125 42.5021L252.464 42.2194C256.065 33.8133 257.31 19.4213 257.727 11.5903L258.445 11.6287C258.024 19.5076 256.769 33.9954 253.125 42.5021Z" fill="#373844"/>
<path d="M214.74 36.9285C212.992 24.5781 214.85 7.23396 214.869 7.05663L214.898 6.79784L215.157 6.69719L236.973 2.01489L237.05 2.03406L254.207 5.7962L254.054 6.49591L236.968 2.75294L215.559 7.34898C215.334 9.55354 213.83 25.3689 215.449 36.8278L214.74 36.9285Z" fill="#373844"/>
<path d="M234.22 40.8487L224.973 26.4423L227.674 24.6164L234.435 35.1503L249.189 13.8811L251.756 15.5681L234.22 40.8487Z" fill="#597DCA"/>
<path d="M121.105 152.16L122.412 130.699C122.498 129.309 121.445 128.183 120.061 128.183H72.7358C71.3519 128.183 70.1643 129.309 70.0781 130.699L68.7948 152.16C68.7134 153.55 69.7669 154.676 71.1508 154.676H118.447C119.831 154.676 121.019 153.55 121.105 152.16Z" fill="#9CBFF7"/>
<path d="M83.8261 141.43L83.2515 133.378C81.3313 133.632 79.4542 134.562 78.0081 136.139C76.6002 137.677 75.8436 139.565 75.7383 141.444L83.8213 141.425L83.8261 141.43Z" fill="#476CFF"/>
<path d="M83.9601 149.524C84.166 149.51 84.3767 149.486 84.5779 149.452C84.7119 149.433 84.8412 149.409 84.9705 149.38L83.8308 141.425H83.8213L75.7382 141.444C75.7382 141.444 75.7382 141.454 75.7382 141.458C75.7382 141.482 75.7382 141.501 75.7382 141.525C75.7382 141.593 75.7334 141.66 75.7286 141.727C75.7286 141.741 75.7286 141.751 75.7286 141.765C75.7286 141.856 75.7286 141.947 75.7286 142.038C75.7286 142.244 75.743 142.45 75.7622 142.656C75.7669 142.724 75.7765 142.791 75.7861 142.858C75.7909 142.925 75.8005 142.992 75.81 143.059C75.8292 143.193 75.8531 143.323 75.8771 143.457C75.8914 143.524 75.9058 143.586 75.9202 143.653C76.6241 146.754 79.1716 149.069 82.3368 149.481C82.3991 149.491 82.4709 149.495 82.5332 149.505C82.6672 149.519 82.8013 149.529 82.9354 149.534C83.0024 149.534 83.0695 149.539 83.1365 149.543C83.2035 149.543 83.2706 149.543 83.3424 149.543C83.5483 149.543 83.7542 149.539 83.9601 149.519V149.524Z" fill="#FEFEFE"/>
<path d="M84.9706 149.385C84.9945 149.38 85.0232 149.376 85.052 149.371C85.0903 149.361 85.1238 149.357 85.1621 149.347C85.1813 149.347 85.2004 149.337 85.2196 149.333C85.2627 149.323 85.3058 149.313 85.3441 149.304C85.3872 149.294 85.4303 149.28 85.4686 149.27C85.5069 149.261 85.5452 149.251 85.5787 149.242C85.6458 149.222 85.708 149.203 85.775 149.184C85.8421 149.165 85.9043 149.146 85.9666 149.122C86.0432 149.098 86.1198 149.069 86.2012 149.04C88.3656 148.235 90.147 146.567 91.1238 144.502C91.1238 144.502 91.1238 144.497 91.1238 144.492C91.1957 144.344 91.2579 144.195 91.3202 144.046C91.3489 143.97 91.3824 143.893 91.4064 143.816C91.4543 143.692 91.4973 143.562 91.5404 143.433C91.5596 143.371 91.5835 143.304 91.5979 143.241C91.6171 143.174 91.6362 143.112 91.6554 143.045C91.6745 142.978 91.6889 142.915 91.7033 142.848C91.7176 142.781 91.732 142.714 91.7464 142.652C91.7607 142.585 91.7751 142.518 91.7895 142.45C91.8038 142.383 91.8134 142.316 91.823 142.249C91.8373 142.149 91.8517 142.048 91.8661 141.942C91.8661 141.909 91.8756 141.875 91.8804 141.842C91.8804 141.832 91.8804 141.818 91.8804 141.808C91.8804 141.78 91.8852 141.751 91.89 141.722C91.89 141.693 91.8948 141.665 91.8996 141.636C91.9044 141.569 91.9092 141.497 91.914 141.43C91.914 141.415 91.914 141.406 91.914 141.391C91.914 141.358 91.914 141.319 91.914 141.281C91.914 141.19 91.9235 141.104 91.9235 141.013C91.9235 140.946 91.9235 140.874 91.9235 140.807C91.9235 140.601 91.9092 140.394 91.89 140.188C91.8804 140.049 91.8613 139.92 91.8421 139.786C91.823 139.652 91.799 139.522 91.7751 139.388C91.7607 139.321 91.7464 139.259 91.732 139.192C91.7128 139.11 91.6937 139.029 91.6745 138.947C91.0903 136.709 89.5293 134.907 87.4846 133.977L83.8165 141.406V141.42L84.9562 149.376L84.9706 149.385Z" fill="#FEFEFE"/>
<path d="M83.8261 141.43L83.8357 141.415L87.5037 133.987C87.1158 133.805 86.7088 133.666 86.2922 133.56C86.23 133.546 86.1725 133.531 86.1103 133.517C86.0432 133.503 85.9762 133.484 85.9139 133.474C85.8517 133.464 85.7798 133.445 85.7128 133.436C85.6937 133.436 85.6745 133.426 85.6506 133.426L85.5739 133.412C85.5213 133.402 85.4686 133.393 85.4111 133.388C85.3297 133.373 85.2483 133.369 85.1717 133.359C85.1142 133.354 85.052 133.345 84.9945 133.34C84.8269 133.325 84.6641 133.316 84.4965 133.311C84.4534 133.311 84.4151 133.311 84.372 133.311C84.3241 133.311 84.2762 133.311 84.2236 133.311C84.2044 133.311 84.19 133.311 84.1757 133.311C84.1278 133.311 84.0799 133.311 84.0368 133.311C84.0081 133.311 83.9746 133.311 83.9458 133.311H83.9123C83.8405 133.316 83.7687 133.321 83.6968 133.325H83.6873C83.6154 133.33 83.5436 133.34 83.4766 133.345C83.4574 133.345 83.443 133.345 83.4239 133.349C83.4143 133.349 83.4095 133.349 83.3999 133.349C83.3904 133.349 83.3856 133.349 83.376 133.349C83.3473 133.349 83.3185 133.349 83.285 133.359H83.2706C83.2706 133.359 83.2563 133.359 83.2467 133.359L83.8213 141.41L83.8261 141.43Z" fill="#476CFF"/>
<path d="M107.362 141.434L99.2739 141.386C99.1446 143.313 99.7001 145.249 100.979 146.812C102.224 148.331 103.948 149.227 105.791 149.476L107.367 141.439L107.362 141.434Z" fill="#FEFEFE"/>
<path d="M115.411 141.923C115.435 141.717 115.454 141.506 115.464 141.3C115.469 141.166 115.474 141.037 115.474 140.902L107.367 141.425V141.434L105.791 149.471C105.791 149.471 105.801 149.471 105.806 149.471C105.829 149.471 105.849 149.481 105.873 149.481C105.94 149.491 106.007 149.495 106.074 149.505C106.088 149.505 106.098 149.505 106.112 149.505C106.203 149.515 106.294 149.524 106.385 149.529C106.591 149.543 106.797 149.548 107.003 149.543C107.07 149.543 107.137 149.543 107.209 149.538C107.276 149.538 107.343 149.534 107.41 149.529C107.544 149.519 107.678 149.505 107.817 149.491C107.884 149.481 107.951 149.471 108.018 149.467C111.226 149.007 114.023 146.649 115.057 143.533C115.076 143.471 115.1 143.404 115.119 143.337C115.158 143.208 115.196 143.073 115.229 142.939C115.249 142.872 115.263 142.805 115.277 142.738C115.292 142.671 115.306 142.604 115.32 142.532C115.363 142.326 115.397 142.12 115.421 141.914L115.411 141.923Z" fill="#FEFEFE"/>
<path d="M115.469 140.907C115.469 140.883 115.469 140.854 115.469 140.826C115.469 140.787 115.469 140.754 115.469 140.715C115.469 140.696 115.469 140.677 115.469 140.653C115.469 140.61 115.469 140.567 115.464 140.524C115.464 140.48 115.464 140.437 115.454 140.394C115.454 140.356 115.454 140.318 115.445 140.279C115.44 140.212 115.435 140.15 115.426 140.083C115.416 140.016 115.411 139.949 115.402 139.886C115.392 139.805 115.378 139.728 115.368 139.647C114.999 137.432 113.697 135.535 111.839 134.404C111.839 134.404 111.834 134.404 111.834 134.399C111.7 134.317 111.566 134.241 111.427 134.169C111.36 134.13 111.288 134.097 111.216 134.063C111.102 134.006 110.982 133.953 110.862 133.905C110.805 133.881 110.742 133.852 110.685 133.833C110.623 133.809 110.565 133.785 110.503 133.761C110.441 133.737 110.378 133.718 110.316 133.699C110.254 133.68 110.192 133.661 110.129 133.642C110.067 133.622 110 133.603 109.938 133.584C109.876 133.565 109.813 133.551 109.746 133.536C109.651 133.512 109.55 133.488 109.454 133.469C109.421 133.464 109.392 133.455 109.359 133.45C109.349 133.45 109.335 133.45 109.325 133.445C109.296 133.44 109.268 133.435 109.244 133.431C109.215 133.426 109.191 133.421 109.162 133.416C109.095 133.407 109.028 133.392 108.961 133.388C108.947 133.388 108.937 133.388 108.923 133.383C108.889 133.378 108.851 133.373 108.817 133.368C108.731 133.359 108.64 133.349 108.554 133.34C108.487 133.335 108.415 133.33 108.348 133.325C108.142 133.311 107.936 133.306 107.73 133.311C107.592 133.311 107.457 133.32 107.323 133.325C107.189 133.335 107.055 133.349 106.916 133.364C106.849 133.373 106.782 133.383 106.715 133.388C106.629 133.397 106.548 133.412 106.461 133.426C104.129 133.838 102.037 135.247 100.715 137.212L107.352 141.429H107.366L115.473 140.907H115.469Z" fill="#FEFEFE"/>
<path d="M107.362 141.434L107.347 141.425L100.71 137.207H100.706C100.457 137.576 100.236 137.974 100.05 138.377C100.021 138.434 99.997 138.492 99.9682 138.554C99.9395 138.616 99.9108 138.683 99.8868 138.746C99.8629 138.808 99.8342 138.875 99.8102 138.942C99.8054 138.961 99.7958 138.981 99.7863 139C99.7767 139.024 99.7671 139.052 99.7575 139.076C99.7384 139.129 99.7192 139.182 99.7001 139.235C99.6713 139.311 99.6474 139.393 99.6235 139.469C99.6043 139.527 99.5899 139.584 99.5708 139.647C99.5229 139.81 99.4846 139.973 99.4463 140.14C99.4367 140.183 99.4271 140.222 99.4223 140.265C99.4128 140.313 99.4032 140.361 99.3936 140.413C99.3936 140.428 99.3888 140.447 99.384 140.461C99.3745 140.509 99.3649 140.552 99.3601 140.6C99.3553 140.629 99.3505 140.663 99.3457 140.691V140.725C99.3314 140.797 99.3218 140.869 99.3122 140.941V140.95C99.3026 141.022 99.293 141.094 99.2883 141.161C99.2883 141.18 99.2883 141.195 99.2883 141.214C99.2883 141.223 99.2883 141.228 99.2883 141.238C99.2883 141.247 99.2883 141.252 99.2883 141.262C99.2883 141.291 99.2787 141.319 99.2787 141.353V141.367C99.2787 141.367 99.2787 141.382 99.2787 141.391L107.367 141.439L107.362 141.434Z" fill="#476CFF"/>
<path d="M118.998 186.661L120.305 165.2C120.391 163.811 119.338 162.684 117.954 162.684H70.6624C69.2785 162.684 68.091 163.811 68.0096 165.2L66.7262 186.661C66.6448 188.051 67.6983 189.177 69.0774 189.177H116.34C117.724 189.177 118.912 188.051 118.998 186.661Z" fill="#9CBFF7"/>
<path d="M111.968 185.008H73.6217L74.6321 168.119L75.3504 168.162L74.3831 184.289H111.968V185.008Z" fill="#373844"/>
<path d="M82.4279 184.265H78.6929L79.0424 178.399H82.7823L82.4279 184.265Z" fill="#476CFF"/>
<path d="M88.452 184.265H84.7169L85.3682 173.453H89.108L88.452 184.265Z" fill="#FEFEFE"/>
<path d="M94.4807 184.265H90.7408L91.2436 175.931H94.9835L94.4807 184.265Z" fill="#476CFF"/>
<path d="M100.505 184.265H96.7648L97.6937 168.972H101.429L100.505 184.265Z" fill="#FEFEFE"/>
<path d="M106.529 184.265H102.794L103.948 165.239H107.683L106.529 184.265Z" fill="#FEFEFE"/>
<path d="M211.958 120.601H57.4556C54.4005 120.601 52.0685 118.114 52.2504 115.051L54.0174 85.3234C54.1994 82.2562 56.8283 79.7737 59.8834 79.7737H214.515C217.575 79.7737 219.897 82.261 219.706 85.3234L217.833 115.051C217.642 118.119 215.008 120.601 211.953 120.601H211.958Z" fill="#FEFEFE"/>
<path d="M211.958 120.961H57.4557C55.8803 120.961 54.4389 120.347 53.3855 119.231C52.3272 118.109 51.8005 116.614 51.8914 115.027L53.6584 85.2994C53.8499 82.0501 56.6465 79.4094 59.8835 79.4094H214.515C216.09 79.4094 217.537 80.0229 218.585 81.1395C219.639 82.261 220.166 83.7562 220.065 85.3426L218.193 115.071C217.987 118.315 215.19 120.961 211.953 120.961H211.958ZM59.8883 80.1283C57.02 80.1283 54.5491 82.4671 54.3767 85.3426L52.6097 115.071C52.5283 116.456 52.988 117.759 53.9074 118.737C54.822 119.705 56.0814 120.242 57.4557 120.242H211.958C214.822 120.242 217.302 117.903 217.484 115.027L219.356 85.2994C219.442 83.9144 218.988 82.6108 218.073 81.6332C217.163 80.6603 215.904 80.1283 214.529 80.1283H59.8883Z" fill="#373844"/>
<path d="M83.491 110.992L62.0192 110.978C61.3488 110.978 60.8508 110.225 60.9035 109.296L62.1054 89.4114C62.1629 88.4817 62.7519 87.7292 63.4223 87.7292L84.9036 87.7436C85.574 87.7436 86.0721 88.4961 86.0194 89.4258L84.8079 109.31C84.7504 110.24 84.1614 110.992 83.491 110.992Z" fill="#9CBFF7"/>
<path d="M72.8269 106.176L67.3009 101.268C65.1365 98.8718 65.8308 96.2311 67.3823 94.7886C68.8955 93.3795 71.4765 92.8763 73.6361 95.0234C76.0974 92.9099 78.6066 93.4658 79.9283 94.9132C81.2834 96.3988 81.5947 99.0635 79.0807 101.402L79.0616 101.421L72.8269 106.18V106.176Z" fill="#476CFF"/>
<path d="M71.4383 103.573L70.38 99.8496H64.8732L64.9019 99.3559H70.7631L71.4814 101.896L73.4207 96.0491L74.4455 99.3559H81.59L81.5612 99.8496H74.072L73.3968 97.6642L71.4383 103.573Z" fill="white"/>
<path d="M88.495 110.738C88.3705 112.818 86.5843 114.505 84.5109 114.505C82.4374 114.505 80.8572 112.818 80.9817 110.738C81.1062 108.658 82.8924 106.971 84.9658 106.971C87.0392 106.971 88.6195 108.658 88.495 110.738Z" fill="#597DCA"/>
<path d="M84.2571 112.554L82.5955 110.623L83.1414 110.153L84.2475 111.443L86.3545 108.903L86.9051 109.363L84.2571 112.554Z" fill="#FEFEFE"/>
<path d="M114.798 110.992L93.3266 110.978C92.6562 110.978 92.1582 110.225 92.2157 109.296L93.4272 89.4114C93.4847 88.4817 94.0736 87.7292 94.744 87.7292L116.225 87.7436C116.896 87.7436 117.394 88.4961 117.336 89.4258L116.115 109.31C116.058 110.24 115.469 110.992 114.798 110.992Z" fill="#9CBFF7"/>
<path d="M119.788 110.738C119.664 112.818 117.878 114.505 115.804 114.505C113.731 114.505 112.15 112.818 112.275 110.738C112.399 108.658 114.186 106.971 116.259 106.971C118.332 106.971 119.913 108.658 119.788 110.738Z" fill="#597DCA"/>
<path d="M115.555 112.555L113.893 110.623L114.439 110.154L115.545 111.443L117.652 108.903L118.203 109.363L115.555 112.555Z" fill="#FEFEFE"/>
<path d="M108.698 97.947L107.836 98.0237L107.644 94.9373C107.611 94.4197 107.414 93.9452 107.098 93.581C106.95 93.4132 106.778 93.2695 106.586 93.1497C106.538 93.1209 106.49 93.0921 106.438 93.0682L106.677 92.45C106.95 92.5027 107.199 92.6033 107.424 92.7423C107.616 92.8621 107.788 93.0059 107.936 93.1736C108.252 93.5379 108.454 94.0123 108.482 94.5299L108.693 97.947H108.698Z" fill="#476CFF"/>
<path d="M107.836 98.0236L105.145 98.268L104.465 98.1626L106.438 93.0681C106.49 93.0921 106.538 93.1208 106.586 93.1496C106.778 93.2694 106.95 93.4132 107.099 93.5809C107.415 93.9452 107.616 94.4196 107.644 94.9372L107.836 98.0236Z" fill="white"/>
<path d="M112.035 101.815L106.371 101.613L101.29 101.431L96.875 101.273C96.1136 101.273 95.424 100.894 95.041 100.262L94.4807 99.3465L94.0545 98.6468C94.0018 98.5605 93.9779 98.4695 93.9779 98.3736C93.9875 98.0046 94.4185 97.765 94.7297 97.9471L96.0082 98.6851C96.5637 99.0014 97.215 99.1212 97.871 99.0206L109.488 97.2138C110.005 97.1228 111.174 97.0077 112.122 98.1148C112.208 98.2155 112.294 98.3257 112.375 98.4503C112.658 98.5941 112.902 98.7378 113.108 98.8768C115.512 100.487 113.266 101.819 112.04 101.819L112.035 101.815Z" fill="white"/>
<path d="M106.639 101.403L101.96 104.997C100.442 106.219 98.7234 106.665 97.6938 106.099L98.1248 105.539C99.1208 105.615 100.395 105.131 101.549 104.206L105.94 100.832L106.495 100.856C106.778 100.866 106.878 101.225 106.644 101.403H106.639Z" fill="#476CFF"/>
<path d="M105.935 100.832L101.544 104.206C100.39 105.136 99.1159 105.615 98.1199 105.539L98.2683 105.347L101.764 100.804C101.826 100.717 101.932 100.669 102.032 100.674L105.858 100.823H105.935V100.832Z" fill="white"/>
<path d="M93.2213 99.9311L94.8829 99.1499C94.9117 99.1356 94.9404 99.1404 94.9643 99.1499L95.9891 99.7921C96.0561 99.8353 96.0274 99.9359 95.9508 99.9503L94.3706 100.223C93.8534 100.324 93.3889 100.209 93.2213 99.9263V99.9311Z" fill="white"/>
<path d="M108.061 99.5765C108.047 99.797 107.855 99.9839 107.63 99.9839H107.434C107.204 99.9839 107.041 99.7683 107.055 99.5765C107.07 99.3513 107.261 99.1692 107.482 99.1692H107.678C107.903 99.1692 108.071 99.3513 108.056 99.5765H108.061Z" fill="#44312F"/>
<path d="M106.629 99.5765C106.615 99.797 106.423 99.9839 106.203 99.9839H106.007C105.777 99.9839 105.614 99.7683 105.628 99.5765C105.643 99.3513 105.834 99.1692 106.055 99.1692H106.251C106.476 99.1692 106.643 99.3513 106.629 99.5765Z" fill="#44312F"/>
<path d="M105.197 99.5765C105.183 99.797 104.991 99.9839 104.771 99.9839H104.575C104.345 99.9839 104.182 99.7683 104.197 99.5765C104.211 99.3513 104.402 99.1692 104.623 99.1692H104.819C105.044 99.1692 105.212 99.3513 105.197 99.5765Z" fill="#44312F"/>
<path d="M103.766 99.5765C103.751 99.797 103.56 99.9839 103.339 99.9839H103.138C102.909 99.9839 102.75 99.7683 102.76 99.5765C102.774 99.3513 102.966 99.1692 103.186 99.1692H103.387C103.608 99.1692 103.78 99.3513 103.766 99.5765Z" fill="#44312F"/>
<path d="M102.334 99.5765C102.319 99.797 102.128 99.9839 101.908 99.9839H101.711C101.477 99.9839 101.319 99.7683 101.333 99.5765C101.347 99.3513 101.539 99.1692 101.759 99.1692H101.956C102.176 99.1692 102.348 99.3513 102.334 99.5765Z" fill="#44312F"/>
<path d="M113.103 98.8721C112.261 100.022 110.613 100.075 109.933 99.5718C109.483 99.2411 109.766 98.6517 110.47 98.6708C111.121 98.6852 111.849 98.2778 112.117 98.1101C112.203 98.2108 112.289 98.321 112.371 98.4456C112.653 98.5894 112.897 98.7331 113.103 98.8721Z" fill="#44312F"/>
<path d="M146.096 110.992L124.625 110.978C123.954 110.978 123.456 110.225 123.514 109.296L124.74 89.4114C124.797 88.4817 125.386 87.7292 126.056 87.7292L147.538 87.7436C148.208 87.7436 148.706 88.4961 148.649 89.4258L147.413 109.31C147.356 110.24 146.767 110.992 146.092 110.992H146.096Z" fill="#9CBFF7"/>
<path d="M151.1 110.738C150.971 112.818 149.185 114.505 147.112 114.505C145.038 114.505 143.458 112.818 143.587 110.738C143.717 108.658 145.503 106.971 147.576 106.971C149.65 106.971 151.23 108.658 151.1 110.738Z" fill="#597DCA"/>
<path d="M146.863 112.555L145.201 110.623L145.747 110.154L146.853 111.443L148.96 108.903L149.516 109.363L146.863 112.555Z" fill="#FEFEFE"/>
<path d="M126.233 101.402L126.392 98.7857L125.917 97.8368C125.793 97.5924 125.999 97.2952 126.286 97.2904L128.815 97.2713L131.319 94.9948C131.587 94.7504 131.937 94.6162 132.296 94.6162H136.878C137.166 94.6162 137.439 94.7025 137.664 94.8702L138.109 95.1961L141.7 97.8464L144.483 98.3256C145.043 98.4215 145.479 98.8241 145.603 99.356L145.862 101.402H126.233Z" fill="#476CFF"/>
<path d="M141.7 97.8513H131.707C131.448 97.7219 131.333 97.396 131.506 97.118L132.511 95.4886C132.621 95.3112 132.818 95.2058 133.024 95.2058H138.109L141.7 97.8561V97.8513Z" fill="#44312F"/>
<path d="M135.925 97.8512H135.327L135.49 95.2009H136.088L135.925 97.8512Z" fill="white"/>
<path d="M135.691 101.685H135.092L135.269 98.8191H135.868L135.691 101.685Z" fill="#44312F"/>
<path d="M145.948 102.241H125.946L125.788 101.537C125.731 101.287 125.932 101.038 126.19 101.038H145.895C146.163 101.038 146.331 101.302 146.23 101.556L145.953 102.241H145.948Z" fill="#44312F"/>
<path d="M132.018 102.011C131.946 103.171 130.955 104.11 129.796 104.11C128.637 104.11 127.761 103.171 127.833 102.011C127.905 100.851 128.896 99.9121 130.055 99.9121C131.214 99.9121 132.09 100.851 132.018 102.011Z" fill="#44312F"/>
<path d="M131.233 102.011C131.19 102.735 130.567 103.319 129.849 103.319C129.131 103.319 128.58 102.735 128.623 102.011C128.666 101.287 129.289 100.703 130.007 100.703C130.725 100.703 131.276 101.287 131.233 102.011Z" fill="white"/>
<path d="M144.119 101.973C144.047 103.132 143.051 104.072 141.897 104.072C140.743 104.072 139.862 103.132 139.934 101.973C140.005 100.813 141.001 99.8735 142.155 99.8735C143.309 99.8735 144.191 100.813 144.119 101.973Z" fill="#44312F"/>
<path d="M143.329 101.973C143.285 102.696 142.663 103.281 141.945 103.281C141.226 103.281 140.676 102.696 140.719 101.973C140.762 101.249 141.384 100.664 142.103 100.664C142.821 100.664 143.372 101.249 143.329 101.973Z" fill="white"/>
<path d="M177.432 110.992L155.961 110.978C155.29 110.978 154.792 110.225 154.85 109.296L156.085 89.4114C156.143 88.4817 156.732 87.7292 157.407 87.7292L178.888 87.7436C179.559 87.7436 180.057 88.4961 179.999 89.4258L178.754 109.31C178.697 110.24 178.103 110.992 177.432 110.992Z" fill="#9CBFF7"/>
<path d="M182.369 110.743C182.24 112.823 180.454 114.51 178.381 114.51C176.307 114.51 174.727 112.823 174.856 110.743C174.986 108.663 176.772 106.976 178.845 106.976C180.919 106.976 182.499 108.663 182.369 110.743Z" fill="#597DCA"/>
<path d="M178.132 112.554L176.47 110.623L177.016 110.153L178.122 111.443L180.234 108.903L180.785 109.363L178.132 112.554Z" fill="#FEFEFE"/>
<path d="M172.251 95.474H170.614L170.748 93.2886H172.385L172.251 95.474Z" fill="#476CFF"/>
<path d="M172.859 92.6945H170.35L170.389 92.0139H172.903L172.859 92.6945Z" fill="#476CFF"/>
<path d="M172.615 93.3606H170.513L170.551 92.7136H172.653L172.615 93.3606Z" fill="#9CBFF7"/>
<path d="M160.677 97.4724L160.768 95.9388L167.846 92.886L174.497 95.9388L174.401 97.4724H160.677Z" fill="#476CFF"/>
<path d="M161.295 105.049H165.375L165.298 106.334H161.214L161.295 105.049Z" fill="#44312F"/>
<path d="M172.927 105.049L172.845 106.334H168.765L168.842 105.049H172.927Z" fill="#44312F"/>
<path d="M167.769 94.1514L161.808 96.6674L161.29 105.05H172.922L173.439 96.6674L167.765 94.1514H167.769ZM164.767 101.58H162.411L162.602 98.4598H164.958L164.767 101.58ZM172.232 101.58H169.881L170.073 98.4598H172.424L172.232 101.58Z" fill="white"/>
<path d="M168.842 105.049L168.765 106.334H165.298L165.375 105.049H168.842Z" fill="#44312F"/>
<path d="M169.23 98.8145L168.842 105.05H165.375L165.763 98.8145H169.23Z" fill="#476CFF"/>
<path d="M166.553 102.279H165.892L165.906 102.03H166.567L166.553 102.279Z" fill="white"/>
<path d="M208.721 110.992L187.249 110.978C186.579 110.978 186.081 110.225 186.138 109.296L187.388 89.4114C187.445 88.4817 188.039 87.7292 188.71 87.7292L210.191 87.7436C210.861 87.7436 211.359 88.4961 211.302 89.4258L210.043 109.31C209.985 110.24 209.391 110.992 208.721 110.992Z" fill="#9CBFF7"/>
<path d="M213.687 110.743C213.557 112.823 211.766 114.51 209.693 114.51C207.619 114.51 206.039 112.823 206.173 110.743C206.303 108.663 208.094 106.976 210.167 106.976C212.24 106.976 213.821 108.663 213.687 110.743Z" fill="#597DCA"/>
<path d="M209.449 112.559L207.787 110.623L208.333 110.154L209.439 111.443L211.551 108.907L212.102 109.368L209.449 112.559Z" fill="#FEFEFE"/>
<path d="M204.272 102.313H201.528V102.792H204.272V102.313Z" fill="#D1E1FB"/>
<path d="M207.112 100.904L206.839 102.519C206.786 102.826 206.552 103.07 206.26 103.123C205.56 103.252 204.866 103.449 204.277 103.894L203.09 104.79C202.151 105.5 201.078 105.979 199.958 106.195C199.292 106.324 198.569 106.43 197.999 106.43C194.532 106.43 191.875 103.995 192.066 100.995C192.253 97.9947 195.212 95.5601 198.679 95.5601C200.216 95.5601 201.596 96.0393 202.635 96.8349C202.635 96.8349 202.707 96.8828 202.817 96.9739C203.152 97.2374 203.875 97.8125 204.272 98.2774C205.015 99.1449 205.474 99.9069 206.633 100.089C206.968 100.199 207.165 100.535 207.102 100.909L207.112 100.904Z" fill="#476CFF"/>
<path d="M206.298 96.0873L204.804 98.0331C204.804 98.0331 204.77 97.9899 204.756 97.9708C204.349 97.4963 203.621 96.9116 203.233 96.6049C203.113 96.5138 203.042 96.4611 203.042 96.4611C203.003 96.4324 202.97 96.4036 202.932 96.3749C203.549 95.9723 204.641 95.4403 206.044 95.4595C206.351 95.4595 206.499 95.8285 206.303 96.0825L206.298 96.0873Z" fill="#476CFF"/>
<path d="M195.878 106.703L195.662 107.384C195.543 107.757 195.203 108.021 194.834 108.021H193.666C193.01 108.021 192.56 107.374 192.746 106.693L193.168 105.217C193.9 105.898 194.829 106.415 195.878 106.708V106.703Z" fill="#476CFF"/>
<path d="M202.103 108.011H200.939C200.566 108.011 200.259 107.757 200.188 107.379L200.039 106.727C201.059 106.53 202.06 106.133 202.951 105.553L203.185 106.698C203.291 107.374 202.764 108.016 202.103 108.016V108.011Z" fill="#476CFF"/>
<path d="M204.632 100.511C204.617 100.77 204.402 100.976 204.157 100.976C203.913 100.976 203.727 100.77 203.741 100.511C203.755 100.252 203.971 100.046 204.215 100.046C204.459 100.046 204.646 100.252 204.632 100.511Z" fill="#FEFEFE"/>
<path d="M197.564 96.7632L197.521 96.3846C198.373 96.2361 199.264 96.2361 200.102 96.3846L200.011 96.7632C199.216 96.6242 198.368 96.6242 197.564 96.7632Z" fill="#FEFEFE"/>
<path d="M193.599 99.0971C193.536 99.0684 192.483 98.6083 191.913 97.6498C191.741 97.6594 191.559 97.6498 191.377 97.6258C190.405 97.4916 190.213 96.4565 190.247 95.9245H190.63C190.63 95.9724 190.568 97.1226 191.449 97.2424C191.544 97.2568 191.635 97.2616 191.722 97.2664C191.573 96.8926 191.506 96.4565 191.578 95.958C191.765 94.6641 192.55 94.4963 192.785 94.4723C193.331 94.4196 193.814 94.7839 193.929 95.3158C194.039 95.8382 193.824 96.4996 193.393 96.9645C193.105 97.2712 192.751 97.4773 192.349 97.5779C192.885 98.3495 193.752 98.7329 193.766 98.7377L193.594 99.0923L193.599 99.0971ZM192.871 94.8558C192.871 94.8558 192.828 94.8558 192.804 94.8558C192.378 94.8941 192.062 95.3206 191.966 95.9916C191.894 96.4708 191.985 96.883 192.153 97.2376C192.612 97.1562 192.928 96.9261 193.125 96.7152C193.527 96.2839 193.632 95.7567 193.56 95.4213C193.489 95.0906 193.201 94.8558 192.871 94.8558Z" fill="#476CFF"/>
<path d="M200.863 92.5121C200.801 93.509 199.943 94.3189 198.947 94.3189C197.951 94.3189 197.195 93.509 197.257 92.5121C197.319 91.5153 198.177 90.7053 199.173 90.7053C200.169 90.7053 200.925 91.5153 200.863 92.5121Z" fill="#8F8F8F"/>
<path d="M198.866 93.8539L198.885 93.5232C198.694 93.5232 198.502 93.4609 198.392 93.3794L198.483 93.159C198.598 93.2356 198.761 93.298 198.947 93.298C199.177 93.298 199.345 93.1638 199.354 92.9769C199.364 92.7947 199.244 92.6845 199.01 92.5887C198.684 92.4593 198.488 92.3107 198.502 92.0231C198.516 91.75 198.722 91.5439 199.029 91.496L199.048 91.1653H199.249L199.23 91.4816C199.426 91.4864 199.556 91.5391 199.647 91.5966L199.551 91.8123C199.484 91.7739 199.354 91.702 199.144 91.702C198.89 91.702 198.789 91.8554 198.78 91.9848C198.77 92.1573 198.885 92.2388 199.163 92.3586C199.493 92.4928 199.651 92.6653 199.632 92.9577C199.618 93.2165 199.422 93.4609 199.082 93.5184L199.062 93.8587H198.856L198.866 93.8539Z" fill="#476CFF"/>
<path d="M233.118 230.47C233.118 231.625 224.652 232.564 214.209 232.564C203.765 232.564 195.299 231.625 195.299 230.47C195.299 230.446 195.299 230.432 195.308 230.408V224.752H233.109V230.398C233.118 230.427 233.123 230.446 233.123 230.475L233.118 230.47Z" fill="#476CFF"/>
<path d="M233.118 224.805C233.118 225.96 224.652 226.899 214.209 226.899C203.765 226.899 195.299 225.965 195.299 224.805C195.299 223.645 203.765 222.711 214.209 222.711C224.652 222.711 233.118 223.645 233.118 224.805Z" fill="#8F8F8F"/>
<path d="M237.586 223.645C237.586 224.8 229.12 225.74 218.676 225.74C208.232 225.74 199.766 224.8 199.766 223.645C199.766 223.621 199.766 223.607 199.776 223.583V217.928H237.577V223.573C237.586 223.602 237.591 223.621 237.591 223.65L237.586 223.645Z" fill="#476CFF"/>
<path d="M237.586 217.98C237.586 219.135 229.12 220.075 218.676 220.075C208.232 220.075 199.766 219.14 199.766 217.98C199.766 216.821 208.232 215.886 218.676 215.886C229.12 215.886 237.586 216.821 237.586 217.98Z" fill="#8F8F8F"/>
<path d="M233.118 216.821C233.118 217.976 224.652 218.915 214.209 218.915C203.765 218.915 195.299 217.976 195.299 216.821C195.299 216.797 195.299 216.782 195.308 216.758V211.103H233.109V216.749C233.118 216.777 233.123 216.797 233.123 216.825L233.118 216.821Z" fill="#476CFF"/>
<path d="M214.209 213.245C224.652 213.245 233.118 212.308 233.118 211.151C233.118 209.994 224.652 209.057 214.209 209.057C203.765 209.057 195.299 209.994 195.299 211.151C195.299 212.308 203.765 213.245 214.209 213.245Z" fill="#8F8F8F"/>
<path d="M239.822 209.996C239.822 211.151 231.356 212.09 220.912 212.09C210.469 212.09 202.002 211.151 202.002 209.996C202.002 209.972 202.002 209.958 202.012 209.934V204.279H239.813V209.924C239.822 209.953 239.827 209.972 239.827 210.001L239.822 209.996Z" fill="#476CFF"/>
<path d="M220.912 206.421C231.356 206.421 239.822 205.483 239.822 204.327C239.822 203.17 231.356 202.232 220.912 202.232C210.469 202.232 202.002 203.17 202.002 204.327C202.002 205.483 210.469 206.421 220.912 206.421Z" fill="#8F8F8F"/>
<path d="M220.912 205.735C229.42 205.735 236.317 205.105 236.317 204.326C236.317 203.548 229.42 202.917 220.912 202.917C212.405 202.917 205.508 203.548 205.508 204.326C205.508 205.105 212.405 205.735 220.912 205.735Z" fill="#476CFF"/>
<path d="M240.972 195.163C230.762 197.818 224.638 208.256 227.291 218.479C229.944 228.697 240.373 234.831 250.587 232.171C260.796 229.516 266.925 219.078 264.268 208.856C261.615 198.638 251.186 192.508 240.972 195.163ZM260.657 209.79C261.692 213.768 261.112 217.909 259.029 221.455C256.951 224.997 253.618 227.522 249.644 228.558C241.441 230.69 233.027 225.749 230.896 217.535C229.862 213.557 230.437 209.416 232.52 205.87C234.526 202.453 237.701 199.98 241.494 198.882C241.632 198.844 241.766 198.806 241.905 198.772C249.974 196.668 258.239 201.422 260.542 209.383C260.581 209.517 260.619 209.651 260.657 209.785V209.79Z" fill="#8F8F8F"/>
<path d="M260.547 209.387C260.586 209.522 260.624 209.656 260.662 209.79C261.696 213.768 261.117 217.909 259.034 221.455C256.956 224.997 253.623 227.522 249.648 228.558C241.446 230.69 233.032 225.749 230.901 217.535C229.867 213.557 230.442 209.416 232.525 205.87C234.531 202.453 237.706 199.98 241.498 198.882C241.637 198.844 241.771 198.806 241.91 198.772C249.979 196.668 258.244 201.422 260.547 209.387Z" fill="#476CFF"/>
<path d="M248.111 225.241L247.307 222.462C245.703 222.898 243.907 222.879 242.748 222.466L242.877 220.43C244.06 220.803 245.64 220.914 247.182 220.468C249.136 219.902 250.132 218.393 249.677 216.821C249.241 215.306 247.896 214.678 245.621 214.444C242.494 214.156 240.397 213.389 239.703 210.993C239.042 208.707 240.162 206.502 242.576 205.357L241.771 202.577L243.476 202.084L244.247 204.753C245.913 204.331 247.168 204.446 248.102 204.681L247.939 206.699C247.264 206.536 245.961 206.258 244.204 206.766C242.087 207.379 241.652 208.88 241.972 209.977C242.384 211.41 243.61 211.832 246.292 212.129C249.462 212.464 251.305 213.485 252.014 215.934C252.641 218.11 251.717 220.588 249.021 221.872L249.85 224.738L248.116 225.241H248.111Z" fill="#8F8F8F"/>
<path d="M226.941 218.565C224.968 210.964 227.717 202.965 233.942 198.192L234.378 198.762C228.378 203.358 225.73 211.065 227.631 218.383L226.936 218.565H226.941Z" fill="#373844"/>
<path d="M234.727 229.698C230.882 227.048 228.119 223.094 226.941 218.565L227.636 218.383C228.771 222.744 231.433 226.554 235.134 229.104L234.727 229.693V229.698Z" fill="#373844"/>
<path d="M38.6989 249.396C59.3773 249.396 76.1405 247.138 76.1405 244.354C76.1405 241.57 59.3773 239.312 38.6989 239.312C18.0205 239.312 1.25732 241.57 1.25732 244.354C1.25732 247.138 18.0205 249.396 38.6989 249.396Z" fill="#D3E1EF"/>
<path d="M74.364 131.763C75.0488 131.72 75.7431 131.638 76.4518 131.509C76.9259 131.423 78.2571 131.183 78.6306 130.876C78.9754 130.593 80.6466 128.815 80.9914 129.204C81.3505 129.611 79.9474 130.593 80.2874 130.867C80.4981 131.034 83.2803 129.151 83.4958 129.774C83.6394 130.181 81.7958 131.092 81.9491 131.274C82.0879 131.442 84.1231 129.851 84.3673 130.44C84.6211 131.058 81.8868 131.926 82.0209 132.204C82.0879 132.343 84.8318 130.795 85.0137 131.284C85.2579 131.935 82.629 132.673 82.7152 132.98C82.7583 133.129 83.6394 132.707 84.1949 132.52C84.5061 132.415 84.6354 132.649 84.487 132.812C82.9116 134.48 78.9275 134.83 78.5875 135.022C77.3568 135.717 76.1549 136.311 74.9769 136.809L74.3736 131.772L74.364 131.763Z" fill="white"/>
<path d="M45.3647 84.2211C50.7805 85.0454 52.6959 88.0264 53.5866 90.0967C54.4773 92.1671 54.5874 94.4244 54.7023 96.6385C54.8173 98.8527 54.9609 101.115 55.9043 103.166C56.7183 104.934 58.107 106.482 58.672 108.323C59.419 110.733 58.5619 113.484 56.5316 115.21C51.6664 113.23 46.8348 111.654 41.9696 109.679C43.6408 102.03 45.3599 84.2163 45.3599 84.2163L45.3647 84.2211Z" fill="#373844"/>
<path d="M24.2232 116.024C22.8297 105.16 32.3637 104.239 34.4228 97.803C35.5481 94.2901 35.7492 83.7369 44.4452 84.1347C52.3319 84.4942 52.7054 93.739 52.7054 93.739L50.6607 90.5328L41.9456 90.5855C41.8259 93.4993 40.8155 95.3013 40.8155 95.3013L45.4652 101.45L39.6423 114.558L24.228 116.024H24.2232Z" fill="#373844"/>
<path d="M78.08 137.107C78.08 137.107 75.7049 132.952 75.7049 129.424L66.5204 130.958L60.8652 116.077L51.7478 129.755C51.7478 129.755 55.0806 141.286 62.9243 142.474C69.6234 143.49 78.08 137.112 78.08 137.112V137.107Z" fill="white"/>
<path d="M73.4504 132.327L71.7473 133.058L71.9248 133.472L73.6278 132.741L73.4504 132.327Z" fill="#5379F6"/>
<path d="M72.5038 131.64L71.2576 133.013L71.5907 133.316L72.8369 131.943L72.5038 131.64Z" fill="#5379F6"/>
<path d="M62.6896 120.97C62.6896 120.97 62.4646 119.422 61.617 117.333C59.8787 113.039 55.5116 106.449 45.0917 106.181C16.2982 105.433 19.1283 131.49 19.1283 131.49C19.1283 131.49 22.2025 133.886 30.7261 136.407L57.3695 128.619C60.9466 125.562 62.6848 120.975 62.6848 120.975L62.6896 120.97Z" fill="white"/>
<path d="M39.4747 107.546C40.5761 104.517 41.0454 101.124 40.9113 97.3813L47.0215 101.388L47.8116 108.73C47.8116 108.73 44.2968 112.372 39.4747 107.546Z" fill="white"/>
<path d="M33.7237 232.286L10.0109 232.224L26.7229 227.518L33.7237 232.286Z" fill="#373844"/>
<path d="M48.7357 235.617L49.4923 228.241H57.6903L55.9089 235.401C55.9089 235.401 54.9608 237.803 52.2026 237.716C49.5498 237.63 48.7357 235.617 48.7357 235.617Z" fill="white"/>
<path d="M14.1243 235.617L14.8809 228.241H23.0788L21.015 235.67C21.015 235.67 20.2536 237.39 17.5912 237.711C14.9623 238.033 14.1243 235.612 14.1243 235.612V235.617Z" fill="white"/>
<path d="M11.6055 243.371L13.7651 235.354C16.4227 237.668 21.5848 235.215 21.5848 235.215C21.5848 235.215 21.5369 236.494 24.2855 237.371C26.2057 237.98 31.8418 238.943 32.4787 243.367H11.6055V243.371Z" fill="#373844"/>
<path d="M23.438 237.055C22.6431 238.018 21.489 238.368 21.4316 238.387L21.3167 237.994C21.3167 237.994 22.3318 237.682 23.0549 236.873C23.1746 236.935 23.2991 236.997 23.438 237.059V237.055Z" fill="white"/>
<path d="M25.3774 237.683C24.5873 238.809 23.2752 239.207 23.213 239.226L23.0933 238.833C23.0933 238.833 24.2234 238.488 24.956 237.568C25.0853 237.601 25.229 237.64 25.3774 237.683Z" fill="white"/>
<path d="M46.3799 243.371L48.5395 235.354C51.1972 237.668 56.3592 235.215 56.3592 235.215C56.3592 235.215 56.3113 236.494 59.0599 237.371C60.9801 237.98 66.6163 238.943 67.2531 243.367H46.3799V243.371Z" fill="#373844"/>
<path d="M58.2123 237.055C57.4174 238.018 56.2633 238.368 56.2059 238.387L56.0909 237.994C56.0909 237.994 57.1061 237.682 57.8292 236.873C57.9489 236.935 58.0734 236.997 58.2123 237.059V237.055Z" fill="white"/>
<path d="M60.1517 237.683C59.3616 238.809 58.0495 239.207 57.9873 239.226L57.8676 238.833C57.8676 238.833 58.9976 238.488 59.7303 237.568C59.8596 237.601 60.0032 237.64 60.1517 237.683Z" fill="white"/>
<path d="M42.573 225.356C42.2904 227.901 42.3431 227.92 41.9457 230.432C41.9457 230.432 44.3064 233.432 48.6592 232.55C52.8348 231.702 56.5076 228.227 63.4366 231.802C63.4366 231.802 63.6665 230.825 63.9299 227.086C63.9394 226.933 63.9538 226.775 63.9682 226.612C64.9833 211.904 66.4199 174.172 57.7143 141.588L38.8571 144.966C38.8571 144.966 46.9066 185.746 42.6256 224.805C42.6065 224.987 42.5873 225.165 42.5682 225.351L42.573 225.356Z" fill="#476CFF"/>
<path d="M9.75708 232.234C9.75708 232.234 14.6031 233.221 23.0405 230.916C27.7333 229.636 31.3486 230.892 33.695 232.286C33.695 232.286 50.7087 180.728 49.0135 143.083L31.6455 143.241C27.58 152.107 27.3885 160.101 27.1108 163.264C24.9224 188.363 15.2352 216.131 11.4953 227.235C11.4474 227.384 11.3948 227.532 11.3469 227.676C10.3604 230.58 9.75708 232.234 9.75708 232.234Z" fill="#476CFF"/>
<path d="M43.4923 193.922L43.0757 193.845C45.8291 180.445 47.4572 168.22 47.9265 157.499V157.408L51.4173 154.815L51.6759 155.131L48.3431 157.609C47.869 168.33 46.2361 180.546 43.4875 193.927L43.4923 193.922Z" fill="#373844"/>
<path d="M42.573 225.126C43.4637 225.893 45.834 227.609 49.028 227.609C49.2099 227.609 49.3919 227.609 49.5786 227.594C50.7853 227.518 52.0399 227.206 53.3712 226.875C56.4023 226.123 59.783 225.279 63.9395 226.856C63.949 226.703 63.9634 226.545 63.9778 226.382C59.7591 224.819 56.3305 225.672 53.2658 226.434C51.9585 226.76 50.7183 227.067 49.5547 227.139C45.9202 227.364 43.229 225.112 42.6353 224.575C42.6161 224.757 42.5969 224.934 42.5778 225.121L42.573 225.126Z" fill="#373844"/>
<path d="M11.3947 227.671C11.8831 227.695 12.4577 227.709 13.0994 227.709C15.872 227.709 19.9422 227.427 24.5009 226.185C28.2264 225.169 31.7508 225.62 34.9782 227.532L35.2081 227.139C31.8705 225.169 28.2264 224.7 24.3764 225.749C18.9079 227.244 14.1577 227.34 11.5383 227.235C11.4905 227.383 11.4378 227.532 11.3899 227.676L11.3947 227.671Z" fill="#373844"/>
<path d="M64.6673 133.349C65.0934 132.065 66.621 131.164 66.6354 131.154L66.4103 130.766C66.3433 130.804 64.7247 131.763 64.2411 133.206L64.6673 133.349Z" fill="#373844"/>
<path d="M28.3509 126.923L23.4139 153.123C23.4139 153.123 31.8801 154.748 44.6894 151.494C54.3335 149.04 61.6121 145.077 61.6121 145.077L55.4205 119.892L48.1994 107.125C48.1994 107.125 44.4644 111.285 39.6375 106.43L27.5417 113.13L28.3461 126.923H28.3509Z" fill="white"/>
<path d="M28.3757 109.212L27.9363 109.31L28.4208 111.49L28.8602 111.392L28.3757 109.212Z" fill="white"/>
<path d="M27.2958 109.776L26.9821 110.099L28.5821 111.656L28.8958 111.333L27.2958 109.776Z" fill="white"/>
<path d="M63.0458 119.028L60.8483 119.416L60.9264 119.859L63.124 119.471L63.0458 119.028Z" fill="white"/>
<path d="M62.1514 117.949L60.3129 119.215L60.5679 119.586L62.4065 118.32L62.1514 117.949Z" fill="white"/>
<path d="M28.592 126.387L23.1954 153.077L23.6366 153.167L29.0332 126.476L28.592 126.387Z" fill="#373844"/>
<path d="M51.8101 90.9258C52.8588 94.4627 52.6912 105.126 47.9601 104.925C43.0183 104.714 41.0167 98.6514 41.0167 98.6514C41.0167 98.6514 38.5554 99.4086 38.0957 97.1944C37.6791 95.1959 40.0494 94.4196 40.8156 95.2918C40.8156 95.2918 40.0494 90.3938 42.8795 88.7788C45.7095 87.1589 50.6752 87.0918 51.8149 90.921L51.8101 90.9258Z" fill="white"/>
<path d="M40.8155 95.2918C40.8155 95.2918 46.9353 94.894 49.2242 90.6047C49.2242 90.6047 50.5889 93.8684 52.5091 94.8652C52.5091 94.8652 54.2953 88.2372 48.4628 86.6557C42.6256 85.0789 39.355 90.6239 39.6854 92.7613C39.8961 94.1272 40.8203 95.2918 40.8203 95.2918H40.8155Z" fill="#373844"/>
<path d="M21.0472 140.106L18.8706 140.598L18.9698 141.037L21.1464 140.545L21.0472 140.106Z" fill="white"/>
<path d="M21.4255 140.357L19.6495 141.709L19.9221 142.068L21.6981 140.715L21.4255 140.357Z" fill="white"/>
<path d="M39.422 153.9C39.2448 154.412 37.6982 153.67 37.6263 154.101C37.5832 154.365 40.5856 155.874 40.1499 156.368C39.8674 156.689 38.1722 155.529 38.086 155.75C38.0094 155.956 40.3941 156.952 39.9967 157.451C39.58 157.973 37.4875 156.013 37.3103 156.262C37.2241 156.387 39.9105 158.026 39.5753 158.424C39.1251 158.956 37.2001 157.024 36.9751 157.25C36.8649 157.36 37.6694 157.921 38.1004 158.318C38.3398 158.539 38.2057 158.769 37.9903 158.711C35.7684 158.151 33.513 154.844 33.1778 154.642C11.5096 141.492 22.5185 119.283 22.5185 119.283L34.9208 122.58C34.9208 122.58 25.88 139.843 35.189 151.067C35.4954 151.441 36.3526 152.481 36.8027 152.658C37.2193 152.821 39.5848 153.411 39.4172 153.9H39.422Z" fill="white"/>
<path d="M29.4045 153.018C29.4045 153.018 31.7221 150.396 35.1316 149.16C35.1316 149.16 29.0884 139.076 34.2936 125.667L36.6735 118.694L21.7332 117.663C21.7332 117.663 11.9024 138.971 29.4045 153.013V153.018Z" fill="white"/>
<path d="M29.5816 153.176L29.2224 152.86C29.3182 152.749 31.6167 150.176 35.0453 148.935L35.2081 149.385C31.8992 150.583 29.6007 153.152 29.5816 153.176Z" fill="#373844"/>
<path d="M29.6781 121.494L29.511 121.912L31.2317 122.6L31.3988 122.182L29.6781 121.494Z" fill="#5379F6"/>
<path d="M30.599 120.77L30.2731 121.08L31.5513 122.423L31.8772 122.113L30.599 120.77Z" fill="#5379F6"/>
<path d="M33.154 111.035L31.4509 111.766L31.6284 112.18L33.3314 111.449L33.154 111.035Z" fill="#5379F6"/>
<path d="M32.2139 110.335L30.9679 111.708L31.3011 112.011L32.5471 110.638L32.2139 110.335Z" fill="#5379F6"/>
<path d="M25.5109 118.166L23.8077 118.897L23.9851 119.311L25.6883 118.58L25.5109 118.166Z" fill="#5379F6"/>
<path d="M24.5822 117.459L23.3362 118.832L23.6694 119.135L24.9154 117.762L24.5822 117.459Z" fill="#5379F6"/>
<path d="M38.8577 150.645L37.1547 151.376L37.3321 151.79L39.0352 151.059L38.8577 150.645Z" fill="#5379F6"/>
<path d="M37.9251 149.943L36.6791 151.316L37.0123 151.619L38.2583 150.246L37.9251 149.943Z" fill="#5379F6"/>
<path d="M52.392 144.535L50.689 145.266L50.8664 145.68L52.5695 144.949L52.392 144.535Z" fill="#5379F6"/>
<path d="M51.453 143.835L50.207 145.208L50.5402 145.511L51.7862 144.138L51.453 143.835Z" fill="#5379F6"/>
<path d="M38.648 142.342L38.4808 142.761L40.2015 143.45L40.3686 143.031L38.648 142.342Z" fill="#5379F6"/>
<path d="M39.5771 141.61L39.251 141.921L40.5285 143.264L40.8546 142.954L39.5771 141.61Z" fill="#5379F6"/>
<path d="M28.2038 144.863L28.0366 145.282L29.7573 145.971L29.9244 145.552L28.2038 144.863Z" fill="#5379F6"/>
<path d="M29.1251 144.149L28.7991 144.459L30.0766 145.803L30.4027 145.492L29.1251 144.149Z" fill="#5379F6"/>
<path d="M50.972 134.767L49.2689 135.498L49.4464 135.912L51.1494 135.181L50.972 134.767Z" fill="#5379F6"/>
<path d="M50.0341 134.064L48.7881 135.437L49.1213 135.74L50.3673 134.367L50.0341 134.064Z" fill="#5379F6"/>
<path d="M32.1339 134.212L30.434 133.531L30.6063 133.115L32.1961 133.752L32.3206 133.8L32.3015 133.862L32.1339 134.212Z" fill="#5379F6"/>
<path d="M32.2872 133.196C32.2537 133.383 32.225 133.57 32.1962 133.752L31.1954 132.702L31.5258 132.391L32.2872 133.191V133.196Z" fill="#5379F6"/>
<path d="M32.3201 133.8L32.301 133.861L32.1963 133.752L32.3201 133.8Z" fill="#5379F6"/>
<path d="M33.1155 147.463C33.0197 147.262 30.7643 142.489 31.8992 134.178C31.9183 134.025 31.9375 133.872 31.9614 133.718C31.9854 133.555 32.0141 133.388 32.0428 133.22L32.0524 133.153C32.4547 130.689 33.1346 128.145 34.0684 125.585L34.5185 125.748C33.5943 128.279 32.9239 130.8 32.5217 133.23L32.5121 133.297C32.4834 133.46 32.4594 133.623 32.4355 133.785C32.4116 133.934 32.3924 134.087 32.3733 134.236C31.2575 142.412 33.5225 147.205 33.5464 147.252L33.1155 147.463Z" fill="#373844"/>
<path d="M60.3392 131.819L58.6361 132.551L58.8136 132.965L60.5166 132.233L60.3392 131.819Z" fill="#5379F6"/>
<path d="M59.3927 131.136L58.1465 132.509L58.4796 132.812L59.7259 131.439L59.3927 131.136Z" fill="#5379F6"/>
<path d="M66.6514 138.03L66.4839 138.448L68.2039 139.139L68.3714 138.72L66.6514 138.03Z" fill="#5379F6"/>
<path d="M67.5771 137.325L67.2512 137.635L68.5294 138.978L68.8553 138.668L67.5771 137.325Z" fill="#5379F6"/>
<path d="M58.403 121.322L58.2356 121.74L59.9559 122.43L60.1233 122.012L58.403 121.322Z" fill="#5379F6"/>
<path d="M59.3211 120.619L58.9954 120.93L60.2745 122.272L60.6002 121.961L59.3211 120.619Z" fill="#5379F6"/>
<path d="M39.8342 118.696L38.1311 119.427L38.3086 119.841L40.0116 119.11L39.8342 118.696Z" fill="#5379F6"/>
<path d="M37.6503 119.374L37.9807 119.676L39.2305 118.306L38.8953 118.004L37.6503 119.374Z" fill="#5379F6"/>
<path d="M51.779 125.127L50.0759 125.859L50.2534 126.273L51.9564 125.541L51.779 125.127Z" fill="#5379F6"/>
<path d="M50.8372 124.441L49.5909 125.814L49.9241 126.117L51.1703 124.744L50.8372 124.441Z" fill="#5379F6"/>
<path d="M48.106 116.52L47.9385 116.938L49.6585 117.628L49.826 117.21L48.106 116.52Z" fill="#5379F6"/>
<path d="M49.0258 115.814L48.7001 116.125L49.9792 117.467L50.3049 117.156L49.0258 115.814Z" fill="#5379F6"/>
<path d="M54.8594 110.627L53.1564 111.359L53.3338 111.773L55.0369 111.041L54.8594 110.627Z" fill="#5379F6"/>
<path d="M53.918 109.946L52.6718 111.319L53.0049 111.622L54.2511 110.249L53.918 109.946Z" fill="#5379F6"/>
<path d="M41.5 111.807L41.3324 112.225L43.0523 112.915L43.2199 112.497L41.5 111.807Z" fill="#5379F6"/>
<path d="M42.4243 111.084L42.0986 111.395L43.378 112.736L43.7037 112.425L42.4243 111.084Z" fill="#5379F6"/>
<path d="M39.8374 129.658L39.6699 130.076L41.39 130.767L41.5575 130.349L39.8374 129.658Z" fill="#5379F6"/>
<path d="M40.7547 128.952L40.4288 129.263L41.707 130.606L42.033 130.295L40.7547 128.952Z" fill="#5379F6"/>
<path d="M25.0854 139.23L23.3823 139.961L23.5598 140.375L25.2628 139.644L25.0854 139.23Z" fill="#5379F6"/>
<path d="M24.1409 138.542L22.8947 139.914L23.2278 140.217L24.474 138.845L24.1409 138.542Z" fill="#5379F6"/>
<path d="M21.4021 130.634L21.2345 131.052L22.9544 131.743L23.122 131.324L21.4021 130.634Z" fill="#5379F6"/>
<path d="M22.3239 129.915L21.9982 130.226L23.2773 131.568L23.603 131.257L22.3239 129.915Z" fill="#5379F6"/>
<path d="M28.1677 124.735L26.4646 125.466L26.6421 125.88L28.3451 125.149L28.1677 124.735Z" fill="#5379F6"/>
<path d="M27.218 124.043L25.9718 125.416L26.3049 125.719L27.5512 124.346L27.218 124.043Z" fill="#5379F6"/>
<path d="M57.656 124.805L57.2163 124.901L61.6275 145.065L62.0672 144.969L57.656 124.805Z" fill="#373844"/>
<path d="M63.7143 124.881C63.7048 124.852 62.7662 121.828 61.4685 118.344C58.763 111.093 54.0798 107.163 47.5482 106.664L47.5865 106.185C54.3192 106.698 59.1461 110.733 61.9234 118.176C63.2259 121.67 64.1692 124.708 64.1788 124.737L63.7191 124.881H63.7143Z" fill="#373844"/>
<path d="M23.5625 108.184L23.1028 108.054C23.1507 107.882 24.3334 103.842 29.5769 101.325C33.2689 99.5522 34.1404 95.7469 34.7725 92.9721C34.9401 92.2436 35.0837 91.611 35.2609 91.0838C36.8172 86.4446 40.2218 84.2017 45.1109 84.5899L45.0726 85.0692C40.4277 84.7002 37.1955 86.8328 35.7158 91.242C35.5482 91.7452 35.4045 92.3634 35.2417 93.0823C34.5857 95.9578 33.6855 99.8925 29.7876 101.762C24.75 104.177 23.5768 108.15 23.5673 108.188L23.5625 108.184Z" fill="#373844"/>
<path d="M60.6593 109.027L60.1804 109.008C60.3002 106.262 59.0599 104.815 57.9681 103.535C57.5994 103.104 57.2499 102.696 56.9625 102.255C55.2243 99.6196 54.8556 97.9182 54.3911 95.7664C54.281 95.2584 54.166 94.7216 54.0224 94.1465C52.8971 89.5361 49.9234 87.5136 49.8947 87.4945L50.158 87.0967C50.2873 87.1829 53.3137 89.2294 54.4869 94.0363C54.6305 94.6209 54.7454 95.1577 54.8556 95.6705C55.3105 97.7744 55.6696 99.4326 57.36 101.997C57.6329 102.414 57.9729 102.807 58.3321 103.228C59.4813 104.575 60.7886 106.099 60.6593 109.032V109.027Z" fill="#373844"/>
<path d="M43.1523 95.632C41.7732 95.632 40.7484 95.2199 40.6814 95.1959L40.8634 94.7502C40.8634 94.7502 43.1858 95.6752 45.4556 94.6879C47.0118 94.0122 48.2042 92.6127 48.9991 90.5232L49.4444 90.6957C48.6016 92.9099 47.3231 94.4051 45.6423 95.1336C44.7708 95.5122 43.9089 95.632 43.1523 95.632Z" fill="#373844"/>
<g opacity="0.77">
<path d="M240.646 126.947C242.322 127.613 243.543 128.758 244.443 130.254C245.051 128.619 246.038 127.258 247.565 126.295C245.889 125.629 244.664 124.483 243.763 122.988C243.155 124.622 242.174 125.983 240.646 126.947Z" fill="#FEFEFE"/>
<path d="M247.034 135.947C248.011 136.335 248.719 137.001 249.241 137.869C249.596 136.92 250.17 136.129 251.056 135.568C250.079 135.18 249.371 134.514 248.849 133.646C248.494 134.595 247.925 135.386 247.039 135.947H247.034Z" fill="#FEFEFE"/>
</g>
<g opacity="0.77">
<path d="M249.136 202.256C250.812 202.922 252.033 204.068 252.933 205.563C253.542 203.929 254.528 202.568 256.056 201.604C254.38 200.938 253.154 199.793 252.253 198.298C251.645 199.932 250.664 201.293 249.136 202.256Z" fill="#FEFEFE"/>
<path d="M234.301 219.102C235.278 219.49 235.987 220.156 236.509 221.024C236.863 220.075 237.438 219.284 238.324 218.723C237.347 218.335 236.638 217.669 236.116 216.802C235.762 217.75 235.192 218.541 234.306 219.102H234.301Z" fill="#FEFEFE"/>
</g>
<path d="M276.67 137.356C277.456 138.056 277.891 138.923 278.083 139.92C278.739 139.148 279.553 138.602 280.578 138.382C279.792 137.682 279.357 136.814 279.165 135.818C278.509 136.589 277.7 137.136 276.675 137.356H276.67Z" fill="#FEFEFE"/>
<path d="M194.508 131.423H131.577L131.788 128.087H194.748L194.508 131.423Z" fill="white"/>
<path d="M165.71 138.602H131.123L131.333 135.266H165.935L165.71 138.602Z" fill="#9CBFF7"/>
<path d="M151.033 190.103H127.871L128.082 186.772H151.258L151.033 190.103Z" fill="white"/>
<path d="M161.726 197.287H127.416L127.627 193.951H161.951L161.726 197.287Z" fill="#9CBFF7"/>
<path d="M201.155 180.949H128.326L130.682 143.648H203.884L201.155 180.949Z" fill="white"/>
<path d="M189.921 190.103H156.301L156.526 186.772H190.16L189.921 190.103Z" fill="#9CBFF7"/>
</g>
<defs>
<clipPath id="clip0_475_6228">
<rect width="316.748" height="248.483" fill="white" transform="translate(0.0267334 0.912598)"/>
</clipPath>
</defs>
</svg>
