<svg width="297" height="297" viewBox="0 0 297 297" fill="none" xmlns="http://www.w3.org/2000/svg">
<path d="M50.6396 203.457C52.0093 203.439 53.3907 203.381 54.759 203.428C54.8603 204.789 54.8747 206.221 55.1076 207.562C53.5672 207.246 52.1468 207.217 50.5861 207.382C50.5933 206.073 50.6106 204.764 50.6396 203.455V203.457Z" fill="#5479F7"/>
<path d="M65.9601 218.763C67.3487 218.823 68.7387 218.848 70.1288 218.836L70.1128 219.014C70.0087 220.253 70.2965 221.521 69.906 222.714C69.5704 222.933 69.3882 222.894 68.9933 222.905C67.9374 222.931 66.8569 222.914 65.8112 223.063C66.0701 221.643 65.9963 220.196 65.9601 218.761V218.763Z" fill="#5479F7"/>
<path d="M65.0633 225.754C66.2378 226.434 67.3385 227.214 68.4827 227.94C67.8795 229.162 67.1693 230.318 66.3506 231.407C65.085 230.772 63.8266 230.094 62.5378 229.509C63.5865 228.283 64.437 227.251 65.0633 225.753V225.754Z" fill="#5479F7"/>
<path d="M62.8243 212.071C64.2332 211.514 65.6362 210.924 67.0985 210.522C67.6062 211.644 68.1761 212.703 68.7981 213.766C67.7032 214.49 66.2553 215.191 65.292 216.055C65.0171 214.705 63.656 213.124 62.8243 212.071Z" fill="#5479F7"/>
<path d="M44.4314 231.455C45.6204 232.23 46.7703 233.023 48.062 233.617C47.265 234.87 46.5302 236.134 45.82 237.437C44.6224 236.749 43.5028 235.964 42.4021 235.13C42.917 233.862 43.7386 232.637 44.43 231.454L44.4314 231.455Z" fill="#5479F7"/>
<path d="M36.5021 213.83C37.1226 212.492 37.7966 211.01 38.8641 209.965C40.0053 210.678 41.054 211.584 42.162 212.358C41.4084 213.581 40.688 214.776 40.1182 216.101C38.9798 215.223 37.8154 214.425 36.5021 213.832V213.83Z" fill="#5479F7"/>
<path d="M45.778 204.378C46.6285 205.522 47.3402 206.736 48.0388 207.975C46.5548 208.606 45.2183 209.328 43.9078 210.269C43.3842 208.972 42.8374 207.684 42.2646 206.407C43.4203 205.696 44.5717 205.004 45.7766 204.378H45.778Z" fill="#5479F7"/>
<path d="M214.601 153.525L226.083 153.575C226.134 154.11 226.122 154.603 226.077 155.138C222.249 155.179 218.421 155.158 214.594 155.077L214.601 153.525Z" fill="#5479F7"/>
<path d="M39.3835 218.697C39.2634 220.136 39.288 221.573 39.4587 223.008C37.924 223.041 36.3763 222.937 34.8417 222.882C34.995 221.564 34.9487 220.206 34.9632 218.88C36.4342 218.768 37.9081 218.707 39.3849 218.697H39.3835Z" fill="#5479F7"/>
<path d="M263.573 102.814C263.732 102.808 263.89 102.799 264.049 102.801C264.543 102.808 264.753 102.924 265.102 103.267C265.346 103.962 265.183 104.797 265.128 105.523C265.452 105.512 265.779 105.503 266.103 105.519C266.605 105.543 267.131 105.637 267.459 106.053C267.608 106.241 267.536 106.314 267.499 106.528C266.832 107.226 266.048 107.163 265.151 107.233C265.035 107.959 264.915 108.684 264.791 109.41C264.454 109.575 264.245 109.664 263.864 109.689C263.207 109.216 263.58 108.146 263.409 107.424C262.738 107.022 261.827 107.208 261.097 106.857C261.059 106.724 260.992 106.512 260.984 106.379C260.961 106 261.069 105.876 261.29 105.606C261.888 105.312 262.647 105.38 263.304 105.363C263.334 104.49 263.36 103.664 263.573 102.814Z" fill="#E6E7E7"/>
<path d="M40.1414 225.613C41.0063 226.835 41.6804 228.186 42.5236 229.427C41.284 230.228 39.9258 230.915 38.6096 231.578C37.9544 230.387 37.3078 229.193 36.6699 227.992C37.7215 227.058 39.0377 226.479 40.1428 225.613H40.1414Z" fill="#5479F7"/>
<path d="M57.0154 233.658C58.281 233.076 59.4758 232.372 60.6503 231.627C61.5022 232.761 62.4294 233.875 63.0542 235.155C61.7741 235.96 60.4984 236.775 59.2284 237.598C58.5443 236.241 57.8109 234.949 57.0154 233.656V233.658Z" fill="#5479F7"/>
<path d="M59.5119 204.805C60.7891 205.364 61.9665 206.072 63.2162 206.679C62.9009 208.107 62.0432 209.558 61.8768 210.964C60.4391 210.188 59.1329 209.105 57.6663 208.321L59.5119 204.805Z" fill="#5479F7"/>
<path d="M214.591 136.456H221.618C223.035 136.452 224.529 136.352 225.934 136.533C226.09 136.958 226.057 137.354 226.044 137.798L225.908 137.991C222.224 138.553 218.317 137.658 214.633 138.183C214.63 139.401 214.692 140.658 214.597 141.87C214.439 140.084 214.546 138.247 214.592 136.456H214.591Z" fill="#97BEFD"/>
<path d="M50.4833 234.242C51.9269 234.385 53.3372 234.426 54.785 234.32L54.8154 238.882L50.3835 238.839C50.4327 237.307 50.4515 235.774 50.4833 234.241V234.242Z" fill="#5479F7"/>
<path d="M48.4323 43.1875C48.8069 43.1918 49.0311 43.2237 49.3725 43.3813C49.818 43.918 49.6632 44.8639 49.6487 45.5322C50.1015 45.5481 50.5759 45.5495 51.0228 45.6233C51.4683 45.6971 51.8979 45.9082 52.1453 46.3002C52.2769 46.51 52.2046 46.6083 52.1655 46.8368C51.4929 47.5875 50.7538 47.5138 49.8194 47.5847C49.7659 48.4655 49.7514 49.2784 49.3551 50.0812C48.7924 50.0552 48.548 49.9944 48.1227 49.6299C47.8204 49.0079 47.8696 48.263 47.8421 47.5818C47.4299 47.576 47.0119 47.5731 46.6083 47.4776C46.1064 47.359 45.7376 47.1305 45.4714 46.6835C45.4946 46.4434 45.4526 46.3595 45.6363 46.1773C46.2019 45.6204 47.1117 45.7535 47.845 45.752C47.8552 44.7685 47.7944 44.0033 48.4308 43.1889L48.4323 43.1875Z" fill="#E6E7E7"/>
<path d="M57.3843 137.191C64.2071 137.194 71.1398 137.405 77.9482 137.049L77.9352 138.933C74.5389 138.895 71.1427 138.885 67.7465 138.904C64.385 138.551 60.9194 138.999 57.539 138.755C57.3481 138.302 57.4002 137.68 57.3843 137.191Z" fill="#97BEFD"/>
<path d="M35.3913 194.329C35.1179 195.24 34.8243 195.974 34.0621 196.583C33.0727 197.374 32.1831 197.657 30.9161 197.482C30.0034 197.357 29.1775 196.943 28.6235 196.192C27.9827 195.326 27.7513 194.118 27.9422 193.065C27.9668 192.928 27.9972 192.792 28.0362 192.656C28.0738 192.521 28.1187 192.388 28.1707 192.258C28.2228 192.128 28.2807 192 28.3458 191.876C28.4108 191.752 28.4817 191.632 28.5584 191.514C28.635 191.397 28.7175 191.284 28.8057 191.176C28.894 191.067 28.988 190.963 29.0863 190.865C29.1847 190.767 29.2888 190.673 29.3973 190.583C29.5058 190.495 29.6186 190.412 29.7358 190.334C30.485 189.847 31.4079 189.609 32.2902 189.809C33.7858 190.148 34.7563 191.337 35.4926 192.586C35.4665 193.051 35.3783 193.594 35.5374 194.034C37.83 194.624 41.4851 193.957 44.0077 194.198C41.2855 194.601 38.1583 194.326 35.3928 194.325L35.3913 194.329Z" fill="#BFD8FE"/>
<path d="M84.8201 82.2847C85.3553 82.2933 85.8963 82.2847 86.4242 82.3787C86.6889 85.4885 86.5414 88.7112 86.5529 91.8369C86.5804 99.1284 86.4459 106.439 86.5746 113.727C85.9527 113.732 85.3307 113.711 84.7087 113.701C84.9734 110.49 84.8013 107.137 84.8056 103.912C84.8158 96.7027 84.6957 89.4922 84.8172 82.2861L84.8201 82.2847Z" fill="#97BEFD"/>
<path d="M28.2502 77.3843C28.5814 77.4074 28.8837 77.4595 29.2077 77.5318C29.3133 77.6316 29.4608 77.6996 29.5259 77.8298C29.7429 78.2608 29.6518 83.7008 29.7371 84.8508C31.7997 84.8753 34.8589 84.4949 36.8015 84.9404C37.2629 85.046 37.4813 85.1863 37.7344 85.5812C37.7142 85.9254 37.5652 86.1873 37.3164 86.4245C36.6785 87.0349 30.9073 86.7195 29.6908 86.7181C29.604 88.5218 30.106 92.7425 29.2858 94.0717C29.1759 94.1007 29.0443 94.1441 28.93 94.1383C28.7145 94.1267 28.47 94.0602 28.3167 93.9054C27.514 93.0925 27.8307 88.2209 27.8423 86.8685C25.6857 86.8078 23.1645 87.0247 21.0643 86.6197C20.5277 86.5156 20.2022 86.3695 19.9028 85.9081C19.9838 85.4973 20.0417 85.4308 20.318 85.1097C21.9799 84.4978 25.9533 84.8739 27.8683 84.8739C27.9739 83.536 27.6297 78.1263 28.2487 77.3872L28.2502 77.3843Z" fill="#E6E7E7"/>
<path d="M189.432 212.182L190.925 212.17C190.926 214.139 190.551 220.043 191.548 221.485C192.087 222.265 193.036 222.738 193.939 222.944C196.197 223.462 198.985 223.171 201.304 223.171L213.782 223.176C215.274 223.176 217.077 222.915 218.524 223.231C219.074 223.351 219.486 223.517 219.807 223.997L219.722 224.256C219.221 224.609 218.658 224.66 218.06 224.669C213.074 224.748 208.06 224.627 203.072 224.629C200.403 224.629 196.224 224.942 193.696 224.463C192.533 224.243 191.379 223.715 190.547 222.856C190.154 222.45 189.869 221.99 189.708 221.446C189.05 219.197 189.423 214.691 189.429 212.182H189.432Z" fill="#97BEFD"/>
<path d="M44.4676 155.716C44.4806 155.276 44.4994 154.836 44.4792 154.397C44.4604 153.981 44.4011 153.711 44.6369 153.341C45.0375 153.035 45.6016 153.116 46.0847 153.121C46.0616 155.068 45.8215 157.434 47.3185 158.937C47.9087 159.528 48.9125 160.195 49.7514 160.344C52.1785 160.775 56.9214 160.472 59.658 160.467L77.9048 160.542L77.9265 161.117L77.9004 162.053L60.1166 162.08C56.9677 162.093 51.7692 162.46 48.914 161.853C48.0635 161.672 47.1927 161.102 46.5461 160.534C45.0838 159.251 44.5616 157.595 44.4691 155.716H44.4676Z" fill="#97BEFD"/>
<path d="M77.8817 192.578V194.23C66.6024 194.027 55.2884 194.192 44.0048 194.202C41.4822 193.962 37.8271 194.629 35.5345 194.039C35.3754 193.599 35.4636 193.055 35.4897 192.591C49.6199 192.464 63.7515 192.459 77.8817 192.578Z" fill="#97BEFD"/>
<path d="M105.806 212.606L107.464 212.602C107.458 215.029 108.066 221.447 106.336 223.148C105.727 223.747 104.845 224.275 103.988 224.398C102.482 224.615 100.861 224.506 99.3423 224.5L91.7514 224.469C84.5511 224.445 77.2857 224.662 70.0954 224.408L69.9407 224.402C69.8163 224.134 69.7975 224.006 69.757 223.721C69.7179 223.443 69.7064 223.259 69.5284 223.035L68.9918 222.905C69.3867 222.893 69.5689 222.932 69.9045 222.714C70.2951 221.521 70.0072 220.252 70.1114 219.014L70.1273 218.836C70.3066 220.099 70.1953 221.464 70.1793 222.742C78.0016 222.658 85.8384 222.733 93.6621 222.742C96.5145 222.744 101.016 223.083 103.674 222.701C104.256 222.617 104.83 222.347 105.245 221.924C106.359 220.792 105.835 214.443 105.805 212.606H105.806Z" fill="#97BEFD"/>
<path d="M168.514 74.5547C167.886 75.5498 167.206 76.4828 166.11 76.9948C165.208 77.4157 164.219 77.4114 163.302 77.0454C162.274 76.6361 161.41 75.7986 161.012 74.7601C160.966 74.64 160.927 74.5171 160.894 74.3927C160.86 74.2683 160.833 74.1425 160.811 74.0152C160.79 73.8879 160.775 73.7592 160.766 73.6304C160.758 73.5017 160.756 73.373 160.761 73.2442C160.765 73.1155 160.775 72.9868 160.792 72.8595C160.81 72.7307 160.833 72.6049 160.862 72.4791C160.891 72.3532 160.927 72.2288 160.969 72.1073C161.011 71.9858 161.059 71.8658 161.112 71.7486C161.584 70.7115 162.492 70.0086 163.541 69.6151C164.343 69.3128 165.099 69.3143 165.881 69.6759C167.29 70.3268 168.216 71.5186 168.716 72.9564L187.873 72.9014C189.973 72.9347 205.029 72.6628 205.577 73.1488C205.599 73.6319 205.612 74.1092 205.604 74.5923C201.841 74.4534 198.051 74.5142 194.283 74.5099L168.512 74.5561L168.514 74.5547Z" fill="#97BEFD"/>
<path d="M163.888 71.2163C164.286 71.186 164.698 71.1426 165.09 71.2352C165.713 71.3827 166.289 71.7718 166.619 72.3229C166.905 72.8002 166.974 73.3932 166.831 73.927C166.593 74.8122 165.972 75.3054 165.197 75.7148C164.795 75.7234 164.385 75.7336 163.989 75.6511C163.356 75.5195 162.751 75.0407 162.431 74.4838C162.397 74.4245 162.365 74.3623 162.337 74.2987C162.308 74.235 162.284 74.1714 162.262 74.1063C162.24 74.0412 162.222 73.9732 162.207 73.9067C162.193 73.8402 162.181 73.7707 162.174 73.7028C162.167 73.6333 162.162 73.5654 162.161 73.4959C162.161 73.4265 162.162 73.3571 162.169 73.2891C162.175 73.2197 162.185 73.1517 162.198 73.0837C162.211 73.0157 162.229 72.9492 162.249 72.8826C162.517 72.0032 163.114 71.6242 163.889 71.2149L163.888 71.2163Z" fill="#BFD8FE"/>
<path d="M205.862 84.0089C206.488 84.4471 206.516 84.9765 206.657 85.6954C198.275 85.5522 189.895 85.7157 181.511 85.7403C178.853 85.7518 176.195 85.7489 173.537 85.7316C171.96 85.7229 170.313 85.6188 168.745 85.7735C168.095 85.8372 167.481 85.9702 166.99 86.4316C166.342 87.0391 166.212 88.1905 166.117 89.0338C165.822 91.6316 166.046 94.4695 166.046 97.0904L166.026 113.549C169.659 113.541 173.459 113.311 177.073 113.584C173.041 113.759 168.966 113.658 164.929 113.653H144.177L120.807 113.643C116.938 113.643 112.984 113.83 109.123 113.655C110.909 113.353 113.001 113.538 114.821 113.538L125.656 113.542L164.361 113.545C164.404 108.018 164.403 102.491 164.355 96.9631C164.33 94.1657 164.019 90.8519 164.391 88.0979C164.507 87.2388 164.873 86.5719 165.434 85.9153C166.104 85.1328 167.037 84.3618 168.067 84.1376C170.303 83.6516 173.871 84.0508 176.239 84.0494L196.393 83.9915C199.447 83.9944 202.69 84.3112 205.713 84.0248C205.763 84.0204 205.814 84.0147 205.865 84.0089H205.862Z" fill="#97BEFD"/>
<path d="M34.0808 153.129L35.9337 153.155L35.8281 169.705C35.8238 171.933 35.5258 174.675 35.9539 176.841C36.0913 177.535 36.5383 178.16 37.0315 178.652C37.6593 179.278 38.517 179.556 39.3791 179.67C41.5892 179.961 44.1321 179.683 46.3841 179.693H64.275C64.3488 179.423 64.4313 179.143 64.5528 178.889C64.9809 177.988 65.8777 177.198 66.8164 176.867C67.9258 176.476 68.9919 176.699 70.0217 177.208C70.9445 177.665 71.7459 178.394 72.0699 179.395C72.3881 180.379 72.2188 181.458 71.7401 182.36C71.202 183.374 70.243 184.207 69.1351 184.531C68.1876 184.808 67.0927 184.764 66.2292 184.259C65.1429 183.624 64.6526 182.58 64.3532 181.41L46.9483 181.427C44.3606 181.435 41.4084 181.759 38.8656 181.364C37.6781 181.18 36.5021 180.737 35.627 179.89C34.9646 179.248 34.4366 178.348 34.2471 177.442C33.7727 175.18 34.1011 171.632 34.1039 169.25L34.0823 153.131L34.0808 153.129Z" fill="#97BEFD"/>
<path d="M67.1086 178.816C68.0286 178.718 68.9311 178.669 69.6948 179.275C70.0651 179.569 70.2633 179.936 70.2778 180.416C70.2995 181.212 69.637 181.903 69.109 182.409C68.8067 182.521 68.4668 182.639 68.1428 182.618C67.5209 182.576 66.938 182.197 66.5706 181.706C66.209 181.225 66.0744 180.569 66.2003 179.981C66.3261 179.393 66.6328 179.148 67.1101 178.816H67.1086Z" fill="#FEFEFE"/>
<path d="M182.192 230.451C180.091 230.561 177.954 230.489 175.848 230.493L164.908 230.513L134.869 230.563L118.869 230.581C116.71 230.584 113.587 230.856 111.531 230.49L111.384 230.158C111.57 229.103 112.748 228.099 113.565 227.467C115.996 227.665 118.513 227.529 120.958 227.532L135.11 227.54L167.511 227.573C169.303 227.577 179.098 227.865 180.212 227.503C181.128 228.16 181.714 229.455 182.189 230.45L182.192 230.451Z" fill="#486694"/>
<path d="M131.264 85.3711C132.688 85.4825 133.941 85.9468 135.257 86.4733C134.724 87.1473 134.46 87.8749 134.167 88.6704C134.794 89.3965 135.441 90.0922 135.892 90.9456C136.75 90.4857 137.595 90.1718 138.528 89.9042C139.044 90.9326 139.521 91.9466 139.918 93.0285C139.05 93.3988 138.081 93.6389 137.18 93.9224C137.185 94.8192 137.204 95.6986 137.065 96.5867L139.644 97.4228C139.333 98.1735 139.035 99.1975 138.52 99.8267C138.337 100.049 138.085 100.219 137.794 100.235C137.091 100.274 136.582 99.6517 136.106 99.2106C135.345 99.7703 134.609 100.355 133.876 100.951C134.063 101.596 134.537 102.702 134.177 103.336C133.82 103.965 132.516 104.227 131.865 104.438C131.537 103.648 131.138 102.913 130.726 102.167L128.743 101.691C128.404 101.993 128.174 102.287 127.924 102.665L127.198 104.104C126.295 103.839 125.458 103.541 124.601 103.149C124.943 102.309 125.166 101.389 125.424 100.518L124.095 99.3827C123.357 99.8007 122.587 100.074 121.791 100.36C121.228 99.604 120.812 98.7057 120.368 97.874C121.208 97.4676 122.848 96.9078 123.162 95.9329C123.269 95.6017 123.242 95.363 123.01 95.0882C122.344 94.2985 120.87 94.2609 119.928 94.1365C120.284 93.0111 120.682 91.9119 121.107 90.8111C121.886 91.099 122.692 91.3029 123.492 91.5213C123.936 90.856 124.476 90.2311 124.97 89.6034C124.648 88.8324 124.285 88.1468 123.848 87.4366C124.746 86.6902 125.776 86.0567 126.807 85.5128C127.342 86.1811 127.763 86.832 128.045 87.6434C129.119 87.5827 130.192 87.5147 131.265 87.4409L131.262 85.3725L131.264 85.3711Z" fill="#E6E7E7"/>
<path d="M129.369 91.821C129.832 91.7892 130.336 91.7964 130.785 91.9266C130.889 91.957 130.99 91.9917 131.09 92.0322C131.19 92.0727 131.288 92.1175 131.384 92.1682C131.479 92.2188 131.572 92.2737 131.661 92.333C131.751 92.3924 131.838 92.4574 131.92 92.5254C132.003 92.5934 132.082 92.6672 132.159 92.7438C132.236 92.8205 132.306 92.9015 132.373 92.9854C132.441 93.0693 132.503 93.1575 132.561 93.2472C132.619 93.3383 132.672 93.4309 132.722 93.5278C133.088 94.2568 133.154 95.1174 132.853 95.8811C132.486 96.8141 131.835 97.1931 130.958 97.5822C130.507 97.6111 129.973 97.6559 129.532 97.546C128.731 97.3464 127.987 96.6796 127.61 95.9607C127.222 95.2259 127.127 94.3624 127.42 93.5784C127.779 92.6194 128.476 92.213 129.37 91.8196L129.369 91.821Z" fill="#FEFEFE"/>
<path d="M50.586 207.384C52.1467 207.219 53.5671 207.248 55.1075 207.563C55.9812 207.777 56.8201 208.014 57.6663 208.321C59.1329 209.105 60.4391 210.188 61.8768 210.964C62.2587 211.303 62.5306 211.654 62.8257 212.072C63.6574 213.125 65.0185 214.705 65.2933 216.055C65.5681 216.953 65.7793 217.841 65.9615 218.763C65.9977 220.198 66.0715 221.644 65.8126 223.064C65.6187 223.986 65.3598 224.861 65.0647 225.755C64.4399 227.252 63.5879 228.283 62.5393 229.511C61.9824 230.311 61.3619 230.965 60.6517 231.629C59.4772 232.374 58.2824 233.078 57.0168 233.66C56.2762 233.924 55.5516 234.14 54.7864 234.322C53.3385 234.428 51.9283 234.389 50.4847 234.244C49.6675 234.062 48.8662 233.858 48.0634 233.619C46.7703 233.025 45.6218 232.23 44.4329 231.457C43.6807 230.853 43.0804 230.216 42.5265 229.43C41.6832 228.189 41.0092 226.837 40.1442 225.616C39.8433 224.757 39.6481 223.9 39.46 223.011C39.2893 221.576 39.2648 220.14 39.3848 218.701C39.6032 217.823 39.8462 216.963 40.121 216.103C40.6909 214.778 41.4113 213.583 42.1649 212.359C42.7073 211.616 43.2786 210.943 43.9092 210.272C45.2197 209.331 46.5562 208.609 48.0403 207.978C48.8589 207.656 49.7253 207.537 50.5874 207.387L50.586 207.384Z" fill="#486694"/>
<path d="M51.3844 212.201C53.4051 212.078 55.258 212.268 57.04 213.33C58.8943 214.435 60.3726 216.389 60.8962 218.485C61.4473 220.698 61.0191 223.212 59.8331 225.153C58.4864 227.358 56.4556 228.647 53.9808 229.256C51.9384 229.498 49.8975 229.11 48.1546 227.999C46.1701 226.735 44.7974 224.633 44.3172 222.341C43.8673 220.199 44.2275 217.831 45.4526 216C46.8195 213.956 48.9949 212.654 51.3844 212.2V212.201Z" fill="#97BEFD"/>
<path d="M237.452 207.544L241.405 207.524L241.67 210.528C242.636 210.721 243.604 210.909 244.571 211.092C245.144 210.337 245.721 209.647 246.394 208.979C247.542 209.443 248.586 210.018 249.658 210.638C249.352 211.706 248.981 212.67 248.495 213.668C249.297 214.296 249.968 215.029 250.659 215.773C251.533 215.296 252.433 214.872 253.329 214.441C254.081 215.565 254.809 216.703 255.511 217.859C254.641 218.444 253.763 219.019 252.877 219.578C253.284 220.678 253.636 221.793 253.876 222.94L256.767 223.177C256.776 224.201 257.051 226.177 256.234 226.897C255.61 227.447 254.549 227.305 253.77 227.31L252.949 230.898C253.766 231.376 254.563 231.869 255.351 232.392C255.053 233.048 254.719 233.684 254.35 234.302C253.982 234.919 253.58 235.515 253.144 236.088L250.917 234.682C250.076 235.185 249.409 235.758 248.689 236.416C249.072 237.487 249.46 238.556 249.854 239.622C248.722 240.177 247.599 240.737 246.428 241.206C245.821 240.546 245.332 239.743 244.823 239.004C243.829 239.383 242.859 239.691 241.82 239.923C241.683 240.682 241.735 241.433 241.376 242.134C240.994 242.444 240.777 242.434 240.3 242.512L237.617 242.493L237.437 239.879C236.329 239.518 235.193 239.256 234.063 238.975C233.532 239.795 233.04 240.552 232.343 241.246C231.221 240.49 230.066 239.873 228.86 239.263C229.236 238.288 229.76 237.355 230.233 236.424L228.281 234.299L225.407 235.823C224.979 235.1 223.686 233.62 223.871 232.771C224.048 231.958 225.63 231.075 226.287 230.568C225.891 229.44 225.461 228.354 224.949 227.274C224.025 227.175 223.103 227.058 222.185 226.922L222.066 223.218L224.654 223.072C224.992 221.875 225.188 220.649 225.559 219.46C224.764 218.897 223.981 218.314 223.215 217.713C223.792 216.431 224.563 215.255 225.341 214.088C226.165 214.691 227.033 215.173 227.929 215.662L230.035 213.456C229.784 213.032 229.562 212.595 229.366 212.144C229.17 211.693 229.002 211.233 228.863 210.761C230.061 209.984 231.216 209.38 232.574 208.937C233.176 209.589 233.609 210.34 234.067 211.097C234.974 210.836 235.935 210.692 236.862 210.511L237.452 207.547V207.544Z" fill="#5479F7"/>
<path d="M238.234 213.088C240.9 212.747 243.795 213.48 246.018 214.97C248.61 216.707 250.51 219.688 251.111 222.739C251.728 225.876 250.995 229.414 249.177 232.046C247.308 234.75 244.448 236.297 241.268 236.886C238.323 237.304 235.178 236.678 232.78 234.883C230.296 233.024 228.643 230.11 228.211 227.048C227.725 223.601 228.506 220.102 230.645 217.326C232.596 214.795 235.1 213.492 238.236 213.089L238.234 213.088Z" fill="#486694"/>
<path d="M239.217 216.427C241.09 216.286 243.051 216.764 244.597 217.836C244.713 217.917 244.826 218 244.937 218.087C245.049 218.174 245.158 218.264 245.266 218.355C245.373 218.447 245.477 218.541 245.579 218.638C245.682 218.735 245.782 218.835 245.88 218.938C245.977 219.04 246.073 219.145 246.165 219.252C246.258 219.359 246.347 219.467 246.434 219.579C246.521 219.69 246.605 219.803 246.687 219.918C246.77 220.034 246.848 220.151 246.923 220.27C247 220.389 247.072 220.51 247.142 220.633C247.211 220.756 247.279 220.88 247.343 221.006C247.406 221.132 247.467 221.259 247.525 221.388C247.583 221.517 247.638 221.647 247.688 221.779C247.739 221.91 247.788 222.043 247.833 222.176C247.878 222.311 247.92 222.445 247.957 222.581C247.995 222.717 248.031 222.853 248.061 222.992C248.093 223.13 248.121 223.268 248.147 223.407C248.56 225.717 248.112 228.137 246.732 230.058C245.179 232.22 242.801 233.414 240.219 233.843C240.093 233.853 239.966 233.859 239.84 233.863C239.713 233.868 239.587 233.868 239.46 233.866C239.332 233.865 239.206 233.859 239.079 233.852C238.953 233.845 238.826 233.833 238.7 233.82C238.574 233.807 238.448 233.79 238.324 233.771C238.198 233.752 238.074 233.729 237.949 233.704C237.825 233.678 237.702 233.651 237.579 233.619C237.456 233.589 237.335 233.554 237.213 233.518C237.092 233.482 236.972 233.441 236.852 233.399C236.732 233.357 236.614 233.312 236.496 233.265C236.379 233.217 236.261 233.166 236.147 233.113C236.031 233.059 235.919 233.004 235.806 232.946C235.693 232.889 235.582 232.826 235.473 232.763C235.363 232.699 235.255 232.633 235.149 232.565C235.042 232.497 234.938 232.426 234.834 232.352C234.73 232.278 234.628 232.203 234.529 232.125C232.616 230.631 231.286 228.371 231.04 225.946C231.025 225.801 231.014 225.656 231.007 225.51C230.999 225.366 230.996 225.22 230.996 225.075C230.996 224.93 231.001 224.784 231.008 224.64C231.015 224.495 231.027 224.349 231.041 224.204C231.056 224.06 231.075 223.915 231.096 223.772C231.118 223.629 231.144 223.485 231.173 223.342C231.202 223.2 231.235 223.059 231.271 222.917C231.307 222.777 231.348 222.636 231.391 222.497C231.435 222.359 231.481 222.221 231.532 222.085C231.582 221.949 231.636 221.813 231.692 221.68C231.75 221.547 231.809 221.414 231.874 221.284C231.938 221.154 232.005 221.024 232.075 220.898C232.146 220.77 232.219 220.645 232.295 220.522C232.372 220.399 232.452 220.277 232.534 220.157C232.616 220.037 232.702 219.92 232.791 219.806C232.88 219.69 232.972 219.577 233.066 219.467C234.688 217.551 236.747 216.647 239.214 216.43L239.217 216.427Z" fill="#97BEFD"/>
<path d="M166.027 113.549L166.047 97.0903C166.047 94.4694 165.823 91.6315 166.118 89.0337C166.214 88.189 166.345 87.0391 166.992 86.4315C167.482 85.9701 168.097 85.8371 168.746 85.7734C170.314 85.6187 171.963 85.7228 173.538 85.7315C176.197 85.7488 178.854 85.7517 181.513 85.7402C189.895 85.7156 198.277 85.5521 206.659 85.6953C208.499 90.4801 211.326 95.1015 214.6 99.0372C215.133 99.4697 215.658 100.035 215.75 100.747C206.287 100.524 196.787 100.805 187.319 100.738C186.83 102.228 186.118 102.941 184.715 103.628L184.471 103.745C184.442 107.03 184.429 110.315 184.433 113.6L182.881 113.594C180.946 113.571 179.01 113.568 177.075 113.583C173.46 113.308 169.661 113.538 166.027 113.548V113.549Z" fill="#FEFEFE"/>
<path d="M182.881 113.595C182.885 112.242 183.13 104.743 182.703 103.952C182.499 103.573 180.691 102.514 180.134 101.505C179.7 100.715 179.775 99.4118 180.071 98.5873C180.409 97.6399 181.099 96.8631 182.033 96.474C182.952 96.0922 184.07 96.0647 184.991 96.4451C186.203 96.947 186.838 97.9914 187.323 99.1471C196.409 99.1311 205.513 99.2483 214.598 99.0371C215.132 99.4696 215.657 100.035 215.748 100.747C206.286 100.524 196.786 100.805 187.317 100.738C186.828 102.228 186.117 102.941 184.714 103.628L184.469 103.745C184.44 107.03 184.427 110.315 184.432 113.6L182.88 113.594L182.881 113.595Z" fill="#97BEFD"/>
<path d="M182.887 97.7511C183.35 97.7279 183.83 97.6874 184.287 97.7843C184.916 97.9174 185.483 98.292 185.798 98.8605C186.07 99.3494 186.109 99.9294 185.953 100.462C185.674 101.415 185.049 101.886 184.207 102.335C183.665 102.378 183.174 102.401 182.658 102.2C182.035 101.959 181.518 101.493 181.255 100.874C181.226 100.806 181.202 100.738 181.18 100.669C181.158 100.599 181.141 100.528 181.125 100.456C181.11 100.384 181.099 100.311 181.092 100.239C181.084 100.167 181.08 100.093 181.08 100.021C181.08 99.9468 181.084 99.8744 181.092 99.8021C181.099 99.7298 181.11 99.6575 181.125 99.5852C181.139 99.5128 181.158 99.442 181.18 99.3725C181.202 99.3031 181.228 99.2351 181.255 99.1671C181.589 98.3629 182.117 98.0867 182.885 97.7482L182.887 97.7511Z" fill="#BFD8FE"/>
<path d="M19.6556 114.287C25.8926 114.061 32.2164 114.27 38.4606 114.275C40.5956 114.283 42.7319 114.278 44.8669 114.261C46.1976 114.249 47.6035 114.147 48.927 114.288C49.6285 114.364 50.1753 114.523 50.7466 114.938C50.9665 115.607 51.0171 116.371 51.0475 117.074C51.2992 122.89 51.0894 128.802 51.1039 134.628C51.1082 136.352 51.357 142.945 51.0243 144.134C50.8594 144.727 50.3908 144.973 49.9062 145.282C45.3297 145.517 40.6259 145.271 36.0379 145.271C31.065 145.271 25.9982 145.502 21.0355 145.271C20.5856 145.251 19.3865 145.235 19.0987 144.928C18.7342 144.542 18.6677 143.958 18.6344 143.451C18.5462 142.105 18.6677 140.673 18.6561 139.316L18.6257 127.843L18.6474 119.811C18.6532 118.479 18.5548 117.051 18.7168 115.732C18.8036 115.019 19.1088 114.718 19.657 114.285L19.6556 114.287Z" fill="#476CFF"/>
<path d="M25.1332 139.972C28.8896 139.884 32.8181 139.797 36.5658 140.009C36.8261 140.35 36.7625 140.688 36.7856 141.108C33.3822 141.105 28.5815 141.41 25.3718 141.044C25.1158 140.706 25.1664 140.386 25.1332 139.971V139.972Z" fill="#97BEFD"/>
<path d="M25.194 135.748L37.1372 135.719C39.3675 135.714 41.6992 135.573 43.918 135.781C44.1335 136.059 44.0728 136.383 44.0887 136.728C39.9432 136.692 35.7978 136.693 31.6523 136.73C29.6027 136.735 27.4417 136.882 25.4051 136.67C25.1679 136.369 25.22 136.119 25.194 135.746V135.748Z" fill="#97BEFD"/>
<path d="M25.139 122.563C27.3217 122.526 43.487 122.305 44.0656 122.694L44.1552 123.467L32.7588 123.537C30.3433 123.548 27.8815 123.661 25.4703 123.504C25.1622 123.243 25.2041 122.95 25.1376 122.563H25.139Z" fill="#97BEFD"/>
<path d="M25.2098 127.044L36.628 127.037C39.0189 127.033 41.4619 126.924 43.8471 127.083C44.1393 127.363 44.0482 127.669 44.0612 128.06L32.1382 128.05C29.9324 128.05 27.6543 128.168 25.4572 127.966C25.1679 127.665 25.2373 127.445 25.2098 127.044Z" fill="#97BEFD"/>
<path d="M25.1202 118.35L36.7191 118.321C39.0638 118.317 41.4388 118.231 43.7791 118.378C44.0236 118.671 43.9527 118.992 43.9701 119.365L32.5129 119.36C30.1219 119.367 27.7035 119.455 25.3169 119.322C25.0291 119.03 25.126 118.746 25.1202 118.349V118.35Z" fill="#5479F7"/>
<path d="M25.2257 131.252C29.6127 131.224 34.0012 131.252 38.3882 131.336C40.2238 131.366 42.0969 131.256 43.9237 131.439C44.1407 131.709 44.0756 132.021 44.0901 132.363C39.8535 132.27 35.5995 132.353 31.3615 132.356C29.4233 132.356 27.3303 132.534 25.4152 132.263C25.1722 131.933 25.2387 131.651 25.2257 131.252Z" fill="#97BEFD"/>
<path d="M67.7985 65.917C68.2744 60.4712 70.6234 55.3523 74.8557 51.8056C78.8348 48.4701 83.7845 46.8747 88.9714 47.3492C89.2997 47.3766 89.6281 47.4128 89.9549 47.4562C90.2818 47.4996 90.6073 47.5517 90.9313 47.6124C91.2553 47.6732 91.5778 47.7411 91.8989 47.8178C92.2201 47.8945 92.5383 47.9783 92.855 48.0709C93.1718 48.1635 93.4857 48.2633 93.7967 48.3718C94.1076 48.4803 94.4172 48.596 94.7224 48.7189C95.0276 48.8419 95.3299 48.9735 95.6293 49.1124C95.9287 49.2512 96.2238 49.3973 96.516 49.5506C96.8081 49.7039 97.096 49.8645 97.3795 50.0323C97.663 50.2001 97.9421 50.3751 98.2184 50.5559C98.4932 50.7381 98.7637 50.9262 99.0299 51.1214C99.296 51.3167 99.5564 51.5178 99.8124 51.726C100.068 51.9343 100.319 52.1484 100.563 52.3697C100.808 52.591 101.048 52.8167 101.281 53.0495C101.513 53.2824 101.742 53.5211 101.963 53.7641C102.185 54.0085 102.4 54.2573 102.61 54.5119C102.772 54.7057 102.928 54.9024 103.081 55.1035C103.235 55.3031 103.384 55.507 103.53 55.7124C103.674 55.9193 103.816 56.1275 103.952 56.3402C104.089 56.5528 104.221 56.7669 104.35 56.9838C104.479 57.2008 104.602 57.4206 104.72 57.6434C104.839 57.8661 104.954 58.0903 105.064 58.3174C105.174 58.5445 105.28 58.7731 105.381 59.0045C105.482 59.2359 105.578 59.4688 105.67 59.7046C105.762 59.9403 105.848 60.1761 105.931 60.4148C106.013 60.6534 106.09 60.8935 106.162 61.1351C106.235 61.3766 106.303 61.6196 106.365 61.8641C106.427 62.1085 106.485 62.3544 106.537 62.6003C106.589 62.8477 106.637 63.095 106.68 63.3438C106.722 63.5926 106.76 63.8414 106.793 64.0916C106.825 64.3418 106.852 64.5921 106.875 64.8437C106.898 65.0954 106.914 65.3471 106.927 65.5988C109.826 65.0274 112.318 64.7757 114.922 66.4825C115.039 66.5578 115.153 66.6359 115.266 66.7169C115.379 66.7979 115.489 66.8818 115.597 66.9685C115.706 67.0553 115.813 67.145 115.917 67.2361C116.021 67.3287 116.122 67.4227 116.222 67.5196C116.322 67.6165 116.419 67.7163 116.513 67.8176C116.607 67.9188 116.699 68.0244 116.788 68.13C116.877 68.2371 116.963 68.3455 117.047 68.4555C117.13 68.5668 117.211 68.6797 117.29 68.7939C117.368 68.9082 117.443 69.0254 117.515 69.144C117.588 69.2626 117.657 69.3826 117.724 69.5056C117.79 69.6271 117.852 69.7515 117.913 69.8759C117.972 70.0017 118.03 70.1275 118.084 70.2563C118.137 70.385 118.188 70.5137 118.236 70.6439C118.283 70.7741 118.327 70.9057 118.367 71.0388C118.408 71.1719 118.445 71.3049 118.479 71.4395C118.513 71.574 118.544 71.7099 118.57 71.8459C118.597 71.9862 118.622 72.1265 118.642 72.2683C118.662 72.41 118.68 72.5518 118.693 72.6935C118.706 72.8353 118.716 72.9785 118.722 73.1202C118.727 73.2634 118.73 73.4052 118.73 73.5484C118.73 73.6916 118.724 73.8333 118.716 73.9765C118.707 74.1197 118.696 74.2614 118.681 74.4032C118.665 74.5449 118.646 74.6867 118.625 74.827C118.602 74.9673 118.575 75.109 118.547 75.2479C118.518 75.3882 118.484 75.5256 118.447 75.6645C118.411 75.8019 118.37 75.9393 118.327 76.0753C118.283 76.2112 118.237 76.3457 118.186 76.4803C118.136 76.6133 118.082 76.7464 118.026 76.8766C117.969 77.0082 117.909 77.1369 117.845 77.2642C117.781 77.3915 117.715 77.5188 117.645 77.6418C117.576 77.7661 117.502 77.8891 117.426 78.0091C117.349 78.1292 117.271 78.2478 117.188 78.365C115.703 80.4985 113.873 81.6021 111.323 82.0447C108.981 82.4511 106.379 82.2313 104.008 82.2154L90.6319 82.0982C89.5369 82.0939 87.4844 81.8104 86.5341 82.2154L86.4228 82.3759C85.8934 82.2805 85.3539 82.2906 84.8187 82.2819C84.7391 82.2645 84.661 82.2472 84.5815 82.2313C83.083 81.9377 81.2098 82.1315 79.6636 82.1271L68.6881 82.1445C65.4524 82.1676 60.9034 82.6218 57.8514 81.7641C55.9421 81.2275 54.1211 80.0428 52.9552 78.4257C51.5045 76.4152 51.2051 73.7856 51.6535 71.3917C52.0961 69.0225 53.3602 67.1522 55.3476 65.794C57.6316 64.2319 60.6908 63.811 63.3811 64.3187C64.9114 64.6065 66.3723 65.3066 67.7971 65.9155L67.7985 65.917Z" fill="#5479F7"/>
<path d="M236.361 135.049C243.677 134.89 251.022 135.006 258.343 134.99C263.773 134.978 269.279 134.777 274.699 134.99C275.429 135.019 276.397 135.032 277.051 135.366C277.479 135.862 277.718 136.222 277.797 136.883C277.984 138.425 277.856 140.113 277.855 141.668L277.843 150.534L277.88 180.669C277.482 181.329 277.148 181.728 276.435 182.048C269.119 182.236 261.753 182.036 254.432 182.026C251.51 182.022 237.737 182.369 235.874 181.735C235.462 181.595 235.197 181.407 235.016 180.995C234.79 180.481 234.707 179.89 234.673 179.334C234.572 177.693 234.662 176.006 234.669 174.36L234.695 164.5C234.666 155.627 234.448 146.696 234.679 137.829C234.693 137.277 234.665 136.44 234.945 135.96C235.23 135.474 235.862 135.223 236.363 135.05L236.361 135.049Z" fill="#5479F7"/>
<path d="M245.958 174.966C249.256 174.931 252.554 174.936 255.85 174.979C256.89 174.986 258.02 174.811 259.038 174.891C259.441 174.923 259.575 175.053 259.827 175.345C259.87 175.731 259.947 175.796 259.74 176.144C257.935 176.3 256.049 176.196 254.235 176.19C252.37 176.197 240.955 176.492 240.057 175.94C239.979 175.653 240.002 175.438 240.035 175.144C240.724 174.775 244.887 174.97 245.96 174.966H245.958Z" fill="#BFD8FE"/>
<path d="M243.929 141.679L259.715 141.682C262.578 141.679 265.478 141.561 268.336 141.71C268.62 142.009 268.543 142.285 268.563 142.685C266.515 142.839 244.674 142.931 244.087 142.547L243.929 141.681V141.679Z" fill="#BFD8FE"/>
<path d="M244.223 152.574L260.171 152.551C262.799 152.546 265.694 152.305 268.283 152.624C268.378 153.031 268.336 153.316 268.265 153.716L252.454 153.666C249.809 153.656 247.013 153.847 244.388 153.588C244.159 153.251 244.227 152.971 244.221 152.574H244.223Z" fill="#BFD8FE"/>
<path d="M244.066 147.089L259.684 147.057C262.51 147.047 265.458 146.862 268.264 147.096C268.502 147.461 268.439 147.789 268.453 148.216L252.477 148.223C249.802 148.237 246.888 148.501 244.236 148.2C244.023 147.871 244.082 147.476 244.066 147.09V147.089Z" fill="#BFD8FE"/>
<path d="M239.972 169.383C247.11 169.585 254.301 169.436 261.445 169.418C264.402 169.41 267.483 169.206 270.426 169.445C270.66 169.798 270.607 170.154 270.63 170.572H250.93C247.361 170.578 243.726 170.728 240.165 170.53C239.93 170.196 239.992 169.788 239.97 169.384L239.972 169.383Z" fill="#BFD8FE"/>
<path d="M239.99 158.199L260.757 158.216C264.982 158.216 269.275 158.04 273.491 158.235C273.75 158.573 273.658 158.993 273.662 159.414C265.611 159.275 257.543 159.357 249.489 159.337L243.097 159.329C242.295 159.333 241.379 159.479 240.594 159.405C240.414 159.388 240.293 159.329 240.131 159.256C239.869 158.866 239.959 158.66 239.989 158.199H239.99Z" fill="#BFD8FE"/>
<path d="M239.781 163.879H262.465C266.194 163.892 269.975 163.763 273.697 163.95C274.032 164.274 273.967 164.596 274.016 165.052L252.874 165.022C248.601 165.016 244.291 165.134 240.022 164.974C239.772 164.679 239.82 164.261 239.782 163.879H239.781Z" fill="#BFD8FE"/>
<path d="M230.129 46.685C234.397 48.71 240.663 50.0769 245.305 51.5855C246.469 51.963 247.688 52.3 248.806 52.7947C248.782 54.746 248.741 56.6972 248.806 58.6484C250.267 58.7034 251.754 58.7048 253.206 58.8668C253.201 64.9057 253.543 71.3004 252.895 77.2915C251.738 87.9705 246.23 97.0237 238.752 104.47C235.83 107.38 232.773 109.632 229.068 111.445C225.001 109.454 221.719 106.844 218.535 103.663C217.656 102.785 216.751 101.428 215.748 100.745C215.657 100.034 215.132 99.4682 214.598 99.0357C211.325 95.0999 208.497 90.4771 206.657 85.6938C206.514 84.9764 206.487 84.4455 205.862 84.0073C205.418 80.8714 205.875 77.7297 205.604 74.5895C205.612 74.1064 205.599 73.6291 205.577 73.146C205.029 72.6615 189.973 72.9319 187.873 72.8987C193.786 72.7323 199.733 72.8133 205.649 72.8336C205.761 68.1819 205.805 63.5287 205.784 58.8755L210.109 58.7439C210.119 56.7565 210.117 54.7706 210.107 52.7832C216.898 51.1834 223.455 48.6681 230.129 46.6807V46.685Z" fill="#E6E7E7"/>
<path d="M229.948 50.6147C230.981 50.6495 232.669 51.4436 233.69 51.7733C237.964 53.1561 242.228 54.7385 246.559 55.9289C246.53 56.8763 246.313 58.2302 246.838 59.0706C247.373 59.9269 248.819 60.0599 249.715 60.2682C249.718 66.5689 250.251 74.7861 248.802 80.7497C246.201 91.4605 238.542 101.412 229.167 107.151C227.16 106.1 225.147 104.392 223.408 102.928C218.968 99.1888 210.268 88.1482 209.375 82.3711C209.067 80.3808 209.213 78.2257 209.205 76.2093C209.183 70.979 209.458 65.2063 209.025 60.0484C209.912 60.0397 211.436 60.1872 212.079 59.4582C212.705 58.7466 212.51 57.0065 212.528 56.0938C216.28 55.0047 220.018 53.8649 223.74 52.6745C225.811 52.0207 227.937 51.4349 229.949 50.6147H229.948Z" fill="#486694"/>
<path d="M235.521 60.938C236.202 60.8758 236.92 60.8238 237.585 61.0205C238.545 61.304 239.386 61.9679 239.827 62.8734C239.876 62.9717 239.92 63.073 239.957 63.1771C239.996 63.2813 240.028 63.3854 240.055 63.4924C240.083 63.5995 240.105 63.708 240.121 63.8164C240.136 63.9249 240.147 64.0349 240.152 64.1462C240.157 64.2562 240.155 64.3661 240.149 64.476C240.142 64.5859 240.131 64.6959 240.112 64.8044C240.093 64.9128 240.07 65.0213 240.041 65.1269C240.012 65.2339 239.977 65.3381 239.937 65.4408C239.491 66.5488 238.632 67.1375 237.579 67.6046C236.894 67.6943 236.254 67.6885 235.585 67.4904C234.608 67.1996 233.764 66.5574 233.299 65.6418C233.25 65.5449 233.207 65.4451 233.168 65.3424C233.129 65.2412 233.095 65.137 233.068 65.0314C233.04 64.9259 233.017 64.8188 233.001 64.7118C232.984 64.6048 232.974 64.4963 232.968 64.3863C232.962 64.2779 232.962 64.1679 232.968 64.0594C232.974 63.951 232.985 63.8425 233.001 63.734C233.019 63.627 233.04 63.5199 233.068 63.4143C233.095 63.3087 233.129 63.2046 233.168 63.1034C233.59 61.9882 234.472 61.3922 235.519 60.938H235.521Z" fill="#9C9F9D"/>
<path d="M220.424 73.5494C221.216 73.4814 221.966 73.4062 222.729 73.6868C223.595 74.0065 224.32 74.6415 224.703 75.4862C224.752 75.5947 224.796 75.706 224.833 75.8189C224.871 75.9317 224.903 76.0474 224.929 76.1631C224.955 76.2803 224.973 76.3974 224.988 76.516C225.001 76.6347 225.008 76.7533 225.01 76.8733C225.01 76.9919 225.005 77.112 224.994 77.2306C224.982 77.3492 224.965 77.4678 224.942 77.585C224.919 77.7021 224.888 77.8164 224.852 77.9307C224.816 78.0449 224.775 78.1563 224.728 78.2662C224.259 79.3337 223.338 79.9253 222.289 80.3245C221.644 80.3665 220.892 80.4431 220.265 80.2623C219.406 80.0135 218.644 79.3728 218.235 78.5816C218.18 78.476 218.13 78.3675 218.087 78.2561C218.044 78.1447 218.006 78.0319 217.974 77.9176C217.942 77.8034 217.916 77.6862 217.896 77.5691C217.876 77.4519 217.861 77.3333 217.854 77.2147C217.847 77.0961 217.844 76.9775 217.848 76.8574C217.853 76.7388 217.863 76.6202 217.879 76.5016C217.895 76.383 217.918 76.2673 217.945 76.1515C217.974 76.0358 218.007 75.9216 218.048 75.8087C218.476 74.6313 219.345 74.0615 220.424 73.5494Z" fill="#9C9F9D"/>
<path d="M236.334 73.438C236.905 73.4741 237.507 73.5248 238.048 73.7244C238.953 74.0585 239.71 74.7456 240.067 75.6481C240.107 75.7508 240.142 75.855 240.171 75.9606C240.2 76.0661 240.225 76.1732 240.243 76.2817C240.262 76.3902 240.275 76.4986 240.283 76.6086C240.29 76.7185 240.293 76.8284 240.288 76.9383C240.284 77.0483 240.275 77.1582 240.261 77.2667C240.246 77.3752 240.226 77.4837 240.2 77.5907C240.174 77.6977 240.144 77.8033 240.106 77.906C240.068 78.0087 240.028 78.1114 239.982 78.2112C239.405 79.4479 238.336 80.012 237.108 80.4286C236.178 80.391 235.379 80.3288 234.579 79.7878C233.821 79.2772 233.275 78.5019 233.107 77.5979C233.084 77.4793 233.068 77.3607 233.058 77.2407C233.047 77.1206 233.043 77.0006 233.045 76.8805C233.046 76.7604 233.055 76.6404 233.069 76.5218C233.084 76.4017 233.104 76.2846 233.13 76.166C233.156 76.0488 233.189 75.9331 233.227 75.8188C233.264 75.7045 233.309 75.5932 233.358 75.4832C233.408 75.3733 233.464 75.2663 233.525 75.1636C233.586 75.0594 233.652 74.9596 233.723 74.8627C234.394 73.9602 235.25 73.6 236.332 73.438H236.334Z" fill="#9C9F9D"/>
<path d="M236.011 86.0134C236.818 85.996 237.51 86.0568 238.243 86.4213C239.138 86.8653 239.834 87.6493 240.109 88.617C240.138 88.7211 240.162 88.8253 240.181 88.9308C240.2 89.0364 240.215 89.1435 240.223 89.2505C240.232 89.3575 240.235 89.4646 240.233 89.5731C240.232 89.6801 240.225 89.7871 240.212 89.8942C240.199 90.0012 240.181 90.1068 240.158 90.2124C240.135 90.3165 240.108 90.4207 240.074 90.5234C240.041 90.6261 240.003 90.7259 239.96 90.8242C239.917 90.9226 239.869 91.018 239.817 91.1121C239.222 92.1665 238.339 92.638 237.213 92.9664C236.413 92.9939 235.723 92.9953 234.987 92.6467C234.085 92.22 233.383 91.4491 233.087 90.4915C233.055 90.3874 233.027 90.2833 233.006 90.1762C232.984 90.0692 232.968 89.9621 232.958 89.8551C232.948 89.7466 232.942 89.6381 232.942 89.5297C232.942 89.4212 232.948 89.3127 232.959 89.2042C232.971 89.0957 232.987 88.9887 233.008 88.8831C233.03 88.7775 233.058 88.6719 233.091 88.5678C233.124 88.4636 233.162 88.3624 233.204 88.2626C233.247 88.1628 233.295 88.0659 233.347 87.9704C233.924 86.9145 234.908 86.3721 236.013 86.0134H236.011Z" fill="#9C9F9D"/>
<path d="M220.773 60.7865C221.605 60.7604 222.354 60.7358 223.128 61.1119C223.236 61.1654 223.343 61.2233 223.446 61.2869C223.549 61.3506 223.649 61.42 223.744 61.4952C223.84 61.5704 223.931 61.65 224.017 61.7339C224.104 61.8178 224.187 61.9074 224.265 62C224.343 62.0926 224.415 62.1895 224.482 62.2907C224.55 62.392 224.611 62.4961 224.667 62.6032C224.723 62.7102 224.774 62.8201 224.817 62.933C224.862 63.0458 224.9 63.16 224.933 63.2772C225.193 64.1885 225.078 65.2183 224.582 66.0312C224.007 66.9714 223.132 67.4357 222.1 67.712C221.347 67.7366 220.666 67.7669 219.959 67.4545C219.052 67.0538 218.342 66.2569 218.013 65.3268C217.702 64.4459 217.731 63.4609 218.181 62.6335C218.744 61.595 219.688 61.1177 220.776 60.7865H220.773Z" fill="#9C9F9D"/>
<path d="M220.569 86.0135C221.206 85.973 221.803 85.9499 222.421 86.135C223.397 86.4272 224.236 87.0665 224.69 87.9879C224.739 88.0906 224.784 88.1962 224.823 88.3032C224.862 88.4103 224.897 88.5202 224.926 88.6301C224.955 88.7415 224.978 88.8529 224.995 88.9657C225.013 89.0785 225.026 89.1928 225.031 89.3056C225.039 89.4199 225.039 89.5341 225.034 89.6484C225.03 89.7627 225.02 89.8769 225.004 89.9898C224.988 90.1026 224.968 90.2154 224.94 90.3268C224.914 90.4382 224.881 90.5481 224.845 90.6551C224.399 91.9381 223.472 92.534 222.301 93.0649C221.703 93.1184 221.097 93.169 220.504 93.0417C219.562 92.8378 218.708 92.2462 218.237 91.3986C217.762 90.5409 217.71 89.5139 218.015 88.5896C218.446 87.2864 219.367 86.5762 220.566 86.0135H220.569Z" fill="#9C9F9D"/>
<path d="M182.881 113.595L184.433 113.601L201.241 113.707C203.802 113.725 207.755 113.429 210.14 114.013C211.123 114.253 212.051 114.857 212.743 115.584C212.842 115.691 212.939 115.801 213.032 115.914C213.124 116.027 213.213 116.144 213.298 116.262C213.382 116.383 213.463 116.504 213.54 116.628C213.616 116.753 213.687 116.88 213.755 117.01C213.823 117.14 213.885 117.272 213.945 117.407C214.004 117.541 214.057 117.677 214.107 117.814C214.156 117.952 214.201 118.092 214.24 118.233C214.28 118.373 214.315 118.516 214.344 118.659C214.765 120.625 214.542 122.929 214.549 124.942L214.574 136.326L214.59 136.455C214.543 138.245 214.436 140.082 214.594 141.869L214.6 153.525L214.593 155.077L214.6 179.856C214.601 184.731 214.529 189.618 214.655 194.491C214.678 197.449 215.057 205.172 214.494 207.687C214.251 208.772 213.691 209.829 212.893 210.607C212.181 211.302 211.313 211.763 210.336 211.944C207.982 212.381 205.27 212.09 202.872 212.078C198.889 212.078 194.905 212.109 190.923 212.17L189.43 212.181C179.517 212.219 169.577 212.074 159.667 212.251C159.664 213.437 159.698 214.634 159.643 215.817L159.66 219.825C159.664 221.749 159.589 223.712 159.696 225.63C162.687 225.604 175.506 225.216 177.575 225.782C178.656 226.077 179.428 226.744 180.212 227.505C179.097 227.866 169.302 227.578 167.511 227.574L135.11 227.541L120.958 227.533C118.513 227.532 115.997 227.668 113.565 227.468C114.343 226.765 115.15 225.964 116.196 225.698C118.147 225.2 120.815 225.508 122.847 225.516L133.85 225.539C133.854 224.444 133.866 223.35 133.882 222.255C133.848 219.02 133.837 215.784 133.847 212.548L107.464 212.603L105.806 212.608L92.2202 212.647C89.4141 212.654 86.1075 213.013 83.3882 212.379C82.127 212.086 81.0233 211.419 80.1208 210.497C79.8879 210.26 79.6709 210.01 79.4713 209.745C79.2717 209.481 79.0895 209.204 78.9246 208.915C78.7611 208.626 78.6165 208.328 78.4906 208.021C78.3662 207.713 78.2606 207.399 78.1768 207.078C77.5273 204.612 77.8933 197.19 77.8817 194.232V192.581C77.9902 182.409 77.9019 172.229 77.8976 162.056L77.9236 161.121L77.9019 160.546C78.0263 153.35 77.9164 146.134 77.9323 138.937L77.9453 137.053L77.9598 126.107C77.9511 123.955 77.6821 121.626 78.0495 119.505C78.2578 118.308 78.7322 117.136 79.4887 116.179C80.8324 114.478 82.6448 113.934 84.7074 113.704C85.3294 113.714 85.9513 113.734 86.5733 113.73L109.12 113.659C112.981 113.834 116.935 113.647 120.805 113.647L144.175 113.659H164.926C168.965 113.662 173.038 113.763 177.071 113.588C179.006 113.574 180.941 113.578 182.877 113.6L182.881 113.595Z" fill="#1A2C34"/>
<path d="M145.962 199.999C146.675 199.953 147.449 199.907 148.126 200.174C148.977 200.51 149.691 201.154 150.048 202.001C150.09 202.103 150.128 202.207 150.16 202.312C150.192 202.418 150.218 202.525 150.239 202.633C150.261 202.742 150.275 202.85 150.286 202.96C150.296 203.07 150.3 203.18 150.3 203.29C150.3 203.4 150.293 203.51 150.281 203.62C150.27 203.73 150.252 203.838 150.229 203.947C150.206 204.055 150.179 204.161 150.145 204.266C150.112 204.372 150.073 204.475 150.03 204.576C149.578 205.63 148.722 206.261 147.683 206.659C146.894 206.731 146.156 206.769 145.417 206.427C145.307 206.378 145.201 206.323 145.097 206.262C144.993 206.202 144.893 206.137 144.796 206.066C144.699 205.995 144.605 205.92 144.516 205.84C144.426 205.761 144.341 205.675 144.26 205.587C144.179 205.499 144.102 205.406 144.031 205.309C143.96 205.212 143.892 205.113 143.832 205.01C143.769 204.907 143.714 204.8 143.664 204.692C143.613 204.583 143.568 204.472 143.528 204.358C143.237 203.523 143.257 202.596 143.648 201.796C144.147 200.775 144.941 200.373 145.965 199.999H145.962Z" fill="#FEFEFE"/>
<path d="M83.1336 194.373C82.7619 194.123 82.4162 193.861 82.098 193.544C81.178 192.625 81.2012 191.451 81.1954 190.236L81.1925 142.89V128.226C81.1853 125.813 80.9871 123.259 81.2098 120.868C81.2995 119.903 81.6944 118.946 82.4031 118.272C82.9137 117.786 83.6225 117.384 84.3298 117.3C86.7714 117.006 89.3764 117.174 91.8411 117.172L105.571 117.165H150.981L190.196 117.19L202.337 117.21C204.298 117.214 206.407 117.051 208.348 117.279C209.076 117.366 209.686 117.703 210.216 118.208C210.829 118.791 211.133 119.505 211.219 120.34C211.487 122.921 211.293 125.664 211.295 128.264V144.325L211.273 194.591C206.926 194.426 202.522 194.603 198.168 194.61L171.963 194.639L88.5273 194.582C86.8046 194.611 84.7955 194.802 83.1321 194.376L83.1336 194.373Z" fill="#5479F7"/>
<path d="M142.69 181.848C142.705 182.314 142.693 182.757 142.65 183.221C141.773 183.62 139.349 183.352 138.337 183.245C138.13 182.875 138.235 182.271 138.256 181.848H142.692H142.69Z" fill="#476CFF"/>
<path d="M168.574 148.712C168.623 149.219 168.715 149.509 168.506 149.98C167.397 150.648 165.521 150.181 164.238 150.193C164.229 149.769 164.155 149.318 164.397 148.947C165.407 148.313 167.381 148.709 168.574 148.712Z" fill="#476CFF"/>
<path d="M200.714 160.921C200.736 160.447 200.663 160.253 200.989 159.893C201.792 159.632 205.451 159.599 206.268 159.826C206.349 160.204 206.385 160.554 206.41 160.937C204.75 160.972 203.088 160.989 201.423 160.989L200.714 160.92V160.921Z" fill="#FEFEFE"/>
<path d="M152.701 181.704L157.126 181.708C157.104 182.232 157.068 182.728 156.98 183.246C155.575 183.458 154.023 183.315 152.6 183.299L152.701 181.705V181.704Z" fill="#476CFF"/>
<path d="M126.929 148.773L131.619 148.721L131.599 150.381C130.043 150.503 128.46 150.467 126.9 150.484L126.929 148.774V148.773Z" fill="#476CFF"/>
<path d="M105.124 160.136C105.167 160.081 105.205 160.018 105.255 159.969C105.655 159.577 111.449 159.812 112.479 159.706C112.475 160.134 112.558 160.554 112.323 160.917C110.943 161.012 106.599 161.193 105.484 160.784C105.349 160.57 105.228 160.366 105.125 160.136H105.124Z" fill="#FEFEFE"/>
<path d="M181.241 160.016C181.395 159.904 181.436 159.859 181.647 159.803C182.124 159.677 188.026 159.653 188.444 159.825C188.516 159.854 188.578 159.903 188.645 159.942C188.583 160.275 188.526 160.609 188.474 160.943C186.24 160.966 183.889 161.154 181.67 160.92C181.358 160.665 181.352 160.39 181.239 160.014L181.241 160.016Z" fill="#FEFEFE"/>
<path d="M164.215 170.014L168.514 169.973L168.422 172.12C167.012 172.05 165.602 172.008 164.19 171.994L164.215 170.014Z" fill="#476CFF"/>
<path d="M127.024 170.11C128.544 170.103 130.082 170.045 131.591 170.265L131.634 172.007C130.099 172.059 128.563 172.095 127.027 172.115L127.024 170.11Z" fill="#476CFF"/>
<path d="M171.834 159.79C173.217 159.777 178.536 159.488 179.476 159.892C179.553 160.276 179.608 160.645 179.644 161.034L179.477 161.02C177.008 160.82 174.411 161.244 171.973 160.888C171.861 160.492 171.836 160.195 171.834 159.79Z" fill="#FEFEFE"/>
<path d="M191.026 160.937L191.105 159.87C192.164 159.594 197.694 159.588 198.919 159.769C199.03 160.192 199.026 160.55 199.01 160.981C196.357 160.887 193.681 160.946 191.026 160.937Z" fill="#FEFEFE"/>
<path d="M118.461 161.067C117.657 161.078 116.559 161.208 115.788 161.002C115.467 160.917 115.463 160.918 115.286 160.622C115.31 160.291 115.24 160.052 115.499 159.826C117.818 159.599 120.528 159.592 122.848 159.8C123.006 160.195 122.957 160.712 122.964 161.14C121.494 160.975 119.94 161.046 118.461 161.067Z" fill="#FEFEFE"/>
<path d="M131.601 176.091C133.821 176.104 136.059 176.061 138.276 176.143C138.282 176.829 138.312 177.52 138.279 178.205C136.025 178.181 133.773 178.186 131.52 178.218C131.521 177.504 131.551 176.801 131.599 176.09L131.601 176.091Z" fill="#476CFF"/>
<path d="M179.644 161.034C179.679 160.612 179.706 160.267 179.885 159.874C180.141 159.883 180.055 159.861 180.261 159.926C180.554 160.019 180.73 160.095 181.047 160.056C181.112 160.048 181.176 160.029 181.239 160.016C181.352 160.392 181.358 160.667 181.67 160.921C183.889 161.156 186.24 160.968 188.474 160.944L191.024 160.937C193.68 160.946 196.356 160.888 199.009 160.981C199.654 161.08 200.083 160.999 200.713 160.921L201.421 160.991C202.619 161.169 203.857 161.102 205.065 161.093C204.883 161.728 204.667 162.381 204.589 163.039C201.664 162.94 198.703 163.036 195.774 163.049L179.01 163.082C176.091 163.066 172.911 163.292 170.024 162.943L169.867 162.54C170.077 161.642 171.101 161.686 171.797 161.199C171.833 161.174 171.868 161.148 171.904 161.122C174.461 161.083 177.104 161.264 179.644 161.035V161.034Z" fill="#476CFF"/>
<path d="M153.122 130.84C154.722 130.811 156.322 130.812 157.921 130.846L157.999 136.896C160.052 136.877 162.126 136.844 164.171 137.045C164.171 139.309 164.228 141.571 164.343 143.832L168.531 143.853L168.574 148.712C167.381 148.709 165.407 148.313 164.397 148.948C164.155 149.318 164.231 149.768 164.238 150.193L164.167 165.54C165.612 165.54 167.077 165.485 168.519 165.556L168.515 169.973L164.216 170.014L164.192 171.994L164.16 176.188C164.03 176.878 163.985 177.538 163.962 178.236C161.701 178.187 159.433 178.199 157.175 178.124L157.127 181.706L152.703 181.702L152.718 178.088C149.374 178.142 146.03 178.144 142.687 178.092L142.692 181.85H138.256C138.256 180.635 138.263 179.421 138.28 178.206C138.312 177.522 138.283 176.829 138.277 176.145C136.059 176.063 133.822 176.106 131.602 176.093C131.657 174.738 131.625 173.366 131.634 172.01L131.59 170.268C130.082 170.048 128.544 170.106 127.024 170.113C126.93 168.538 126.972 166.954 126.984 165.375C128.537 165.366 130.091 165.378 131.643 165.408C131.729 160.399 131.585 155.392 131.599 150.383L131.619 148.722L126.929 148.774C126.903 147.088 126.924 145.397 126.926 143.709C128.508 143.703 130.078 143.678 131.657 143.573L131.67 136.893C133.751 136.874 135.834 136.896 137.916 136.899C137.893 134.917 137.901 132.936 137.943 130.954C139.5 130.903 141.057 130.876 142.615 130.872L142.579 136.922L153.099 136.899C153.112 134.875 153.016 132.863 153.122 130.84Z" fill="#FEFEFE"/>
<path d="M157.194 176.207L164.16 176.188C164.03 176.878 163.985 177.538 163.962 178.237C161.701 178.187 159.433 178.199 157.175 178.124L157.195 176.207H157.194Z" fill="#476CFF"/>
<path d="M142.699 176.193C146.037 176.174 149.376 176.177 152.714 176.2L152.717 178.087C149.373 178.142 146.029 178.144 142.686 178.092L142.699 176.193Z" fill="#476CFF"/>
<path d="M155.647 148.754C156.646 149.262 158.841 151.82 159.812 152.739C158.063 154.861 155.931 156.758 154 158.723C151.156 161.616 148.292 164.76 145.209 167.39C143.612 165.978 142.129 164.426 140.623 162.919C139.27 161.568 137.867 160.259 136.49 158.93C137.849 157.34 139.495 155.875 140.965 154.379C142.452 155.941 143.953 157.447 145.528 158.919C148.948 155.58 152.098 151.969 155.647 148.754Z" fill="#476CFF"/>
<path d="M83.1336 194.373C82.7619 194.123 82.4162 193.861 82.098 193.544C81.178 192.625 81.2012 191.451 81.1954 190.236L81.1925 142.89V128.226C81.1853 125.813 80.9871 123.259 81.2098 120.868C81.2995 119.903 81.6944 118.946 82.4031 118.272C82.9137 117.786 83.6225 117.384 84.3298 117.3C86.7714 117.006 89.3764 117.174 91.8411 117.172L105.571 117.165H150.981C147.384 120.301 144.082 123.713 140.706 127.076C138.408 129.367 136.038 131.596 133.73 133.882L114.405 153.241C112.233 155.402 109.908 157.425 107.766 159.611C109.258 159.603 111.016 159.413 112.476 159.708C111.446 159.813 105.653 159.579 105.252 159.971C105.202 160.02 105.164 160.082 105.121 160.137C103.993 160.454 102.927 161.756 102.208 162.644C104.652 162.806 107.131 162.731 109.58 162.729C111.971 162.728 114.401 162.8 116.789 162.681C117.544 162.214 118.103 161.929 118.458 161.069C119.937 161.047 121.491 160.976 122.961 161.141C122.908 161.169 122.858 161.203 122.802 161.225C121.755 161.626 119.435 160.889 118.589 161.384C118.263 161.575 117.82 162.206 117.544 162.501C118.484 162.528 121.285 162.964 121.941 162.521L122.504 162.645L123.219 161.95L123.285 162.042C120.668 165.285 117.447 168.022 114.492 170.948C110.254 175.145 106.065 179.402 101.764 183.535C98.0015 187.149 94.0773 190.658 90.4742 194.435C89.8378 194.467 89.1464 194.447 88.5244 194.582C86.8017 194.611 84.7926 194.802 83.1292 194.376L83.1336 194.373Z" fill="#97BEFD"/>
<path d="M95.3878 159.812C96.8415 159.8 101.522 159.514 102.578 159.919C102.684 160.306 102.676 160.47 102.551 160.85C101.907 161.27 96.8082 160.982 95.6308 161.024C95.5122 160.63 95.4601 160.217 95.3878 159.812Z" fill="#FEFEFE"/>
<path d="M92.8131 159.704L95.3863 159.812C95.4586 160.216 95.5107 160.631 95.6293 161.024C95.6423 161.474 95.5194 161.993 95.3458 162.407C95.272 162.583 95.1896 162.654 94.9929 162.696C94.0295 162.896 84.7637 162.946 84.1577 162.689C84.0506 162.643 83.9769 162.541 83.8857 162.466C83.8597 162.086 83.9421 161.726 84.1678 161.409C84.4759 160.976 84.622 161.021 85.1022 160.945L85.0342 159.939C85.9874 159.463 91.4795 159.715 92.8117 159.705L92.8131 159.704Z" fill="#5479F7"/>
<path d="M85.1036 160.943L85.0356 159.937C85.9888 159.462 91.4809 159.713 92.8131 159.703C92.7986 160.154 92.8334 160.545 92.6381 160.959C90.9458 161.268 86.7974 161.187 85.1036 160.944V160.943Z" fill="#FEFEFE"/>
</svg>
