<svg width="191" height="191" viewBox="0 0 191 191" fill="none" xmlns="http://www.w3.org/2000/svg">
<path d="M32.5662 130.842C33.4471 130.831 34.3354 130.794 35.2154 130.824C35.2805 131.699 35.2898 132.62 35.4395 133.482C34.4489 133.28 33.5354 133.261 32.5317 133.367C32.5364 132.525 32.5476 131.683 32.5662 130.841V130.842Z" fill="#5479F7"/>
<path d="M42.4188 140.686C43.3118 140.725 44.2057 140.74 45.0996 140.733L45.0894 140.847C45.0224 141.644 45.2075 142.459 44.9564 143.227C44.7406 143.367 44.6234 143.342 44.3694 143.35C43.6904 143.366 42.9955 143.355 42.323 143.451C42.4895 142.538 42.4421 141.607 42.4188 140.685V140.686Z" fill="#5479F7"/>
<path d="M41.8421 145.182C42.5974 145.619 43.3053 146.121 44.0411 146.588C43.6532 147.374 43.1964 148.117 42.67 148.817C41.856 148.409 41.0468 147.973 40.218 147.597C40.8923 146.808 41.4393 146.145 41.8421 145.181V145.182Z" fill="#5479F7"/>
<path d="M40.4022 136.382C41.3082 136.024 42.2105 135.645 43.1509 135.386C43.4774 136.108 43.8439 136.789 44.2439 137.473C43.5397 137.938 42.6086 138.389 41.9891 138.944C41.8123 138.076 40.937 137.06 40.4022 136.382Z" fill="#5479F7"/>
<path d="M28.5737 148.848C29.3384 149.347 30.0779 149.856 30.9085 150.239C30.396 151.044 29.9235 151.857 29.4667 152.695C28.6965 152.253 27.9766 151.748 27.2687 151.212C27.5998 150.396 28.1282 149.608 28.5728 148.847L28.5737 148.848Z" fill="#5479F7"/>
<path d="M23.4744 137.514C23.8735 136.653 24.307 135.7 24.9934 135.028C25.7274 135.487 26.4018 136.069 27.1143 136.567C26.6297 137.354 26.1664 138.122 25.7999 138.974C25.0679 138.41 24.319 137.896 23.4744 137.515V137.514Z" fill="#5479F7"/>
<path d="M29.4398 131.435C29.9868 132.171 30.4444 132.951 30.8937 133.748C29.9393 134.154 29.0798 134.618 28.2371 135.224C27.9003 134.389 27.5487 133.561 27.1804 132.74C27.9236 132.282 28.664 131.838 29.4389 131.435H29.4398Z" fill="#5479F7"/>
<path d="M138.01 98.7319L145.393 98.7636C145.426 99.1077 145.419 99.4249 145.39 99.7691C142.927 99.7952 140.466 99.7821 138.005 99.73L138.01 98.7319Z" fill="#5479F7"/>
<path d="M25.3274 140.644C25.2502 141.57 25.266 142.493 25.3757 143.416C24.3888 143.437 23.3935 143.37 22.4066 143.335C22.5052 142.488 22.4754 141.614 22.4847 140.761C23.4307 140.69 24.3786 140.651 25.3283 140.644H25.3274Z" fill="#5479F7"/>
<path d="M169.503 66.1193C169.605 66.1156 169.707 66.11 169.809 66.1109C170.127 66.1156 170.262 66.19 170.486 66.4105C170.644 66.8579 170.538 67.3946 170.503 67.8616C170.711 67.8541 170.922 67.8486 171.13 67.8588C171.453 67.8746 171.791 67.9351 172.003 68.202C172.098 68.323 172.052 68.3704 172.028 68.5081C171.599 68.9564 171.095 68.9164 170.518 68.9611C170.444 69.428 170.366 69.8941 170.286 70.361C170.07 70.4671 169.936 70.5247 169.69 70.5405C169.268 70.2364 169.508 69.548 169.398 69.0839C168.966 68.8253 168.38 68.9453 167.911 68.7192C167.886 68.6336 167.844 68.4978 167.838 68.4123C167.823 68.1685 167.893 68.0885 168.035 67.9146C168.419 67.7258 168.908 67.7695 169.33 67.7583C169.35 67.1974 169.366 66.6663 169.503 66.1193Z" fill="#E6E7E7"/>
<path d="M25.8148 145.091C26.3711 145.877 26.8045 146.746 27.3468 147.544C26.5497 148.06 25.6762 148.501 24.8297 148.927C24.4083 148.162 23.9926 147.394 23.5823 146.621C24.2586 146.021 25.1051 145.648 25.8157 145.091H25.8148Z" fill="#5479F7"/>
<path d="M36.6665 150.265C37.4804 149.891 38.2488 149.438 39.0041 148.959C39.552 149.688 40.1482 150.405 40.5501 151.228C39.7268 151.746 38.9064 152.27 38.0897 152.799C37.6497 151.926 37.1781 151.096 36.6665 150.264V150.265Z" fill="#5479F7"/>
<path d="M38.272 131.709C39.0934 132.069 39.8506 132.524 40.6542 132.915C40.4515 133.833 39.8999 134.766 39.7929 135.67C38.8683 135.172 38.0283 134.475 37.0851 133.971L38.272 131.709Z" fill="#5479F7"/>
<path d="M138.003 87.7545H142.522C143.434 87.7518 144.394 87.6876 145.298 87.8038C145.398 88.0773 145.377 88.3322 145.368 88.6178L145.281 88.7415C142.912 89.1033 140.399 88.5275 138.03 88.8652C138.028 89.6484 138.068 90.4568 138.007 91.2363C137.905 90.0875 137.974 88.9061 138.004 87.7545H138.003Z" fill="#97BEFD"/>
<path d="M32.4657 150.641C33.3941 150.733 34.301 150.759 35.2321 150.691L35.2517 153.625L32.4016 153.597C32.4332 152.612 32.4453 151.626 32.4657 150.64V150.641Z" fill="#5479F7"/>
<path d="M31.1467 27.7739C31.3876 27.7767 31.5318 27.7972 31.7513 27.8986C32.0378 28.2437 31.9383 28.852 31.929 29.2818C32.2201 29.292 32.5252 29.2929 32.8126 29.3404C33.0991 29.3878 33.3754 29.5236 33.5345 29.7757C33.6191 29.9106 33.5726 29.9738 33.5475 30.1208C33.115 30.6036 32.6396 30.5561 32.0387 30.6017C32.0043 31.1682 31.995 31.691 31.7401 32.2072C31.3783 32.1905 31.2211 32.1514 30.9476 31.917C30.7532 31.517 30.7848 31.038 30.7671 30.5999C30.502 30.5961 30.2332 30.5943 29.9737 30.5329C29.6509 30.4566 29.4137 30.3096 29.2426 30.0222C29.2574 29.8678 29.2305 29.8138 29.3486 29.6966C29.7123 29.3385 30.2974 29.4241 30.769 29.4232C30.7755 28.7906 30.7364 28.2986 31.1457 27.7749L31.1467 27.7739Z" fill="#E6E7E7"/>
<path d="M36.9037 88.2274C41.2914 88.2292 45.7499 88.3651 50.1283 88.1362L50.1199 89.3473C47.9358 89.3232 45.7517 89.3167 43.5676 89.3287C41.4058 89.1018 39.1771 89.3901 37.0032 89.2329C36.8804 88.9418 36.9139 88.5418 36.9037 88.2274Z" fill="#97BEFD"/>
<path d="M22.76 124.973C22.5842 125.559 22.3954 126.031 21.9052 126.422C21.2689 126.931 20.6969 127.113 19.882 127.001C19.2951 126.92 18.7639 126.654 18.4076 126.171C17.9956 125.614 17.8467 124.837 17.9695 124.16C17.9853 124.072 18.0049 123.984 18.03 123.897C18.0542 123.81 18.083 123.725 18.1165 123.641C18.15 123.557 18.1872 123.475 18.229 123.395C18.2709 123.315 18.3165 123.238 18.3658 123.163C18.4151 123.087 18.4681 123.015 18.5248 122.945C18.5816 122.875 18.6421 122.808 18.7053 122.745C18.7686 122.682 18.8355 122.621 18.9053 122.564C18.9751 122.507 19.0476 122.454 19.123 122.404C19.6048 122.09 20.1983 121.938 20.7657 122.066C21.7275 122.284 22.3517 123.048 22.8251 123.852C22.8084 124.151 22.7517 124.5 22.854 124.783C24.3283 125.163 26.679 124.734 28.3012 124.888C26.5506 125.148 24.5395 124.971 22.761 124.97L22.76 124.973Z" fill="#BFD8FE"/>
<path d="M54.5476 52.917C54.8918 52.9226 55.2397 52.917 55.5792 52.9775C55.7495 54.9774 55.6546 57.0499 55.662 59.06C55.6797 63.7491 55.5932 68.4503 55.676 73.1376C55.276 73.1404 54.876 73.1274 54.476 73.1209C54.6462 71.0558 54.5355 68.8996 54.5383 66.8253C54.5448 62.1892 54.4676 57.5522 54.5458 52.9179L54.5476 52.917Z" fill="#97BEFD"/>
<path d="M18.1677 49.7656C18.3807 49.7805 18.5751 49.814 18.7835 49.8605C18.8514 49.9247 18.9462 49.9684 18.9881 50.0521C19.1276 50.3293 19.069 53.8278 19.1239 54.5673C20.4504 54.5831 22.4177 54.3385 23.667 54.625C23.9637 54.6929 24.1042 54.7831 24.267 55.037C24.2539 55.2584 24.1581 55.4268 23.9981 55.5794C23.5879 55.9719 19.8764 55.7691 19.0941 55.7682C19.0383 56.9281 19.3611 59.6424 18.8337 60.4973C18.763 60.5159 18.6783 60.5438 18.6049 60.5401C18.4663 60.5326 18.3091 60.4899 18.2105 60.3903C17.6942 59.8676 17.8979 56.7347 17.9053 55.8649C16.5184 55.8259 14.8971 55.9654 13.5464 55.7049C13.2013 55.638 12.9921 55.544 12.7995 55.2473C12.8516 54.9831 12.8888 54.9403 13.0665 54.7338C14.1353 54.3403 16.6905 54.5822 17.9221 54.5822C17.99 53.7218 17.7686 50.2428 18.1667 49.7675L18.1677 49.7656Z" fill="#E6E7E7"/>
<path d="M121.823 136.453L122.783 136.446C122.784 137.712 122.543 141.509 123.184 142.436C123.531 142.938 124.141 143.242 124.722 143.375C126.174 143.708 127.967 143.521 129.458 143.521L137.483 143.524C138.442 143.524 139.602 143.356 140.532 143.559C140.886 143.636 141.151 143.743 141.357 144.052L141.302 144.219C140.981 144.445 140.619 144.478 140.234 144.484C137.027 144.535 133.803 144.457 130.595 144.459C128.879 144.459 126.191 144.659 124.565 144.352C123.817 144.21 123.075 143.871 122.54 143.318C122.287 143.057 122.104 142.761 122.001 142.411C121.578 140.965 121.818 138.067 121.821 136.453H121.823Z" fill="#97BEFD"/>
<path d="M28.597 100.14C28.6054 99.8577 28.6175 99.5749 28.6045 99.2921C28.5924 99.0251 28.5543 98.8512 28.7059 98.6131C28.9635 98.4168 29.3263 98.4689 29.637 98.4717C29.6221 99.7237 29.4677 101.246 30.4305 102.212C30.81 102.592 31.4555 103.021 31.995 103.117C33.5559 103.394 36.606 103.199 38.366 103.196L50.1004 103.245L50.1143 103.614L50.0976 104.216L38.6608 104.233C36.6358 104.242 33.2927 104.478 31.4565 104.087C30.9095 103.971 30.3495 103.604 29.9337 103.239C28.9933 102.414 28.6575 101.349 28.598 100.14H28.597Z" fill="#97BEFD"/>
<path d="M50.0855 123.846V124.908C42.8318 124.778 35.5558 124.884 28.2994 124.891C26.6771 124.736 24.3265 125.165 22.8521 124.786C22.7498 124.503 22.8065 124.153 22.8233 123.855C31.9104 123.773 40.9984 123.77 50.0855 123.846Z" fill="#97BEFD"/>
<path d="M68.0439 136.727L69.1099 136.724C69.1062 138.285 69.4969 142.412 68.3843 143.506C67.9927 143.891 67.4253 144.231 66.8746 144.31C65.9063 144.449 64.8635 144.38 63.8868 144.376L59.0052 144.355C54.3747 144.341 49.7023 144.48 45.0783 144.316L44.9787 144.313C44.8987 144.141 44.8866 144.058 44.8606 143.875C44.8355 143.696 44.828 143.578 44.7136 143.434L44.3685 143.35C44.6225 143.342 44.7397 143.368 44.9555 143.227C45.2066 142.46 45.0215 141.644 45.0885 140.848L45.0987 140.733C45.2141 141.545 45.1425 142.423 45.1322 143.245C50.1627 143.191 55.2025 143.239 60.234 143.245C62.0683 143.247 64.9631 143.464 66.6728 143.219C67.0467 143.165 67.416 142.991 67.683 142.719C68.3992 141.991 68.0625 137.908 68.043 136.727H68.0439Z" fill="#97BEFD"/>
<path d="M108.371 47.946C107.967 48.5859 107.53 49.1859 106.825 49.5152C106.245 49.7859 105.609 49.7831 105.019 49.5478C104.358 49.2845 103.802 48.7459 103.547 48.0781C103.517 48.0008 103.492 47.9218 103.47 47.8418C103.449 47.7618 103.431 47.6809 103.417 47.599C103.403 47.5171 103.394 47.4344 103.389 47.3516C103.383 47.2688 103.382 47.186 103.385 47.1032C103.388 47.0204 103.394 46.9376 103.405 46.8558C103.416 46.773 103.431 46.6921 103.45 46.6111C103.469 46.5302 103.492 46.4502 103.519 46.3721C103.546 46.2939 103.576 46.2167 103.611 46.1414C103.914 45.4744 104.498 45.0224 105.173 44.7693C105.689 44.5749 106.174 44.5759 106.678 44.8084C107.584 45.227 108.179 45.9935 108.501 46.9181L120.82 46.8828C122.171 46.9041 131.853 46.7293 132.206 47.0418C132.22 47.3525 132.228 47.6595 132.224 47.9702C129.803 47.8809 127.366 47.9199 124.943 47.9171L108.37 47.9469L108.371 47.946Z" fill="#97BEFD"/>
<path d="M105.396 45.7993C105.652 45.7797 105.917 45.7518 106.169 45.8114C106.57 45.9063 106.94 46.1565 107.152 46.5109C107.336 46.8178 107.381 47.1992 107.289 47.5425C107.135 48.1117 106.736 48.4289 106.238 48.6922C105.979 48.6978 105.716 48.7043 105.461 48.6513C105.054 48.5666 104.665 48.2587 104.459 47.9006C104.437 47.8625 104.416 47.8225 104.399 47.7815C104.38 47.7406 104.364 47.6997 104.35 47.6578C104.336 47.616 104.324 47.5722 104.315 47.5294C104.306 47.4867 104.298 47.442 104.294 47.3983C104.289 47.3536 104.286 47.3099 104.285 47.2653C104.285 47.2206 104.286 47.176 104.291 47.1323C104.295 47.0876 104.301 47.0439 104.309 47.0002C104.318 46.9564 104.329 46.9137 104.342 46.8709C104.514 46.3053 104.898 46.0616 105.397 45.7984L105.396 45.7993Z" fill="#BFD8FE"/>
<path d="M132.389 54.0259C132.792 54.3077 132.81 54.6482 132.901 55.1105C127.51 55.0184 122.121 55.1235 116.729 55.1393C115.02 55.1468 113.311 55.1449 111.601 55.1338C110.587 55.1282 109.528 55.0612 108.52 55.1607C108.102 55.2017 107.707 55.2872 107.391 55.584C106.974 55.9747 106.891 56.7151 106.829 57.2574C106.64 58.928 106.784 60.7531 106.784 62.4386L106.771 73.0233C109.107 73.0177 111.551 72.8698 113.876 73.0456C111.282 73.1582 108.662 73.0931 106.066 73.0903H92.7201L77.6909 73.0838C75.2027 73.0838 72.6595 73.2037 70.1768 73.0912C71.3256 72.8968 72.6707 73.0158 73.8409 73.0158L80.809 73.0186L105.7 73.0205C105.728 69.4662 105.727 65.9119 105.696 62.3567C105.681 60.5577 105.481 58.4267 105.72 56.6556C105.794 56.103 106.029 55.6742 106.39 55.2519C106.821 54.7487 107.421 54.2529 108.083 54.1087C109.521 53.7961 111.816 54.0529 113.339 54.0519L126.3 54.0147C128.264 54.0166 130.349 54.2203 132.293 54.0361C132.326 54.0333 132.359 54.0296 132.391 54.0259H132.389Z" fill="#97BEFD"/>
<path d="M21.9173 98.4771L23.1088 98.4938L23.0409 109.137C23.0381 110.57 22.8465 112.333 23.1219 113.726C23.2102 114.172 23.4977 114.574 23.8149 114.89C24.2186 115.293 24.7702 115.472 25.3246 115.545C26.7459 115.732 28.3812 115.554 29.8295 115.56H41.3351C41.3825 115.386 41.4356 115.207 41.5137 115.043C41.789 114.463 42.3658 113.956 42.9695 113.743C43.6829 113.491 44.3685 113.635 45.0308 113.962C45.6242 114.256 46.1396 114.725 46.3479 115.368C46.5526 116.001 46.4437 116.695 46.1359 117.275C45.7898 117.927 45.1731 118.463 44.4606 118.672C43.8513 118.849 43.1471 118.821 42.5918 118.497C41.8932 118.088 41.5779 117.417 41.3853 116.664L30.1923 116.675C28.5282 116.68 26.6296 116.888 24.9944 116.634C24.2307 116.516 23.4744 116.232 22.9116 115.687C22.4856 115.274 22.1461 114.695 22.0242 114.113C21.7191 112.658 21.9303 110.376 21.9321 108.844L21.9182 98.478L21.9173 98.4771Z" fill="#97BEFD"/>
<path d="M43.1574 114.996C43.749 114.933 44.3294 114.901 44.8206 115.291C45.0587 115.48 45.1861 115.716 45.1954 116.025C45.2094 116.537 44.7834 116.981 44.4439 117.307C44.2494 117.379 44.0308 117.455 43.8225 117.441C43.4225 117.414 43.0476 117.17 42.8114 116.855C42.5788 116.545 42.4923 116.124 42.5732 115.745C42.6542 115.367 42.8514 115.209 43.1583 114.996H43.1574Z" fill="#FEFEFE"/>
<path d="M117.168 148.203C115.816 148.273 114.442 148.227 113.088 148.23L106.052 148.243L86.7343 148.274L76.4444 148.286C75.0557 148.288 73.0474 148.463 71.7256 148.228L71.6307 148.014C71.7507 147.336 72.5079 146.69 73.0334 146.284C74.5971 146.411 76.2156 146.324 77.7876 146.326L86.8887 146.33L107.726 146.352C108.879 146.354 115.178 146.539 115.894 146.307C116.483 146.729 116.86 147.562 117.166 148.202L117.168 148.203Z" fill="#486694"/>
<path d="M84.4153 54.9019C85.3316 54.9735 86.1371 55.2721 86.9836 55.6107C86.6403 56.0441 86.471 56.512 86.2822 57.0236C86.6859 57.4906 87.1017 57.938 87.3919 58.4868C87.9435 58.191 88.4868 57.9892 89.0868 57.8171C89.4188 58.4785 89.7258 59.1305 89.9807 59.8263C89.4226 60.0644 88.7993 60.2189 88.2198 60.4012C88.2235 60.9779 88.2356 61.5435 88.1463 62.1146L89.8049 62.6523C89.6049 63.135 89.4133 63.7936 89.0821 64.1982C88.964 64.3415 88.8021 64.4503 88.6152 64.4606C88.1631 64.4857 87.8356 64.0857 87.5296 63.802C87.0403 64.162 86.5669 64.5378 86.0952 64.921C86.2152 65.3359 86.5204 66.0475 86.2887 66.4549C86.059 66.8595 85.2209 67.0279 84.8023 67.1637C84.5911 66.6558 84.3344 66.1833 84.0693 65.7033L82.794 65.3973C82.5763 65.5917 82.4284 65.7805 82.2675 66.0233L81.8005 66.9488C81.2201 66.7786 80.6815 66.587 80.1308 66.3349C80.3504 65.7945 80.4936 65.2029 80.6601 64.6429L79.8053 63.9127C79.3309 64.1815 78.8351 64.3573 78.3235 64.5415C77.9616 64.055 77.6937 63.4773 77.4081 62.9425C77.9486 62.6811 79.0034 62.3211 79.2053 61.6942C79.2741 61.4811 79.2564 61.3277 79.1076 61.1509C78.6788 60.643 77.7309 60.6188 77.1254 60.5388C77.3542 59.8152 77.61 59.1082 77.8835 58.4003C78.3849 58.5854 78.903 58.7166 79.4174 58.8571C79.7029 58.4292 80.0499 58.0273 80.368 57.6236C80.1606 57.1278 79.9271 56.6869 79.6462 56.2302C80.2238 55.7502 80.8861 55.3428 81.5494 54.993C81.8936 55.4228 82.1642 55.8414 82.3456 56.3632C83.0358 56.3241 83.726 56.2804 84.4162 56.233L84.4144 54.9028L84.4153 54.9019Z" fill="#E6E7E7"/>
<path d="M83.1968 59.0497C83.4944 59.0293 83.8191 59.0339 84.1074 59.1176C84.1744 59.1372 84.2395 59.1595 84.3037 59.1855C84.3679 59.2116 84.4311 59.2404 84.4925 59.273C84.5539 59.3055 84.6135 59.3409 84.6711 59.379C84.7288 59.4172 84.7846 59.459 84.8376 59.5027C84.8907 59.5465 84.9418 59.5939 84.9911 59.6432C85.0404 59.6925 85.086 59.7446 85.1288 59.7985C85.1725 59.8525 85.2125 59.9092 85.2497 59.9669C85.2869 60.0255 85.3213 60.085 85.353 60.1474C85.5883 60.6162 85.6311 61.1697 85.4376 61.6608C85.2013 62.2608 84.7828 62.5045 84.2191 62.7547C83.9288 62.7733 83.5856 62.8021 83.3019 62.7315C82.7866 62.6031 82.3084 62.1743 82.0657 61.712C81.8164 61.2394 81.755 60.6841 81.9438 60.1799C82.1745 59.5632 82.6228 59.3018 83.1977 59.0488L83.1968 59.0497Z" fill="#FEFEFE"/>
<path d="M32.5318 133.368C33.5355 133.262 34.4489 133.28 35.4396 133.483C36.0014 133.621 36.5409 133.773 37.0851 133.971C38.0283 134.475 38.8683 135.172 39.7929 135.67C40.0385 135.889 40.2133 136.114 40.4031 136.383C40.938 137.06 41.8133 138.077 41.99 138.944C42.1667 139.522 42.3026 140.093 42.4198 140.686C42.443 141.608 42.4905 142.539 42.3239 143.452C42.1993 144.045 42.0328 144.607 41.843 145.182C41.4412 146.145 40.8933 146.808 40.2189 147.598C39.8608 148.112 39.4617 148.533 39.005 148.96C38.2497 149.439 37.4813 149.892 36.6674 150.266C36.1912 150.436 35.7251 150.575 35.2331 150.692C34.3019 150.76 33.395 150.735 32.4667 150.642C31.9411 150.524 31.4258 150.393 30.9095 150.24C30.0779 149.857 29.3393 149.347 28.5747 148.849C28.091 148.461 27.705 148.051 27.3487 147.546C26.8064 146.748 26.3729 145.878 25.8167 145.093C25.6232 144.54 25.4976 143.99 25.3767 143.418C25.2669 142.495 25.2511 141.571 25.3283 140.646C25.4688 140.081 25.6251 139.529 25.8018 138.975C26.1683 138.123 26.6315 137.355 27.1162 136.568C27.465 136.09 27.8324 135.657 28.238 135.225C29.0807 134.62 29.9402 134.156 30.8946 133.75C31.4211 133.543 31.9783 133.466 32.5327 133.37L32.5318 133.368Z" fill="#486694"/>
<path d="M33.0452 136.466C34.3447 136.387 35.5363 136.509 36.6823 137.192C37.8748 137.903 38.8255 139.159 39.1622 140.507C39.5166 141.93 39.2413 143.547 38.4785 144.795C37.6125 146.214 36.3065 147.043 34.7149 147.434C33.4015 147.59 32.089 147.34 30.9681 146.626C29.6919 145.813 28.8091 144.461 28.5003 142.987C28.211 141.61 28.4426 140.087 29.2305 138.909C30.1095 137.595 31.5086 136.758 33.0452 136.466V136.466Z" fill="#97BEFD"/>
<path d="M152.705 133.471L155.247 133.458L155.417 135.39C156.039 135.514 156.661 135.635 157.283 135.753C157.652 135.267 158.023 134.824 158.455 134.394C159.194 134.692 159.865 135.062 160.555 135.461C160.357 136.147 160.119 136.768 159.807 137.409C160.322 137.813 160.754 138.285 161.198 138.763C161.76 138.456 162.339 138.183 162.916 137.906C163.399 138.629 163.867 139.361 164.318 140.104C163.759 140.481 163.195 140.85 162.624 141.21C162.887 141.917 163.113 142.634 163.267 143.372L165.127 143.525C165.132 144.183 165.309 145.454 164.783 145.917C164.382 146.271 163.7 146.179 163.199 146.182L162.671 148.49C163.196 148.797 163.709 149.114 164.216 149.451C164.024 149.872 163.809 150.282 163.572 150.679C163.335 151.076 163.076 151.459 162.796 151.828L161.364 150.923C160.823 151.247 160.395 151.615 159.931 152.039C160.178 152.727 160.427 153.414 160.68 154.1C159.953 154.457 159.23 154.817 158.478 155.119C158.087 154.694 157.772 154.178 157.445 153.703C156.806 153.947 156.182 154.145 155.514 154.293C155.426 154.782 155.459 155.265 155.228 155.716C154.983 155.915 154.843 155.908 154.536 155.959L152.811 155.946L152.695 154.266C151.983 154.033 151.252 153.865 150.525 153.684C150.184 154.212 149.868 154.698 149.419 155.145C148.697 154.658 147.955 154.262 147.179 153.869C147.421 153.242 147.758 152.642 148.062 152.043L146.807 150.677L144.959 151.657C144.684 151.192 143.852 150.241 143.971 149.695C144.085 149.172 145.102 148.603 145.525 148.278C145.27 147.552 144.993 146.854 144.664 146.159C144.07 146.096 143.477 146.02 142.887 145.933L142.81 143.551L144.474 143.457C144.692 142.687 144.818 141.899 145.057 141.134C144.545 140.772 144.042 140.397 143.549 140.01C143.92 139.186 144.416 138.43 144.916 137.679C145.446 138.067 146.005 138.377 146.58 138.691L147.935 137.273C147.774 137 147.631 136.719 147.505 136.429C147.378 136.139 147.271 135.843 147.181 135.54C147.951 135.04 148.695 134.651 149.568 134.367C149.955 134.786 150.233 135.269 150.528 135.756C151.111 135.588 151.729 135.495 152.325 135.379L152.705 133.473V133.471Z" fill="#5479F7"/>
<path d="M153.208 137.037C154.922 136.817 156.784 137.289 158.213 138.247C159.88 139.364 161.103 141.281 161.489 143.243C161.886 145.26 161.414 147.536 160.245 149.229C159.043 150.967 157.204 151.962 155.159 152.341C153.265 152.61 151.242 152.207 149.7 151.053C148.103 149.857 147.04 147.983 146.762 146.014C146.449 143.797 146.951 141.547 148.327 139.762C149.582 138.134 151.192 137.296 153.209 137.037L153.208 137.037Z" fill="#486694"/>
<path d="M153.84 139.183C155.044 139.093 156.306 139.4 157.3 140.089C157.374 140.141 157.447 140.195 157.519 140.251C157.59 140.307 157.661 140.365 157.73 140.423C157.799 140.483 157.865 140.543 157.932 140.606C157.998 140.668 158.062 140.732 158.125 140.798C158.187 140.864 158.249 140.931 158.308 141C158.368 141.069 158.425 141.139 158.481 141.21C158.537 141.282 158.591 141.354 158.644 141.429C158.697 141.503 158.747 141.579 158.796 141.655C158.845 141.731 158.891 141.809 158.936 141.888C158.981 141.967 159.025 142.047 159.065 142.128C159.106 142.209 159.145 142.291 159.183 142.374C159.22 142.457 159.255 142.54 159.288 142.625C159.32 142.71 159.352 142.795 159.381 142.881C159.41 142.967 159.437 143.054 159.461 143.141C159.485 143.229 159.508 143.316 159.528 143.406C159.548 143.494 159.566 143.583 159.583 143.672C159.849 145.158 159.56 146.714 158.673 147.95C157.674 149.34 156.145 150.108 154.484 150.384C154.403 150.39 154.321 150.394 154.241 150.397C154.159 150.4 154.078 150.4 153.996 150.399C153.914 150.398 153.833 150.394 153.751 150.389C153.67 150.385 153.588 150.377 153.508 150.369C153.427 150.361 153.346 150.349 153.266 150.337C153.185 150.325 153.105 150.31 153.025 150.295C152.945 150.278 152.866 150.26 152.787 150.24C152.708 150.22 152.629 150.198 152.551 150.175C152.473 150.151 152.396 150.125 152.319 150.098C152.242 150.071 152.166 150.042 152.09 150.012C152.015 149.981 151.939 149.949 151.866 149.914C151.791 149.88 151.719 149.844 151.646 149.807C151.574 149.77 151.502 149.73 151.432 149.689C151.362 149.648 151.292 149.605 151.224 149.562C151.155 149.518 151.088 149.472 151.021 149.425C150.954 149.377 150.889 149.329 150.825 149.279C149.595 148.318 148.739 146.865 148.581 145.305C148.572 145.212 148.564 145.119 148.56 145.025C148.555 144.932 148.553 144.838 148.553 144.745C148.553 144.652 148.556 144.558 148.561 144.465C148.565 144.372 148.573 144.278 148.582 144.185C148.591 144.092 148.604 143.999 148.617 143.907C148.631 143.815 148.648 143.723 148.667 143.631C148.685 143.539 148.707 143.448 148.73 143.357C148.753 143.267 148.779 143.177 148.807 143.087C148.835 142.998 148.865 142.91 148.897 142.822C148.93 142.735 148.964 142.647 149.001 142.562C149.038 142.476 149.076 142.391 149.118 142.307C149.159 142.223 149.202 142.14 149.247 142.059C149.293 141.977 149.339 141.896 149.389 141.817C149.438 141.738 149.489 141.66 149.542 141.582C149.595 141.505 149.65 141.43 149.708 141.356C149.764 141.282 149.824 141.209 149.884 141.139C150.927 139.906 152.252 139.325 153.838 139.185L153.84 139.183Z" fill="#97BEFD"/>
<path d="M106.772 73.0234L106.785 62.4387C106.785 60.7532 106.641 58.9281 106.83 57.2575C106.892 56.7143 106.976 55.9748 107.392 55.5841C107.707 55.2873 108.103 55.2018 108.52 55.1608C109.529 55.0613 110.589 55.1283 111.602 55.1339C113.312 55.145 115.021 55.1469 116.73 55.1395C122.121 55.1236 127.511 55.0185 132.902 55.1106C134.085 58.1877 135.904 61.1597 138.009 63.6907C138.352 63.9689 138.689 64.3326 138.748 64.7902C132.663 64.647 126.553 64.8274 120.464 64.7847C120.15 65.7428 119.692 66.2013 118.79 66.6432L118.633 66.7185C118.614 68.831 118.606 70.9435 118.608 73.056L117.61 73.0522C116.366 73.0374 115.121 73.0355 113.876 73.0448C111.552 72.8681 109.108 73.016 106.772 73.0225V73.0234Z" fill="#FEFEFE"/>
<path d="M117.61 73.0527C117.613 72.1821 117.77 67.3599 117.496 66.8511C117.365 66.6074 116.202 65.9265 115.844 65.2772C115.565 64.7694 115.613 63.9312 115.803 63.401C116.021 62.7918 116.464 62.2922 117.065 62.042C117.656 61.7964 118.375 61.7788 118.967 62.0234C119.747 62.3462 120.155 63.0178 120.467 63.761C126.31 63.7508 132.165 63.8261 138.008 63.6903C138.351 63.9685 138.689 64.3322 138.747 64.7898C132.662 64.6466 126.552 64.827 120.463 64.7842C120.149 65.7423 119.691 66.2009 118.789 66.6428L118.632 66.7181C118.613 68.8306 118.605 70.9431 118.607 73.0555L117.609 73.0518L117.61 73.0527Z" fill="#97BEFD"/>
<path d="M117.614 62.8635C117.912 62.8486 118.221 62.8226 118.514 62.8849C118.919 62.9705 119.284 63.2114 119.487 63.577C119.661 63.8914 119.686 64.2644 119.586 64.6067C119.407 65.2197 119.005 65.5229 118.463 65.8113C118.114 65.8392 117.799 65.8541 117.467 65.7248C117.066 65.5694 116.734 65.2699 116.565 64.8718C116.546 64.8281 116.53 64.7844 116.516 64.7397C116.502 64.6951 116.491 64.6495 116.481 64.603C116.472 64.5565 116.464 64.5099 116.46 64.4634C116.455 64.4169 116.452 64.3695 116.452 64.323C116.452 64.2755 116.455 64.229 116.46 64.1825C116.464 64.136 116.472 64.0895 116.481 64.043C116.49 63.9965 116.502 63.9509 116.516 63.9062C116.53 63.8616 116.547 63.8179 116.565 63.7742C116.78 63.257 117.119 63.0793 117.613 62.8616L117.614 62.8635Z" fill="#BFD8FE"/>
<path d="M12.6404 73.4975C16.6514 73.3524 20.7182 73.4864 24.7339 73.4901C26.1069 73.4947 27.4808 73.492 28.8537 73.4808C29.7095 73.4734 30.6137 73.4073 31.4648 73.4985C31.9159 73.5468 32.2676 73.6492 32.635 73.9161C32.7764 74.3468 32.8089 74.838 32.8285 75.29C32.9903 79.0303 32.8554 82.8321 32.8647 86.5789C32.8675 87.6877 33.0275 91.9275 32.8136 92.6921C32.7075 93.0735 32.4062 93.2316 32.0945 93.4307C29.1514 93.5814 26.1264 93.4233 23.1758 93.4233C19.9778 93.4233 16.7193 93.5721 13.5278 93.4233C13.2385 93.4102 12.4674 93.4 12.2823 93.2028C12.0479 92.9544 12.0051 92.5787 11.9837 92.2531C11.927 91.3871 12.0051 90.4662 11.9976 89.5937L11.9781 82.2153L11.9921 77.05C11.9958 76.1932 11.9325 75.2751 12.0367 74.4268C12.0925 73.9682 12.2888 73.7747 12.6413 73.4966L12.6404 73.4975Z" fill="#476CFF"/>
<path d="M16.1631 90.0162C18.5788 89.9594 21.1052 89.9036 23.5154 90.0394C23.6828 90.2589 23.6419 90.4766 23.6567 90.7464C21.468 90.7445 18.3807 90.9408 16.3166 90.7054C16.1519 90.4878 16.1845 90.2822 16.1631 90.0152V90.0162Z" fill="#97BEFD"/>
<path d="M16.2021 87.299L23.8828 87.2804C25.3171 87.2776 26.8166 87.1865 28.2435 87.3204C28.3821 87.499 28.3431 87.7074 28.3533 87.9297C25.6874 87.9065 23.0214 87.9074 20.3555 87.9306C19.0374 87.9344 17.6477 88.0283 16.338 87.8925C16.1854 87.699 16.2189 87.5381 16.2021 87.2981V87.299Z" fill="#97BEFD"/>
<path d="M16.1668 78.82C17.5705 78.7958 27.9664 78.6535 28.3384 78.9037L28.3961 79.4013L21.0671 79.446C19.5137 79.4534 17.9305 79.526 16.3798 79.4246C16.1817 79.2572 16.2087 79.0683 16.1659 78.82H16.1668Z" fill="#97BEFD"/>
<path d="M16.2124 81.7018L23.5554 81.6972C25.093 81.6944 26.6641 81.6246 28.198 81.727C28.3859 81.9065 28.3273 82.1037 28.3356 82.3548L20.668 82.3483C19.2495 82.3483 17.7844 82.4246 16.3715 82.2944C16.1854 82.1009 16.2301 81.9595 16.2124 81.7018Z" fill="#97BEFD"/>
<path d="M16.1547 76.1103L23.614 76.0917C25.1218 76.0889 26.6492 76.034 28.1542 76.128C28.3114 76.3168 28.2659 76.5233 28.277 76.7633L20.9089 76.7596C19.3713 76.7642 17.816 76.821 16.2812 76.7354C16.0961 76.5475 16.1584 76.3652 16.1547 76.1094V76.1103Z" fill="#5479F7"/>
<path d="M16.2226 84.408C19.0439 84.3903 21.8661 84.408 24.6874 84.4619C25.8678 84.4815 27.0724 84.4108 28.2472 84.528C28.3868 84.7019 28.3449 84.9028 28.3542 85.1224C25.6297 85.0628 22.894 85.1159 20.1685 85.1177C18.922 85.1177 17.576 85.2321 16.3445 85.0582C16.1882 84.8461 16.231 84.6647 16.2226 84.408Z" fill="#97BEFD"/>
<path d="M43.6011 42.3907C43.9072 38.8885 45.4178 35.5965 48.1395 33.3157C50.6985 31.1706 53.8816 30.1446 57.2173 30.4497C57.4285 30.4674 57.6396 30.4907 57.8499 30.5186C58.0601 30.5465 58.2694 30.58 58.4777 30.619C58.6861 30.6581 58.8935 30.7018 59.1 30.7511C59.3065 30.8004 59.5112 30.8544 59.7149 30.9139C59.9186 30.9734 60.1205 31.0376 60.3205 31.1074C60.5205 31.1772 60.7195 31.2516 60.9158 31.3306C61.1121 31.4097 61.3065 31.4944 61.499 31.5837C61.6916 31.673 61.8813 31.7669 62.0692 31.8655C62.2571 31.9641 62.4422 32.0674 62.6246 32.1753C62.8069 32.2832 62.9864 32.3957 63.1641 32.512C63.3408 32.6292 63.5148 32.7501 63.6859 32.8757C63.8571 33.0013 64.0245 33.1306 64.1892 33.2645C64.3538 33.3985 64.5147 33.5361 64.6719 33.6785C64.8291 33.8208 64.9835 33.9659 65.1333 34.1156C65.2831 34.2654 65.43 34.4189 65.5724 34.5752C65.7147 34.7324 65.8533 34.8924 65.9882 35.0561C66.0923 35.1807 66.1928 35.3072 66.2914 35.4365C66.39 35.5649 66.4858 35.6961 66.5798 35.8281C66.6728 35.9612 66.7639 36.0951 66.8514 36.2318C66.9397 36.3686 67.0244 36.5063 67.1072 36.6458C67.19 36.7853 67.269 36.9267 67.3453 37.07C67.4216 37.2132 67.496 37.3574 67.5667 37.5034C67.6374 37.6495 67.7053 37.7964 67.7704 37.9453C67.8355 38.0941 67.8969 38.2439 67.9564 38.3955C68.015 38.5471 68.0709 38.6987 68.1239 38.8522C68.1769 39.0057 68.2262 39.1601 68.2727 39.3154C68.3192 39.4708 68.3629 39.6271 68.4029 39.7843C68.4429 39.9415 68.4801 40.0996 68.5136 40.2577C68.5471 40.4168 68.5778 40.5759 68.6057 40.7359C68.6327 40.8958 68.6569 41.0558 68.6783 41.2168C68.6987 41.3777 68.7164 41.5386 68.7313 41.7005C68.7462 41.8623 68.7564 42.0242 68.7648 42.186C70.6289 41.8186 72.2316 41.6567 73.906 42.7544C73.9813 42.8028 74.0548 42.853 74.1274 42.9051C74.1999 42.9572 74.2706 43.0111 74.3404 43.0669C74.4101 43.1227 74.479 43.1804 74.546 43.239C74.6129 43.2985 74.678 43.359 74.7422 43.4213C74.8064 43.4837 74.8687 43.5478 74.9292 43.613C74.9897 43.6781 75.0492 43.746 75.1059 43.8139C75.1636 43.8827 75.2185 43.9525 75.2724 44.0232C75.3264 44.0948 75.3785 44.1673 75.4287 44.2408C75.4789 44.3143 75.5273 44.3897 75.5738 44.4659C75.6203 44.5422 75.665 44.6194 75.7078 44.6985C75.7506 44.7766 75.7906 44.8566 75.8296 44.9366C75.8678 45.0175 75.905 45.0985 75.9394 45.1813C75.9738 45.2641 76.0064 45.3468 76.0371 45.4306C76.0678 45.5143 76.0957 45.5989 76.1217 45.6845C76.1478 45.7701 76.1719 45.8557 76.1933 45.9422C76.2157 46.0287 76.2352 46.1161 76.2519 46.2035C76.2696 46.2938 76.2854 46.384 76.2984 46.4752C76.3115 46.5663 76.3226 46.6575 76.331 46.7486C76.3394 46.8398 76.3459 46.9319 76.3496 47.0231C76.3533 47.1151 76.3552 47.2063 76.3552 47.2984C76.3552 47.3905 76.3515 47.4816 76.3459 47.5737C76.3403 47.6658 76.3329 47.757 76.3236 47.8481C76.3133 47.9393 76.3012 48.0305 76.2873 48.1207C76.2724 48.2109 76.2557 48.3021 76.2371 48.3914C76.2185 48.4816 76.1971 48.57 76.1729 48.6593C76.1496 48.7476 76.1236 48.836 76.0957 48.9234C76.0678 49.0109 76.038 49.0974 76.0054 49.1839C75.9729 49.2695 75.9385 49.3551 75.9022 49.4388C75.8659 49.5234 75.8268 49.6062 75.7859 49.6881C75.745 49.7699 75.7022 49.8518 75.6575 49.9308C75.6129 50.0108 75.5655 50.0899 75.5162 50.1671C75.4669 50.2443 75.4166 50.3206 75.3636 50.3959C74.4083 51.768 73.2316 52.4777 71.5917 52.7624C70.0857 53.0237 68.4122 52.8824 66.8877 52.8721L58.2852 52.7968C57.581 52.794 56.2611 52.6117 55.65 52.8721L55.5783 52.9754C55.2379 52.914 54.8909 52.9205 54.5467 52.9149C54.4956 52.9038 54.4453 52.8926 54.3942 52.8824C53.4305 52.6935 52.2259 52.8182 51.2315 52.8154L44.1732 52.8265C42.0923 52.8414 39.1669 53.1335 37.2042 52.5819C35.9763 52.2368 34.8052 51.475 34.0554 50.435C33.1225 49.142 32.9299 47.4509 33.2183 45.9115C33.5029 44.3878 34.3159 43.1851 35.594 42.3116C37.0628 41.307 39.0301 41.0363 40.7603 41.3628C41.7444 41.5479 42.6839 41.9981 43.6002 42.3897L43.6011 42.3907Z" fill="#5479F7"/>
<path d="M152.003 86.8496C156.708 86.7473 161.432 86.8217 166.14 86.8115C169.631 86.804 173.173 86.6747 176.658 86.8115C177.128 86.8301 177.75 86.8385 178.171 87.0533C178.446 87.3724 178.6 87.604 178.651 88.0291C178.771 89.0207 178.689 90.1062 178.688 91.1062L178.68 96.8083L178.704 116.188C178.448 116.612 178.233 116.869 177.774 117.074C173.07 117.195 168.333 117.067 163.624 117.061C161.745 117.058 152.888 117.281 151.69 116.874C151.425 116.783 151.255 116.662 151.138 116.397C150.993 116.067 150.939 115.687 150.918 115.329C150.853 114.274 150.91 113.189 150.915 112.13L150.932 105.789C150.913 100.084 150.773 94.3396 150.922 88.6375C150.931 88.2821 150.912 87.7445 151.093 87.4356C151.276 87.1231 151.682 86.9612 152.004 86.8506L152.003 86.8496Z" fill="#5479F7"/>
<path d="M158.175 112.52C160.296 112.498 162.417 112.501 164.537 112.529C165.206 112.533 165.932 112.421 166.587 112.472C166.846 112.492 166.932 112.576 167.094 112.764C167.122 113.012 167.171 113.054 167.038 113.277C165.877 113.378 164.664 113.311 163.498 113.307C162.299 113.312 154.958 113.502 154.38 113.146C154.33 112.962 154.345 112.823 154.366 112.635C154.809 112.397 157.486 112.523 158.176 112.52H158.175Z" fill="#BFD8FE"/>
<path d="M156.87 91.1136L167.022 91.1155C168.863 91.1136 170.728 91.0374 172.566 91.1332C172.749 91.3257 172.699 91.5034 172.712 91.7601C171.395 91.8597 157.349 91.9183 156.972 91.6718L156.87 91.1146V91.1136Z" fill="#BFD8FE"/>
<path d="M157.059 98.1196L167.315 98.1048C169.006 98.102 170.867 97.9466 172.532 98.1522C172.593 98.4136 172.566 98.5968 172.521 98.8545L162.353 98.822C160.651 98.8154 158.853 98.9382 157.165 98.7717C157.018 98.555 157.062 98.3755 157.058 98.1196H157.059Z" fill="#BFD8FE"/>
<path d="M156.959 94.5927L167.002 94.5723C168.819 94.5658 170.715 94.4467 172.52 94.5974C172.673 94.8318 172.632 95.043 172.642 95.3174L162.368 95.322C160.647 95.3313 158.773 95.5006 157.067 95.3071C156.931 95.096 156.969 94.842 156.959 94.5937V94.5927Z" fill="#BFD8FE"/>
<path d="M154.325 108.93C158.916 109.06 163.541 108.964 168.135 108.952C170.036 108.947 172.017 108.816 173.91 108.97C174.061 109.197 174.027 109.426 174.042 109.694H161.372C159.078 109.698 156.74 109.795 154.45 109.667C154.298 109.453 154.338 109.19 154.324 108.931L154.325 108.93Z" fill="#BFD8FE"/>
<path d="M154.337 101.738L167.692 101.749C170.409 101.749 173.17 101.635 175.882 101.761C176.048 101.978 175.988 102.248 175.991 102.519C170.814 102.43 165.625 102.483 160.446 102.47L156.335 102.464C155.819 102.467 155.23 102.561 154.725 102.513C154.61 102.502 154.532 102.464 154.427 102.418C154.259 102.166 154.317 102.034 154.336 101.738H154.337Z" fill="#BFD8FE"/>
<path d="M154.202 105.39H168.791C171.189 105.399 173.62 105.316 176.014 105.436C176.229 105.644 176.188 105.852 176.219 106.145L162.622 106.125C159.875 106.121 157.103 106.198 154.358 106.094C154.197 105.905 154.227 105.636 154.203 105.39H154.202Z" fill="#BFD8FE"/>
<path d="M147.995 30.0228C150.74 31.3251 154.77 32.2041 157.755 33.1743C158.504 33.4171 159.288 33.6338 160.007 33.952C159.991 35.2068 159.965 36.4616 160.007 37.7165C160.946 37.7518 161.903 37.7527 162.836 37.8569C162.833 41.7405 163.053 45.8529 162.636 49.7058C161.892 56.5734 158.35 62.3955 153.541 67.1842C151.662 69.0557 149.696 70.504 147.313 71.6696C144.698 70.3896 142.587 68.7106 140.54 66.6651C139.974 66.1005 139.392 65.2279 138.747 64.7889C138.689 64.3312 138.351 63.9675 138.008 63.6894C135.903 61.1583 134.084 58.1854 132.901 55.1093C132.809 54.6479 132.791 54.3065 132.389 54.0247C132.104 52.008 132.398 49.9876 132.224 47.9682C132.228 47.6575 132.22 47.3505 132.206 47.0398C131.853 46.7282 122.171 46.9021 120.82 46.8808C124.623 46.7738 128.448 46.8259 132.253 46.8389C132.324 43.8474 132.353 40.8549 132.339 37.8625L135.12 37.7779C135.127 36.4998 135.126 35.2226 135.119 33.9445C139.487 32.9157 143.703 31.2981 147.995 30.02V30.0228Z" fill="#E6E7E7"/>
<path d="M147.879 32.5503C148.543 32.5726 149.629 33.0833 150.285 33.2954C153.034 34.1846 155.776 35.2023 158.561 35.9678C158.543 36.5771 158.403 37.4478 158.741 37.9882C159.085 38.5389 160.015 38.6245 160.591 38.7584C160.593 42.8104 160.936 48.0948 160.004 51.93C158.331 58.8181 153.406 65.2179 147.377 68.9089C146.086 68.2326 144.792 67.1341 143.673 66.1927C140.818 63.7881 135.223 56.688 134.649 52.9728C134.451 51.6928 134.545 50.3068 134.539 49.0101C134.525 45.6465 134.702 41.9341 134.424 38.617C134.994 38.6115 135.974 38.7063 136.387 38.2375C136.79 37.7799 136.664 36.6608 136.677 36.0739C139.089 35.3734 141.493 34.6404 143.886 33.8749C145.219 33.4544 146.586 33.0777 147.88 32.5503H147.879Z" fill="#486694"/>
<path d="M151.463 39.189C151.901 39.149 152.362 39.1155 152.79 39.242C153.408 39.4243 153.948 39.8513 154.232 40.4336C154.264 40.4968 154.292 40.562 154.316 40.6289C154.341 40.6959 154.361 40.7629 154.379 40.8317C154.397 40.9005 154.411 40.9703 154.421 41.0401C154.431 41.1098 154.438 41.1805 154.441 41.2522C154.444 41.3229 154.443 41.3935 154.44 41.4642C154.435 41.5349 154.427 41.6056 154.415 41.6754C154.403 41.7452 154.388 41.8149 154.37 41.8828C154.351 41.9517 154.329 42.0186 154.303 42.0847C154.016 42.7972 153.464 43.1758 152.787 43.4763C152.346 43.5339 151.935 43.5302 151.504 43.4028C150.876 43.2158 150.333 42.8028 150.034 42.214C150.003 42.1517 149.975 42.0875 149.95 42.0214C149.924 41.9563 149.903 41.8893 149.885 41.8214C149.868 41.7535 149.853 41.6847 149.843 41.6159C149.831 41.547 149.825 41.4773 149.821 41.4066C149.817 41.3368 149.817 41.2661 149.821 41.1963C149.825 41.1266 149.832 41.0568 149.843 40.9871C149.854 40.9182 149.868 40.8494 149.885 40.7815C149.903 40.7136 149.924 40.6466 149.95 40.5815C150.221 39.8643 150.789 39.4811 151.462 39.189H151.463Z" fill="#9C9F9D"/>
<path d="M141.754 47.2994C142.263 47.2556 142.746 47.2073 143.236 47.3877C143.793 47.5933 144.26 48.0017 144.506 48.5449C144.538 48.6147 144.566 48.6863 144.59 48.7588C144.614 48.8314 144.634 48.9058 144.651 48.9802C144.668 49.0556 144.68 49.1309 144.689 49.2072C144.698 49.2835 144.702 49.3597 144.703 49.437C144.703 49.5132 144.7 49.5904 144.693 49.6667C144.686 49.743 144.674 49.8193 144.659 49.8946C144.645 49.97 144.625 50.0434 144.602 50.1169C144.579 50.1904 144.553 50.262 144.522 50.3327C144.22 51.0192 143.628 51.3997 142.954 51.6564C142.539 51.6834 142.055 51.7327 141.652 51.6164C141.1 51.4564 140.609 51.0443 140.346 50.5355C140.311 50.4676 140.279 50.3978 140.251 50.3262C140.223 50.2546 140.199 50.182 140.179 50.1086C140.158 50.0351 140.142 49.9597 140.128 49.8844C140.115 49.809 140.106 49.7328 140.102 49.6565C140.097 49.5802 140.095 49.5039 140.098 49.4267C140.101 49.3504 140.107 49.2742 140.117 49.1979C140.128 49.1216 140.142 49.0472 140.16 48.9728C140.179 48.8984 140.2 48.8249 140.226 48.7523C140.502 47.9951 141.061 47.6287 141.754 47.2994Z" fill="#9C9F9D"/>
<path d="M151.986 47.228C152.353 47.2513 152.74 47.2838 153.088 47.4122C153.67 47.6271 154.157 48.0689 154.387 48.6494C154.413 48.7154 154.435 48.7824 154.453 48.8503C154.472 48.9182 154.488 48.987 154.5 49.0568C154.512 49.1266 154.52 49.1963 154.525 49.267C154.53 49.3377 154.532 49.4084 154.529 49.4791C154.526 49.5498 154.52 49.6205 154.511 49.6903C154.502 49.76 154.489 49.8298 154.472 49.8986C154.455 49.9675 154.436 50.0354 154.412 50.1014C154.387 50.1674 154.361 50.2335 154.332 50.2977C153.96 51.093 153.273 51.4558 152.483 51.7237C151.885 51.6995 151.372 51.6595 150.857 51.3116C150.37 50.9832 150.018 50.4846 149.91 49.9033C149.896 49.827 149.885 49.7507 149.879 49.6735C149.872 49.5963 149.869 49.5191 149.87 49.4419C149.871 49.3647 149.877 49.2875 149.886 49.2112C149.896 49.134 149.909 49.0587 149.925 48.9824C149.942 48.907 149.963 48.8326 149.988 48.7591C150.012 48.6856 150.041 48.614 150.072 48.5433C150.104 48.4726 150.14 48.4038 150.179 48.3378C150.218 48.2708 150.261 48.2066 150.307 48.1443C150.738 47.5638 151.289 47.3322 151.985 47.228H151.986Z" fill="#9C9F9D"/>
<path d="M151.778 55.3152C152.297 55.304 152.742 55.3431 153.214 55.5775C153.789 55.8631 154.237 56.3672 154.414 56.9895C154.432 57.0565 154.448 57.1235 154.46 57.1914C154.472 57.2593 154.481 57.3281 154.487 57.397C154.493 57.4658 154.494 57.5346 154.494 57.6044C154.493 57.6732 154.488 57.7421 154.48 57.8109C154.471 57.8797 154.46 57.9476 154.445 58.0155C154.43 58.0825 154.413 58.1495 154.391 58.2155C154.37 58.2816 154.346 58.3458 154.318 58.409C154.29 58.4723 154.259 58.5337 154.226 58.5941C153.843 59.2722 153.275 59.5755 152.551 59.7866C152.037 59.8043 151.593 59.8052 151.12 59.5811C150.539 59.3067 150.088 58.8109 149.897 58.1951C149.877 58.1281 149.859 58.0611 149.845 57.9923C149.831 57.9234 149.821 57.8546 149.815 57.7858C149.808 57.716 149.804 57.6462 149.804 57.5765C149.804 57.5067 149.808 57.437 149.816 57.3672C149.823 57.2974 149.833 57.2286 149.847 57.1607C149.861 57.0928 149.879 57.0249 149.9 56.9579C149.922 56.8909 149.946 56.8258 149.973 56.7616C150.001 56.6975 150.031 56.6351 150.065 56.5737C150.436 55.8947 151.069 55.5459 151.779 55.3152H151.778Z" fill="#9C9F9D"/>
<path d="M141.979 39.0914C142.514 39.0746 142.995 39.0588 143.493 39.3007C143.563 39.3351 143.632 39.3723 143.698 39.4132C143.764 39.4542 143.828 39.4988 143.889 39.5472C143.951 39.5955 144.009 39.6467 144.065 39.7007C144.121 39.7546 144.174 39.8123 144.224 39.8718C144.274 39.9313 144.321 39.9937 144.364 40.0588C144.407 40.1239 144.446 40.1909 144.483 40.2597C144.519 40.3285 144.552 40.3992 144.579 40.4718C144.608 40.5443 144.632 40.6178 144.654 40.6932C144.821 41.2792 144.747 41.9415 144.428 42.4643C144.059 43.0689 143.496 43.3675 142.832 43.5452C142.348 43.561 141.91 43.5805 141.455 43.3796C140.872 43.1219 140.415 42.6094 140.204 42.0113C140.004 41.4448 140.022 40.8113 140.312 40.2792C140.674 39.6114 141.281 39.3044 141.981 39.0914H141.979Z" fill="#9C9F9D"/>
<path d="M141.847 55.315C142.257 55.2889 142.641 55.2741 143.038 55.3931C143.666 55.581 144.206 55.9922 144.498 56.5847C144.529 56.6508 144.558 56.7187 144.583 56.7875C144.608 56.8563 144.631 56.927 144.649 56.9977C144.668 57.0693 144.683 57.141 144.694 57.2135C144.705 57.2861 144.713 57.3596 144.717 57.4321C144.722 57.5056 144.722 57.5791 144.719 57.6526C144.716 57.7261 144.71 57.7996 144.699 57.8721C144.689 57.9447 144.676 58.0172 144.659 58.0888C144.642 58.1605 144.62 58.2312 144.597 58.3C144.311 59.1251 143.714 59.5083 142.961 59.8497C142.577 59.8841 142.187 59.9167 141.806 59.8348C141.2 59.7037 140.65 59.3232 140.348 58.7781C140.042 58.2265 140.008 57.5661 140.205 56.9717C140.482 56.1336 141.074 55.6768 141.846 55.315H141.847Z" fill="#9C9F9D"/>
<path d="M117.61 73.053L118.608 73.0568L129.417 73.1247C131.065 73.1368 133.607 72.9461 135.141 73.3219C135.772 73.4763 136.37 73.8642 136.814 74.3321C136.878 74.4009 136.941 74.4716 137 74.5441C137.06 74.6167 137.116 74.692 137.171 74.7683C137.225 74.8455 137.277 74.9237 137.327 75.0037C137.376 75.0837 137.422 75.1655 137.465 75.2492C137.509 75.333 137.549 75.4176 137.587 75.5041C137.625 75.5906 137.66 75.6781 137.691 75.7664C137.723 75.8548 137.752 75.945 137.777 76.0352C137.803 76.1255 137.825 76.2176 137.844 76.3097C138.115 77.5738 137.971 79.0556 137.976 80.3504L137.992 87.6711L138.002 87.7539C137.972 88.9054 137.903 90.0868 138.005 91.2356L138.009 98.732L138.004 99.7301L138.009 115.665C138.009 118.8 137.963 121.943 138.044 125.077C138.059 126.979 138.302 131.946 137.941 133.563C137.784 134.261 137.424 134.941 136.911 135.441C136.453 135.888 135.895 136.185 135.266 136.301C133.753 136.582 132.009 136.395 130.467 136.387C127.905 136.387 125.343 136.407 122.782 136.446L121.822 136.453C115.447 136.478 109.054 136.385 102.682 136.498C102.68 137.261 102.701 138.031 102.666 138.792L102.677 141.369C102.68 142.607 102.631 143.869 102.7 145.102C104.624 145.086 112.867 144.836 114.198 145.2C114.893 145.39 115.39 145.819 115.894 146.308C115.177 146.54 108.878 146.355 107.726 146.353L86.8887 146.331L77.7876 146.326C76.2156 146.326 74.5971 146.413 73.0334 146.285C73.5339 145.833 74.0529 145.317 74.7254 145.146C75.9803 144.826 77.6956 145.024 79.0025 145.029L86.0785 145.044C86.0813 144.34 86.0887 143.636 86.0989 142.932C86.0776 140.851 86.0701 138.77 86.0766 136.69L69.1098 136.725L68.0438 136.728L59.3065 136.753C57.5019 136.758 55.3755 136.988 53.6267 136.581C52.8156 136.392 52.1059 135.963 51.5254 135.371C51.3757 135.218 51.2361 135.057 51.1078 134.887C50.9794 134.717 50.8622 134.539 50.7561 134.353C50.651 134.167 50.558 133.975 50.4771 133.778C50.3971 133.58 50.3292 133.378 50.2752 133.172C49.8576 131.586 50.0929 126.813 50.0855 124.911V123.848C50.1552 117.307 50.0985 110.76 50.0957 104.218L50.1124 103.617L50.0985 103.247C50.1785 98.6195 50.1078 93.9787 50.118 89.3501L50.1264 88.139L50.1357 81.0992C50.1301 79.7151 49.9571 78.2175 50.1934 76.8538C50.3273 76.0836 50.6324 75.3302 51.1189 74.7144C51.9831 73.6205 53.1486 73.2707 54.4751 73.1228C54.8751 73.1293 55.275 73.1423 55.675 73.1396L70.1749 73.094C72.6576 73.2065 75.2008 73.0865 77.689 73.0865L92.7182 73.094H106.064C108.661 73.0958 111.28 73.1609 113.874 73.0484C115.118 73.0391 116.363 73.0419 117.607 73.0558L117.61 73.053Z" fill="#1A2C34"/>
<path d="M93.8679 128.619C94.3265 128.589 94.8242 128.56 95.2595 128.732C95.8065 128.947 96.266 129.361 96.4958 129.906C96.5227 129.972 96.5469 130.039 96.5674 130.106C96.5878 130.174 96.6046 130.243 96.6185 130.313C96.6325 130.383 96.6418 130.452 96.6483 130.523C96.6548 130.594 96.6576 130.665 96.6576 130.735C96.6576 130.806 96.653 130.877 96.6455 130.947C96.6381 131.018 96.6269 131.088 96.612 131.158C96.5971 131.227 96.5795 131.295 96.5581 131.363C96.5367 131.431 96.5116 131.497 96.4837 131.562C96.1934 132.24 95.6428 132.646 94.9749 132.902C94.467 132.948 93.9926 132.972 93.5173 132.753C93.4466 132.721 93.3787 132.686 93.3117 132.647C93.2447 132.608 93.1805 132.566 93.1182 132.52C93.0559 132.475 92.9954 132.426 92.9378 132.375C92.8801 132.324 92.8252 132.269 92.7731 132.212C92.721 132.156 92.6717 132.096 92.6261 132.034C92.5806 131.971 92.5368 131.907 92.4978 131.841C92.4578 131.775 92.4224 131.706 92.3899 131.637C92.3573 131.567 92.3285 131.495 92.3024 131.422C92.1155 130.885 92.1285 130.289 92.3796 129.774C92.7006 129.118 93.2112 128.859 93.8698 128.619H93.8679Z" fill="#FEFEFE"/>
<path d="M53.463 125C53.2239 124.84 53.0016 124.671 52.797 124.467C52.2054 123.877 52.2203 123.121 52.2165 122.34L52.2147 91.892V82.4617C52.21 80.9101 52.0826 79.2674 52.2258 77.7297C52.2835 77.1093 52.5375 76.4935 52.9933 76.06C53.3216 75.7475 53.7774 75.4889 54.2323 75.435C55.8025 75.2461 57.4777 75.354 59.0628 75.3531L67.8922 75.3484H97.0957L122.314 75.3643L130.122 75.3773C131.384 75.3801 132.74 75.275 133.988 75.4219C134.456 75.4777 134.849 75.6945 135.189 76.0191C135.584 76.394 135.779 76.8535 135.835 77.3902C136.007 79.0497 135.882 80.8143 135.883 82.4858V92.8147L135.869 125.141C133.074 125.035 130.241 125.148 127.442 125.153L110.589 125.172L56.9317 125.135C55.8238 125.154 54.5318 125.277 53.4621 125.002L53.463 125Z" fill="#5479F7"/>
<path d="M91.7639 116.946C91.7732 117.246 91.7657 117.53 91.7378 117.829C91.1741 118.086 89.6151 117.914 88.964 117.845C88.8309 117.607 88.8988 117.218 88.9119 116.946H91.7648H91.7639Z" fill="#476CFF"/>
<path d="M108.41 95.6364C108.441 95.9629 108.5 96.149 108.366 96.4522C107.653 96.882 106.446 96.5815 105.621 96.5889C105.615 96.3164 105.568 96.0262 105.723 95.788C106.373 95.3797 107.642 95.6346 108.41 95.6364Z" fill="#476CFF"/>
<path d="M129.079 103.488C129.093 103.183 129.046 103.058 129.255 102.827C129.772 102.659 132.125 102.638 132.651 102.784C132.703 103.027 132.726 103.252 132.742 103.498C131.674 103.521 130.605 103.532 129.534 103.532L129.079 103.487V103.488Z" fill="#FEFEFE"/>
<path d="M98.2018 116.853L101.047 116.856C101.033 117.193 101.01 117.512 100.953 117.845C100.05 117.981 99.052 117.889 98.1367 117.879L98.2018 116.854V116.853Z" fill="#476CFF"/>
<path d="M81.6275 95.6751L84.6441 95.6416L84.6311 96.7095C83.6302 96.7876 82.6126 96.7644 81.6089 96.7755L81.6275 95.676V95.6751Z" fill="#476CFF"/>
<path d="M67.6048 102.983C67.6327 102.947 67.6569 102.907 67.6894 102.876C67.9462 102.624 71.6725 102.774 72.3348 102.707C72.3321 102.982 72.386 103.252 72.2344 103.485C71.347 103.547 68.5536 103.663 67.8364 103.4C67.7499 103.262 67.6718 103.131 67.6057 102.983H67.6048Z" fill="#FEFEFE"/>
<path d="M116.555 102.906C116.655 102.834 116.681 102.805 116.817 102.769C117.124 102.688 120.919 102.672 121.188 102.783C121.234 102.802 121.274 102.833 121.317 102.858C121.277 103.072 121.241 103.287 121.207 103.502C119.77 103.517 118.259 103.638 116.832 103.487C116.631 103.323 116.627 103.147 116.555 102.905L116.555 102.906Z" fill="#FEFEFE"/>
<path d="M105.606 109.335L108.371 109.309L108.312 110.689C107.405 110.645 106.498 110.618 105.59 110.609L105.606 109.335Z" fill="#476CFF"/>
<path d="M81.6889 109.397C82.6665 109.393 83.6553 109.356 84.6255 109.497L84.6534 110.617C83.6665 110.65 82.6786 110.674 81.6908 110.687L81.6889 109.397Z" fill="#476CFF"/>
<path d="M110.506 102.761C111.396 102.752 114.816 102.566 115.421 102.826C115.47 103.073 115.505 103.311 115.529 103.561L115.422 103.552C113.834 103.423 112.163 103.696 110.596 103.467C110.523 103.212 110.507 103.021 110.506 102.761Z" fill="#FEFEFE"/>
<path d="M122.848 103.498L122.899 102.812C123.58 102.634 127.136 102.63 127.924 102.747C127.996 103.019 127.993 103.249 127.983 103.526C126.277 103.466 124.556 103.504 122.848 103.498Z" fill="#FEFEFE"/>
<path d="M76.1822 103.582C75.665 103.589 74.959 103.672 74.4632 103.54C74.2567 103.485 74.2539 103.486 74.1404 103.296C74.1553 103.083 74.1106 102.929 74.2771 102.784C75.7682 102.638 77.5114 102.633 79.0034 102.767C79.1048 103.021 79.0732 103.353 79.0779 103.629C78.1328 103.523 77.1328 103.568 76.1822 103.582Z" fill="#FEFEFE"/>
<path d="M84.632 113.244C86.0599 113.252 87.4989 113.225 88.9249 113.278C88.9286 113.718 88.9482 114.163 88.9268 114.603C87.4775 114.588 86.0292 114.591 84.58 114.611C84.5809 114.153 84.6004 113.701 84.6311 113.243L84.632 113.244Z" fill="#476CFF"/>
<path d="M115.529 103.56C115.551 103.289 115.569 103.067 115.684 102.814C115.849 102.82 115.793 102.806 115.926 102.848C116.114 102.907 116.227 102.957 116.431 102.932C116.473 102.926 116.514 102.914 116.555 102.906C116.627 103.147 116.631 103.324 116.832 103.488C118.259 103.639 119.77 103.518 121.207 103.503L122.847 103.498C124.555 103.504 126.276 103.467 127.982 103.526C128.397 103.59 128.673 103.538 129.078 103.488L129.534 103.533C130.304 103.647 131.1 103.604 131.877 103.599C131.76 104.007 131.621 104.426 131.571 104.85C129.69 104.786 127.786 104.848 125.902 104.856L115.121 104.878C113.244 104.867 111.198 105.013 109.342 104.788L109.241 104.529C109.376 103.951 110.035 103.98 110.482 103.667C110.505 103.651 110.528 103.634 110.551 103.617C112.196 103.592 113.895 103.708 115.529 103.561V103.56Z" fill="#476CFF"/>
<path d="M98.4724 84.1426C99.5012 84.124 100.53 84.1249 101.559 84.1463L101.609 88.0373C102.929 88.0252 104.263 88.0038 105.578 88.1331C105.578 89.5889 105.614 91.0437 105.689 92.4976L108.382 92.5116L108.41 95.6361C107.642 95.6342 106.373 95.3794 105.723 95.7877C105.568 96.0258 105.616 96.3151 105.621 96.5886L105.575 106.458C106.505 106.458 107.447 106.423 108.374 106.468L108.372 109.309L105.607 109.335L105.591 110.609L105.571 113.306C105.487 113.75 105.458 114.174 105.443 114.623C103.989 114.592 102.531 114.599 101.079 114.551L101.048 116.855L98.2027 116.852L98.2129 114.527C96.0623 114.563 93.9117 114.564 91.762 114.53L91.7648 116.947H88.9119C88.9119 116.166 88.9165 115.385 88.9277 114.604C88.9482 114.164 88.9296 113.718 88.9258 113.278C87.4989 113.225 86.0608 113.253 84.633 113.245C84.6683 112.373 84.6479 111.491 84.6534 110.619L84.6255 109.499C83.6553 109.357 82.6665 109.395 81.6889 109.399C81.6284 108.386 81.6554 107.368 81.6629 106.352C82.6619 106.346 83.6609 106.354 84.659 106.373C84.7148 103.152 84.6218 99.9317 84.6311 96.7105L84.6441 95.6426L81.6275 95.6761C81.6108 94.5915 81.6247 93.5041 81.6257 92.4185C82.6433 92.4148 83.6525 92.399 84.6683 92.3311L84.6767 88.0355C86.0152 88.0234 87.3547 88.0373 88.6933 88.0392C88.6784 86.7648 88.684 85.4904 88.711 84.2161C89.7118 84.1835 90.7137 84.1658 91.7155 84.163L91.6922 88.0541L98.4576 88.0392C98.4659 86.7378 98.4045 85.4439 98.4724 84.1426Z" fill="#FEFEFE"/>
<path d="M101.091 113.318L105.571 113.306C105.487 113.75 105.458 114.174 105.443 114.623C103.989 114.592 102.531 114.599 101.079 114.551L101.092 113.318H101.091Z" fill="#476CFF"/>
<path d="M91.7694 113.309C93.9163 113.297 96.0632 113.299 98.2101 113.314L98.212 114.528C96.0613 114.563 93.9107 114.564 91.761 114.531L91.7694 113.309Z" fill="#476CFF"/>
<path d="M100.097 95.6631C100.738 95.9896 102.15 97.6351 102.775 98.2258C101.65 99.5904 100.279 100.811 99.0371 102.074C97.2083 103.934 95.3665 105.957 93.3833 107.648C92.3564 106.74 91.403 105.742 90.4346 104.772C89.564 103.904 88.6617 103.062 87.7761 102.207C88.6505 101.185 89.7091 100.242 90.6542 99.2806C91.6104 100.285 92.5759 101.254 93.5889 102.2C95.7879 100.053 97.8139 97.7309 100.097 95.6631Z" fill="#476CFF"/>
<path d="M53.463 125C53.2239 124.84 53.0016 124.671 52.797 124.467C52.2054 123.877 52.2203 123.121 52.2165 122.34L52.2147 91.892V82.4617C52.21 80.9101 52.0826 79.2674 52.2258 77.7297C52.2835 77.1093 52.5375 76.4935 52.9933 76.06C53.3216 75.7475 53.7774 75.4889 54.2323 75.435C55.8025 75.2461 57.4777 75.354 59.0628 75.3531L67.8922 75.3484H97.0957C94.7823 77.3651 92.6587 79.5594 90.4876 81.7222C89.0095 83.1956 87.4859 84.629 86.0013 86.0987L73.5739 98.5485C72.1767 99.9382 70.6819 101.24 69.3042 102.645C70.2633 102.64 71.3944 102.518 72.333 102.707C71.6707 102.775 67.9452 102.625 67.6876 102.877C67.655 102.908 67.6308 102.948 67.6029 102.984C66.8774 103.187 66.1918 104.025 65.7295 104.596C67.3015 104.7 68.8959 104.651 70.4707 104.651C72.0083 104.65 73.5711 104.696 75.1068 104.62C75.5924 104.319 75.9514 104.136 76.1803 103.583C77.1309 103.569 78.1309 103.523 79.076 103.629C79.0415 103.647 79.0099 103.669 78.9736 103.683C78.3002 103.941 76.8081 103.467 76.264 103.785C76.0547 103.908 75.77 104.314 75.5924 104.504C76.197 104.521 77.9979 104.801 78.4202 104.517L78.782 104.597L79.2415 104.149L79.2843 104.209C77.6016 106.294 75.5301 108.054 73.6297 109.936C70.9042 112.635 68.2103 115.373 65.4439 118.031C63.0245 120.355 60.5009 122.612 58.1838 125.04C57.7745 125.061 57.3298 125.048 56.9299 125.135C55.822 125.154 54.5299 125.277 53.4602 125.002L53.463 125Z" fill="#97BEFD"/>
<path d="M61.3436 102.775C62.2785 102.767 65.2886 102.583 65.9676 102.844C66.0355 103.093 66.0309 103.198 65.95 103.443C65.536 103.712 62.2571 103.527 61.4999 103.554C61.4236 103.301 61.3901 103.035 61.3436 102.775Z" fill="#FEFEFE"/>
<path d="M59.6879 102.705L61.3427 102.775C61.3892 103.034 61.4227 103.301 61.499 103.554C61.5073 103.844 61.4283 104.178 61.3166 104.444C61.2692 104.557 61.2162 104.603 61.0897 104.63C60.4702 104.758 54.5113 104.791 54.1216 104.625C54.0527 104.595 54.0053 104.53 53.9467 104.482C53.93 104.237 53.983 104.005 54.1281 103.802C54.3262 103.524 54.4202 103.552 54.729 103.503L54.6853 102.857C55.2983 102.551 58.8302 102.712 59.6869 102.706L59.6879 102.705Z" fill="#5479F7"/>
<path d="M54.7299 103.502L54.6862 102.856C55.2992 102.55 58.8312 102.711 59.6879 102.705C59.6786 102.995 59.7009 103.246 59.5753 103.512C58.487 103.711 55.8192 103.659 54.7299 103.503V103.502Z" fill="#FEFEFE"/>
</svg>
