<svg width="369" height="275" viewBox="0 0 369 275" fill="none" xmlns="http://www.w3.org/2000/svg">
<g clip-path="url(#clip0_483_7392)">
<path d="M368.087 241.091H0.368896V241.275H368.087V241.091Z" fill="#EBEBEB"/>
<path d="M316.394 246.099H244.615V246.283H316.394V246.099Z" fill="#EBEBEB"/>
<path d="M247.233 250.342H212.91V250.526H247.233V250.342Z" fill="#EBEBEB"/>
<path d="M331.242 252.924H317.129V253.108H331.242V252.924Z" fill="#EBEBEB"/>
<path d="M161.43 250.438H93.3796V250.622H161.43V250.438Z" fill="#EBEBEB"/>
<path d="M86.8342 250.438H72.199V250.622H86.8342V250.438Z" fill="#EBEBEB"/>
<path d="M67.0363 247.334H42.8699V247.518H67.0363V247.334Z" fill="#EBEBEB"/>
<path d="M174.675 208.29H32.6619C30.3452 208.29 28.4625 206.407 28.4625 204.091V4.47107C28.4625 2.15445 30.3452 0.271729 32.6619 0.271729H174.675C176.991 0.271729 178.874 2.15445 178.874 4.47107V204.091C178.874 206.407 176.991 208.29 174.675 208.29ZM32.6619 0.455588C30.4482 0.455588 28.6464 2.25741 28.6464 4.47107V204.091C28.6464 206.304 30.4482 208.106 32.6619 208.106H174.675C176.888 208.106 178.69 206.304 178.69 204.091V4.47107C178.69 2.25741 176.888 0.455588 174.675 0.455588H32.6619Z" fill="#EBEBEB"/>
<path d="M333.75 208.29H191.737C189.42 208.29 187.538 206.407 187.538 204.091V4.47107C187.538 2.15445 189.42 0.271729 191.737 0.271729H333.75C336.066 0.271729 337.949 2.15445 337.949 4.47107V204.091C337.949 206.407 336.066 208.29 333.75 208.29ZM191.737 0.455588C189.523 0.455588 187.721 2.25741 187.721 4.47107V204.091C187.721 206.304 189.523 208.106 191.737 208.106H333.75C335.963 208.106 337.765 206.304 337.765 204.091V4.47107C337.765 2.25741 335.963 0.455588 333.75 0.455588H191.737Z" fill="#EBEBEB"/>
<path d="M287.976 234.317H65.8448L52.5995 83.6406H274.731L287.976 234.317Z" fill="#F0F0F0"/>
<path d="M61.9249 239.119L65.8448 234.317L52.5996 83.6406L48.6797 88.5092L61.9249 239.119Z" fill="#E0E0E0"/>
<path d="M68.7865 228.595L56.5856 89.7963C56.4605 88.3328 57.6078 87.0752 59.0787 87.0752H269.311C270.605 87.0752 271.686 88.068 271.804 89.355L284.005 228.154C284.13 229.618 282.982 230.875 281.512 230.875H71.2722C69.9779 230.875 68.8968 229.882 68.7791 228.595H68.7865Z" fill="#FAFAFA"/>
<path d="M97.0714 234.317H63.6017L61.2336 241.09H94.7033L97.0714 234.317Z" fill="#E0E0E0"/>
<path d="M97.0714 234.317H317.129L314.761 241.09H94.7033L97.0714 234.317Z" fill="#F5F5F5"/>
<path d="M187.685 234.317H229.869L229.413 238.752H187.236L187.685 234.317Z" fill="#E0E0E0"/>
<path d="M251.609 73.7495H304.906C309.326 102.99 288.896 127.047 259.662 127.047C250.307 127.047 240.746 124.583 231.936 119.906L251.609 73.7495Z" fill="#E0E0E0"/>
<path d="M251.609 73.7494L279.703 32.918C286.417 37.9189 292.161 44.1702 296.515 51.223C300.868 58.2758 303.737 65.9612 304.913 73.7494H251.616H251.609Z" fill="#EBEBEB"/>
<path d="M251.609 73.7493L243.556 20.4521C249.77 20.4521 256.11 21.5406 262.273 23.666C268.436 25.7914 274.334 28.9244 279.703 32.9178L251.609 73.7493Z" fill="#E6E6E6"/>
<path d="M251.609 73.7493L231.936 119.905C214.028 110.396 201.187 92.7677 198.319 73.7493C193.899 44.5083 214.33 20.4521 243.563 20.4521L251.616 73.7493H251.609Z" fill="#F0F0F0"/>
<path d="M185.809 168.863H233.083C233.708 172.996 233.789 177.108 233.318 181.101C232.855 185.094 231.84 188.926 230.318 192.5L185.802 168.863H185.809Z" fill="#EBEBEB"/>
<path d="M185.809 168.864L186.986 122.303C198.223 124.23 209.005 129.959 217.433 138.475C225.861 146.984 231.406 157.751 233.083 168.864H185.809Z" fill="#E0E0E0"/>
<path d="M185.809 168.863L143.823 185.035C141.154 179.851 139.359 174.379 138.528 168.863C134.608 142.924 152.729 121.589 178.661 121.589C181.411 121.589 184.199 121.832 186.979 122.31L185.802 168.871L185.809 168.863Z" fill="#F0F0F0"/>
<path d="M185.809 168.863L230.325 192.5C224.096 207.113 209.821 216.137 192.95 216.137C173.123 216.137 153.421 203.664 143.823 185.028L185.809 168.856V168.863Z" fill="white"/>
<path d="M184.228 274.303C262.981 274.303 326.822 270.576 326.822 265.978C326.822 261.38 262.981 257.653 184.228 257.653C105.476 257.653 41.6343 261.38 41.6343 265.978C41.6343 270.576 105.476 274.303 184.228 274.303Z" fill="#F5F5F5"/>
<path d="M177.308 135.908H111.06C106.853 135.908 103.139 132.467 102.793 128.267L99.4764 87.5313C99.1308 83.3246 102.293 79.8901 106.5 79.8901H172.748C176.955 79.8901 180.669 83.332 181.014 87.5313L184.331 128.267C184.677 132.474 181.514 135.908 177.308 135.908Z" fill="white"/>
<path d="M177.308 136.232H111.06C106.684 136.232 102.83 132.672 102.477 128.296L99.1602 87.5606C98.9837 85.4352 99.6603 83.4274 101.058 81.9124C102.448 80.4048 104.382 79.5737 106.5 79.5737H172.748C177.124 79.5737 180.978 83.1332 181.331 87.5091L184.647 128.245C184.824 130.37 184.147 132.378 182.75 133.893C181.36 135.401 179.426 136.232 177.308 136.232ZM106.5 80.2062C104.558 80.2062 102.793 80.9637 101.528 82.339C100.256 83.7216 99.6382 85.5602 99.8 87.5017L103.117 128.238C103.448 132.29 107.015 135.592 111.067 135.592H177.315C179.257 135.592 181.022 134.834 182.287 133.459C183.559 132.077 184.177 130.238 184.015 128.296L180.698 87.5606C180.367 83.5083 176.8 80.2062 172.748 80.2062H106.5Z" fill="#5479F7"/>
<path d="M159.326 124.016C156.73 126.847 153.369 128.877 149.589 129.914L148.493 126.774C156.649 124.545 162.172 116.941 161.437 107.903C160.996 102.504 158.414 97.6211 154.59 94.0837L156.701 91.7817C166.261 100.622 167.445 115.169 159.326 124.016Z" fill="#E0E0E0"/>
<path d="M156.701 91.7896L154.59 94.0915C150.766 90.554 145.706 88.3698 140.308 88.3698C134.91 88.3698 130.203 90.5614 126.967 94.0989L124.474 91.7896C128.401 87.5167 134.005 85.1118 140.043 85.1118C146.081 85.1118 152.082 87.5167 156.701 91.7896Z" fill="#263238"/>
<path d="M149.589 129.914C141.904 132.017 133.314 129.76 127.092 124.016C117.539 115.176 116.355 100.629 124.467 91.7817L126.96 94.091C123.709 97.6285 121.922 102.504 122.363 107.903C123.238 118.684 132.696 127.428 143.485 127.428C145.228 127.428 146.912 127.2 148.486 126.774L149.582 129.914H149.589Z" fill="#5479F7"/>
<path d="M87.0696 14.0542H81.7597V14.694H87.0696V14.0542Z" fill="#5479F7"/>
<path d="M76.6043 14.0542H64.5137V14.694H76.6043V14.0542Z" fill="#5479F7"/>
<path d="M132.85 72.5949H66.6023C62.3956 72.5949 58.6817 69.153 58.336 64.9537L55.0192 24.2179C54.6735 20.0112 57.8359 16.5767 62.0426 16.5767H128.291C132.497 16.5767 136.211 20.0185 136.557 24.2179L139.874 64.9537C140.22 69.1604 137.057 72.5949 132.85 72.5949Z" fill="white"/>
<path d="M132.85 72.9112H66.6023C62.2265 72.9112 58.3728 69.3517 58.0198 64.9759L54.703 24.24C54.5264 22.1146 55.2031 20.1069 56.6004 18.5919C57.9904 17.0842 59.9246 16.2532 62.0426 16.2532H128.291C132.667 16.2532 136.52 19.8127 136.873 24.1885L140.19 64.9244C140.367 67.0498 139.69 69.0575 138.293 70.5725C136.903 72.0802 134.969 72.9112 132.85 72.9112ZM62.05 16.893C60.1084 16.893 58.3434 17.6505 57.0784 19.0258C55.8061 20.4084 55.1883 22.2396 55.3501 24.1885L58.667 64.9244C58.9979 68.9767 62.5648 72.2788 66.617 72.2788H132.865C134.807 72.2788 136.572 71.5213 137.837 70.146C139.109 68.7634 139.727 66.9248 139.565 64.9832L136.248 24.2474C135.917 20.1951 132.35 16.893 128.298 16.893H62.05Z" fill="#5479F7"/>
<path d="M61.0204 28.2627H96.1228L95.836 24.7988H60.7336L61.0204 28.2627Z" fill="#E0E0E0"/>
<path d="M131.225 28.2627H96.1228L95.8359 24.7988H130.946L131.225 28.2627Z" fill="#5479F7"/>
<path d="M61.7558 37.2935H71.7651L71.4856 33.8223H61.469L61.7558 37.2935Z" fill="#E0E0E0"/>
<path d="M131.961 37.2935H71.7651L71.4857 33.8223H131.681L131.961 37.2935Z" fill="#5479F7"/>
<path d="M62.4912 46.3174H93.7326L93.4531 42.8535H62.2044L62.4912 46.3174Z" fill="#E0E0E0"/>
<path d="M132.696 46.3174H93.7326L93.4531 42.8535H132.417L132.696 46.3174Z" fill="#5479F7"/>
<path d="M63.2193 55.3487H116.553L116.266 51.8774H62.9399L63.2193 55.3487Z" fill="#E0E0E0"/>
<path d="M133.432 55.3487H116.553L116.266 51.8774H133.152L133.432 55.3487Z" fill="#5479F7"/>
<path d="M63.9548 64.3726H88.6213L88.3418 60.9087H63.6753L63.9548 64.3726Z" fill="#E0E0E0"/>
<path d="M134.167 64.3726H88.6213L88.3419 60.9087H133.88L134.167 64.3726Z" fill="#5479F7"/>
<path d="M223.412 72.5949H157.164C152.957 72.5949 149.243 69.153 148.898 64.9537L145.581 24.2179C145.235 20.0112 148.398 16.5767 152.604 16.5767H218.853C223.059 16.5767 226.773 20.0185 227.119 24.2179L230.436 64.9537C230.781 69.1604 227.619 72.5949 223.412 72.5949Z" fill="white"/>
<path d="M223.412 72.9112H157.164C152.788 72.9112 148.934 69.3517 148.581 64.9759L145.265 24.24C145.088 22.1146 145.765 20.1069 147.162 18.5919C148.552 17.0842 150.486 16.2532 152.604 16.2532H218.852C223.228 16.2532 227.082 19.8127 227.435 24.1885L230.752 64.9244C230.928 67.0498 230.252 69.0575 228.854 70.5725C227.464 72.0802 225.53 72.9112 223.412 72.9112ZM152.604 16.893C150.663 16.893 148.898 17.6505 147.633 19.0258C146.36 20.4084 145.743 22.247 145.904 24.1885L149.221 64.9244C149.552 68.9767 153.119 72.2788 157.171 72.2788H223.42C225.361 72.2788 227.126 71.5213 228.391 70.146C229.663 68.7634 230.281 66.9321 230.119 64.9832L226.803 24.2474C226.472 20.1951 222.905 16.893 218.852 16.893H152.604Z" fill="#5479F7"/>
<path d="M190.207 64.3732H189.038L185.817 24.7993H186.986L190.207 64.3732Z" fill="#E0E0E0"/>
<path d="M191.972 47.9286H184.596L183.338 32.4624H190.715L191.972 47.9286Z" fill="#5479F7"/>
<path d="M175.69 64.3732H174.52L171.292 24.7993H172.461L175.69 64.3732Z" fill="#E0E0E0"/>
<path d="M177.734 51.3632H170.35L169.247 37.8091H176.631L177.734 51.3632Z" fill="#5479F7"/>
<path d="M161.165 64.3732H159.996L156.774 24.7993H157.944L161.165 64.3732Z" fill="#E0E0E0"/>
<path d="M162.305 40.2135H154.928L154.171 30.9028H161.547L162.305 40.2135Z" fill="#263238"/>
<path d="M204.725 64.3732H203.555L200.334 24.7993H201.504L204.725 64.3732Z" fill="#E0E0E0"/>
<path d="M207.203 56.7098H199.827L197.856 32.4624H205.232L207.203 56.7098Z" fill="#263238"/>
<path d="M219.25 64.3732H218.08L214.852 24.7993H216.021L219.25 64.3732Z" fill="#E0E0E0"/>
<path d="M221.963 59.6148H214.587L213.006 40.1992H220.382L221.963 59.6148Z" fill="#5479F7"/>
<path d="M152.523 198.708H86.2753C82.0686 198.708 78.3546 195.266 78.009 191.066L74.6922 150.331C74.3465 146.124 77.5089 142.689 81.7156 142.689H147.964C152.17 142.689 155.884 146.131 156.23 150.331L159.547 191.066C159.893 195.273 156.73 198.708 152.523 198.708Z" fill="white"/>
<path d="M152.523 199.024H86.2753C81.8994 199.024 78.0458 195.465 77.6927 191.089L74.3759 150.353C74.1994 148.228 74.876 146.22 76.2734 144.705C77.6633 143.197 79.5975 142.366 81.7156 142.366H147.964C152.34 142.366 156.193 145.926 156.546 150.302L159.863 191.037C160.04 193.163 159.363 195.171 157.966 196.686C156.576 198.193 154.642 199.024 152.523 199.024ZM81.7156 143.006C79.774 143.006 78.009 143.764 76.744 145.139C75.4717 146.521 74.854 148.36 75.0158 150.302L78.3326 191.037C78.6635 195.09 82.2304 198.392 86.2827 198.392H152.531C154.472 198.392 156.237 197.634 157.502 196.259C158.775 194.876 159.392 193.045 159.231 191.096L155.914 150.36C155.583 146.308 152.016 143.006 147.964 143.006H81.7156Z" fill="#5479F7"/>
<path d="M90.6806 169.724L104.955 186.22L121.334 160.965L131.453 174.019L133.924 170.202L150.479 190.045L86.9078 190.015L90.6806 169.724Z" fill="#5479F7"/>
<path d="M138.344 170.747L131.711 184.955L110.545 151.353L100.58 172.695L97.3806 167.621L86.9153 190.044L150.472 190.008L138.344 170.747Z" fill="#E0E0E0"/>
<path d="M274.599 76.8386C276.371 80.1628 277.893 83.4502 279.327 86.87C280.725 90.2971 282.019 93.7757 283.027 97.4455C283.284 98.3575 283.505 99.2988 283.718 100.24C283.806 100.564 284.012 101.586 284.012 102.233C284.049 102.954 283.99 103.609 283.902 104.226C283.505 106.668 282.644 108.543 281.718 110.316C279.813 113.824 277.518 116.729 274.841 119.472C274.04 120.296 272.723 120.31 271.9 119.509C271.23 118.854 271.091 117.854 271.502 117.067L271.554 116.964C273.128 113.919 274.694 110.705 275.746 107.661C276.253 106.153 276.658 104.609 276.65 103.469C276.643 103.197 276.636 102.947 276.592 102.77C276.577 102.682 276.555 102.601 276.533 102.557L276.393 102.123C276.15 101.329 275.893 100.542 275.599 99.7401C274.488 96.5483 273.106 93.3418 271.679 90.1574C270.252 86.9876 268.722 83.7591 267.207 80.6923L267.178 80.6334C266.156 78.5669 267.001 76.0664 269.068 75.0441C271.091 74.0439 273.54 74.8456 274.599 76.8239V76.8386Z" fill="#5479F7"/>
<path d="M272.297 116.662L268.789 117.765L272.922 122.604C272.922 122.604 274.518 121.2 275.091 119.17C275.283 118.486 275.003 117.751 274.422 117.331L273.834 116.905C273.393 116.581 272.819 116.493 272.297 116.655V116.662Z" fill="#7F3E3B"/>
<path d="M263.949 120.752L268.377 124.26L272.922 122.605L268.789 117.766L263.949 120.752Z" fill="#7F3E3B"/>
<path d="M248.836 52.2379C248.748 52.6718 248.446 52.9807 248.16 52.9218C247.873 52.863 247.718 52.4659 247.807 52.032C247.895 51.5981 248.196 51.2892 248.483 51.348C248.77 51.4068 248.924 51.804 248.836 52.2379Z" fill="#263238"/>
<path d="M248.483 52.9878C248.483 52.9878 246.983 55.2971 245.652 56.2899C246.277 57.1651 247.652 57.0989 247.652 57.0989L248.491 52.9878H248.483Z" fill="#630F0F"/>
<path d="M250.918 50.1492C250.984 50.1492 251.043 50.1272 251.094 50.0831C251.197 49.9874 251.204 49.8183 251.109 49.7153C250.131 48.6563 248.939 48.8475 248.888 48.8549C248.748 48.8769 248.652 49.0167 248.674 49.1564C248.696 49.2961 248.836 49.3917 248.976 49.3697C249.013 49.3697 249.947 49.2299 250.726 50.0757C250.778 50.1345 250.844 50.1566 250.918 50.1566V50.1492Z" fill="#263238"/>
<path d="M260.919 60.1582C260.133 64.1884 259.655 69.763 262.471 72.4547C262.471 72.4547 261.368 76.5364 253.889 76.5364C245.659 76.5364 249.932 72.9548 249.932 72.9548C253.352 71.8958 253.322 67.998 252.543 64.865L260.927 60.1582H260.919Z" fill="#7F3E3B"/>
<path d="M248.483 72.3226C248.483 72.3226 249.682 69.4765 250.91 68.9911C252.138 68.4983 259.941 67.2187 261.736 68.3512C263.53 69.4838 264.751 73.1169 264.751 73.1169L248.483 72.3226Z" fill="#5479F7"/>
<path d="M256.735 260.639C256.029 260.639 255.345 260.543 255.117 260.227C255.036 260.117 254.977 259.926 255.124 259.661C255.213 259.506 255.352 259.403 255.536 259.359C256.455 259.109 258.375 260.205 258.456 260.257C258.5 260.286 258.529 260.337 258.522 260.389C258.515 260.44 258.471 260.485 258.419 260.499C258.066 260.573 257.389 260.654 256.728 260.654L256.735 260.639ZM255.86 259.565C255.771 259.565 255.683 259.573 255.61 259.595C255.492 259.624 255.404 259.69 255.352 259.778C255.257 259.94 255.293 260.021 255.33 260.065C255.588 260.418 256.978 260.433 258 260.286C257.492 260.021 256.507 259.565 255.86 259.565Z" fill="#5479F7"/>
<path d="M258.397 260.484C258.397 260.484 258.36 260.484 258.345 260.469C257.684 260.168 256.367 258.984 256.463 258.359C256.485 258.211 256.588 258.028 256.948 257.991C257.213 257.961 257.456 258.042 257.669 258.211C258.368 258.785 258.515 260.271 258.522 260.329C258.522 260.374 258.507 260.418 258.471 260.447C258.448 260.462 258.419 260.469 258.397 260.469V260.484ZM257.051 258.248C257.051 258.248 257 258.248 256.97 258.248C256.735 258.27 256.72 258.366 256.713 258.395C256.654 258.77 257.544 259.704 258.228 260.109C258.154 259.675 257.963 258.785 257.5 258.41C257.36 258.3 257.213 258.241 257.044 258.241L257.051 258.248Z" fill="#5479F7"/>
<path d="M264.45 260.352H258.941L258.397 247.606H263.898L264.45 260.352Z" fill="#7F3E3B"/>
<path d="M258.978 259.719H264.986C265.214 259.719 265.406 259.874 265.457 260.094L266.546 264.985C266.656 265.492 266.274 265.97 265.751 265.963C263.582 265.926 260.449 265.801 257.72 265.801C254.536 265.801 254.146 265.978 250.41 265.978C248.152 265.978 247.52 263.691 248.469 263.485C252.778 262.543 253.926 262.44 257.647 260.146C258.051 259.896 258.5 259.719 258.971 259.719H258.978Z" fill="#263238"/>
<path d="M272.326 72.47C277.489 73.654 280.887 87.5759 280.887 87.5759L272.275 94.0477C272.275 94.0477 267.575 91.1354 265.884 84.5459C264.111 77.6401 267.053 71.2565 272.326 72.47Z" fill="#263238"/>
<path opacity="0.2" d="M267.906 82.1558C270.708 84.9284 272.517 89.3042 272.738 93.6948L272.282 94.0478C272.282 94.0478 267.575 91.1354 265.884 84.5459C265.781 84.1341 265.692 83.7222 265.612 83.3178L267.906 82.1558Z" fill="black"/>
<path d="M290.875 93.2065L249.079 109.907L261.498 140.987L303.294 124.287L290.875 93.2065Z" fill="#5479F7"/>
<path opacity="0.5" d="M290.265 93.4477L249.084 109.902L261.503 140.983L302.684 124.528L290.265 93.4477Z" fill="white"/>
<g opacity="0.5">
<path d="M256.631 110.077L252.732 111.635L253.837 114.401L257.736 112.843L256.631 110.077Z" fill="#5479F7"/>
<path d="M263.064 107.505L259.164 109.063L260.269 111.829L264.169 110.271L263.064 107.505Z" fill="#5479F7"/>
<path d="M269.496 104.934L265.597 106.492L266.702 109.258L270.602 107.699L269.496 104.934Z" fill="#5479F7"/>
<path d="M275.939 102.366L272.039 103.924L273.144 106.69L277.044 105.132L275.939 102.366Z" fill="#5479F7"/>
<path d="M282.379 99.7939L278.479 101.352L279.584 104.118L283.484 102.56L282.379 99.7939Z" fill="#5479F7"/>
<path d="M288.811 97.2221L284.912 98.7803L286.017 101.546L289.917 99.988L288.811 97.2221Z" fill="#5479F7"/>
<path d="M258.45 114.635L254.551 116.193L255.656 118.959L259.555 117.401L258.45 114.635Z" fill="#5479F7"/>
<path d="M264.886 112.069L260.986 113.627L262.091 116.393L265.991 114.835L264.886 112.069Z" fill="#5479F7"/>
<path d="M271.326 109.498L267.426 111.056L268.531 113.822L272.431 112.264L271.326 109.498Z" fill="#5479F7"/>
<path d="M277.765 106.923L273.866 108.481L274.971 111.247L278.87 109.689L277.765 106.923Z" fill="#5479F7"/>
<path d="M284.198 104.352L280.298 105.91L281.403 108.676L285.303 107.118L284.198 104.352Z" fill="#5479F7"/>
<path d="M290.638 101.78L286.738 103.338L287.843 106.104L291.743 104.546L290.638 101.78Z" fill="#5479F7"/>
<path d="M260.272 119.206L256.372 120.764L257.478 123.53L261.377 121.972L260.272 119.206Z" fill="#5479F7"/>
<path d="M266.712 116.635L262.812 118.193L263.918 120.959L267.817 119.401L266.712 116.635Z" fill="#5479F7"/>
<path d="M273.145 114.062L269.245 115.621L270.35 118.387L274.25 116.828L273.145 114.062Z" fill="#5479F7"/>
<path d="M279.584 111.481L275.685 113.04L276.79 115.805L280.689 114.247L279.584 111.481Z" fill="#5479F7"/>
<path d="M286.027 108.924L282.127 110.482L283.233 113.248L287.132 111.69L286.027 108.924Z" fill="#5479F7"/>
<path d="M292.46 106.352L288.56 107.91L289.665 110.676L293.565 109.117L292.46 106.352Z" fill="#5479F7"/>
<path d="M262.098 123.764L258.199 125.322L259.304 128.088L263.204 126.53L262.098 123.764Z" fill="#5479F7"/>
<path d="M268.534 121.199L264.634 122.757L265.739 125.523L269.639 123.965L268.534 121.199Z" fill="#5479F7"/>
<path d="M274.974 118.627L271.074 120.186L272.179 122.951L276.079 121.393L274.974 118.627Z" fill="#5479F7"/>
<path d="M281.413 116.053L277.514 117.611L278.619 120.377L282.519 118.819L281.413 116.053Z" fill="#5479F7"/>
<path d="M287.846 113.481L283.946 115.04L285.052 117.805L288.951 116.247L287.846 113.481Z" fill="#5479F7"/>
<path d="M294.279 110.909L290.379 112.467L291.484 115.233L295.384 113.675L294.279 110.909Z" fill="#5479F7"/>
<path d="M263.92 128.329L260.021 129.887L261.126 132.653L265.025 131.094L263.92 128.329Z" fill="#5479F7"/>
<path d="M270.36 125.756L266.461 127.314L267.566 130.08L271.465 128.522L270.36 125.756Z" fill="#5479F7"/>
<path d="M276.793 123.185L272.893 124.743L273.998 127.509L277.898 125.951L276.793 123.185Z" fill="#5479F7"/>
<path d="M283.226 120.621L279.326 122.179L280.431 124.945L284.331 123.386L283.226 120.621Z" fill="#5479F7"/>
<path d="M289.675 118.053L285.776 119.611L286.881 122.377L290.78 120.819L289.675 118.053Z" fill="#5479F7"/>
<path d="M296.108 115.474L292.208 117.032L293.313 119.798L297.213 118.24L296.108 115.474Z" fill="#5479F7"/>
<path d="M265.747 132.893L261.847 134.451L262.952 137.217L266.852 135.659L265.747 132.893Z" fill="#5479F7"/>
<path d="M272.179 130.322L268.28 131.88L269.385 134.646L273.284 133.088L272.179 130.322Z" fill="#5479F7"/>
<path d="M278.615 127.757L274.715 129.315L275.82 132.081L279.72 130.523L278.615 127.757Z" fill="#5479F7"/>
<path d="M285.055 125.178L281.155 126.736L282.26 129.502L286.16 127.944L285.055 125.178Z" fill="#5479F7"/>
<path d="M291.494 122.603L287.595 124.162L288.7 126.928L292.599 125.369L291.494 122.603Z" fill="#5479F7"/>
<path d="M297.927 120.032L294.027 121.59L295.133 124.356L299.032 122.798L297.927 120.032Z" fill="#5479F7"/>
</g>
<path d="M287.417 103.049C287.182 102.454 287.469 101.77 288.064 101.534C288.66 101.292 289.344 101.586 289.579 102.182C289.822 102.777 289.528 103.461 288.932 103.697C288.337 103.939 287.653 103.645 287.417 103.049Z" fill="white"/>
<path d="M286.454 119.31C286.211 118.714 286.505 118.03 287.101 117.795C287.697 117.552 288.381 117.846 288.616 118.442C288.851 119.038 288.565 119.722 287.969 119.957C287.373 120.2 286.689 119.905 286.454 119.31Z" fill="white"/>
<path d="M271.753 119.891C271.51 119.295 271.804 118.611 272.4 118.376C272.995 118.133 273.679 118.427 273.915 119.023C274.157 119.619 273.863 120.303 273.268 120.538C272.672 120.773 271.988 120.486 271.753 119.891Z" fill="white"/>
<path d="M262.523 134.166C262.287 133.57 262.574 132.886 263.17 132.651C263.766 132.408 264.45 132.702 264.685 133.298C264.928 133.894 264.633 134.578 264.038 134.813C263.442 135.056 262.758 134.761 262.523 134.166Z" fill="white"/>
<path d="M263.611 134.166C263.53 134.166 263.449 134.144 263.376 134.099C263.177 133.967 263.118 133.702 263.251 133.504L272.481 119.229C272.554 119.111 272.686 119.038 272.826 119.03L287.13 118.464L288.072 102.593C288.087 102.358 288.3 102.174 288.528 102.189C288.763 102.204 288.947 102.409 288.932 102.645L287.969 118.905C287.954 119.126 287.778 119.302 287.557 119.31L273.084 119.883L263.979 133.967C263.898 134.092 263.758 134.166 263.619 134.166H263.611Z" fill="white"/>
<path d="M239.724 77.9931C238.599 83.9428 237.893 96.151 241.158 120.34H270.598C270.068 116.148 267.958 93.7756 272.319 72.4773C272.319 72.4773 267.274 71.4624 262.464 71.2344C258.698 71.0506 253.256 70.9329 249.947 71.2344C248.564 71.3595 247.211 71.558 246.005 71.7713C242.82 72.3376 240.32 74.816 239.717 77.9931H239.724Z" fill="#263238"/>
<path opacity="0.2" d="M244.358 87.1489L238.827 87.5902C238.628 94.746 239.121 105.189 241.166 120.332H241.43C244.747 109.425 249.145 93.834 244.358 87.1489Z" fill="black"/>
<path opacity="0.2" d="M258.397 247.606L258.676 254.181H264.185L263.905 247.606H258.397Z" fill="black"/>
<path d="M263.538 54.2672C262.126 59.5476 261.567 62.7026 258.309 64.9016C253.411 68.2037 247.314 64.4162 247.123 58.8195C246.954 53.7818 249.292 46.0009 254.955 44.9345C260.537 43.8902 264.957 48.9867 263.538 54.2672Z" fill="#7F3E3B"/>
<path d="M251.182 54.2972L248.321 55.04L250.984 48.1342C250.697 47.6047 249.939 45.2072 250.741 42.8097C250.954 42.1772 251.535 41.7507 252.197 41.7359C258.125 41.6183 264.325 44.9498 267.443 47.465C268.046 47.9504 268.193 48.8035 267.788 49.4654C267.105 50.5832 266.222 51.4437 265.104 52.5763C265.045 54.5105 261.89 63.2401 260.14 64.2256C258.39 65.2037 255.051 64.8066 254.168 63.2107C253.278 61.6148 250.278 59.5041 251.182 54.2972Z" fill="#263238"/>
<path d="M253.83 54.4076C253.506 55.8049 252.631 57.0184 251.697 57.7538C250.292 58.857 249.197 57.8421 249.255 56.2167C249.307 54.7532 250.101 52.4219 251.668 51.9438C253.212 51.4732 254.198 52.819 253.83 54.4076Z" fill="#7F3E3B"/>
<path d="M304.163 258.734C304.163 258.028 304.251 257.344 304.568 257.116C304.678 257.035 304.869 256.969 305.134 257.116C305.288 257.204 305.391 257.337 305.443 257.528C305.7 258.44 304.612 260.374 304.568 260.455C304.538 260.499 304.487 260.528 304.435 260.521C304.384 260.514 304.34 260.47 304.325 260.418C304.251 260.065 304.163 259.389 304.163 258.734ZM305.23 257.859C305.23 257.771 305.222 257.682 305.2 257.609C305.163 257.491 305.105 257.403 305.016 257.351C304.855 257.263 304.774 257.293 304.73 257.329C304.376 257.587 304.376 258.977 304.524 259.999C304.781 259.484 305.237 258.499 305.23 257.859Z" fill="#5479F7"/>
<path d="M304.325 260.396C304.325 260.396 304.325 260.359 304.34 260.344C304.634 259.675 305.818 258.351 306.436 258.454C306.583 258.476 306.767 258.579 306.803 258.94C306.833 259.205 306.759 259.447 306.583 259.668C306.009 260.374 304.531 260.528 304.465 260.536C304.421 260.536 304.376 260.521 304.347 260.484C304.332 260.462 304.325 260.433 304.325 260.411V260.396ZM306.553 259.043C306.553 259.043 306.553 258.991 306.553 258.962C306.531 258.727 306.436 258.712 306.406 258.712C306.031 258.653 305.105 259.558 304.7 260.234C305.134 260.161 306.016 259.962 306.392 259.499C306.502 259.359 306.561 259.212 306.561 259.043H306.553Z" fill="#5479F7"/>
<path d="M304.413 260.433L299.037 260.815L296.022 247.967L301.391 247.584L304.413 260.433Z" fill="#7F3E3B"/>
<path d="M304.391 259.197L298.405 258.668C298.184 258.646 297.971 258.785 297.905 258.999L296.39 263.779C296.235 264.272 296.573 264.787 297.096 264.823C299.258 264.978 302.391 265.125 305.105 265.368C308.282 265.647 306.222 265.64 309.944 265.971C312.194 266.169 313.018 263.948 312.099 263.661C307.892 262.345 307.127 261.433 305.678 259.742C305.369 259.381 304.869 259.241 304.399 259.197H304.391Z" fill="#263238"/>
<path opacity="0.2" d="M296.022 247.967L297.581 254.593L302.95 254.211L301.398 247.584L296.022 247.967Z" fill="black"/>
<path d="M251.609 120.332C251.609 120.332 264.273 162.612 269.076 178.307C274.334 195.494 294.352 252.512 294.352 252.512L304.06 250.379C304.06 250.379 290.352 201.392 284.659 177.417C280.291 159.001 270.605 120.325 270.605 120.325H251.609V120.332Z" fill="#5479F7"/>
<path d="M292.646 249.519C292.602 249.519 293.602 253.306 293.602 253.306L305.274 252.056L305.222 248.585L292.646 249.519Z" fill="#263238"/>
<path opacity="0.3" d="M258.618 139.931C265.626 140.858 268.414 165.274 269.465 179.601C269.333 179.145 269.193 178.718 269.068 178.306C266.45 169.739 261.478 153.221 257.514 140.005C257.845 139.894 258.22 139.872 258.618 139.924V139.931Z" fill="black"/>
<path d="M241.166 120.332C241.166 120.332 245.409 161.509 247.24 178.277C249.145 195.714 256.286 252.909 256.286 252.909H265.612C265.612 252.909 264.479 196.758 264.104 179.608C263.692 160.913 260.515 120.332 260.515 120.332H241.158H241.166Z" fill="#5479F7"/>
<path d="M254.837 249.195C254.793 249.195 255.367 253.063 255.367 253.063H266.707L267.016 249.607L254.837 249.188V249.195Z" fill="#263238"/>
<path d="M201.342 159.075C206.203 166.782 216.396 169.091 224.104 164.23C231.811 159.369 234.12 149.183 229.259 141.468C224.398 133.761 214.205 131.444 206.497 136.306C198.79 141.167 196.481 151.36 201.334 159.067L201.342 159.075ZM227.053 142.866C231.142 149.352 229.2 157.935 222.714 162.024C216.22 166.113 207.644 164.171 203.555 157.685C199.466 151.191 201.408 142.616 207.902 138.527C214.388 134.438 222.971 136.379 227.06 142.873L227.053 142.866Z" fill="#263238"/>
<path opacity="0.2" d="M227.715 153.088C226.163 159.942 219.345 164.245 212.484 162.686C205.629 161.134 201.327 154.316 202.879 147.455C204.431 140.6 211.248 136.298 218.11 137.85C224.964 139.402 229.266 146.219 227.707 153.081L227.715 153.088Z" fill="#5479F7"/>
<path d="M229.708 139.475L231.252 141.932C231.487 142.307 231.377 142.799 231.002 143.035C230.627 143.27 230.134 143.16 229.899 142.785L228.354 140.328C228.119 139.953 228.229 139.46 228.604 139.225C228.979 138.99 229.472 139.1 229.708 139.475Z" fill="#263238"/>
<path d="M239.717 132.496C237.93 133.717 236.157 134.96 234.4 136.24C232.649 137.519 230.914 138.821 229.222 140.204C228.847 140.512 228.707 141.049 228.928 141.513C229.185 142.064 229.84 142.3 230.384 142.042C232.363 141.116 234.282 140.115 236.194 139.086C238.106 138.056 239.989 136.99 241.864 135.901C243.46 134.975 245.041 134.026 246.608 133.07C247.064 132.79 247.196 132.195 246.917 131.746L245.645 129.724C245.365 129.275 244.762 129.143 244.321 129.429C242.776 130.437 241.239 131.452 239.717 132.489V132.496Z" fill="#263238"/>
<path d="M247.917 80.0519C247.02 84.4646 246.049 88.8698 245.049 93.253L241.997 106.388C241.011 110.668 240.166 115.007 239.393 119.413L237.077 132.65V132.68C236.871 133.812 235.797 134.563 234.672 134.364C233.686 134.195 232.988 133.349 232.951 132.393C232.789 127.796 232.863 123.251 233.12 118.677C233.392 114.117 233.819 109.514 234.569 104.939C235.282 100.438 236.091 95.9889 236.952 91.5468C237.812 87.1048 238.746 82.6774 239.761 78.2795C240.283 76.0364 242.519 74.6318 244.762 75.1539C246.968 75.6614 248.358 77.8456 247.91 80.0519H247.917Z" fill="#5479F7"/>
<path d="M236.452 131.451C236.076 131.054 235.518 130.892 234.995 131.017L233.797 131.304C233.186 131.451 232.723 131.959 232.642 132.584L232.296 135.239C232.201 135.996 232.363 136.769 232.752 137.431L234.392 140.144C234.826 140.718 235.547 140.99 236.253 140.836L237.967 140.475C239.04 140.247 239.68 139.144 239.342 138.1L238.893 136.717C238.893 136.717 238.864 134.011 236.452 131.451Z" fill="#7F3E3B"/>
<path d="M253.646 77.5004C256.323 84.5974 247.064 94.7243 247.064 94.7243L235.348 90.8486C235.348 90.8486 236.246 81.1629 240.313 75.6986C245.336 68.9546 251.609 72.0949 253.646 77.5004Z" fill="#263238"/>
</g>
<defs>
<clipPath id="clip0_483_7392">
<rect width="367.718" height="274.031" fill="white" transform="translate(0.368896 0.271729)"/>
</clipPath>
</defs>
</svg>
