<svg width="273" height="233" viewBox="0 0 273 233" fill="none" xmlns="http://www.w3.org/2000/svg">
<g clip-path="url(#clip0_830_19455)">
<path fill-rule="evenodd" clip-rule="evenodd" d="M125.753 233C184.349 233 232.144 231.443 232.144 229.535C232.144 227.627 184.351 226.072 125.753 226.072C67.1542 226.072 19.3633 227.627 19.3633 229.535C19.3633 231.443 67.156 233 125.753 233Z" fill="#D2DFEE"/>
<path fill-rule="evenodd" clip-rule="evenodd" d="M125.687 6.55518C156.787 6.55518 153.237 61.4779 175.689 78.2203C205.406 100.378 256.527 89.4073 256.527 127.435C256.527 194.196 190.216 218.382 117.956 218.382C45.6946 218.382 -15.9644 181.356 5.55146 114.771C27.0673 48.1878 53.4257 6.55518 125.687 6.55518Z" fill="#EAEFF8"/>
<path fill-rule="evenodd" clip-rule="evenodd" d="M92.8883 48.6968H185.511C188.229 48.6968 186.268 57.1832 186.349 59.882L191.212 219.485C191.353 224.104 186.03 228.743 180.909 228.743H88.2869C85.5686 228.743 83.3503 226.519 83.3574 223.799L83.8397 59.8838C83.8486 57.1655 90.1683 48.6985 92.8865 48.6985L92.8883 48.6968Z" fill="#61A0E0"/>
<path fill-rule="evenodd" clip-rule="evenodd" d="M92.94 48.436H185.562C187.779 48.436 187.266 53.0587 186.868 56.6512C186.724 57.951 186.594 59.1106 186.616 59.8252L191.478 219.428C191.481 219.572 191.469 219.721 191.437 219.875C191.155 221.306 190.926 223.882 188.868 225.707C186.82 227.523 182.926 228.61 181.42 228.938C181.218 228.98 181.03 229.005 180.86 229.005H88.2375C86.8137 229.005 85.5263 228.425 84.5954 227.492C83.6662 226.56 83.0882 225.269 83.0953 223.85L83.5776 59.9352C83.5776 59.7756 83.5989 59.5982 83.6343 59.4103C83.9393 57.8658 85.4696 55.2681 87.264 53.0002C89.0762 50.7128 91.1792 48.7392 92.6067 48.4733C92.7219 48.452 92.8354 48.4414 92.9418 48.4414L92.94 48.436ZM185.461 48.9574H92.8372C92.7609 48.9574 92.6829 48.9662 92.6031 48.9804C91.3371 49.2162 89.3795 51.0852 87.6577 53.2609C85.92 55.4579 84.4411 57.9527 84.1539 59.4067C84.1237 59.5663 84.106 59.71 84.106 59.8341L83.6237 223.749C83.6201 225.047 84.1503 226.232 85.0085 227.09C85.8632 227.948 87.0424 228.482 88.3404 228.482H180.963C181.098 228.482 181.247 228.462 181.406 228.429C182.805 228.124 186.584 227.102 188.557 225.352C190.522 223.613 190.666 221.166 190.919 219.875C190.942 219.756 190.951 219.643 190.949 219.542L186.089 59.9387C186.066 59.1815 186.195 58.0077 186.341 56.6938C186.717 53.3123 187.201 48.9574 185.463 48.9574H185.461Z" fill="#1E77D1"/>
<path fill-rule="evenodd" clip-rule="evenodd" d="M94.543 48.6953H187.165C189.884 48.6953 192.102 50.9207 192.093 53.639L191.611 220.895C191.604 223.611 189.371 225.837 186.653 225.837H94.0305C91.3122 225.837 89.0958 223.613 89.1011 220.895L89.5834 53.639C89.5905 50.9207 91.8229 48.6953 94.5412 48.6953H94.543Z" fill="#A4D0FC"/>
<path fill-rule="evenodd" clip-rule="evenodd" d="M94.5939 48.4359H187.216C188.637 48.4359 189.928 49.0157 190.858 49.9502C191.788 50.8811 192.364 52.172 192.359 53.5905L191.876 220.795C191.876 221.132 191.843 221.462 191.781 221.779C191.575 222.831 191.048 223.777 190.309 224.51C189.568 225.244 188.614 225.762 187.557 225.958C187.246 226.015 186.927 226.047 186.603 226.047H93.9804C92.5583 226.047 91.2692 225.467 90.34 224.533C89.4109 223.6 88.8346 222.309 88.8399 220.892L89.3222 53.6863C89.3222 53.3494 89.3577 53.0195 89.4197 52.7021C89.6272 51.6506 90.1538 50.7055 90.8915 49.9732C91.6327 49.2391 92.5849 48.7196 93.6434 48.5227C93.9538 48.466 94.2712 48.4341 94.5974 48.4341L94.5939 48.4359ZM187.115 48.9554H94.491C94.1985 48.9554 93.913 48.9838 93.6364 49.0334C92.7072 49.2072 91.872 49.6594 91.2266 50.2995C90.5794 50.9396 90.1184 51.773 89.9357 52.7021C89.879 52.9894 89.8488 53.2873 89.8471 53.5887L89.3647 220.793C89.3612 222.093 89.8914 223.276 90.7478 224.134C91.6025 224.994 92.7835 225.526 94.0814 225.526H186.704C186.998 225.526 187.284 225.499 187.559 225.448C188.488 225.274 189.325 224.822 189.97 224.182C190.617 223.542 191.078 222.71 191.261 221.779C191.318 221.492 191.348 221.194 191.35 220.892L191.832 53.6863C191.834 52.3865 191.305 51.2038 190.447 50.3456C189.592 49.4874 188.413 48.9536 187.117 48.9536L187.115 48.9554Z" fill="#1E77D1"/>
<path fill-rule="evenodd" clip-rule="evenodd" d="M100.211 59.1143H180.466C182.668 59.1143 184.466 60.914 184.466 63.1146V211.757C184.466 213.958 182.666 215.758 180.466 215.758H100.211C98.0125 215.758 96.2109 213.958 96.2109 211.757V63.1146C96.2109 60.914 98.0107 59.1143 100.211 59.1143Z" fill="#EFF9FC"/>
<path fill-rule="evenodd" clip-rule="evenodd" d="M177.415 60.3998C179.615 60.3998 181.415 62.1996 181.415 64.4001V213.041C181.415 214.085 181.009 215.041 180.346 215.756H180.466C182.667 215.756 184.467 213.956 184.467 211.756V63.1146C184.467 60.914 182.665 59.1143 180.466 59.1143H100.212C99.0593 59.1143 98.0131 59.609 97.2808 60.3998H177.415Z" fill="#E1F4FA"/>
<path fill-rule="evenodd" clip-rule="evenodd" d="M140.598 51.4331C142.304 51.4331 143.689 52.818 143.689 54.5238C143.689 56.2296 142.306 57.6144 140.598 57.6144C138.89 57.6144 137.507 56.2296 137.507 54.5238C137.507 52.818 138.89 51.4331 140.598 51.4331Z" fill="#D2E5F7"/>
<path fill-rule="evenodd" clip-rule="evenodd" d="M181.487 144.633C183.415 144.028 183.441 144.383 183.686 144.291C183.973 144.197 186.491 140.934 186.491 140.934C186.491 140.934 193.963 131.38 194.348 130.852L197.368 118.603L203.81 118.439C203.81 118.439 200.173 131.669 199.863 132.329C199.556 132.978 187.956 144.695 186.966 145.766C186.966 145.766 186.255 147.479 185.775 148.541C185.291 149.601 184.367 150.383 184.184 150.664C184.158 150.699 183.503 151.595 182.401 152.456C181.455 153.215 182.009 152.064 182.009 152.064C182.009 152.064 183.512 150.348 183.36 150.252C183.239 150.174 182.473 151.16 181.436 152.004C181.168 152.222 180.906 152.428 180.661 152.621C180.019 153.128 179.524 152.88 180.11 152.235C180.317 152.009 180.672 151.646 180.959 151.423C181.271 151.172 181.478 150.846 181.711 150.603C182.168 150.116 182.51 149.761 182.48 149.756C182.44 149.75 182.464 149.585 182.174 149.807C181.822 150.071 181.207 150.802 180.661 151.155C180.352 151.357 179.735 151.807 179.735 151.807C179.735 151.807 178.65 152.433 178.601 152.375C178.326 152.093 178.975 151.417 179.429 151.208C179.647 150.914 180.31 150.46 180.31 150.46C180.31 150.46 181.447 149.224 181.276 149.055C181.136 148.913 177.847 151.337 177.588 151.038C177.381 150.786 178.336 150.009 178.336 150.009C178.336 150.009 178.953 149.587 179.147 149.429C179.372 149.245 180.012 148.637 180.012 148.637C180.012 148.637 182.131 146.438 181.955 146.291C181.782 146.142 181.186 145.959 181.009 146.052C180.828 146.142 180.588 146.484 180.413 146.566C180.234 146.658 179.922 146.617 179.794 146.408C179.668 146.19 180.363 145.42 180.363 145.42C180.363 145.42 180.929 144.801 181.487 144.629V144.633Z" fill="#F2F2F2"/>
<path fill-rule="evenodd" clip-rule="evenodd" d="M202.229 95.3706C203.188 92.6133 204.163 89.8525 207.093 88.0917C209.462 86.6714 212.061 86.6891 214.37 87.8736C220.904 91.2285 217.968 97.3353 222.211 103.774C224.027 106.519 223.849 110.455 225.209 113.342C227.672 118.544 228.672 129.549 222.074 134.317C205.91 145.999 196.785 120.096 196.739 115.604C196.703 112.266 201.612 97.1491 202.229 95.3724V95.3706Z" fill="#284191"/>
<path fill-rule="evenodd" clip-rule="evenodd" d="M217.277 127.288C217.744 126.9 224.097 121.38 226.931 118.92C226.931 118.92 224.102 116.8 222.352 119.892C220.602 122.981 217.279 127.288 217.279 127.288H217.277Z" fill="#374568"/>
<path fill-rule="evenodd" clip-rule="evenodd" d="M207.218 127.692C207.218 127.692 207.91 130.103 211.288 134.313C215.194 134.256 207.218 127.692 207.218 127.692Z" fill="#374568"/>
<path fill-rule="evenodd" clip-rule="evenodd" d="M221.832 148.153C223.666 145.378 217.375 134.042 217.598 132.971C218.038 130.866 219.072 128.533 220.086 126.437C221.104 124.339 222.098 122.475 222.455 121.309C222.129 120.853 221.808 120.424 221.511 120.023C221.061 119.404 220.667 118.833 220.417 118.301C220.137 117.721 220.018 117.181 220.151 116.661C220.254 116.266 220.394 115.872 220.563 115.485C220.641 115.305 220.726 115.124 220.815 114.948C221.751 113.07 223.15 111.544 223.15 111.544C220.935 110.125 217.446 109.403 217.414 109.506C217.153 109.423 216.926 109.361 216.74 109.315C216.612 109.279 216.481 109.249 216.35 109.221C215.912 109.116 215.468 109.026 215.087 108.955C214.295 108.159 213.342 105.199 213.63 100.844L213.243 100.894L206.79 101.765C206.79 101.765 206.812 103.784 206.704 105.673C206.615 107.151 206.445 108.551 206.12 108.857C205.512 108.907 204.909 108.973 204.301 109.042C204.301 109.042 204.276 109.045 204.228 109.049C203.659 109.114 203.189 109.185 202.808 109.254L202.73 109.269C201.629 109.471 201.256 109.661 201.256 109.661V109.68C201.31 111.714 198.031 115.271 198.258 119.869C198.269 120.044 199.939 132.095 199.928 132.272C199.795 135.707 198.111 145.373 198.111 145.373C196.577 148.362 220.848 151.006 221.832 148.155V148.153Z" fill="#F2F2F2"/>
<path fill-rule="evenodd" clip-rule="evenodd" d="M206.791 101.768C206.791 101.768 206.812 103.784 206.702 105.673C210.277 105.791 212.36 102.655 213.243 100.897L206.791 101.768Z" fill="#F08261"/>
<path fill-rule="evenodd" clip-rule="evenodd" d="M209.039 104.157C210.804 103.912 214.313 102.919 214.253 98.8835C214.579 93.626 215.888 90.17 210.52 89.5282C205.149 88.888 204.323 90.546 203.787 92.273C203.03 96.5092 203.019 104.992 209.039 104.157Z" fill="#F2F2F2"/>
<path fill-rule="evenodd" clip-rule="evenodd" d="M216.125 149.376C219.214 149.36 221.541 148.997 221.833 148.155C223.667 145.38 217.375 134.044 217.599 132.976C218.039 130.87 219.072 128.532 220.087 126.437C220.755 125.061 221.413 123.786 221.89 122.743C221.627 121.713 221.475 121.115 221.475 121.115C221.475 121.115 214.779 128.9 213.244 132.574C212.04 135.453 214.852 145.27 216.125 149.376Z" fill="#61A0E0"/>
<path fill-rule="evenodd" clip-rule="evenodd" d="M207.647 89.8047C206.608 89.7267 206.083 89.3277 206.072 88.6025C207.017 87.4251 208.166 86.808 209.521 86.7495C208.87 87.1254 208.244 88.145 207.647 89.8047Z" fill="#284191"/>
<path fill-rule="evenodd" clip-rule="evenodd" d="M206.16 89.4728C206.521 89.4586 206.708 89.3274 206.72 89.0773C206.408 88.6571 206.018 88.4284 205.548 88.3911C205.769 88.5294 205.972 88.8894 206.16 89.4728Z" fill="#284191"/>
<path fill-rule="evenodd" clip-rule="evenodd" d="M205.981 89.6789C206.513 89.5087 206.853 89.6026 207.002 89.9626C206.768 90.7357 206.321 91.273 205.66 91.5709C205.908 91.2535 206.014 90.624 205.981 89.6789Z" fill="#284191"/>
<path fill-rule="evenodd" clip-rule="evenodd" d="M222.191 146.804C219.159 147.862 216.84 147.714 215.23 146.354C217.051 150.372 216.146 155.36 212.517 161.317C218.297 163.77 223.324 161.555 222.193 146.804H222.191Z" fill="#61A0E0"/>
<path fill-rule="evenodd" clip-rule="evenodd" d="M190.636 192.029C191.71 194.779 197.221 200.445 202.899 205.791C209.682 212.179 216.703 218.118 216.703 218.118C216.703 218.118 219.913 219.098 218.514 214.375C218.514 214.375 210.772 200.15 207.447 195.953C206.499 194.753 205.52 193.657 204.598 192.706C202.3 190.321 200.395 188.83 200.395 188.83C200.395 188.83 200.83 188.13 201.537 186.92C204.993 181.003 214.911 162.883 211.847 154.842C208.16 145.149 198.996 140.786 198.996 140.786C198.996 140.786 196.087 153.047 193.636 165.651C191.377 177.251 189.506 189.139 190.636 192.027V192.029Z" fill="#4567C6"/>
<path fill-rule="evenodd" clip-rule="evenodd" d="M202.557 185.14C206.014 179.221 214.909 162.883 211.845 154.842C208.158 145.149 198.994 140.786 198.994 140.786C199.452 144.055 195.898 150.189 195.223 159.463C194.705 166.547 200.294 176.163 202.557 185.138V185.14Z" fill="#3B5BB3"/>
<path fill-rule="evenodd" clip-rule="evenodd" d="M202.899 205.79C209.681 212.179 216.703 218.118 216.703 218.118C216.703 218.118 219.913 219.098 218.514 214.374C218.514 214.374 210.772 200.15 207.447 195.953C206.499 194.752 205.52 193.656 204.598 192.706C204.708 196.336 204.605 202.496 202.899 205.79Z" fill="#3B5BB3"/>
<path fill-rule="evenodd" clip-rule="evenodd" d="M201.305 145.646L201.947 143.284C206.454 145.236 219.716 142.381 219.716 142.381C219.716 142.381 222.785 147.063 220.751 156.562C219.758 161.2 217.127 181.007 215.689 186.807C215.166 188.91 214.763 190.399 214.6 190.997L214.596 191.004C214.545 191.185 214.588 191.367 214.655 191.545C215.267 193.055 215.73 194.605 216.061 196.171C219.343 211.539 210.355 228.516 210.355 228.516L208.819 227.611C208.819 227.611 208.222 207.131 206.63 197.886C206.358 196.316 206.06 195.07 205.731 194.304C204.769 192.068 204.096 188.552 203.62 184.418C202.73 176.604 200.379 165.908 200.427 158.202C200.278 158.186 201.303 145.646 201.303 145.646H201.305Z" fill="#4567C6"/>
<path fill-rule="evenodd" clip-rule="evenodd" d="M199.929 132.274C199.932 132.175 199.415 128.386 198.959 125.022C197.945 124.912 196.719 124.671 195.657 124.176C195.716 122.708 196.695 110.152 201.97 109.443C202.222 109.375 202.484 109.319 202.732 109.267C202.755 109.264 202.78 109.258 202.81 109.253C203.456 109.132 204.032 109.07 204.231 109.051C204.277 109.046 204.302 109.042 204.302 109.042C202.316 114.688 205.667 114.108 211.357 114.181C215.405 112.798 216.249 109.375 216.343 109.221C216.349 109.21 216.7 109.304 216.74 109.315C216.927 109.361 221.335 110.035 223.151 111.549C223.151 111.549 221.752 113.072 220.815 114.95C220.727 115.126 220.642 115.308 220.563 115.491C220.395 115.874 220.255 116.27 220.152 116.663C220.019 117.183 220.138 117.724 220.418 118.303C220.668 118.835 221.062 119.404 221.512 120.025C221.808 120.426 222.129 120.855 222.455 121.309C222.335 121.711 222.135 122.195 221.89 122.74V122.743C221.413 123.786 220.757 125.061 220.086 126.437C219.072 128.533 218.037 130.87 217.599 132.976C217.411 133.868 221.776 141.935 222.143 146.18C223.652 163.594 216.873 164.197 210.089 160.057C209.52 159.709 212.276 161.358 211.712 160.952C211.251 160.62 194.051 158.709 195.28 155.43C195.28 155.43 199.794 135.709 199.927 132.276L199.929 132.274Z" fill="#61A0E0"/>
<path fill-rule="evenodd" clip-rule="evenodd" d="M200.287 229.003H213.37C213.37 229.003 213.857 226.916 213.001 225.494C212.238 224.24 212.708 223.387 213.038 222.318C212.444 222.559 211.735 222.946 210.893 222.9C210.238 222.859 209.219 222.384 208.61 222.031C208.047 222.673 205.97 225.59 205.217 226.132C204.362 226.744 200.548 226.528 200.287 229.003Z" fill="#284191"/>
<path fill-rule="evenodd" clip-rule="evenodd" d="M219.732 228.694L224.656 216.571C224.656 216.571 222.908 215.334 221.269 215.598C219.821 215.828 219.267 215.287 218.512 214.376C218.514 215.018 218.43 215.812 218.067 216.571C217.787 217.163 217.255 217.692 216.7 218.117C217.081 218.883 218.707 222.143 218.923 223.045C219.172 224.07 217.537 227.521 219.728 228.696L219.732 228.694Z" fill="#284191"/>
<path fill-rule="evenodd" clip-rule="evenodd" d="M222.012 146.804C218.982 147.862 216.661 147.714 215.049 146.354C216.872 150.372 215.966 155.36 212.336 161.317C218.117 163.77 223.144 161.555 222.012 146.804Z" fill="#4F8ECC"/>
<path fill-rule="evenodd" clip-rule="evenodd" d="M212.155 161.334C214.756 166.197 216.011 175.148 215.283 188.265C215.398 187.82 215.52 187.334 215.651 186.807C216.845 181.988 218.863 167.502 220.081 160.078C218.246 162.61 215.378 162.626 212.297 161.316C212.252 161.298 212.208 161.28 212.165 161.261C212.144 161.252 212.123 161.241 212.102 161.232C212.119 161.266 212.137 161.298 212.155 161.332V161.334Z" fill="#3B5BB3"/>
<path fill-rule="evenodd" clip-rule="evenodd" d="M216.125 149.376C219.214 149.36 221.541 148.997 221.833 148.155C223.667 145.38 217.375 134.044 217.599 132.976C218.039 130.87 219.072 128.532 220.087 126.437C220.755 125.061 221.413 123.786 221.89 122.743C221.627 121.713 221.475 121.115 221.475 121.115C221.475 121.115 214.779 128.9 213.244 132.574C212.04 135.453 214.852 145.27 216.125 149.376Z" fill="#4F8ECC"/>
<path fill-rule="evenodd" clip-rule="evenodd" d="M219.308 144.096L220.631 146.392C229.146 143.019 234.568 135.423 234.568 135.423C234.866 131.109 232.848 126.149 230.431 121.867C230.031 121.161 229.619 120.47 229.206 119.807C227.495 121.268 225.106 123.183 222.831 124.571C223.184 125.156 223.608 125.86 224.066 126.61C225.952 129.722 228.394 133.707 228.711 134.024C229.233 134.549 219.31 144.098 219.31 144.098L219.308 144.096Z" fill="#F2F2F2"/>
<path fill-rule="evenodd" clip-rule="evenodd" d="M219.308 144.096C219.308 144.096 218.593 143.993 218.123 143.585C217.655 143.179 216.169 142.025 216.084 142.381C215.995 142.74 217.16 143.295 216.549 143.38C215.935 143.468 214.974 143.057 214.013 143.206C213.052 143.351 211.571 145.568 212.025 145.828C212.483 146.093 214.144 145.218 214.582 145.523C215.018 145.828 218.141 147.536 220.632 146.391C223.124 145.245 219.308 144.094 219.308 144.094V144.096Z" fill="#F2F2F2"/>
<path fill-rule="evenodd" clip-rule="evenodd" d="M223.712 127.542C227.906 127.265 230.995 121.812 230.995 121.812C227.721 116.028 223.152 111.544 223.152 111.544C211.532 115.98 221.818 126.292 223.712 127.542Z" fill="#61A0E0"/>
<path fill-rule="evenodd" clip-rule="evenodd" d="M204.225 109.051C204.153 109.06 204.087 109.065 204.018 109.072C204.025 109.072 204.036 109.069 204.043 109.069C204.121 109.06 204.181 109.058 204.223 109.049L204.225 109.051ZM203.342 109.165C203.612 109.122 203.846 109.092 204.018 109.072C203.773 109.103 203.548 109.135 203.342 109.165ZM210.11 114.172C211.486 114.176 211.8 114.156 213.04 113.392C215.441 111.913 216.18 109.677 216.343 109.22C216.588 109.26 216.822 109.333 217.07 109.377C216.923 110.344 216.049 111.542 215.478 112.243C214.32 113.665 212.719 115.006 211.346 114.986C207.22 114.931 202.757 115.484 202.938 111.482C203.018 110.73 203.158 109.895 203.34 109.165C203.654 109.108 203.979 109.087 204.3 109.041L204.291 109.067C202.473 114.259 205.199 114.158 210.109 114.172H210.11Z" fill="#4F8ECC"/>
<path fill-rule="evenodd" clip-rule="evenodd" d="M204.188 115.631C203.977 115.602 203.826 115.393 203.851 115.164C203.876 114.936 204.069 114.771 204.282 114.799C205.874 115.015 207.291 115.163 208.539 115.239C209.787 115.317 210.869 115.326 211.784 115.267C211.997 115.255 212.181 115.43 212.192 115.661C212.204 115.891 212.043 116.09 211.828 116.104C210.885 116.163 209.773 116.156 208.497 116.076C207.22 115.998 205.784 115.849 204.186 115.632L204.188 115.631Z" fill="#4F8ECC"/>
<path fill-rule="evenodd" clip-rule="evenodd" d="M205.271 116.814C205.122 116.792 205.011 116.589 205.02 116.358C205.028 116.129 205.158 115.959 205.305 115.98C206.417 116.147 207.406 116.252 208.275 116.289C209.142 116.33 209.894 116.305 210.525 116.218C210.672 116.198 210.805 116.367 210.823 116.597C210.841 116.826 210.736 117.032 210.589 117.05C209.935 117.138 209.163 117.165 208.275 117.124C207.387 117.085 206.387 116.98 205.27 116.814H205.271Z" fill="#4F8ECC"/>
<path fill-rule="evenodd" clip-rule="evenodd" d="M206.404 117.885C206.339 117.864 206.289 117.658 206.293 117.429C206.298 117.199 206.355 117.028 206.42 117.05C206.917 117.216 207.36 117.319 207.748 117.36C208.135 117.399 208.472 117.374 208.754 117.287C208.821 117.268 208.88 117.436 208.887 117.667C208.894 117.895 208.848 118.101 208.782 118.121C208.49 118.209 208.146 118.234 207.748 118.195C207.351 118.154 206.903 118.051 206.403 117.885H206.404Z" fill="#4F8ECC"/>
<path fill-rule="evenodd" clip-rule="evenodd" d="M205.294 95.9612C205.073 95.9718 204.881 95.7431 204.865 95.447C204.851 95.1526 205.019 94.9044 205.239 94.892C205.461 94.8813 205.652 95.1118 205.667 95.4062C205.681 95.7005 205.512 95.9488 205.292 95.9594L205.294 95.9612Z" fill="#125AA3"/>
<path fill-rule="evenodd" clip-rule="evenodd" d="M208.564 95.1063C210.628 94.5921 210.357 94.6577 211.961 95.6241C211.413 94.5921 210.444 94.2374 209.358 94.4467C208.851 94.5442 208.763 94.5229 208.564 95.1063Z" fill="#125AA3"/>
<path fill-rule="evenodd" clip-rule="evenodd" d="M209.755 96.1596C209.972 96.1774 210.169 95.9539 210.193 95.6596C210.218 95.3652 210.062 95.1117 209.846 95.094C209.628 95.0744 209.433 95.2996 209.408 95.5922C209.383 95.8866 209.537 96.1401 209.755 96.1596Z" fill="#125AA3"/>
<path fill-rule="evenodd" clip-rule="evenodd" d="M206.603 95.0337C204.748 94.1826 204.991 94.2943 203.324 94.9805C204.01 94.0532 204.98 93.8652 205.966 94.25C206.427 94.4309 206.514 94.4255 206.603 95.0337Z" fill="#125AA3"/>
<path d="M207.674 99.5007C207.674 99.5007 207.665 99.5007 207.66 99.5007L207.19 99.46C206.903 99.4351 206.674 99.4032 206.541 99.2401C206.421 99.0929 206.419 98.8872 206.449 98.6195C206.472 98.4333 206.532 98.2347 206.609 97.9811C206.727 97.5928 206.876 97.1105 206.956 96.4207C206.965 96.3427 207.032 96.2842 207.11 96.2842C207.116 96.2842 207.123 96.2842 207.13 96.2842C207.215 96.2948 207.277 96.3728 207.266 96.458C207.183 97.1743 207.022 97.6956 206.906 98.0733C206.834 98.3092 206.777 98.4971 206.757 98.6567C206.733 98.8695 206.74 98.9918 206.78 99.0415C206.832 99.1036 206.991 99.1302 207.215 99.1497L207.687 99.1904C207.772 99.1993 207.836 99.2738 207.827 99.3607C207.82 99.4405 207.752 99.5025 207.672 99.5025L207.674 99.5007Z" fill="#FC9774"/>
<path fill-rule="evenodd" clip-rule="evenodd" d="M209.247 101.096C207.19 101.46 205.607 101.103 206.119 101.263C206.664 101.772 208.079 101.735 209.247 101.096Z" fill="white"/>
<path fill-rule="evenodd" clip-rule="evenodd" d="M205.314 94.8995C205.355 94.9031 205.378 94.9953 205.369 95.107C205.36 95.2169 205.319 95.3038 205.28 95.3003C205.239 95.2967 205.215 95.2045 205.223 95.0946C205.232 94.9829 205.275 94.896 205.314 94.8995Z" fill="#A4D0FC"/>
<path fill-rule="evenodd" clip-rule="evenodd" d="M209.701 95.1559C209.742 95.1594 209.766 95.2516 209.758 95.3633C209.749 95.4733 209.706 95.5602 209.667 95.5566C209.626 95.5531 209.603 95.4609 209.612 95.3491C209.621 95.2392 209.662 95.1523 209.701 95.1559Z" fill="#A4D0FC"/>
<path fill-rule="evenodd" clip-rule="evenodd" d="M204.389 89.1591C205.511 88.2548 206.304 88.6218 206.761 89.0651C211.528 86.8096 214.271 90.7426 214.271 90.7426C216.303 94.4875 215.583 98.9897 214.927 99.0162C214.656 99.8319 210.521 96.9381 209.356 94.445C210.643 96.9398 212.491 98.7946 212.491 98.7946C208.371 96.5763 207.034 90.5777 206.9 89.9464C206.357 90.3755 205.281 91.3171 204.908 92.2852C204.407 93.5992 204.048 96.3423 203.25 96.1987C202.176 100.766 201.022 96.1809 203.422 90.6078C203.715 89.9304 203.8 89.6325 204.387 89.1591H204.389Z" fill="#284191"/>
<path fill-rule="evenodd" clip-rule="evenodd" d="M144.715 87.8945C152.565 95.498 163.369 96.3916 173.739 94.966L180.468 94.0386L182.617 94.3702L180.622 97.6151L180.759 100.828C181.997 129.556 181.72 162.099 154.296 179.088C150.315 181.554 143.978 181.423 142.841 186.156L142.416 187.931L140.408 187.195L137.975 186.156C133.5 184.242 130.501 181.553 126.521 179.088C99.0966 162.099 98.8199 129.556 100.058 100.828L100.35 94.0404L107.081 94.9678C117.449 96.3934 128.253 95.4997 136.103 87.8963L140.407 83.7275L142.307 84.0822L142.731 85.9795L144.708 87.8963L144.715 87.8945ZM140.412 92.3381C132.301 100.193 120.912 103.112 106.242 101.094C104.971 130.616 105.812 158.98 129.782 173.828C133.229 175.963 136.22 178.675 140.412 180.467C144.602 178.675 147.595 175.963 151.042 173.828C175.012 158.978 175.854 130.616 174.583 101.094C159.913 103.112 148.524 100.193 140.414 92.3381H140.412Z" fill="#61A0E0"/>
<path d="M142.477 188.039L142.391 188.009L140.383 187.273L137.947 186.23C134.961 184.956 132.665 183.358 130.235 181.666C129.044 180.838 127.811 179.982 126.481 179.157C114.121 171.501 106.265 160.126 102.465 144.38C99.0521 130.226 99.3925 114.477 99.9812 100.823L100.277 93.9449L107.097 94.8847C109.824 95.2589 112.434 95.4504 114.855 95.4504C123.705 95.4504 130.836 92.8881 136.053 87.8363L140.387 83.6392L140.428 83.6463L142.382 84.0098L142.813 85.9372L144.772 87.8363C149.987 92.8881 157.12 95.4504 165.97 95.4504C168.391 95.4504 170.999 95.2589 173.728 94.8847L180.468 93.9556H180.48L182.752 94.3067L182.686 94.4113L180.706 97.6349L180.842 100.823C181.431 114.477 181.771 130.226 178.358 144.38C174.558 160.124 166.703 171.501 154.342 179.157C152.985 179.998 151.345 180.542 149.76 181.067C146.625 182.108 143.664 183.09 142.924 186.174L142.477 188.039ZM100.433 94.1329L100.146 100.832C98.834 131.297 99.7932 162.431 126.57 179.019C127.904 179.845 129.138 180.703 130.331 181.533C132.753 183.218 135.044 184.812 138.013 186.082L140.445 187.121L142.36 187.825L142.765 186.138C143.527 182.964 146.529 181.968 149.708 180.914C151.285 180.391 152.916 179.851 154.257 179.021C181.034 162.433 181.993 131.299 180.681 100.834L180.542 97.5959L180.557 97.5746L182.486 94.4361L180.472 94.1258L173.753 95.0514C171.019 95.4273 168.401 95.6188 165.974 95.6188C157.08 95.6188 149.911 93.0406 144.662 87.9586L142.667 86.0259L142.249 84.1587L140.442 83.8218L136.17 87.9604C130.922 93.0441 123.751 95.6206 114.858 95.6206C112.431 95.6206 109.814 95.4291 107.079 95.0532L100.437 94.1382L100.433 94.1329ZM140.412 180.558L140.38 180.544C137.592 179.352 135.323 177.748 133.127 176.194C132.032 175.419 130.898 174.618 129.741 173.9C118.811 167.128 111.853 157.017 108.468 142.984C105.574 130.981 105.453 117.557 106.163 101.093L106.166 101.004L106.255 101.016C109.237 101.426 112.12 101.633 114.826 101.633C125.359 101.633 133.948 98.4878 140.355 92.2817L140.412 92.2267L140.468 92.2817C146.875 98.4878 155.464 101.633 165.999 101.633C168.706 101.633 171.59 101.426 174.57 101.016L174.659 101.004L174.663 101.093C175.372 117.557 175.251 130.981 172.356 142.984C168.972 157.017 162.013 167.13 151.083 173.9C149.925 174.618 148.79 175.419 147.696 176.194C145.501 177.748 143.231 179.352 140.444 180.544L140.412 180.558ZM106.32 101.188C105.042 130.98 105.895 158.934 129.824 173.76C130.987 174.48 132.122 175.283 133.221 176.059C135.401 177.602 137.654 179.194 140.412 180.379C143.169 179.196 145.421 177.6 147.602 176.059C148.7 175.283 149.836 174.48 150.999 173.76C174.93 158.934 175.783 130.978 174.505 101.188C171.549 101.591 168.687 101.795 165.999 101.795C155.452 101.795 146.843 98.651 140.412 92.4519C133.98 98.6527 125.373 101.795 114.826 101.795C112.14 101.795 109.278 101.591 106.32 101.188Z" fill="#61A0E0"/>
<path fill-rule="evenodd" clip-rule="evenodd" d="M142.381 92.8843C134.271 100.739 122.881 103.66 108.212 101.64C106.941 131.162 107.783 159.526 131.753 174.376C135.2 176.51 138.191 179.224 142.383 181.015C146.573 179.223 149.566 176.51 153.013 174.376C176.983 159.526 177.824 131.162 176.552 101.64C161.883 103.658 150.494 100.739 142.383 92.8843H142.381Z" fill="#8BBAE9"/>
<path d="M142.382 181.221L142.307 181.189C139.513 179.994 137.238 178.386 135.041 176.831C133.895 176.019 132.812 175.254 131.654 174.538C107.574 159.618 106.737 131.538 108.025 101.633L108.034 101.426L108.239 101.454C111.216 101.864 114.094 102.071 116.797 102.071C127.301 102.071 135.865 98.9346 142.251 92.7497L142.382 92.6221L142.515 92.7497C148.9 98.9346 157.465 102.071 167.967 102.071C170.67 102.071 173.549 101.864 176.526 101.454L176.732 101.426L176.741 101.633C178.028 131.54 177.191 159.62 153.113 174.538C151.955 175.254 150.872 176.02 149.726 176.831C147.528 178.386 145.254 179.994 142.46 181.189L142.385 181.221H142.382ZM108.392 101.857C107.122 131.57 108.002 159.439 131.853 174.215C133.019 174.939 134.158 175.744 135.259 176.522C137.422 178.052 139.658 179.634 142.382 180.81C145.107 179.634 147.343 178.054 149.505 176.522C150.606 175.744 151.744 174.939 152.911 174.215C176.76 159.439 177.64 131.57 176.37 101.857C173.45 102.25 170.623 102.449 167.965 102.449C157.433 102.449 148.826 99.3212 142.38 93.1469C135.936 99.3194 127.329 102.449 116.795 102.449C114.139 102.449 111.312 102.25 108.392 101.857Z" fill="#373435"/>
<path fill-rule="evenodd" clip-rule="evenodd" d="M109.141 136.381H142.382V92.8828C134.271 100.738 122.882 103.658 108.212 101.639C107.693 113.693 107.526 125.552 109.141 136.379V136.381Z" fill="white"/>
<path fill-rule="evenodd" clip-rule="evenodd" d="M142.381 92.8843V136.382H175.62C177.237 125.555 177.068 113.696 176.551 101.642C161.881 103.66 150.492 100.741 142.381 92.8861V92.8843Z" fill="white"/>
<path fill-rule="evenodd" clip-rule="evenodd" d="M175.62 136.381H142.381V181.016C146.571 179.223 149.565 176.51 153.012 174.377C167.194 165.591 173.281 152.072 175.62 136.381Z" fill="white"/>
<path fill-rule="evenodd" clip-rule="evenodd" d="M142.381 181.016V136.381H109.141C111.483 152.072 117.569 165.589 131.751 174.377C135.198 176.51 138.189 179.225 142.381 181.016Z" fill="white"/>
<g opacity="0.17">
<path fill-rule="evenodd" clip-rule="evenodd" d="M111.853 133.7C110.372 123.77 110.39 112.97 110.803 101.949C110.289 101.898 109.769 101.839 109.244 101.775C108.762 113.466 108.65 124.951 110.22 135.461H112.135C112.035 134.877 111.943 134.289 111.853 133.7Z" fill="#D2E5F7"/>
</g>
<g opacity="0.17">
<path fill-rule="evenodd" clip-rule="evenodd" d="M142.381 133.7H111.852C111.941 134.29 112.035 134.877 112.134 135.46H142.381V133.7Z" fill="#D2E5F7"/>
</g>
<g opacity="0.17">
<path fill-rule="evenodd" clip-rule="evenodd" d="M143.458 93.8809V133.698H145.093V95.232C144.536 94.8011 143.99 94.3508 143.458 93.8809Z" fill="#D2E5F7"/>
</g>
<g opacity="0.17">
<path d="M145.093 133.7H143.458V135.46H145.093V133.7Z" fill="#D2E5F7"/>
</g>
<g opacity="0.17">
<path fill-rule="evenodd" clip-rule="evenodd" d="M145.093 133.7V135.46H175.755C175.836 134.875 175.913 134.288 175.983 133.7H145.093Z" fill="#D2E5F7"/>
</g>
<g opacity="0.17">
<path fill-rule="evenodd" clip-rule="evenodd" d="M134.462 171.692C121.094 163.411 114.92 150.926 112.294 136.381H110.361C112.803 151.678 118.925 164.841 132.831 173.455C135.975 175.402 138.739 177.829 142.383 179.602V176.974C139.508 175.327 137.122 173.339 134.464 171.694L134.462 171.692Z" fill="#EAF6FC"/>
</g>
<g opacity="0.17">
<path fill-rule="evenodd" clip-rule="evenodd" d="M143.458 136.381V177.561C143.983 177.833 144.527 178.092 145.093 178.333V136.381H143.458Z" fill="#D2E5F7"/>
</g>
<g opacity="0.17">
<path fill-rule="evenodd" clip-rule="evenodd" d="M145.093 178.333C144.529 178.092 143.985 177.833 143.458 177.561V180.095C147.65 178.303 150.641 175.59 154.088 173.456C155.987 172.279 157.739 171.018 159.36 169.68C160.484 168.688 161.537 167.656 162.527 166.589C160.498 168.429 158.238 170.137 155.723 171.694C152.276 173.827 149.285 176.542 145.093 178.333Z" fill="#D2E5F7"/>
</g>
<path fill-rule="evenodd" clip-rule="evenodd" d="M146.683 88.4407C154.533 96.0442 165.337 96.9396 175.705 95.5122L182.436 94.5866L182.729 101.374C183.966 130.102 183.691 162.647 156.266 179.636C152.287 182.1 149.286 184.79 144.811 186.704L142.378 187.743L139.945 186.704C135.47 184.789 132.471 182.099 128.49 179.636C101.066 162.647 100.79 130.102 102.027 101.374L102.32 94.5866L109.049 95.5122C119.419 96.9396 130.223 96.0442 138.073 88.4407L142.376 84.272L146.68 88.4407H146.683ZM142.382 92.8843C134.271 100.74 122.882 103.66 108.212 101.64C106.941 131.162 107.783 159.526 131.753 174.376C135.2 176.51 138.191 179.224 142.383 181.015C146.573 179.223 149.566 176.51 153.014 174.376C176.984 159.526 177.824 131.162 176.553 101.64C161.883 103.658 150.494 100.74 142.383 92.8843H142.382Z" fill="#99C5F2"/>
<g opacity="0.1">
<path fill-rule="evenodd" clip-rule="evenodd" d="M146.683 88.4407C154.533 96.0442 165.337 96.9396 175.705 95.5122L182.436 94.5866L182.729 101.374C183.922 129.1 183.704 160.379 159.034 177.799C182.119 160.173 182.303 129.662 181.137 102.545L180.844 95.7569L174.113 96.6825C163.745 98.1081 152.941 97.2145 145.091 89.611L140.981 85.6285L142.382 84.272L146.685 88.4407H146.683ZM102.265 95.9679L102.325 94.5848L109.055 95.5104C117.981 96.7392 127.23 96.2463 134.636 91.2353C126.987 97.3368 117.039 98 107.462 96.6807L102.265 95.9661V95.9679ZM140.938 94.2C140.084 94.9324 139.195 95.6168 138.275 96.2498C139.146 95.5689 139.983 94.8366 140.789 94.0564L140.938 94.2ZM108.156 103.006C107.647 102.947 107.134 102.883 106.618 102.812C105.347 132.334 106.189 160.698 130.159 175.547C133.606 177.682 136.598 180.395 140.789 182.187C144.979 180.395 147.973 177.682 151.42 175.547C152.819 174.68 154.136 173.765 155.383 172.807C154.618 173.344 153.829 173.869 153.012 174.376C149.565 176.51 146.574 179.224 142.382 181.015C138.192 179.223 135.199 176.51 131.751 174.376C108.15 159.755 106.971 132.035 108.156 103.006Z" fill="#E6E6E6"/>
</g>
<g opacity="0.29">
<path fill-rule="evenodd" clip-rule="evenodd" d="M142.382 92.8843C141.912 93.34 141.431 93.778 140.938 94.2C149.04 101.947 160.38 104.818 174.957 102.812C176.154 130.611 175.477 157.379 155.381 172.807C177.033 157.588 177.778 130.155 176.549 101.64C161.88 103.658 150.491 100.739 142.38 92.8843H142.382ZM138.275 96.248C130.576 101.541 120.556 103.337 108.213 101.64L108.156 103.006C120.651 104.453 130.691 102.199 138.275 96.2498V96.248Z" fill="#E6E6E6"/>
</g>
<path fill-rule="evenodd" clip-rule="evenodd" d="M146.816 88.3062C150.712 92.0795 155.343 94.1879 160.287 95.1773C165.245 96.1685 170.517 96.0355 175.68 95.3262L182.411 94.4006L182.617 94.3705L182.626 94.578L182.918 101.366C183.537 115.743 183.776 131.077 180.429 144.951C177.076 158.845 170.128 171.27 156.367 179.794C155.049 180.609 153.824 181.462 152.618 182.301C150.215 183.971 147.884 185.594 144.885 186.876L142.452 187.915L142.38 187.947L142.307 187.915L139.874 186.876C136.877 185.594 134.546 183.971 132.143 182.301C130.939 181.462 129.714 180.611 128.395 179.794C114.633 171.27 107.685 158.844 104.331 144.951C100.983 131.077 101.224 115.743 101.843 101.366L102.135 94.578L102.144 94.3705L102.35 94.4006L109.081 95.3262C114.246 96.0355 119.518 96.1703 124.474 95.1773C129.419 94.1879 134.051 92.0795 137.947 88.3062L142.25 84.1374L142.381 84.0098L142.514 84.1374L146.818 88.3062H146.816ZM160.214 95.5497C155.205 94.546 150.508 92.4058 146.554 88.5775L142.381 84.5382L138.209 88.5775C134.255 92.4058 129.56 94.546 124.547 95.5497C119.548 96.5497 114.234 96.415 109.03 95.7004L102.502 94.8032L102.221 101.383C101.603 115.734 101.362 131.036 104.699 144.862C108.029 158.668 114.931 171.011 128.593 179.473C129.937 180.306 131.155 181.154 132.358 181.989C134.744 183.65 137.064 185.262 140.023 186.528L142.38 187.537L144.738 186.528C147.697 185.264 150.017 183.65 152.403 181.989C153.606 181.154 154.826 180.304 156.168 179.473C169.83 171.009 176.73 158.668 180.062 144.862C183.399 131.036 183.158 115.734 182.541 101.383L182.259 94.8032L175.732 95.7004C170.529 96.415 165.215 96.5497 160.214 95.5497ZM142.381 93.147C138.33 97.0303 133.469 99.6972 127.802 101.148C122.137 102.6 115.667 102.836 108.393 101.855C107.765 116.532 107.673 130.911 110.7 143.467C113.736 156.058 119.915 166.821 131.85 174.215C133.012 174.935 134.127 175.723 135.253 176.52C137.432 178.061 139.654 179.634 142.38 180.81C145.105 179.634 147.329 178.061 149.508 176.52C150.634 175.724 151.747 174.935 152.911 174.215C164.848 166.821 171.025 156.058 174.063 143.467C177.09 130.912 176.998 116.532 176.37 101.855C169.096 102.836 162.626 102.6 156.961 101.148C151.293 99.6954 146.433 97.0285 142.381 93.147ZM127.708 100.782C122.038 102.235 115.548 102.458 108.237 101.453L108.031 101.422L108.022 101.63C107.386 116.404 107.279 130.891 110.331 143.552C113.39 156.235 119.617 167.078 131.652 174.535C132.813 175.254 133.918 176.035 135.035 176.825C137.25 178.393 139.511 179.992 142.307 181.188L142.38 181.219L142.452 181.188C145.249 179.992 147.509 178.393 149.724 176.827C150.841 176.036 151.948 175.254 153.107 174.535C165.142 167.078 171.369 156.235 174.428 143.552C177.48 130.891 177.373 116.404 176.737 101.63L176.728 101.422L176.524 101.453C169.213 102.458 162.722 102.235 157.051 100.782C151.389 99.3301 146.541 96.6526 142.511 92.7498L142.378 92.6239L142.247 92.7498C138.216 96.6544 133.368 99.3319 127.707 100.782H127.708Z" fill="#61A0E0"/>
<g opacity="0.33">
<path d="M108.146 145.626C107.909 145.626 107.692 145.468 107.627 145.229C106.678 141.718 105.946 137.711 105.448 133.317C105.414 133.022 105.627 132.756 105.921 132.723C106.221 132.689 106.483 132.902 106.515 133.196C107.008 137.535 107.73 141.489 108.666 144.947C108.744 145.234 108.574 145.529 108.287 145.607C108.24 145.619 108.193 145.626 108.146 145.626ZM105.423 127.27C105.141 127.27 104.903 127.05 104.887 126.765C104.838 125.938 104.795 125.096 104.76 124.245C104.44 116.762 104.636 108.153 105.338 98.6562L105.386 97.9912L106.026 98.1809C114.076 100.575 122.218 99.2129 125.343 98.5161C125.635 98.4452 125.921 98.6349 125.985 98.9221C126.049 99.2112 125.868 99.5002 125.579 99.564C121.699 100.429 114.134 101.527 106.361 99.3938C105.701 108.59 105.524 116.932 105.832 124.201C105.868 125.047 105.91 125.88 105.96 126.701C105.978 126.997 105.753 127.252 105.456 127.27C105.446 127.27 105.435 127.27 105.425 127.27H105.423Z" fill="white"/>
</g>
<g opacity="0.33">
<path d="M128.607 98.6653C128.382 98.6653 128.171 98.5216 128.097 98.2964C128.004 98.0127 128.159 97.7113 128.439 97.6173C133.897 95.8264 138.25 93.1631 140.697 90.1167C140.883 89.8827 141.222 89.8454 141.452 90.0334C141.684 90.2196 141.72 90.5582 141.536 90.7888C138.959 93.9965 134.427 96.7839 128.776 98.6387C128.719 98.6564 128.664 98.6653 128.607 98.6653Z" fill="white"/>
</g>
<g opacity="0.33">
<path d="M142.894 185.537C142.701 185.537 142.513 185.433 142.417 185.248C142.279 184.984 142.382 184.659 142.646 184.523C158.2 176.439 168.251 167.949 172.515 159.292C172.648 159.026 172.971 158.92 173.235 159.047C173.501 159.179 173.611 159.5 173.48 159.767C169.112 168.635 158.904 177.285 143.142 185.475C143.062 185.516 142.977 185.537 142.894 185.537Z" fill="white"/>
</g>
<path fill-rule="evenodd" clip-rule="evenodd" d="M119.657 127.002L138.639 150.575L162.563 108.857L173.748 112.883L141.964 157.125L139.957 160.624L137.123 157.762L113.087 133.462L119.657 127.002Z" fill="#4F8ECC"/>
<path fill-rule="evenodd" clip-rule="evenodd" d="M119.886 126.11L138.868 149.685L162.79 107.965L173.978 111.99L142.192 156.231L140.185 159.732L137.353 156.87L113.316 132.57L119.886 126.11Z" fill="#61A0E0"/>
<g opacity="0.12">
<path fill-rule="evenodd" clip-rule="evenodd" d="M165.525 102.406L116.598 158.475C114.544 154.808 112.771 150.614 111.276 145.894L151.792 99.4683C156.081 101.186 160.658 102.167 165.525 102.408V102.406ZM176.553 101.702C175.276 102.015 173.845 102.21 172.262 102.286C171.515 102.348 170.774 102.394 170.04 102.422L118.456 161.533C119.312 162.831 120.21 164.051 121.148 165.191L176.553 101.701V101.702ZM176.652 109.372L176.615 106.561L123.327 167.626C123.767 168.076 124.217 168.513 124.675 168.933L176.652 109.372Z" fill="white"/>
</g>
<path fill-rule="evenodd" clip-rule="evenodd" d="M136.291 42.7532C143.089 44.2427 148.785 47.2589 152.168 50.7645C151.604 51.206 151.184 51.839 151.017 52.5944C150.639 54.318 151.732 56.0202 153.453 56.3979C155.177 56.7738 156.879 55.6833 157.257 53.9598C157.422 53.2115 157.306 52.465 156.984 51.8319C161.523 50.0517 167.969 49.6864 174.779 51.1776C181.578 52.6671 187.273 55.6833 190.657 59.1889C190.093 59.6322 189.671 60.2652 189.506 61.0206C189.13 62.7441 190.22 64.4464 191.944 64.8223C193.666 65.2 195.37 64.1095 195.746 62.386C195.909 61.6359 195.797 60.8912 195.474 60.2581C200.012 58.4779 206.457 58.1108 213.268 59.6038C220.079 61.0951 225.785 64.1184 229.163 67.6328C228.605 68.0743 228.191 68.7038 228.028 69.4521C227.651 71.1756 228.743 72.8779 230.465 73.2556C232.188 73.6333 233.89 72.541 234.268 70.8175C234.433 70.0621 234.316 69.3103 233.988 68.6737C238.524 66.9005 244.959 66.5388 251.759 68.0282C258.093 69.4149 263.471 72.1279 266.911 75.3285C266.428 75.7593 266.072 76.3427 265.921 77.0236C265.544 78.7454 266.636 80.4476 268.359 80.8253C270.081 81.203 271.785 80.1107 272.161 78.3872C272.539 76.6654 271.447 74.9632 269.725 74.5855C269.508 74.5394 269.292 74.5146 269.079 74.5128C268.521 45.4414 242.317 17.7318 205.245 9.20453C209.373 9.94926 212.761 9.623 213.032 8.38709C213.305 7.13876 210.3 5.40458 206.175 4.3584C206.801 4.15626 207.307 3.63849 207.457 2.94872C207.683 1.92027 207.032 0.904236 206.003 0.677268C204.973 0.452073 203.957 1.10461 203.732 2.13305C203.58 2.82105 203.822 3.5055 204.308 3.9488C200.124 3.17569 196.668 3.49486 196.395 4.74319C196.125 5.9791 199.067 7.692 203.129 8.73995C165.885 0.998215 130.501 15.2263 117.848 41.4056C117.653 41.3187 117.447 41.2513 117.231 41.2035C115.509 40.8258 113.805 41.9181 113.427 43.6416C113.051 45.3634 114.142 47.0656 115.865 47.4433C117.589 47.821 119.291 46.7287 119.669 45.0052C119.818 44.3243 119.736 43.6451 119.477 43.0511C123.94 41.5811 129.959 41.3613 136.292 42.7479L136.291 42.7532ZM178.757 116.018L189.341 67.663L193.155 68.4964L182.569 116.853L178.757 116.018ZM179.657 121.032C182.328 121.617 182.342 123.914 181.876 126.604L175.558 162.998C175.092 165.69 172.311 167.371 169.643 166.789C166.974 166.204 165.151 163.516 165.853 160.874L175.317 125.167C176.017 122.527 176.989 120.449 179.659 121.032H179.657Z" fill="#5379F6"/>
<path fill-rule="evenodd" clip-rule="evenodd" d="M51.4026 170.302C67.6928 170.302 80.8995 183.509 80.8995 199.799C80.8995 216.089 67.6928 229.298 51.4026 229.298C35.1123 229.298 21.9038 216.091 21.9038 199.799C21.9038 183.507 35.1105 170.302 51.4026 170.302Z" fill="#EFF9FC"/>
<path fill-rule="evenodd" clip-rule="evenodd" d="M51.4034 169.873C66.2149 169.873 78.5101 180.632 80.9057 194.763C80.6007 194.5 80.2656 194.277 79.9127 194.1C77.2636 180.774 65.5056 170.729 51.4034 170.729C47.6017 170.729 43.9702 171.46 40.6437 172.786V171.866C43.9827 170.578 47.6106 169.873 51.4034 169.873ZM78.5332 212.429C73.8786 222.417 63.8778 229.407 52.2049 229.714C52.2138 229.423 52.1978 229.138 52.157 228.858C63.4115 228.57 73.07 221.887 77.6431 212.308C77.9321 212.376 78.2282 212.415 78.5332 212.429ZM38.6099 226.856C36.4218 225.817 34.3773 224.52 32.519 223.004C32.7353 222.818 32.9339 222.611 33.1148 222.387C34.9323 223.863 36.9325 225.122 39.0727 226.129C38.8989 226.356 38.7429 226.599 38.6081 226.856H38.6099ZM22.121 206.005C19.94 195.669 23.3481 184.93 31.1625 177.754C31.2512 178.074 31.3115 178.393 31.4019 178.703C23.9563 185.762 20.8035 196.183 23.0307 206.154C22.7345 206.076 22.4296 206.026 22.121 206.005Z" fill="#61A0E0"/>
<path fill-rule="evenodd" clip-rule="evenodd" d="M29.9276 97.626C46.2197 97.626 59.4264 110.833 59.4264 127.123C59.4264 143.413 46.2197 156.62 29.9276 156.62C13.6356 156.62 0.430664 143.417 0.430664 127.125C0.430664 110.833 13.6374 97.6278 29.9276 97.6278V97.626Z" fill="#EFF9FC"/>
<path fill-rule="evenodd" clip-rule="evenodd" d="M29.9277 97.1982C44.7391 97.1982 57.0362 107.958 59.43 122.088C59.1232 121.824 58.7899 121.603 58.437 121.425C55.7879 108.1 44.0299 98.0547 29.9259 98.0547C26.1242 98.0547 22.4945 98.7852 19.1662 100.112V99.1913C22.5051 97.904 26.1349 97.1982 29.9259 97.1982H29.9277ZM57.0575 139.755C52.4011 149.741 42.4003 156.733 30.7292 157.04C30.7381 156.749 30.7221 156.463 30.6831 156.185C41.9375 155.898 51.5961 149.215 56.1691 139.636C56.4564 139.703 56.7543 139.742 57.0593 139.757L57.0575 139.755ZM17.1359 154.18C14.9461 153.142 12.9033 151.844 11.0433 150.33C11.2596 150.142 11.4582 149.936 11.6391 149.713C13.4566 151.186 15.4567 152.447 17.5987 153.453C17.4232 153.68 17.2672 153.922 17.1342 154.18H17.1359ZM0.647072 133.329C-1.53395 122.993 1.87234 112.253 9.68855 105.078C9.77721 105.397 9.8375 105.717 9.92793 106.027C2.48232 113.084 -0.670406 123.507 1.55672 133.478C1.26059 133.4 0.955607 133.35 0.647072 133.329Z" fill="#61A0E0"/>
<path fill-rule="evenodd" clip-rule="evenodd" d="M51.4026 27.9341C67.6928 27.9341 80.8995 41.1408 80.8995 57.431C80.8995 73.7213 67.6928 86.928 51.4026 86.928C35.1123 86.928 21.9038 73.7213 21.9038 57.431C21.9038 41.1408 35.1105 27.9341 51.4026 27.9341Z" fill="#EFF9FC"/>
<path fill-rule="evenodd" clip-rule="evenodd" d="M51.4034 27.5054C66.2149 27.5054 78.5101 38.2651 80.9057 52.3956C80.6007 52.1314 80.2656 51.9097 79.9127 51.7324C77.2636 38.4069 65.5056 28.3618 51.4034 28.3618C47.6017 28.3618 43.9702 29.0924 40.6437 30.4187V29.4984C43.9827 28.2111 47.6106 27.5054 51.4034 27.5054ZM78.5332 70.0619C73.8786 80.0485 63.8778 87.0401 52.2049 87.3469C52.2138 87.0561 52.1978 86.7706 52.157 86.4922C63.4115 86.205 73.07 79.5218 77.6431 69.9431C77.9321 70.0087 78.2282 70.0495 78.5332 70.0636V70.0619ZM38.6099 84.4885C36.4218 83.4512 34.3773 82.1532 32.519 80.6389C32.7353 80.451 32.9339 80.2453 33.1148 80.0219C34.9323 81.4954 36.9325 82.7561 39.0727 83.7615C38.8989 83.9885 38.7429 84.2314 38.6081 84.4885H38.6099ZM22.121 63.6376C19.94 53.3017 23.3481 42.5615 31.1625 35.3872C31.2512 35.7046 31.3115 36.0255 31.4019 36.3358C23.9563 43.3931 20.8035 53.8159 23.0307 63.7848C22.7345 63.7068 22.4296 63.6589 22.121 63.6376Z" fill="#61A0E0"/>
<path d="M66.0454 70.7213C74.2491 62.5176 74.2491 49.2168 66.0454 41.013C57.8417 32.8093 44.5408 32.8093 36.3371 41.013C28.1333 49.2168 28.1333 62.5176 36.3371 70.7213C44.5408 78.9251 57.8417 78.9251 66.0454 70.7213Z" fill="#FEFEFE"/>
<path fill-rule="evenodd" clip-rule="evenodd" d="M51.1899 73.727C61.0276 73.727 69.0512 65.7034 69.0512 55.8657C69.0512 46.0281 61.0276 38.0044 51.1899 38.0044C41.3523 38.0044 33.3286 46.0281 33.3286 55.8657C33.3286 65.7034 41.3505 73.727 51.1899 73.727Z" fill="#A4D0FC"/>
<path fill-rule="evenodd" clip-rule="evenodd" d="M46.6188 42.1548H55.7596V51.2956H64.9004V60.4363H55.7596V69.5771H46.6188V60.4363H37.478V51.2956H46.6188V42.1548Z" fill="white"/>
<path fill-rule="evenodd" clip-rule="evenodd" d="M30.6137 55.8675C30.6137 44.5049 39.8254 35.2932 51.188 35.2932C62.5506 35.2932 71.7623 44.5049 71.7623 55.8675C71.7623 67.2301 62.5506 76.4418 51.188 76.4418C39.8254 76.4418 30.6137 67.2301 30.6137 55.8675ZM51.1897 78.7203C63.8113 78.7203 74.0426 68.489 74.0426 55.8675C74.0426 43.2459 63.8113 33.0146 51.1897 33.0146C38.5682 33.0146 28.3369 43.2459 28.3369 55.8675C28.3369 68.489 38.5682 78.7203 51.1897 78.7203Z" fill="#A4D0FC"/>
<path fill-rule="evenodd" clip-rule="evenodd" d="M46.2432 50.5209H37.5865V58.6953H46.7273V67.8379H54.9017V58.6953H64.0442V50.5209H54.9017V41.3801H46.7273V50.5209H46.2432ZM37.1042 49.5545H45.7609V40.4155H55.8681V49.5545H65.0106V59.6635H55.8681V68.8043H45.7609V59.6635H36.6201V49.5545H37.1042Z" fill="#61A0E0"/>
<path fill-rule="evenodd" clip-rule="evenodd" d="M21.083 118.02C26.0267 118.02 30.0695 122.064 30.0695 127.006V140.867H12.0947V127.006C12.0947 122.062 16.1394 118.02 21.0812 118.02H21.083Z" fill="#A4D0FC"/>
<path fill-rule="evenodd" clip-rule="evenodd" d="M22.3017 117.207C24.9119 117.207 27.2844 118.276 29.0044 119.996H29.0079C30.7279 121.716 31.7972 124.091 31.7972 126.702V141.072H12.8081V126.702C12.8081 124.091 13.8773 121.716 15.5973 119.996C17.3173 118.276 19.6916 117.207 22.3035 117.207H22.3017ZM22.3035 118.223C19.9736 118.223 17.8528 119.179 16.3155 120.714C14.7781 122.252 13.8241 124.371 13.8241 126.704V140.058H30.7829V126.704C30.7829 124.372 29.8289 122.252 28.2916 120.714C26.7542 119.177 24.6353 118.223 22.3035 118.223Z" fill="#1E77D1"/>
<path fill-rule="evenodd" clip-rule="evenodd" d="M21.0833 104.767C23.8601 104.767 26.1103 107.017 26.1103 109.794C26.1103 112.57 23.8601 114.819 21.0833 114.819C18.3065 114.819 16.0581 112.569 16.0581 109.794C16.0581 107.019 18.3083 104.767 21.0833 104.767Z" fill="#A4D0FC"/>
<path fill-rule="evenodd" clip-rule="evenodd" d="M22.3027 103.955C23.8312 103.955 25.216 104.575 26.2161 105.575C27.2162 106.575 27.8368 107.96 27.8368 109.489C27.8368 111.017 27.2162 112.402 26.2161 113.404C25.216 114.404 23.8312 115.023 22.3027 115.023C20.7742 115.023 19.3893 114.404 18.3875 113.404C17.3874 112.404 16.7686 111.019 16.7686 109.489C16.7686 107.958 17.3874 106.575 18.3875 105.575C19.3876 104.575 20.7724 103.955 22.3027 103.955ZM25.4962 106.295C24.6805 105.478 23.5492 104.972 22.3027 104.972C21.0561 104.972 19.9248 105.478 19.1074 106.295C18.2899 107.113 17.7846 108.242 17.7846 109.489C17.7846 110.735 18.2899 111.867 19.1074 112.684C19.9248 113.501 21.0561 114.007 22.3027 114.007C23.5492 114.007 24.6805 113.501 25.4962 112.684C26.3136 111.867 26.819 110.735 26.819 109.489C26.819 108.242 26.3136 107.111 25.4962 106.295Z" fill="#1E77D1"/>
<path fill-rule="evenodd" clip-rule="evenodd" d="M36.6201 124.114C41.5638 124.114 45.6066 128.157 45.6066 133.101V146.964H27.6318V133.101C27.6318 128.157 31.6765 124.114 36.6183 124.114H36.6201Z" fill="#FBBFA8"/>
<path fill-rule="evenodd" clip-rule="evenodd" d="M37.8381 123.3C40.45 123.3 42.8225 124.369 44.5443 126.089H44.5478C46.266 127.807 47.3353 130.183 47.3353 132.795V147.165H28.3462V132.795C28.3462 130.185 29.4154 127.809 31.1354 126.089C32.8536 124.369 35.2297 123.3 37.8416 123.3H37.8381ZM37.8381 124.316C35.5081 124.316 33.3874 125.27 31.85 126.807C30.3127 128.345 29.3587 130.463 29.3587 132.795V146.149H46.3174V132.795C46.3174 130.465 45.3617 128.345 43.8261 126.807C42.2888 125.27 40.168 124.316 37.8363 124.316H37.8381Z" fill="#F57A44"/>
<path fill-rule="evenodd" clip-rule="evenodd" d="M36.6204 110.861C39.3972 110.861 41.6474 113.112 41.6474 115.887C41.6474 118.662 39.3972 120.914 36.6204 120.914C33.8436 120.914 31.5952 118.663 31.5952 115.887C31.5952 113.11 33.8454 110.861 36.6204 110.861Z" fill="#FBBFA8"/>
<path fill-rule="evenodd" clip-rule="evenodd" d="M37.838 110.049C39.3665 110.049 40.7514 110.67 41.7532 111.67C42.7533 112.67 43.3739 114.055 43.3739 115.583C43.3739 117.112 42.7533 118.497 41.7532 119.497C40.7531 120.497 39.3683 121.118 37.838 121.118C36.3077 121.118 34.9247 120.497 33.9264 119.497C32.9245 118.497 32.3057 117.112 32.3057 115.583C32.3057 114.055 32.9245 112.67 33.9264 111.67C34.9264 110.67 36.3113 110.049 37.838 110.049ZM41.0351 112.388C40.2176 111.572 39.0863 111.065 37.838 111.065C36.5897 111.065 35.4602 111.572 34.6445 112.388C33.8271 113.206 33.3217 114.337 33.3217 115.583C33.3217 116.83 33.8271 117.961 34.6445 118.779C35.4602 119.594 36.5932 120.102 37.838 120.102C39.0828 120.102 40.2176 119.594 41.0351 118.779C41.8507 117.961 42.3579 116.83 42.3579 115.583C42.3579 114.337 41.8507 113.206 41.0351 112.388Z" fill="#F57A44"/>
<path fill-rule="evenodd" clip-rule="evenodd" d="M62.0512 198.707H40.202C39.7959 198.707 39.4644 199.038 39.4644 199.442V218.905C39.4644 219.311 39.7959 219.641 40.202 219.641H44.6811C44.6846 219.01 44.7751 207.945 44.947 207.369C45.7379 204.705 48.2062 202.764 51.1248 202.764C53.8148 202.764 56.1199 204.411 57.0863 206.751C57.3966 207.503 57.5686 218.781 57.5721 219.641H62.0494C62.4555 219.641 62.7889 219.309 62.7889 218.905V199.442C62.7889 199.036 62.4573 198.707 62.0494 198.707H62.0512Z" fill="#61A0E0"/>
<path fill-rule="evenodd" clip-rule="evenodd" d="M37.6642 197.196C36.8804 197.194 36.6978 196.742 37.2581 196.194L50.213 183.473C50.7716 182.925 51.6847 182.927 52.2397 183.48L65.1255 196.191C65.6805 196.742 65.4943 197.191 64.7124 197.189L37.6659 197.198L37.6642 197.196Z" fill="#FBBFA8"/>
<path fill-rule="evenodd" clip-rule="evenodd" d="M104.23 17.6714C103.748 24.2783 102.772 25.1897 96.4722 25.6986C102.772 26.2075 103.746 27.1189 104.23 33.7258C104.71 27.1172 105.684 26.2057 111.984 25.6986C105.684 25.1897 104.71 24.2783 104.23 17.6714Z" fill="white"/>
<path fill-rule="evenodd" clip-rule="evenodd" d="M72.2022 132.813C71.7199 139.42 70.7464 140.331 64.4463 140.84C70.7464 141.349 71.7199 142.261 72.2022 148.867C72.6845 142.261 73.658 141.349 79.9581 140.84C73.658 140.331 72.6845 139.42 72.2022 132.813Z" fill="white"/>
<path fill-rule="evenodd" clip-rule="evenodd" d="M238.779 142.647C238.297 149.256 237.322 150.167 231.023 150.676C237.322 151.185 238.297 152.096 238.779 158.703C239.26 152.096 240.235 151.185 246.533 150.676C240.235 150.167 239.26 149.256 238.779 142.647Z" fill="white"/>
</g>
<defs>
<clipPath id="clip0_830_19455">
<rect width="272.236" height="232.364" fill="white" transform="translate(0 0.63623)"/>
</clipPath>
</defs>
</svg>
