<svg width="541" height="278" viewBox="0 0 541 278" fill="none" xmlns="http://www.w3.org/2000/svg">
<g clip-path="url(#clip0_76_2508)">
<path d="M255.5 124.364C223.343 124.364 191.907 134.459 165.169 153.374C138.431 172.288 117.592 199.172 105.286 230.626C92.9795 262.08 89.7597 296.691 96.0333 330.082C102.307 363.473 117.792 394.145 140.531 418.219C163.27 442.292 192.241 458.687 223.78 465.329C255.32 471.971 288.011 468.562 317.721 455.533C347.43 442.505 372.824 420.441 390.689 392.134C408.555 363.826 418.091 330.545 418.091 296.5C418.091 250.847 400.961 207.063 370.469 174.781C339.977 142.499 298.622 124.364 255.5 124.364ZM255.5 419.454C232.53 419.454 210.077 412.243 190.978 398.733C171.88 385.222 156.994 366.02 148.204 343.553C139.414 321.086 137.114 296.364 141.595 272.513C146.076 248.662 157.137 226.753 173.379 209.558C189.621 192.362 210.315 180.652 232.843 175.908C255.371 171.164 278.722 173.599 299.943 182.905C321.165 192.211 339.303 207.97 352.064 228.19C364.825 248.41 371.636 272.182 371.636 296.5C371.636 329.11 359.401 360.383 337.621 383.442C315.841 406.5 286.301 419.454 255.5 419.454ZM255.5 222.727C241.718 222.727 228.246 227.054 216.787 235.16C205.328 243.266 196.396 254.788 191.122 268.268C185.848 281.749 184.468 296.582 187.157 310.892C189.846 325.203 196.482 338.348 206.228 348.665C215.973 358.982 228.389 366.009 241.906 368.855C255.423 371.702 269.433 370.241 282.166 364.657C294.899 359.073 305.782 349.618 313.438 337.486C321.095 325.354 325.182 311.091 325.182 296.5C325.182 276.934 317.84 258.17 304.773 244.335C291.705 230.5 273.981 222.727 255.5 222.727ZM255.5 321.091C250.906 321.091 246.415 319.649 242.596 316.947C238.776 314.244 235.799 310.404 234.041 305.91C232.283 301.417 231.823 296.473 232.719 291.702C233.615 286.932 235.827 282.551 239.076 279.112C242.324 275.672 246.463 273.33 250.969 272.382C255.474 271.433 260.145 271.92 264.389 273.781C268.633 275.642 272.261 278.794 274.813 282.838C277.365 286.882 278.727 291.636 278.727 296.5C278.727 303.022 276.28 309.277 271.924 313.888C267.568 318.5 261.66 321.091 255.5 321.091ZM255.5 26C204.967 26 155.569 41.8645 113.552 71.5875C71.5351 101.31 38.7871 143.557 19.4489 192.984C0.110705 242.411 -4.94905 296.8 4.90947 349.272C14.768 401.744 39.102 449.942 74.8343 487.772C110.567 525.602 156.092 551.365 205.654 561.802C255.217 572.24 306.589 566.883 353.276 546.409C399.962 525.936 439.866 491.265 467.94 446.782C496.015 402.298 511 350 511 296.5C511 224.759 484.081 155.956 436.166 105.228C388.25 54.499 323.263 26 255.5 26ZM255.5 517.818C214.155 517.818 173.738 504.838 139.361 480.519C104.983 456.201 78.1894 421.635 62.3673 381.195C46.5451 340.754 42.4053 296.254 50.4714 253.323C58.5375 210.391 78.4471 170.956 107.683 140.004C136.918 109.052 174.166 87.974 214.717 79.4344C255.268 70.8948 297.3 75.2776 335.498 92.0286C373.696 108.78 406.345 137.147 429.315 173.542C452.285 209.938 464.545 252.727 464.545 296.5C464.545 355.197 442.521 411.49 403.317 452.995C364.114 494.501 310.942 517.818 255.5 517.818Z" fill="white" fill-opacity="0.1"/>
</g>
<defs>
<clipPath id="clip0_76_2508">
<rect width="541" height="278" fill="white"/>
</clipPath>
</defs>
</svg>
