<svg width="329" height="243" viewBox="0 0 329 243" fill="none" xmlns="http://www.w3.org/2000/svg">
<g clip-path="url(#clip0_483_6913)">
<path d="M295.541 225.599H273.836V225.762H295.541V225.599Z" fill="#EBEBEB"/>
<path d="M217.766 227.381H212.071V227.545H217.766V227.381Z" fill="#EBEBEB"/>
<path d="M273.181 219.517H260.605V219.681H273.181V219.517Z" fill="#EBEBEB"/>
<path d="M63.387 220.619H35.0829V220.782H63.387V220.619Z" fill="#EBEBEB"/>
<path d="M73.3745 220.619H69.2262V220.782H73.3745V220.619Z" fill="#EBEBEB"/>
<path d="M148.254 223.384H86.8613V223.548H148.254V223.384Z" fill="#EBEBEB"/>
<path d="M156.026 185.826H29.4864C27.4221 185.826 25.7444 184.149 25.7444 182.085V4.20561C25.7444 2.14129 27.4221 0.463623 29.4864 0.463623H156.032C158.097 0.463623 159.774 2.14129 159.774 4.20561V182.085C159.774 184.149 158.097 185.826 156.032 185.826H156.026ZM29.4864 0.627458C27.5138 0.627458 25.9082 2.23304 25.9082 4.20561V182.085C25.9082 184.057 27.5138 185.663 29.4864 185.663H156.032C158.005 185.663 159.611 184.057 159.611 182.085V4.20561C159.611 2.23304 158.005 0.627458 156.032 0.627458H29.4864Z" fill="#EBEBEB"/>
<path d="M297.776 185.826H171.23C169.165 185.826 167.488 184.149 167.488 182.085V4.20561C167.488 2.14129 169.165 0.463623 171.23 0.463623H297.776C299.84 0.463623 301.518 2.14129 301.518 4.20561V182.085C301.518 184.149 299.84 185.826 297.776 185.826ZM171.23 0.627458C169.257 0.627458 167.652 2.23304 167.652 4.20561V182.085C167.652 184.057 169.257 185.663 171.23 185.663H297.776C299.748 185.663 301.354 184.057 301.354 182.085V4.20561C301.354 2.23304 299.748 0.627458 297.776 0.627458H171.23Z" fill="#EBEBEB"/>
<path d="M328.374 215.055H0.703857V215.219H328.374V215.055Z" fill="#EBEBEB"/>
<path d="M173.786 35.793H192.784V10.2937L173.786 10.2937V35.793Z" fill="#F0F0F0"/>
<path d="M172.213 36.3174H191.211V10.8181L172.213 10.8181V36.3174Z" fill="#F5F5F5"/>
<path d="M196.067 12.4109H190.045V40.8723H196.067V12.4109Z" fill="#E0E0E0"/>
<path d="M185.215 12.4109L171.545 31.7303V40.8789H190.045V12.4109H185.215Z" fill="#EBEBEB"/>
<path d="M194.907 36.3173C194.907 37.3396 194.082 38.1654 193.059 38.1654C192.037 38.1654 191.211 37.3396 191.211 36.3173C191.211 35.295 192.037 34.4692 193.059 34.4692C194.082 34.4692 194.907 35.295 194.907 36.3173Z" fill="#FAFAFA"/>
<path d="M194.907 19.0952H191.211V31.1141H194.907V19.0952Z" fill="#F0F0F0"/>
<path opacity="0.6" d="M194.907 19.0952H191.211V20.7925H194.907V19.0952Z" fill="#FAFAFA"/>
<path d="M166.433 33.833V29.1998C167.003 29.1998 167.003 28.3151 166.433 28.3151C164.663 28.3151 162.901 28.302 161.131 28.2954V34.7308H166.433C167.003 34.7308 167.003 33.8461 166.433 33.8461V33.833Z" fill="#EBEBEB"/>
<path d="M166.433 29.2007H162.317V33.8274H166.433V29.2007Z" fill="#F5F5F5"/>
<path d="M163.182 34.2787H148.903C147.92 34.2787 147.127 33.0401 147.127 31.5197C147.127 29.9993 147.92 28.7607 148.903 28.7607H163.182V34.2853V34.2787Z" fill="#FAFAFA"/>
<path d="M163.182 28.3089C158.51 28.3089 153.824 28.2237 149.152 28.3089C145.947 28.3678 145.777 34.5018 148.916 34.7181C151.104 34.8688 153.359 34.7181 155.548 34.7181H163.176C163.746 34.7181 163.746 33.8334 163.176 33.8334H149.885C148.863 33.8334 148.129 33.8203 147.729 32.6144C147.389 31.5659 147.493 29.4295 148.896 29.2001C149.047 29.1739 149.224 29.2001 149.374 29.2001H163.169C163.739 29.2001 163.739 28.3154 163.169 28.3154L163.182 28.3089Z" fill="#E6E6E6"/>
<path d="M166.485 27.5751V23.453C166.99 23.453 166.996 22.6666 166.485 22.6666C164.913 22.6666 163.346 22.6535 161.773 22.647V28.3615H166.485C166.99 28.3615 166.996 27.5751 166.485 27.5751Z" fill="#EBEBEB"/>
<path d="M166.479 23.4531H162.822V27.5687H166.479V23.4531Z" fill="#F5F5F5"/>
<path d="M163.589 27.9679H150.901C150.03 27.9679 149.322 26.8669 149.322 25.5169C149.322 24.1669 150.03 23.0659 150.901 23.0659H163.589V27.9744V27.9679Z" fill="#FAFAFA"/>
<path d="M163.589 22.6663C159.434 22.6663 155.272 22.5942 151.118 22.6663C148.273 22.7187 148.123 28.1712 150.908 28.3612C152.854 28.4923 154.853 28.3612 156.806 28.3612H163.589C164.093 28.3612 164.1 27.5748 163.589 27.5748H151.779C150.869 27.5748 150.213 27.5617 149.866 26.4869C149.558 25.5564 149.656 23.6559 150.901 23.4527C151.032 23.4331 151.196 23.4527 151.327 23.4527H163.589C164.093 23.4527 164.1 22.6663 163.589 22.6663Z" fill="#E6E6E6"/>
<path d="M166.433 40.1309V35.4976C167.003 35.4976 167.003 34.6129 166.433 34.6129C164.663 34.6129 162.901 34.5998 161.131 34.5933V41.0287H166.433C167.003 41.0287 167.003 40.144 166.433 40.144V40.1309Z" fill="#EBEBEB"/>
<path d="M166.433 35.498H162.317V40.1247H166.433V35.498Z" fill="#F5F5F5"/>
<path d="M163.182 40.5766H148.903C147.92 40.5766 147.127 39.338 147.127 37.8176C147.127 36.2972 147.92 35.0586 148.903 35.0586H163.182V40.5831V40.5766Z" fill="#FAFAFA"/>
<path d="M163.182 34.6067C158.51 34.6067 153.824 34.5215 149.152 34.6067C145.947 34.6657 145.777 40.7997 148.916 41.0159C151.104 41.1667 153.359 41.0159 155.548 41.0159H163.176C163.746 41.0159 163.746 40.1312 163.176 40.1312H149.885C148.863 40.1312 148.129 40.1181 147.729 38.9123C147.389 37.8638 147.493 35.7273 148.896 35.498C149.047 35.4718 149.224 35.498 149.374 35.498H163.169C163.739 35.498 163.739 34.6133 163.169 34.6133L163.182 34.6067Z" fill="#E6E6E6"/>
<path d="M244.32 40.6426H84.7578V45.2627H244.32V40.6426Z" fill="#F5F5F5"/>
<path d="M235.722 56.4892V45.2632H241.332L235.722 56.4892Z" fill="#E0E0E0"/>
<path d="M238.527 56.4892L244.143 45.2632H241.332L235.722 56.4892H238.527Z" fill="#F5F5F5"/>
<path d="M93.179 56.4892V45.2632H87.5627L93.179 56.4892Z" fill="#E0E0E0"/>
<path d="M90.3675 56.4892L84.7578 45.2632H87.5627L93.1789 56.4892H90.3675Z" fill="#F5F5F5"/>
<path d="M226.508 28.4992V28.0732C226.508 21.3298 221.042 15.8643 214.299 15.8643C207.555 15.8643 202.09 21.3298 202.09 28.0732V40.7082H226.508V28.4992Z" fill="#F0F0F0"/>
<path d="M204.757 28.073C204.757 33.3419 209.03 37.6147 214.299 37.6147C219.568 37.6147 223.841 33.3419 223.841 28.073C223.841 22.8041 219.568 18.5312 214.299 18.5312C209.03 18.5312 204.757 22.8041 204.757 28.073Z" fill="#FAFAFA"/>
<path d="M214.292 20.0454C209.279 20.0454 205.177 23.9184 204.79 28.8335C204.77 28.5844 204.751 28.3354 204.751 28.0798C204.751 22.8109 209.023 18.5381 214.292 18.5381C219.561 18.5381 223.834 22.8109 223.834 28.0798C223.834 28.3354 223.814 28.5844 223.795 28.8335C223.408 23.9184 219.306 20.0454 214.292 20.0454Z" fill="#E6E6E6"/>
<path d="M208.27 28.0734H213.283V23.06C213.283 22.503 213.735 22.0508 214.292 22.0508C214.849 22.0508 215.302 22.503 215.302 23.06V29.0826C215.302 29.6396 214.849 30.0918 214.292 30.0918H208.27C207.713 30.0918 207.26 29.6396 207.26 29.0826C207.26 28.5255 207.713 28.0734 208.27 28.0734Z" fill="#E0E0E0"/>
<path d="M208.27 29.0824C207.713 29.0824 207.26 28.6302 207.26 28.0732C207.26 27.5161 207.713 27.064 208.27 27.064H214.292C214.849 27.064 215.302 27.5161 215.302 28.0732C215.302 28.6302 214.849 29.0824 214.292 29.0824H208.27Z" fill="#F5F5F5"/>
<path d="M213.283 22.0507C213.283 21.4937 213.735 21.0415 214.292 21.0415C214.849 21.0415 215.302 21.4937 215.302 22.0507V28.0733C215.302 28.6303 214.849 29.0825 214.292 29.0825C213.735 29.0825 213.283 28.6303 213.283 28.0733V22.0507Z" fill="#EBEBEB"/>
<path d="M138.955 40.754H120.965L122.958 17.9351H140.953L138.955 40.754Z" fill="#EBEBEB"/>
<path d="M138.954 40.754H139.813L141.812 17.9351H140.953L138.954 40.754Z" fill="#E0E0E0"/>
<path d="M137.323 38.4272H123.004L124.589 20.2612H138.915L137.323 38.4272Z" fill="#E0E0E0"/>
<path d="M136.274 36.9335H124.308L125.638 21.7559H137.604L136.274 36.9335Z" fill="#FAFAFA"/>
<path d="M130.776 32.4766C133.05 32.4766 134.898 30.6351 134.898 28.3545C134.898 26.0739 133.056 24.2324 130.776 24.2324C128.495 24.2324 128.502 32.47 130.776 32.47V32.4766Z" fill="#E6E6E6"/>
<path d="M123.351 40.7539L124.583 26.6313H106.672L105.434 40.7539H123.351Z" fill="#F0F0F0"/>
<path d="M123.351 40.7539L124.583 26.6313H125.553L124.314 40.7539H123.351Z" fill="#E0E0E0"/>
<path d="M121.647 39.3123L122.63 28.0732H108.37L107.387 39.3123H121.647Z" fill="#FAFAFA"/>
<path d="M120.559 38.3881L121.378 28.9971H109.464L108.645 38.3881H120.559Z" fill="#EBEBEB"/>
<path d="M115.028 35.793C116.496 35.793 117.689 34.6003 117.689 33.1324C117.689 31.6644 116.496 30.4717 115.028 30.4717C113.56 30.4717 113.56 35.7996 115.028 35.7996V35.793Z" fill="#F5F5F5"/>
<path d="M52.1349 187.465C52.0825 187.419 52.0497 187.354 52.0497 187.281C51.9908 185.997 51.2175 173.369 43.4844 164.725C36.9442 157.411 43.6548 162.628 46.5645 164.98C46.8005 165.17 47.1216 164.895 46.9643 164.633C44.9131 161.166 39.7621 151.998 41.5512 150.209C43.242 148.518 46.7218 156.893 48.2815 160.956C48.3929 161.251 48.832 161.146 48.7993 160.832C48.3536 156.533 47.6983 147.542 50.123 147.856C52.5216 148.171 51.8531 160.046 51.3747 165.858C51.3485 166.179 51.8073 166.265 51.899 165.957C52.9803 162.379 55.0381 157.096 57.4563 158.492C61.0344 160.563 52.1874 167.844 52.7444 175.747C53.2883 183.494 53.4325 188.572 52.1349 187.458V187.465Z" fill="#F5F5F5"/>
<path d="M55.818 189.7C55.818 189.7 55.8639 189.575 55.936 189.523C64.842 183.362 62.6466 169.79 59.9466 161.376C59.3437 159.501 58.7146 157.562 58.6228 155.563C60.5168 157.83 61.6571 160.812 62.9219 163.512C63.0857 163.866 63.5051 163.741 63.4461 163.355C62.7711 159.016 62.5025 145.379 66.4411 145.621C68.2236 145.733 66.2379 157.594 66.1658 160.013C66.1527 160.399 66.6377 160.55 66.736 160.19C67.9025 155.982 75.9435 147.286 77.4049 149.023C78.0275 149.763 74.2658 153.846 72.9879 155.766C70.5894 159.364 68.9379 163.381 67.411 167.398C67.2733 167.752 67.7124 168.126 67.9025 167.831C69.3245 165.583 74.6459 160.176 76.4481 162.857C77.7522 164.797 74.2724 167.615 72.5554 169.279C69.508 172.235 66.6114 175.498 65.1304 179.43C64.1277 182.111 56.9059 191.141 55.8311 189.7H55.818Z" fill="#F5F5F5"/>
<path d="M56.9058 188.395C56.9648 188.336 56.9975 188.251 56.9975 188.166C56.9844 186.6 57.0958 171.226 65.9102 160.216C73.3679 150.903 65.5694 157.68 62.1878 160.734C61.9191 160.976 61.5063 160.662 61.6767 160.34C63.9376 155.995 69.5866 144.52 67.2995 142.469C65.1369 140.529 61.4604 150.93 59.8352 155.963C59.7172 156.33 59.1798 156.231 59.1929 155.845C59.4551 150.595 59.6517 139.638 56.7354 140.182C53.8454 140.72 55.4378 155.098 56.4012 162.123C56.4536 162.51 55.9031 162.647 55.772 162.28C54.2254 158.007 51.3747 151.729 48.5305 153.584C44.3233 156.336 55.5427 164.594 55.392 174.22C55.2412 183.657 55.4051 189.837 56.9058 188.395Z" fill="#E6E6E6"/>
<path d="M62.8628 211.961C65.5365 202 67.2929 187.963 67.2929 184.509H47.3574C47.3574 187.963 49.1203 202 51.7875 211.961C52.279 213.79 53.9436 215.061 55.8375 215.061H58.7997C60.6936 215.061 62.3582 213.79 62.8497 211.961H62.8628Z" fill="#E6E6E6"/>
<path d="M280.967 214.419H263.023C260.841 214.419 259.045 212.715 258.927 210.539L256.732 169.391H287.251L285.056 210.539C284.938 212.715 283.142 214.419 280.96 214.419H280.967Z" fill="#E6E6E6"/>
<path d="M276.13 171.914H267.86V180.184H276.13V171.914Z" fill="#FAFAFA"/>
<path d="M276.13 182.222H267.86V190.493H276.13V182.222Z" fill="#FAFAFA"/>
<path d="M276.13 192.531H267.86V200.801H276.13V192.531Z" fill="#FAFAFA"/>
<path d="M276.13 202.833H267.86V211.103H276.13V202.833Z" fill="#FAFAFA"/>
<path d="M288.182 166.396H255.801C255.349 166.396 254.982 166.763 254.982 167.215V168.578C254.982 169.031 255.349 169.397 255.801 169.397H288.182C288.634 169.397 289.001 169.031 289.001 168.578V167.215C289.001 166.763 288.634 166.396 288.182 166.396Z" fill="#F5F5F5"/>
<path d="M283.064 202.833H278.253V211.103H282.454C282.566 210.894 282.644 210.664 282.657 210.409L283.064 202.833Z" fill="#FAFAFA"/>
<path d="M265.73 202.833H260.92L261.326 210.409C261.339 210.664 261.418 210.894 261.529 211.103H265.73V202.833Z" fill="#FAFAFA"/>
<path d="M265.73 192.531H260.376L260.815 200.801H265.73V192.531Z" fill="#FAFAFA"/>
<path d="M265.73 182.222H259.825L260.264 190.493H265.73V182.222Z" fill="#FAFAFA"/>
<path d="M265.73 171.914H259.275L259.714 180.184H265.73V171.914Z" fill="#FAFAFA"/>
<path d="M278.26 192.531V200.801H283.175L283.614 192.531H278.26Z" fill="#FAFAFA"/>
<path d="M278.26 182.222V190.493H283.726L284.165 182.222H278.26Z" fill="#FAFAFA"/>
<path d="M278.26 171.914V180.184H284.276L284.715 171.914H278.26Z" fill="#FAFAFA"/>
<path d="M161.38 242.127C231.556 242.127 288.444 238.806 288.444 234.708C288.444 230.611 231.556 227.29 161.38 227.29C91.2047 227.29 34.3163 230.611 34.3163 234.708C34.3163 238.806 91.2047 242.127 161.38 242.127Z" fill="#F5F5F5"/>
<path d="M260.553 122.697C255.913 122.697 250.434 114.224 245.598 106.74C242.426 101.838 239.346 97.0737 236.069 93.6332H246.915V88.3904H233.618C235.997 85.6839 238.245 82.1975 240.558 78.6259C244.189 73.0096 248.711 66.0171 252.164 66.0171H262.335V60.7744H252.164C245.853 60.7744 241.142 68.0618 236.154 75.7817C232.524 81.398 228.002 88.3904 224.548 88.3904H108.461C105.008 88.3904 100.486 81.398 96.8554 75.7817C91.8682 68.0618 87.1563 60.7744 80.8454 60.7744H70.6745V66.0171H80.8454C84.299 66.0171 88.8209 73.0096 92.4515 78.6259C94.7648 82.1975 97.0126 85.6839 99.3915 88.3904H52.2726V93.6332H105.132C101.856 97.0802 98.7755 101.838 95.6036 106.74C90.7672 114.217 85.2886 122.697 80.6488 122.697H61.3687V127.94H80.6488C88.1393 127.94 93.9063 119.028 100.008 109.591C104.844 102.113 110.323 93.6332 114.962 93.6332H226.252C230.892 93.6332 236.371 102.113 241.207 109.591C247.308 119.028 253.069 127.94 260.559 127.94H279.839V122.697H260.559H260.553Z" fill="#263238"/>
<g opacity="0.4">
<path d="M231.2 92.3813L230.918 92.7877C234.778 95.4483 238.435 100.822 242.465 107.048L242.878 106.779C238.815 100.508 235.132 95.0945 231.2 92.3813Z" fill="white"/>
<path d="M247.99 114.499L247.59 114.781C249.851 118.012 251.732 120.292 253.514 121.963L253.849 121.603C252.092 119.958 250.231 117.697 247.99 114.499Z" fill="white"/>
<path d="M243.724 108.981C244.569 110.292 245.421 111.596 246.273 112.861L246.679 112.585C245.827 111.321 244.982 110.017 244.137 108.712L243.724 108.981Z" fill="white"/>
<path d="M255.598 123.064L255.31 123.464C257.125 124.781 258.842 125.417 260.546 125.417H273.548V124.926H260.546C258.947 124.926 257.328 124.316 255.598 123.064Z" fill="white"/>
<path d="M279.833 124.925H275.901V125.417H279.833V124.925Z" fill="white"/>
<path d="M56.1982 90.6187H52.2661V91.1102H56.1982V90.6187Z" fill="white"/>
<path d="M75.2554 90.6187H60.0056V91.1102H75.2554V90.6187Z" fill="white"/>
<path d="M79.0695 90.6182V91.1097H109.562V90.6182H108.455C107.301 90.6182 106.148 90.225 104.916 89.4189L104.647 89.8318C105.145 90.1595 105.63 90.4216 106.115 90.6248H79.0695V90.6182Z" fill="white"/>
<path d="M204.862 90.6187H189.612V91.1102H204.862V90.6187Z" fill="white"/>
<path d="M239.169 91.1099V90.6184H226.888C227.373 90.4153 227.858 90.1531 228.356 89.8255L228.087 89.4126C226.855 90.2187 225.702 90.6119 224.548 90.6119H208.676V91.1034H226.246C227.13 91.1034 228.035 91.2934 228.952 91.6801L229.142 91.2279C229.031 91.182 228.926 91.1493 228.815 91.1099H239.176H239.169Z" fill="white"/>
<path d="M185.798 90.6187H178.177V91.1102H185.798V90.6187Z" fill="white"/>
<path d="M174.362 90.6187H143.87V91.1102H174.362V90.6187Z" fill="white"/>
<path d="M246.915 90.6187H242.983V91.1102H246.915V90.6187Z" fill="white"/>
<path d="M237.465 78.8883L237.052 78.6196C235.007 81.7587 232.629 85.2975 230.237 87.6502L230.584 88.0041C233.009 85.6187 235.407 82.0536 237.465 78.8949V78.8883Z" fill="white"/>
<path d="M252.164 63.4939H255.559V63.0024H252.164C247.157 63.0024 242.609 70.0277 238.599 76.2272L239.012 76.4959C242.957 70.4012 247.426 63.4939 252.164 63.4939Z" fill="white"/>
<path d="M262.335 63.0024H258.403V63.4939H262.335V63.0024Z" fill="white"/>
<path d="M102.767 87.6434C100.375 85.2973 97.9957 81.7519 95.9511 78.6128L95.5382 78.8815C97.596 82.0402 99.9945 85.6053 102.419 87.9907L102.767 87.6368V87.6434Z" fill="white"/>
<path d="M93.9915 76.4959L94.4044 76.2272C90.3937 70.0277 85.8457 63.0024 80.8389 63.0024H77.4442V63.4939H80.8389C85.577 63.4939 90.0464 70.4012 93.9915 76.4959Z" fill="white"/>
<path d="M74.5934 63.0024H70.6614V63.4939H74.5934V63.0024Z" fill="white"/>
<path d="M124.812 90.6187H123.652V91.1102H124.812H127.584H140.062V90.6187H127.584H124.812Z" fill="white"/>
<path d="M98.3102 106.779L98.723 107.048C102.753 100.822 106.41 95.4549 110.27 92.7877L109.988 92.3813C106.05 95.0945 102.367 100.508 98.3102 106.779Z" fill="white"/>
<path d="M114.949 90.6184H113.376V90.8084C112.937 90.9067 112.498 91.0443 112.059 91.2278L112.249 91.68C113.16 91.2999 114.071 91.1033 114.956 91.1033H121.339V90.6118H114.956L114.949 90.6184Z" fill="white"/>
<path d="M80.6422 124.926H67.6403V125.417H80.6422C82.3526 125.417 84.0631 124.775 85.8784 123.464L85.59 123.064C83.8599 124.316 82.2412 124.926 80.6422 124.926Z" fill="white"/>
<path d="M94.5092 112.592L94.9155 112.867C95.7674 111.602 96.6128 110.298 97.4647 108.987L97.0519 108.719C96.2065 110.029 95.3611 111.327 94.5092 112.592Z" fill="white"/>
<path d="M87.3464 121.603L87.6807 121.963C89.4632 120.292 91.344 118.012 93.6049 114.781L93.2052 114.499C90.9639 117.697 89.1093 119.958 87.3464 121.603Z" fill="white"/>
<path d="M65.2942 124.925H61.3622V125.417H65.2942V124.925Z" fill="white"/>
</g>
<path d="M80.8651 112.651H76.0614C74.9277 112.651 73.8726 113.221 73.25 114.158L72.5488 115.22C71.9787 116.085 71.0088 116.603 69.9733 116.603H57.5809C56.4668 116.603 55.569 117.507 55.569 118.615V137.973H83.5192V116.603L83.2702 114.742C83.1129 113.542 82.084 112.645 80.8782 112.645L80.8651 112.651Z" fill="#407BFF"/>
<path opacity="0.2" d="M80.8651 112.651H76.0614C74.9277 112.651 73.8726 113.221 73.25 114.158L72.5488 115.22C71.9787 116.085 71.0088 116.603 69.9733 116.603H57.5809C56.4668 116.603 55.569 117.507 55.569 118.615V137.973H83.5192V116.603L83.2702 114.742C83.1129 113.542 82.084 112.645 80.8782 112.645L80.8651 112.651Z" fill="white"/>
<path d="M81.4155 119.054H57.6594V135.3H81.4155V119.054Z" fill="#263238"/>
<path opacity="0.9" d="M81.4155 119.054H57.6594V135.3H81.4155V119.054Z" fill="white"/>
<path d="M83.5127 137.98H55.5625L51.4601 123.051C51.152 121.917 51.9974 120.803 53.1705 120.803H76.0746C77.6802 120.803 79.0826 121.878 79.5086 123.418L83.5062 137.98H83.5127Z" fill="#407BFF"/>
<path opacity="0.6" d="M83.5127 137.98H55.5625L51.4601 123.051C51.152 121.917 51.9974 120.803 53.1705 120.803H76.0746C77.6802 120.803 79.0826 121.878 79.5086 123.418L83.5062 137.98H83.5127Z" fill="white"/>
<path d="M49.9854 41.4941H55.1691C56.388 41.4941 57.5283 42.1036 58.2033 43.1259L58.9635 44.2728C59.5795 45.2034 60.6281 45.767 61.7422 45.767H75.1177C76.3169 45.767 77.2868 46.7369 77.2868 47.9361V67.0458C77.2868 68.0288 76.4939 68.8218 75.5109 68.8218H48.9106C47.9342 68.8218 47.1346 68.0288 47.1346 67.0458V45.767L47.4033 43.7616C47.5737 42.464 48.6812 41.4941 49.9854 41.4941Z" fill="#407BFF"/>
<path opacity="0.6" d="M49.9854 41.4941H55.1691C56.388 41.4941 57.5283 42.1036 58.2033 43.1259L58.9635 44.2728C59.5795 45.2034 60.6281 45.767 61.7422 45.767H75.1177C76.3169 45.767 77.2868 46.7369 77.2868 47.9361V67.0458C77.2868 68.0288 76.4939 68.8218 75.5109 68.8218H48.9106C47.9342 68.8218 47.1346 68.0288 47.1346 67.0458V45.767L47.4033 43.7616C47.5737 42.464 48.6812 41.4941 49.9854 41.4941Z" fill="white"/>
<path d="M71.8672 45.7671H69.1869V64.3329H71.8672V45.7671Z" fill="#263238"/>
<path opacity="0.5" d="M71.8672 45.7671H69.1869V64.3329H71.8672V45.7671Z" fill="white"/>
<path d="M70.609 46.6455H68.5513V48.1725H70.609V46.6455Z" fill="#263238"/>
<path d="M70.609 49.9746H68.5513V51.5015H70.609V49.9746Z" fill="#263238"/>
<path d="M70.609 53.3037H68.5513V54.8307H70.609V53.3037Z" fill="#263238"/>
<path d="M70.609 56.6392H68.5513V58.1661H70.609V56.6392Z" fill="#263238"/>
<path d="M70.609 59.9683H68.5513V61.4952H70.609V59.9683Z" fill="#263238"/>
<path opacity="0.7" d="M70.609 46.6455H68.5513V48.1725H70.609V46.6455Z" fill="white"/>
<path opacity="0.7" d="M70.609 49.9746H68.5513V51.5015H70.609V49.9746Z" fill="white"/>
<path opacity="0.7" d="M70.609 53.3037H68.5513V54.8307H70.609V53.3037Z" fill="white"/>
<path opacity="0.7" d="M70.609 56.6392H68.5513V58.1661H70.609V56.6392Z" fill="white"/>
<path opacity="0.7" d="M70.609 59.9683H68.5513V61.4952H70.609V59.9683Z" fill="white"/>
<path d="M72.6012 48.1792H70.5435V49.7061H72.6012V48.1792Z" fill="#263238"/>
<path d="M72.6012 51.5083H70.5435V53.0352H72.6012V51.5083Z" fill="#263238"/>
<path d="M72.6012 54.8374H70.5435V56.3643H72.6012V54.8374Z" fill="#263238"/>
<path d="M72.6012 58.166H70.5435V59.693H72.6012V58.166Z" fill="#263238"/>
<path d="M72.6012 61.4956H70.5435V63.0225H72.6012V61.4956Z" fill="#263238"/>
<g opacity="0.8">
<path d="M72.6012 48.1792H70.5435V49.7061H72.6012V48.1792Z" fill="white"/>
<path d="M72.6012 51.5083H70.5435V53.0352H72.6012V51.5083Z" fill="white"/>
<path d="M72.6012 54.8374H70.5435V56.3643H72.6012V54.8374Z" fill="white"/>
<path d="M72.6012 58.166H70.5435V59.693H72.6012V58.166Z" fill="white"/>
<path d="M72.6012 61.4956H70.5435V63.0225H72.6012V61.4956Z" fill="white"/>
</g>
<path d="M67.6599 63.022V69.1101H73.5514V63.022H67.6599ZM72.6077 68.0091H68.7019V64.1295H72.6077V68.0091Z" fill="#263238"/>
<path opacity="0.7" d="M67.6599 63.022V69.1101H73.5514V63.022H67.6599ZM72.6077 68.0091H68.7019V64.1295H72.6077V68.0091Z" fill="white"/>
<path d="M69.3179 76.6138H41.9968V82.7019L48.0784 88.7834H75.3995V82.6888L69.3179 76.6138Z" fill="#407BFF"/>
<path opacity="0.3" d="M69.3179 76.6138H41.9968V82.7019L48.0784 88.7834H75.3995V82.6888L69.3179 76.6138Z" fill="white"/>
<path d="M75.3995 88.7769H48.0784V94.865H75.3995V88.7769Z" fill="#407BFF"/>
<path opacity="0.3" d="M75.3995 88.7769H48.0784V94.865H75.3995V88.7769Z" fill="white"/>
<path d="M75.3995 94.8584H48.0784V100.947H75.3995V94.8584Z" fill="#407BFF"/>
<path opacity="0.6" d="M75.3995 94.8584H48.0784V100.947H75.3995V94.8584Z" fill="white"/>
<path d="M75.3995 82.689H48.0784V88.7771H75.3995V82.689Z" fill="#407BFF"/>
<path d="M58.3803 100.953H64.5142V82.6888L58.4327 76.6138H52.2987L58.3803 82.6888V100.953Z" fill="#407BFF"/>
<path opacity="0.2" d="M58.3803 100.953H64.5142V82.6888L58.4327 76.6138H52.2987L58.3803 82.6888V100.953Z" fill="black"/>
<path d="M56.7487 87.0405V96.6019H66.0021V87.0405H56.7487ZM64.5144 94.8653H58.3805V88.7772H64.5144V94.8653Z" fill="#263238"/>
<path opacity="0.5" d="M56.7487 87.0405V96.6019H66.0021V87.0405H56.7487ZM64.5144 94.8653H58.3805V88.7772H64.5144V94.8653Z" fill="white"/>
<path d="M41.9968 76.6138V82.7019L48.0784 88.7834V82.6888L41.9968 76.6138Z" fill="#263238"/>
<path opacity="0.5" d="M41.9968 76.6138V82.7019L48.0784 88.7834V82.6888L41.9968 76.6138Z" fill="white"/>
<path d="M41.9968 82.6953V88.7834L48.0784 94.865V88.7769L41.9968 82.6953Z" fill="#263238"/>
<path opacity="0.6" d="M41.9968 82.6953V88.7834L48.0784 94.865V88.7769L41.9968 82.6953Z" fill="white"/>
<path d="M41.9968 88.7837V94.8718L48.0784 100.953V94.8587L41.9968 88.7837Z" fill="#263238"/>
<path opacity="0.8" d="M41.9968 88.7837V94.8718L48.0784 100.953V94.8587L41.9968 88.7837Z" fill="white"/>
<path d="M285.082 104.623H255.29V144.717H285.082V104.623Z" fill="#407BFF"/>
<path opacity="0.7" d="M285.082 104.623H255.29V144.717H285.082V104.623Z" fill="white"/>
<path opacity="0.7" d="M283.136 106.57H257.237V117.009H283.136V106.57Z" fill="white"/>
<path opacity="0.7" d="M283.136 119.447H257.237V129.887H283.136V119.447Z" fill="white"/>
<path d="M283.136 112.199L280.718 109.25L277.736 112.887L274.754 108.601L271.589 111.773L268.482 110.023L265.651 114.715L262.827 110.023L259.622 111.832L257.237 110.488V111.603L259.622 112.953L262.486 111.334L265.651 116.603L268.823 111.334L271.752 112.979L274.616 110.115L277.67 114.499L280.718 110.783L283.136 113.732V112.199Z" fill="#407BFF"/>
<path opacity="0.5" d="M283.136 112.199L280.718 109.25L277.736 112.887L274.754 108.601L271.589 111.773L268.482 110.023L265.651 114.715L262.827 110.023L259.622 111.832L257.237 110.488V111.603L259.622 112.953L262.486 111.334L265.651 116.603L268.823 111.334L271.752 112.979L274.616 110.115L277.67 114.499L280.718 110.783L283.136 113.732V112.199Z" fill="white"/>
<path d="M283.136 122.619L280.698 123.995L277.493 122.18L274.669 126.872L271.844 122.18L268.738 123.929L265.573 120.764L262.591 125.05L259.602 121.413L257.237 124.296V125.83L259.602 122.946L262.65 126.662L265.704 122.271L268.568 125.135L271.497 123.49L274.669 128.759L277.841 123.497L280.698 125.109L283.136 123.733V122.619Z" fill="#407BFF"/>
<path opacity="0.5" d="M283.136 122.619L280.698 123.995L277.493 122.18L274.669 126.872L271.844 122.18L268.738 123.929L265.573 120.764L262.591 125.05L259.602 121.413L257.237 124.296V125.83L259.602 122.946L262.65 126.662L265.704 122.271L268.568 125.135L271.497 123.49L274.669 128.759L277.841 123.497L280.698 125.109L283.136 123.733V122.619Z" fill="white"/>
<path d="M267.932 132.816H282.775C283.404 132.816 283.404 131.846 282.775 131.846H267.932C267.303 131.846 267.303 132.816 267.932 132.816Z" fill="#263238"/>
<path d="M267.932 135.463H280.829C281.458 135.463 281.458 134.487 280.829 134.487H267.932C267.303 134.487 267.303 135.463 267.932 135.463Z" fill="#263238"/>
<path d="M267.932 138.118H280.829C281.458 138.118 281.458 137.141 280.829 137.141H267.932C267.303 137.141 267.303 138.118 267.932 138.118Z" fill="#263238"/>
<path d="M267.932 140.766H281.478C282.107 140.766 282.107 139.789 281.478 139.789H267.932C267.303 139.789 267.303 140.766 267.932 140.766Z" fill="#263238"/>
<g opacity="0.4">
<path d="M267.932 132.816H282.775C283.404 132.816 283.404 131.846 282.775 131.846H267.932C267.303 131.846 267.303 132.816 267.932 132.816Z" fill="white"/>
<path d="M267.932 135.463H280.829C281.458 135.463 281.458 134.487 280.829 134.487H267.932C267.303 134.487 267.303 135.463 267.932 135.463Z" fill="white"/>
<path d="M267.932 138.118H280.829C281.458 138.118 281.458 137.141 280.829 137.141H267.932C267.303 137.141 267.303 138.118 267.932 138.118Z" fill="white"/>
<path d="M267.932 140.766H281.478C282.107 140.766 282.107 139.789 281.478 139.789H267.932C267.303 139.789 267.303 140.766 267.932 140.766Z" fill="white"/>
</g>
<path d="M283.555 42.9492H256.47V79.3992H283.555V42.9492Z" fill="#407BFF"/>
<path opacity="0.6" d="M283.555 42.9492H256.47V79.3992H283.555V42.9492Z" fill="white"/>
<path opacity="0.7" d="M281.786 44.7188H258.239V54.2081H281.786V44.7188Z" fill="white"/>
<path d="M268.037 57.059H281.53C282.1 57.059 282.1 56.1743 281.53 56.1743H268.037C267.467 56.1743 267.467 57.059 268.037 57.059Z" fill="#263238"/>
<path d="M268.037 59.4638H279.761C280.331 59.4638 280.331 58.5791 279.761 58.5791H268.037C267.467 58.5791 267.467 59.4638 268.037 59.4638Z" fill="#263238"/>
<path d="M268.037 61.8759H279.761C280.331 61.8759 280.331 60.9912 279.761 60.9912H268.037C267.467 60.9912 267.467 61.8759 268.037 61.8759Z" fill="#263238"/>
<path d="M268.037 64.2807H280.351C280.921 64.2807 280.921 63.396 280.351 63.396H268.037C267.467 63.396 267.467 64.2807 268.037 64.2807Z" fill="#263238"/>
<path d="M268.037 66.6923H277.991C278.561 66.6923 278.561 65.8076 277.991 65.8076H268.037C267.467 65.8076 267.467 66.6923 268.037 66.6923Z" fill="#263238"/>
<path d="M268.037 69.0976H281.53C282.1 69.0976 282.1 68.2129 281.53 68.2129H268.037C267.467 68.2129 267.467 69.0976 268.037 69.0976Z" fill="#263238"/>
<path d="M268.037 71.5087H279.761C280.331 71.5087 280.331 70.624 279.761 70.624H268.037C267.467 70.624 267.467 71.5087 268.037 71.5087Z" fill="#263238"/>
<path d="M268.037 73.9145H279.761C280.331 73.9145 280.331 73.0298 279.761 73.0298H268.037C267.467 73.0298 267.467 73.9145 268.037 73.9145Z" fill="#263238"/>
<path d="M268.037 76.3261H280.351C280.921 76.3261 280.921 75.4414 280.351 75.4414H268.037C267.467 75.4414 267.467 76.3261 268.037 76.3261Z" fill="#263238"/>
<g opacity="0.4">
<path d="M268.037 57.059H281.53C282.1 57.059 282.1 56.1743 281.53 56.1743H268.037C267.467 56.1743 267.467 57.059 268.037 57.059Z" fill="white"/>
</g>
<g opacity="0.4">
<path d="M268.037 59.4638H279.761C280.331 59.4638 280.331 58.5791 279.761 58.5791H268.037C267.467 58.5791 267.467 59.4638 268.037 59.4638Z" fill="white"/>
</g>
<g opacity="0.4">
<path d="M268.037 61.8759H279.761C280.331 61.8759 280.331 60.9912 279.761 60.9912H268.037C267.467 60.9912 267.467 61.8759 268.037 61.8759Z" fill="white"/>
</g>
<g opacity="0.4">
<path d="M268.037 64.2807H280.351C280.921 64.2807 280.921 63.396 280.351 63.396H268.037C267.467 63.396 267.467 64.2807 268.037 64.2807Z" fill="white"/>
</g>
<g opacity="0.4">
<path d="M268.037 66.6923H277.991C278.561 66.6923 278.561 65.8076 277.991 65.8076H268.037C267.467 65.8076 267.467 66.6923 268.037 66.6923Z" fill="white"/>
</g>
<g opacity="0.4">
<path d="M268.037 69.0976H281.53C282.1 69.0976 282.1 68.2129 281.53 68.2129H268.037C267.467 68.2129 267.467 69.0976 268.037 69.0976Z" fill="white"/>
</g>
<g opacity="0.4">
<path d="M268.037 71.5087H279.761C280.331 71.5087 280.331 70.624 279.761 70.624H268.037C267.467 70.624 267.467 71.5087 268.037 71.5087Z" fill="white"/>
</g>
<g opacity="0.4">
<path d="M268.037 73.9145H279.761C280.331 73.9145 280.331 73.0298 279.761 73.0298H268.037C267.467 73.0298 267.467 73.9145 268.037 73.9145Z" fill="white"/>
</g>
<g opacity="0.4">
<path d="M268.037 76.3261H280.351C280.921 76.3261 280.921 75.4414 280.351 75.4414H268.037C267.467 75.4414 267.467 76.3261 268.037 76.3261Z" fill="white"/>
</g>
<path d="M264.878 56.6133H258.239V63.2519H264.878V56.6133Z" fill="#407BFF"/>
<path opacity="0.3" d="M264.878 56.6133H258.239V63.2519H264.878V56.6133Z" fill="white"/>
<path d="M265.52 49.752H263.724V53.3432H265.52V49.752Z" fill="#407BFF"/>
<path d="M269.118 47.9565H267.322V53.3434H269.118V47.9565Z" fill="#407BFF"/>
<path d="M272.709 48.854H270.914V53.3431H272.709V48.854Z" fill="#407BFF"/>
<path d="M276.301 46.1606H274.505V53.3497H276.301V46.1606Z" fill="#407BFF"/>
<path d="M270.291 73.2324H243.206V109.682H270.291V73.2324Z" fill="#407BFF"/>
<path opacity="0.8" d="M270.291 73.2324H243.206V109.682H270.291V73.2324Z" fill="white"/>
<path d="M254.773 77.1386H268.266C268.836 77.1386 268.836 76.2539 268.266 76.2539H254.773C254.203 76.2539 254.203 77.1386 254.773 77.1386Z" fill="#263238"/>
<path d="M254.773 79.5434H266.497C267.067 79.5434 267.067 78.6587 266.497 78.6587H254.773C254.203 78.6587 254.203 79.5434 254.773 79.5434Z" fill="#263238"/>
<path d="M254.773 81.955H266.497C267.067 81.955 267.067 81.0703 266.497 81.0703H254.773C254.203 81.0703 254.203 81.955 254.773 81.955Z" fill="#263238"/>
<path d="M254.773 84.3598H267.087C267.657 84.3598 267.657 83.4751 267.087 83.4751H254.773C254.203 83.4751 254.203 84.3598 254.773 84.3598Z" fill="#263238"/>
<path d="M254.773 86.7719H264.727C265.297 86.7719 265.297 85.8872 264.727 85.8872H254.773C254.203 85.8872 254.203 86.7719 254.773 86.7719Z" fill="#263238"/>
<path d="M254.773 89.1772H268.266C268.836 89.1772 268.836 88.2925 268.266 88.2925H254.773C254.203 88.2925 254.203 89.1772 254.773 89.1772Z" fill="#263238"/>
<path d="M254.773 91.5883H266.497C267.067 91.5883 267.067 90.7036 266.497 90.7036H254.773C254.203 90.7036 254.203 91.5883 254.773 91.5883Z" fill="#263238"/>
<path d="M254.773 93.9941H266.497C267.067 93.9941 267.067 93.1094 266.497 93.1094H254.773C254.203 93.1094 254.203 93.9941 254.773 93.9941Z" fill="#263238"/>
<path d="M254.773 98.8168H264.727C265.297 98.8168 265.297 97.9321 264.727 97.9321H254.773C254.203 97.9321 254.203 98.8168 254.773 98.8168Z" fill="#263238"/>
<path d="M254.773 101.222H268.266C268.836 101.222 268.836 100.337 268.266 100.337H254.773C254.203 100.337 254.203 101.222 254.773 101.222Z" fill="#263238"/>
<path d="M254.773 103.634H266.497C267.067 103.634 267.067 102.749 266.497 102.749H254.773C254.203 102.749 254.203 103.634 254.773 103.634Z" fill="#263238"/>
<path d="M254.773 106.039H266.497C267.067 106.039 267.067 105.154 266.497 105.154H254.773C254.203 105.154 254.203 106.039 254.773 106.039Z" fill="#263238"/>
<path d="M254.773 96.4052H267.087C267.657 96.4052 267.657 95.5205 267.087 95.5205H254.773C254.203 95.5205 254.203 96.4052 254.773 96.4052Z" fill="#263238"/>
<g opacity="0.4">
<path d="M254.773 77.1386H268.266C268.836 77.1386 268.836 76.2539 268.266 76.2539H254.773C254.203 76.2539 254.203 77.1386 254.773 77.1386Z" fill="white"/>
<path d="M254.773 79.5434H266.497C267.067 79.5434 267.067 78.6587 266.497 78.6587H254.773C254.203 78.6587 254.203 79.5434 254.773 79.5434Z" fill="white"/>
<path d="M254.773 81.955H266.497C267.067 81.955 267.067 81.0703 266.497 81.0703H254.773C254.203 81.0703 254.203 81.955 254.773 81.955Z" fill="white"/>
<path d="M254.773 84.3598H267.087C267.657 84.3598 267.657 83.4751 267.087 83.4751H254.773C254.203 83.4751 254.203 84.3598 254.773 84.3598Z" fill="white"/>
<path d="M254.773 86.7719H264.727C265.297 86.7719 265.297 85.8872 264.727 85.8872H254.773C254.203 85.8872 254.203 86.7719 254.773 86.7719Z" fill="white"/>
<path d="M254.773 89.1772H268.266C268.836 89.1772 268.836 88.2925 268.266 88.2925H254.773C254.203 88.2925 254.203 89.1772 254.773 89.1772Z" fill="white"/>
<path d="M254.773 91.5883H266.497C267.067 91.5883 267.067 90.7036 266.497 90.7036H254.773C254.203 90.7036 254.203 91.5883 254.773 91.5883Z" fill="white"/>
<path d="M254.773 93.9941H266.497C267.067 93.9941 267.067 93.1094 266.497 93.1094H254.773C254.203 93.1094 254.203 93.9941 254.773 93.9941Z" fill="white"/>
<path d="M254.773 98.8168H264.727C265.297 98.8168 265.297 97.9321 264.727 97.9321H254.773C254.203 97.9321 254.203 98.8168 254.773 98.8168Z" fill="white"/>
<path d="M254.773 101.222H268.266C268.836 101.222 268.836 100.337 268.266 100.337H254.773C254.203 100.337 254.203 101.222 254.773 101.222Z" fill="white"/>
<path d="M254.773 103.634H266.497C267.067 103.634 267.067 102.749 266.497 102.749H254.773C254.203 102.749 254.203 103.634 254.773 103.634Z" fill="white"/>
<path d="M254.773 106.039H266.497C267.067 106.039 267.067 105.154 266.497 105.154H254.773C254.203 105.154 254.203 106.039 254.773 106.039Z" fill="white"/>
<path d="M254.773 96.4052H267.087C267.657 96.4052 267.657 95.5205 267.087 95.5205H254.773C254.203 95.5205 254.203 96.4052 254.773 96.4052Z" fill="white"/>
</g>
<path d="M247.367 89.3411L246.299 88.2729C245.565 89.0069 245.106 90.0227 245.106 91.1499H246.62C246.62 90.4421 246.909 89.8064 247.367 89.3411Z" fill="#407BFF"/>
<path d="M249.17 93.6989C247.761 93.6989 246.614 92.552 246.614 91.1431H245.1C245.1 93.3909 246.922 95.2127 249.17 95.2127V93.6989Z" fill="#407BFF"/>
<path opacity="0.3" d="M249.17 93.6989C247.761 93.6989 246.614 92.552 246.614 91.1431H245.1C245.1 93.3909 246.922 95.2127 249.17 95.2127V93.6989Z" fill="white"/>
<path d="M247.367 89.3405C247.832 88.8752 248.468 88.5934 249.176 88.5934V87.0796C248.055 87.0796 247.033 87.5318 246.299 88.2723L247.367 89.3405Z" fill="#407BFF"/>
<path opacity="0.5" d="M247.367 89.3405C247.832 88.8752 248.468 88.5934 249.176 88.5934V87.0796C248.055 87.0796 247.033 87.5318 246.299 88.2723L247.367 89.3405Z" fill="black"/>
<path d="M251.725 91.1429C251.725 92.5519 250.579 93.6987 249.17 93.6987V95.2126C251.417 95.2126 253.239 93.3907 253.239 91.1429C253.239 88.8951 251.417 87.0732 249.17 87.0732V88.5871C250.579 88.5871 251.725 89.7339 251.725 91.1429Z" fill="#407BFF"/>
<path opacity="0.2" d="M250.978 92.9518L252.046 94.02C252.78 93.286 253.239 92.2703 253.239 91.1431H251.725C251.725 91.8508 251.437 92.4865 250.978 92.9518Z" fill="black"/>
<path d="M247.367 81.6606L246.299 82.7288C247.033 83.4628 248.049 83.9216 249.176 83.9216V82.4077C248.468 82.4077 247.832 82.1194 247.367 81.6606Z" fill="#407BFF"/>
<path d="M251.725 79.8516C251.725 81.2605 250.579 82.4074 249.17 82.4074V83.9212C251.417 83.9212 253.239 82.0994 253.239 79.8516H251.725Z" fill="#407BFF"/>
<path opacity="0.3" d="M251.725 79.8516C251.725 81.2605 250.579 82.4074 249.17 82.4074V83.9212C251.417 83.9212 253.239 82.0994 253.239 79.8516H251.725Z" fill="white"/>
<path d="M247.367 81.6603C246.902 81.195 246.62 80.5593 246.62 79.8516H245.106C245.106 80.9722 245.559 81.9945 246.299 82.7285L247.367 81.6603Z" fill="#407BFF"/>
<path opacity="0.5" d="M247.367 81.6603C246.902 81.195 246.62 80.5593 246.62 79.8516H245.106C245.106 80.9722 245.559 81.9945 246.299 82.7285L247.367 81.6603Z" fill="black"/>
<path d="M249.17 77.2956C250.579 77.2956 251.725 78.4424 251.725 79.8514H253.239C253.239 77.6036 251.417 75.7817 249.17 75.7817C246.922 75.7817 245.1 77.6036 245.1 79.8514H246.614C246.614 78.4424 247.761 77.2956 249.17 77.2956Z" fill="#407BFF"/>
<path opacity="0.2" d="M250.978 78.0495L252.046 76.9813C251.313 76.2473 250.297 75.7886 249.17 75.7886V77.3024C249.877 77.3024 250.513 77.5908 250.978 78.0495Z" fill="black"/>
<path d="M250.978 100.632L252.046 99.564C252.78 100.298 253.239 101.314 253.239 102.441H251.725C251.725 101.733 251.437 101.097 250.978 100.632Z" fill="#407BFF"/>
<path d="M249.17 104.997C250.579 104.997 251.725 103.85 251.725 102.441H253.239C253.239 104.689 251.417 106.511 249.17 106.511V104.997Z" fill="#407BFF"/>
<path opacity="0.3" d="M249.17 104.997C250.579 104.997 251.725 103.85 251.725 102.441H253.239C253.239 104.689 251.417 106.511 249.17 106.511V104.997Z" fill="white"/>
<path d="M250.978 100.633C250.513 100.167 249.877 99.8854 249.17 99.8854V98.3716C250.29 98.3716 251.313 98.8238 252.046 99.5643L250.978 100.633Z" fill="#407BFF"/>
<path opacity="0.5" d="M250.978 100.633C250.513 100.167 249.877 99.8854 249.17 99.8854V98.3716C250.29 98.3716 251.313 98.8238 252.046 99.5643L250.978 100.633Z" fill="black"/>
<path d="M246.62 102.441C246.62 103.85 247.767 104.997 249.176 104.997V106.511C246.928 106.511 245.106 104.689 245.106 102.441C245.106 100.193 246.928 98.3716 249.176 98.3716V99.8854C247.767 99.8854 246.62 101.032 246.62 102.441Z" fill="#407BFF"/>
<path opacity="0.2" d="M247.367 104.243L246.299 105.312C245.565 104.578 245.106 103.562 245.106 102.435H246.62C246.62 103.142 246.909 103.778 247.367 104.243Z" fill="black"/>
<path d="M172.691 145.805H188.544C189.501 145.805 190.281 146.585 190.281 147.541V148.505C190.281 149.461 189.501 150.241 188.544 150.241H172.691V145.805Z" fill="#263238"/>
<path d="M175.437 145.805H141.7C140.81 145.805 140.088 146.526 140.088 147.417V148.629C140.088 149.52 140.81 150.241 141.7 150.241H175.437C176.327 150.241 177.049 149.52 177.049 148.629V147.417C177.049 146.526 176.327 145.805 175.437 145.805Z" fill="black"/>
<path opacity="0.5" d="M175.437 145.805H141.7C140.81 145.805 140.088 146.526 140.088 147.417V148.629C140.088 149.52 140.81 150.241 141.7 150.241H175.437C176.327 150.241 177.049 149.52 177.049 148.629V147.417C177.049 146.526 176.327 145.805 175.437 145.805Z" fill="white"/>
<path d="M168.025 145.805H176.571L171.099 125.365H168.025V145.805Z" fill="#263238"/>
<path d="M175.326 145.805H157.881L156.144 125.365H169.854L175.326 145.805Z" fill="black"/>
<path opacity="0.3" d="M175.326 145.805H157.881L156.144 125.365H169.854L175.326 145.805Z" fill="white"/>
<path d="M219.266 66.6067H211.337L205.196 136.774H213.126C214.784 136.774 216.252 135.43 216.396 133.766L222.006 69.6081C222.15 67.9501 220.924 66.6001 219.26 66.6001L219.266 66.6067Z" fill="#263238"/>
<path d="M211.297 136.774H115.303C113.645 136.774 112.413 135.43 112.557 133.766L118.167 69.6081C118.311 67.9501 119.773 66.6001 121.437 66.6001H217.431C219.089 66.6001 220.321 67.9435 220.177 69.6081L214.567 133.766C214.423 135.424 212.962 136.774 211.297 136.774Z" fill="#263238"/>
<path opacity="0.7" d="M211.297 136.774H115.303C113.645 136.774 112.413 135.43 112.557 133.766L118.167 69.6081C118.311 67.9501 119.773 66.6001 121.437 66.6001H217.431C219.089 66.6001 220.321 67.9435 220.177 69.6081L214.567 133.766C214.423 135.424 212.962 136.774 211.297 136.774Z" fill="white"/>
<path opacity="0.9" d="M208.735 128.589H119.301C117.859 128.589 116.797 127.423 116.922 125.981L121.588 72.6756C121.712 71.2339 122.984 70.0674 124.425 70.0674H213.86C215.301 70.0674 216.363 71.2339 216.239 72.6756L211.573 125.981C211.448 127.423 210.177 128.589 208.735 128.589Z" fill="#FAFAFA"/>
<path d="M185.32 88.8884H182.194L182.738 82.6299H185.87L185.32 88.8884Z" fill="#407BFF"/>
<path opacity="0.2" d="M185.32 88.8884H182.194L182.738 82.6299H185.87L185.32 88.8884Z" fill="black"/>
<path d="M191.578 88.8884H188.452L189.271 79.5039H192.397L191.578 88.8884Z" fill="#407BFF"/>
<path d="M197.837 88.8887H194.704L195.392 81.064H198.518L197.837 88.8887Z" fill="#407BFF"/>
<path d="M204.095 88.8886H200.963L202.057 76.3716H205.19L204.095 88.8886Z" fill="#407BFF"/>
<path opacity="0.4" d="M204.095 88.8886H200.963L202.057 76.3716H205.19L204.095 88.8886Z" fill="black"/>
<path d="M207.221 88.3119H179.69C180.038 84.334 180.385 80.3561 180.732 76.3781C180.798 75.6376 179.644 75.6442 179.579 76.3781C179.212 80.5527 178.851 84.7206 178.484 88.8951C178.458 89.2097 178.773 89.4718 179.061 89.4718H207.221C207.962 89.4718 207.968 88.3184 207.221 88.3184V88.3119Z" fill="#407BFF"/>
<path opacity="0.5" d="M207.221 88.3119H179.69C180.038 84.334 180.385 80.3561 180.732 76.3781C180.798 75.6376 179.644 75.6442 179.579 76.3781C179.212 80.5527 178.851 84.7206 178.484 88.8951C178.458 89.2097 178.773 89.4718 179.061 89.4718H207.221C207.962 89.4718 207.968 88.3184 207.221 88.3184V88.3119Z" fill="white"/>
<path d="M133.705 85.5005L131.667 87.3748C132.847 88.6658 134.557 89.4653 136.53 89.4653L136.759 86.8112C135.52 86.8112 134.446 86.3066 133.705 85.5005Z" fill="#407BFF"/>
<path opacity="0.5" d="M133.705 85.5005L131.667 87.3748C132.847 88.6658 134.557 89.4653 136.53 89.4653L136.759 86.8112C135.52 86.8112 134.446 86.3066 133.705 85.5005Z" fill="black"/>
<path d="M141.635 82.3354C141.418 84.8126 139.236 86.818 136.759 86.818L136.53 89.4721C140.468 89.4721 143.941 86.2806 144.289 82.3354H141.635Z" fill="#407BFF"/>
<path opacity="0.1" d="M141.635 82.3354C141.418 84.8126 139.236 86.818 136.759 86.818L136.53 89.4721C140.468 89.4721 143.941 86.2806 144.289 82.3354H141.635Z" fill="black"/>
<path d="M133.705 85.5005C132.965 84.6878 132.558 83.5672 132.67 82.3286H130.016C129.845 84.3012 130.487 86.0837 131.66 87.3747L133.699 85.5005H133.705Z" fill="#407BFF"/>
<path d="M137.545 77.8529C140.022 77.8529 141.851 79.8582 141.635 82.3354H144.289C144.636 78.3968 141.72 75.1987 137.781 75.1987C133.843 75.1987 130.369 78.3902 130.022 82.3354H132.676C132.892 79.8582 135.075 77.8529 137.552 77.8529H137.545Z" fill="#407BFF"/>
<path opacity="0.2" d="M137.545 77.8529C140.022 77.8529 141.851 79.8582 141.635 82.3354H144.289C144.636 78.3968 141.72 75.1987 137.781 75.1987C133.843 75.1987 130.369 78.3902 130.022 82.3354H132.676C132.892 79.8582 135.075 77.8529 137.552 77.8529H137.545Z" fill="white"/>
<path opacity="0.6" d="M140.599 79.1635L142.637 77.2893C141.458 75.9982 139.747 75.1987 137.775 75.1987L137.545 77.8529C138.784 77.8529 139.859 78.3575 140.599 79.1635Z" fill="white"/>
<path d="M153.575 85.5005L151.537 87.3748C152.716 88.6658 154.427 89.4653 156.399 89.4653L156.629 86.8112C155.39 86.8112 154.316 86.3066 153.575 85.5005Z" fill="#407BFF"/>
<path opacity="0.5" d="M153.575 85.5005L151.537 87.3748C152.716 88.6658 154.427 89.4653 156.399 89.4653L156.629 86.8112C155.39 86.8112 154.316 86.3066 153.575 85.5005Z" fill="black"/>
<path d="M161.505 82.3354C161.288 84.8126 159.106 86.818 156.629 86.818L156.4 89.4721C160.338 89.4721 163.811 86.2806 164.159 82.3354H161.505Z" fill="#407BFF"/>
<path opacity="0.1" d="M161.505 82.3354C161.288 84.8126 159.106 86.818 156.629 86.818L156.4 89.4721C160.338 89.4721 163.811 86.2806 164.159 82.3354H161.505Z" fill="black"/>
<path d="M153.575 85.5005C152.834 84.6878 152.428 83.5672 152.54 82.3286H149.885C149.715 84.3012 150.357 86.0837 151.53 87.3747L153.568 85.5005H153.575Z" fill="#407BFF"/>
<path d="M157.415 77.8529C159.892 77.8529 161.721 79.8582 161.505 82.3354H164.159C164.506 78.3968 161.59 75.1987 157.651 75.1987C153.713 75.1987 150.239 78.3902 149.892 82.3354H152.546C152.762 79.8582 154.945 77.8529 157.422 77.8529H157.415Z" fill="#407BFF"/>
<path opacity="0.2" d="M157.415 77.8529C159.892 77.8529 161.721 79.8582 161.505 82.3354H164.159C164.506 78.3968 161.59 75.1987 157.651 75.1987C153.713 75.1987 150.239 78.3902 149.892 82.3354H152.546C152.762 79.8582 154.945 77.8529 157.422 77.8529H157.415Z" fill="white"/>
<path opacity="0.6" d="M160.469 79.1635L162.507 77.2893C161.328 75.9982 159.617 75.1987 157.645 75.1987L157.415 77.8529C158.654 77.8529 159.729 78.3575 160.469 79.1635Z" fill="white"/>
<path d="M183.432 112.101H179.697L180.024 108.365H183.76L183.432 112.101ZM180.575 111.288H182.685L182.869 109.178H180.758L180.575 111.288Z" fill="#407BFF"/>
<path d="M182.934 117.782H179.199L179.527 114.047H183.262L182.934 117.782ZM180.084 116.976H182.194L182.377 114.866H180.267L180.084 116.976Z" fill="#407BFF"/>
<path d="M182.436 123.471H178.701L179.028 119.735H182.764L182.436 123.471ZM179.585 122.665H181.696L181.879 120.555H179.769L179.585 122.665Z" fill="#407BFF"/>
<path d="M186.021 111.229C185.516 111.229 185.143 110.822 185.189 110.318C185.234 109.813 185.674 109.407 186.178 109.407H198.676C199.18 109.407 199.554 109.813 199.508 110.318C199.462 110.822 199.023 111.229 198.518 111.229H186.021Z" fill="#407BFF"/>
<path opacity="0.7" d="M186.021 111.229C185.516 111.229 185.143 110.822 185.189 110.318C185.234 109.813 185.674 109.407 186.178 109.407H198.676C199.18 109.407 199.554 109.813 199.508 110.318C199.462 110.822 199.023 111.229 198.518 111.229H186.021Z" fill="white"/>
<path d="M185.031 122.514C184.527 122.514 184.153 122.108 184.199 121.603C184.245 121.099 184.684 120.692 185.189 120.692H195.661C196.166 120.692 196.539 121.099 196.493 121.603C196.447 122.108 196.008 122.514 195.504 122.514H185.031Z" fill="#407BFF"/>
<path opacity="0.4" d="M185.031 122.514C184.527 122.514 184.153 122.108 184.199 121.603C184.245 121.099 184.684 120.692 185.189 120.692H195.661C196.166 120.692 196.539 121.099 196.493 121.603C196.447 122.108 196.008 122.514 195.504 122.514H185.031Z" fill="white"/>
<path d="M185.529 116.832C185.025 116.832 184.651 116.426 184.697 115.921C184.743 115.417 185.182 115.01 185.687 115.01H195.346C195.851 115.01 196.224 115.417 196.179 115.921C196.133 116.426 195.694 116.832 195.189 116.832H185.529Z" fill="#407BFF"/>
<path opacity="0.2" d="M185.529 116.832C185.025 116.832 184.651 116.426 184.697 115.921C184.743 115.417 185.182 115.01 185.687 115.01H195.346C195.851 115.01 196.224 115.417 196.179 115.921C196.133 116.426 195.694 116.832 195.189 116.832H185.529Z" fill="white"/>
<path d="M173.406 117.507C172.462 116.223 171.518 114.939 170.581 113.654C170.371 113.366 169.939 113.235 169.664 113.536C168.667 114.637 167.665 115.738 166.669 116.832C165.882 115.541 165.096 114.25 164.316 112.959C164.113 112.625 163.68 112.586 163.399 112.841C162.363 113.792 161.354 114.775 160.292 115.699C159.978 115.528 159.67 115.332 159.362 115.148C158.791 114.814 158.221 114.473 157.651 114.139C157.363 113.969 157.029 114.087 156.852 114.349C155.842 115.81 154.833 117.272 153.824 118.733C153.07 117.272 152.317 115.81 151.57 114.349C151.419 114.06 151.039 113.995 150.77 114.139C150.292 114.401 149.807 114.657 149.328 114.919C149.033 115.076 148.044 115.574 147.762 115.79C147.533 115.581 146.674 115.142 146.504 115.043C145.999 114.742 145.495 114.447 144.99 114.146C144.341 113.759 143.751 114.768 144.4 115.155C145.239 115.653 146.733 117.036 147.723 117.029C148.621 117.029 149.892 116.079 150.829 115.469C151.635 117.036 152.441 118.602 153.247 120.162C153.464 120.581 154.021 120.502 154.257 120.162C155.344 118.582 156.432 117.003 157.527 115.423C158.372 115.928 159.224 116.426 160.069 116.931C160.299 117.068 160.587 117.016 160.777 116.839L163.674 114.172C164.473 115.482 165.266 116.793 166.066 118.104C166.256 118.412 166.728 118.504 166.983 118.222C167.999 117.108 169.008 115.987 170.024 114.873C170.81 115.948 171.603 117.029 172.39 118.104C172.829 118.707 173.845 118.123 173.399 117.514L173.406 117.507Z" fill="#407BFF"/>
<path d="M172.462 122.305H144.623C144.977 118.281 145.324 114.257 145.678 110.233C145.744 109.486 144.577 109.486 144.512 110.233C144.145 114.454 143.771 118.674 143.404 122.888C143.378 123.202 143.692 123.471 143.987 123.471H172.462C173.216 123.471 173.216 122.305 172.462 122.305Z" fill="#407BFF"/>
<path opacity="0.5" d="M172.462 122.305H144.623C144.977 118.281 145.324 114.257 145.678 110.233C145.744 109.486 144.577 109.486 144.512 110.233C144.145 114.454 143.771 118.674 143.404 122.888C143.378 123.202 143.692 123.471 143.987 123.471H172.462C173.216 123.471 173.216 122.305 172.462 122.305Z" fill="white"/>
<path d="M202.778 105.148H153.083L154.191 92.4668H203.885L202.778 105.148Z" fill="#407BFF"/>
<path opacity="0.9" d="M202.778 105.148H153.083L154.191 92.4668H203.885L202.778 105.148Z" fill="white"/>
<path d="M203.656 106.111H152.028L153.306 91.5034H204.934L203.656 106.111ZM154.132 104.178H201.893L202.83 93.4301H155.069L154.132 104.178Z" fill="#263238"/>
<path d="M164.309 100.508L164.224 101.51H160.037L160.508 96.0972H164.598L164.513 97.0998H161.668L161.564 98.2729H164.074L163.988 99.2494H161.478L161.367 100.501H164.309V100.508Z" fill="#407BFF"/>
<path d="M168.569 101.51L167.429 99.6295L165.981 101.51H164.545L166.787 98.7579L165.116 96.0972H166.538L167.626 97.8535L169.002 96.0972H170.352L168.235 98.712L170.011 101.51H168.563H168.569Z" fill="#407BFF"/>
<path d="M171.951 97.1195H170.221L170.312 96.0972H175.031L174.939 97.1195H173.209L172.822 101.51H171.571L171.957 97.1195H171.951Z" fill="#407BFF"/>
<path d="M178.675 101.51L177.764 100.003H176.61L176.479 101.51H175.228L175.699 96.0972H178.039C178.517 96.0972 178.93 96.1758 179.264 96.3397C179.605 96.4969 179.854 96.7263 180.018 97.0212C180.182 97.3161 180.247 97.6634 180.215 98.0632C180.182 98.4629 180.051 98.8103 179.835 99.1052C179.618 99.3935 179.323 99.6163 178.95 99.7736L180.012 101.51H178.668H178.675ZM178.721 97.362C178.537 97.1981 178.262 97.1195 177.882 97.1195H176.859L176.695 99.0069H177.718C178.091 99.0069 178.386 98.9217 178.596 98.7579C178.806 98.594 178.924 98.3646 178.95 98.0632C178.976 97.7617 178.897 97.5258 178.721 97.362Z" fill="#407BFF"/>
<path d="M184.573 100.35H182.063L181.479 101.51H180.195L183.078 96.0972H184.317L186.263 101.51H184.946L184.566 100.35H184.573ZM184.258 99.4001L183.583 97.3292L182.541 99.4001H184.258Z" fill="#407BFF"/>
<path d="M187.869 101.248C187.443 101.006 187.122 100.678 186.906 100.252C186.689 99.8263 186.604 99.3479 186.65 98.8105C186.696 98.2731 186.866 97.7947 187.161 97.3688C187.456 96.9428 187.836 96.6086 188.302 96.3726C188.767 96.1367 189.278 96.0122 189.835 96.0122C190.307 96.0122 190.72 96.0974 191.087 96.2612C191.454 96.4251 191.749 96.661 191.978 96.9756L191.106 97.7161C190.779 97.2967 190.34 97.0804 189.802 97.0804C189.468 97.0804 189.16 97.1525 188.885 97.3032C188.61 97.4474 188.387 97.6571 188.216 97.9192C188.046 98.1814 187.948 98.4828 187.915 98.8171C187.889 99.1513 187.935 99.4527 188.059 99.7149C188.184 99.977 188.367 100.18 188.623 100.331C188.872 100.475 189.167 100.554 189.501 100.554C190.045 100.554 190.517 100.337 190.916 99.9115L191.657 100.652C191.369 100.967 191.034 101.209 190.635 101.373C190.241 101.537 189.809 101.622 189.337 101.622C188.787 101.622 188.295 101.504 187.876 101.261L187.869 101.248Z" fill="#407BFF"/>
<path d="M193.865 97.1195H192.135L192.227 96.0972H196.945L196.854 97.1195H195.124L194.737 101.51H193.485L193.872 97.1195H193.865Z" fill="#407BFF"/>
<path d="M238.192 154.711H103.435V230.055H238.192V154.711Z" fill="#407BFF"/>
<path d="M93.4869 230.062H106.056L106.056 154.718H93.4869L93.4869 230.062Z" fill="#407BFF"/>
<path opacity="0.3" d="M93.4869 230.062H106.056L106.056 154.718H93.4869L93.4869 230.062Z" fill="white"/>
<path d="M228.834 154.711H90.8458V161.376H228.834V154.711Z" fill="#407BFF"/>
<path opacity="0.6" d="M228.834 154.711H90.8458V161.376H228.834V154.711Z" fill="white"/>
<path d="M93.4869 154.711H88.2114V230.055H93.4869V154.711Z" fill="#407BFF"/>
<path opacity="0.5" d="M93.4869 154.711H88.2114V230.055H93.4869V154.711Z" fill="white"/>
<path d="M232.517 230.062H245.087V154.718H232.517V230.062Z" fill="#407BFF"/>
<path opacity="0.3" d="M232.517 230.062H245.087V154.718H232.517V230.062Z" fill="white"/>
<path d="M236.856 156.153H248.252V150.366H236.856V156.153Z" fill="#407BFF"/>
<path opacity="0.3" d="M236.856 156.153H248.252V150.366H236.856V156.153Z" fill="white"/>
<path d="M223.644 164.98H166.715V230.062H223.644V164.98Z" fill="#407BFF"/>
<path opacity="0.5" d="M223.644 164.98H166.715V230.062H223.644V164.98Z" fill="white"/>
<path d="M227.242 164.98H223.644V230.062H227.242V164.98Z" fill="#407BFF"/>
<path opacity="0.2" d="M227.242 164.98H223.644V230.062H227.242V164.98Z" fill="white"/>
<path d="M220.046 186.357H170.312V201.411H220.046V186.357Z" fill="#407BFF"/>
<path d="M220.046 168.525H170.312V183.579H220.046V168.525Z" fill="#407BFF"/>
<path d="M220.046 204.189H170.312V219.243H220.046V204.189Z" fill="#407BFF"/>
<g opacity="0.7">
<path d="M220.046 186.357H170.312V201.411H220.046V186.357Z" fill="white"/>
<path d="M220.046 168.525H170.312V183.579H220.046V168.525Z" fill="white"/>
<path d="M220.046 204.189H170.312V219.243H220.046V204.189Z" fill="white"/>
</g>
<path d="M232.517 154.711H227.242V230.055H232.517V154.711Z" fill="#407BFF"/>
<path opacity="0.1" d="M238.192 154.711H103.435V230.055H238.192V154.711Z" fill="white"/>
<path opacity="0.5" d="M232.517 154.711H227.242V230.055H232.517V154.711Z" fill="white"/>
<path d="M236.849 150.366H83.873V156.153H236.849V150.366Z" fill="#407BFF"/>
<path opacity="0.6" d="M236.849 150.366H83.873V156.153H236.849V150.366Z" fill="white"/>
<path d="M195.32 174.417H193.597C192.692 174.417 191.958 175.151 191.958 176.056C191.958 176.96 192.692 177.694 193.597 177.694H195.32C196.225 177.694 196.959 176.96 196.959 176.056C196.959 175.151 196.225 174.417 195.32 174.417Z" fill="#407BFF"/>
<path d="M195.32 192.249H193.597C192.692 192.249 191.958 192.983 191.958 193.887C191.958 194.792 192.692 195.526 193.597 195.526H195.32C196.225 195.526 196.959 194.792 196.959 193.887C196.959 192.983 196.225 192.249 195.32 192.249Z" fill="#407BFF"/>
<path d="M195.32 210.081H193.597C192.692 210.081 191.958 210.815 191.958 211.719C191.958 212.623 192.692 213.357 193.597 213.357H195.32C196.225 213.357 196.959 212.623 196.959 211.719C196.959 210.815 196.225 210.081 195.32 210.081Z" fill="#407BFF"/>
<path opacity="0.3" d="M195.235 176.056C195.235 176.96 194.501 177.694 193.597 177.694C192.692 177.694 191.958 176.96 191.958 176.056C191.958 175.151 192.692 174.417 193.597 174.417C194.501 174.417 195.235 175.151 195.235 176.056Z" fill="#FAFAFA"/>
<path opacity="0.3" d="M195.235 193.887C195.235 194.792 194.501 195.526 193.597 195.526C192.692 195.526 191.958 194.792 191.958 193.887C191.958 192.983 192.692 192.249 193.597 192.249C194.501 192.249 195.235 192.983 195.235 193.887Z" fill="#FAFAFA"/>
<path opacity="0.3" d="M195.235 211.719C195.235 212.623 194.501 213.357 193.597 213.357C192.692 213.357 191.958 212.623 191.958 211.719C191.958 210.815 192.692 210.081 193.597 210.081C194.501 210.081 195.235 210.815 195.235 211.719Z" fill="#FAFAFA"/>
<path d="M137.893 84.452C136.956 85.7758 139.02 89.9831 139.02 89.9831L129.721 91.1103L131.542 80.9722C131.542 80.9722 139 82.8923 137.893 84.452Z" fill="#CE7A63"/>
<path opacity="0.2" d="M137.749 86.3454C137.604 85.5721 137.598 84.8644 137.893 84.4515C138.581 83.4816 135.96 82.3741 133.876 81.6729C134.367 82.6559 135.756 85.1527 137.742 86.3454H137.749Z" fill="black"/>
<path d="M160.299 222.971L161.288 232.434L156.924 233.253L154.302 224.118L160.299 222.971Z" fill="#CE7A63"/>
<path d="M161.197 230.816L156.065 231.845C155.869 231.884 155.731 232.048 155.725 232.251L155.633 236.609C155.62 236.996 155.928 237.317 156.314 237.33C156.367 237.33 156.413 237.33 156.465 237.317C158.307 236.917 159.932 236.485 162.239 236.026C164.958 235.482 164.329 235.947 167.534 235.351C169.467 234.99 169.375 232.729 168.543 232.788C164.716 233.064 164.1 232.015 162.389 230.967C162.022 230.77 161.603 230.718 161.203 230.816H161.197Z" fill="#263238"/>
<path opacity="0.2" d="M156.033 230.154L160.98 229.505L160.299 222.971L154.302 224.118L156.033 230.154Z" fill="black"/>
<path d="M122.545 221.058L119.576 232.788L115.388 232.198L116.502 220.717L122.545 221.058Z" fill="#CE7A63"/>
<path d="M120.133 231.313L114.91 230.946C114.713 230.933 114.53 231.058 114.477 231.248L113.232 235.429C113.121 235.796 113.331 236.189 113.698 236.3C113.743 236.313 113.796 236.327 113.842 236.327C115.723 236.425 117.407 236.438 119.746 236.608C122.512 236.805 121.784 237.087 125.035 237.362C126.994 237.526 127.506 235.324 126.686 235.16C122.918 234.413 122.604 233.24 121.234 231.772C120.933 231.49 120.539 231.326 120.126 231.313H120.133Z" fill="#263238"/>
<path opacity="0.2" d="M115.644 229.531L120.225 230.232L122.414 221.588C120.408 221.372 117.118 221.044 116.476 220.979L115.644 229.531Z" fill="black"/>
<path d="M127.08 131.256C127.08 131.256 125.638 135.451 125.422 145.654C125.297 151.755 124.701 161.409 124.242 168.191C124.104 170.177 123.986 171.914 123.888 173.244C123.764 174.935 123.364 176.593 122.722 178.159C122.276 179.247 121.712 180.734 121.136 182.596C120.218 185.551 119.255 189.444 118.626 194.136C117.099 205.572 115.342 227.722 115.342 227.722L121.005 228.456L134.931 176.835L149.774 131.21L127.073 131.25L127.08 131.256Z" fill="#263238"/>
<path opacity="0.2" d="M141.857 155.871L141.255 151.375L136.399 147.267L134.767 146.46C134.767 146.46 138.548 156.009 137.598 168.506L141.857 155.865V155.871Z" fill="black"/>
<path d="M154.23 131.466L161.039 227.342L155.272 228.325C155.272 228.325 147.559 201.79 146.255 187.124C146.098 185.374 146.032 183.788 146.084 182.444C146.163 180.446 145.868 178.453 145.305 176.546L144.499 173.807L139.957 158.433C139 155.209 137.519 152.155 135.461 149.553C133.102 146.571 130.179 140.798 131.392 131.19L152.723 129.716L154.23 131.472V131.466Z" fill="#263238"/>
<path d="M132.906 125.41C132.906 125.41 136.215 124.729 137.329 124.834C138.26 124.919 140.875 126 140.875 126C141.982 126.361 142.29 127.783 141.438 128.569C141.438 128.569 139.616 130.902 138.712 131.092C136.897 131.479 131.693 128.694 131.693 128.694L132.912 125.41H132.906Z" fill="#CE7A63"/>
<path d="M132.742 123.825L130.9 129.756L132.67 129.9L134.288 124.723L132.742 123.825Z" fill="#263238"/>
<path opacity="0.2" d="M132.742 123.825L130.9 129.756L132.67 129.9L134.288 124.723L132.742 123.825Z" fill="white"/>
<path d="M121.85 95.5663C121.005 94.4129 119.202 94.6488 118.593 95.9464C116.529 100.363 111.319 112.074 111.299 117.756C111.273 124.847 132.106 129.041 132.106 129.041L133.364 124.965L119.026 116.157L123.148 106.438C123.148 106.438 124.177 98.7447 121.844 95.5597L121.85 95.5663Z" fill="#407BFF"/>
<path opacity="0.1" d="M121.85 95.5663C121.005 94.4129 119.202 94.6488 118.593 95.9464C116.529 100.363 111.319 112.074 111.299 117.756C111.273 124.847 132.106 129.041 132.106 129.041L133.364 124.965L119.026 116.157L123.148 106.438C123.148 106.438 124.177 98.7447 121.844 95.5597L121.85 95.5663Z" fill="black"/>
<g opacity="0.4">
<path d="M122.276 96.2676L120.028 96.5756L118.737 97.4996L120.277 113.215L123.154 106.445C123.154 106.445 124.046 99.754 122.276 96.2676Z" fill="black"/>
<path d="M126.614 120.823L120.664 117.167L121.529 125.994C122.774 126.459 124.019 126.879 125.192 127.239L126.614 120.823Z" fill="black"/>
</g>
<path d="M153.909 131.414C153.909 131.414 143.653 134.769 126.85 132.056L118.796 98.116C118.193 95.5799 119.471 92.9323 121.752 91.674C125.212 89.767 132.047 87.9648 145.541 88.7119C148.87 88.8954 151.681 91.2546 152.448 94.4986L153.903 131.42L153.909 131.414Z" fill="#407BFF"/>
<path d="M126.975 90.1404L128.004 87.7353C128.004 87.7353 132.041 85.6972 138.902 86.654L140.534 88.5414C140.534 88.5414 132.853 88.7249 126.981 90.1404H126.975Z" fill="#263238"/>
<path d="M142.755 72.5118C142.847 72.8919 142.723 73.2523 142.467 73.3113C142.211 73.3703 141.91 73.0951 141.825 72.7215C141.746 72.348 141.857 71.981 142.12 71.9285C142.375 71.8761 142.664 72.1383 142.755 72.5183V72.5118Z" fill="#263238"/>
<path d="M142.408 73.6714L145.029 76.2338C145.029 76.2338 144.19 77.1775 142.664 76.9809L142.408 73.6714Z" fill="#BA4D3C"/>
<path d="M127.466 74.2221C128.469 79.3599 128.783 81.5553 131.805 83.8949C136.248 86.1165 142.598 85.14 143.181 79.8187C143.712 75.0347 141.989 67.459 136.523 65.9779C132.63 64.9293 128.62 67.1509 127.571 70.9454C127.276 72.0136 127.243 73.1342 127.466 74.2155V74.2221Z" fill="#CE7A63"/>
<path d="M140.822 71.3062C140.894 71.3062 140.96 71.2734 140.999 71.2144C141.274 70.7754 141.753 70.4936 142.277 70.4673C142.388 70.4673 142.487 70.3822 142.487 70.2707C142.487 70.1593 142.395 70.061 142.277 70.061C141.609 70.0807 140.999 70.428 140.645 70.9851C140.58 71.0768 140.606 71.2079 140.704 71.2734C140.737 71.2931 140.776 71.3062 140.822 71.3127V71.3062Z" fill="#263238"/>
<path opacity="0.4" d="M153.575 114.69L152.887 102.258L148.444 96.373L146.012 94.1187L144.138 95.4293C144.138 95.4293 144.4 102.278 153.575 114.683V114.69Z" fill="black"/>
<path d="M155.017 97.0216C157.474 101.543 158.431 104.217 159.277 105.338C159.388 105.489 159.571 105.561 159.755 105.534L174.14 103.444C174.389 103.411 174.625 103.555 174.697 103.791L175.857 107.356C175.942 107.625 175.798 107.907 175.536 107.999L162.049 112.566C159.604 113.516 156.832 113.038 154.866 111.308C151.15 108.038 148.3 104.401 145.698 99.2694C144.662 97.2248 142.257 93.4369 146.209 90.1078C149.486 87.3422 153.378 94.0201 155.017 97.0216Z" fill="#407BFF"/>
<path opacity="0.1" d="M155.017 97.0216C157.474 101.543 158.431 104.217 159.277 105.338C159.388 105.489 159.571 105.561 159.755 105.534L174.14 103.444C174.389 103.411 174.625 103.555 174.697 103.791L175.857 107.356C175.942 107.625 175.798 107.907 175.536 107.999L162.049 112.566C159.604 113.516 156.832 113.038 154.866 111.308C151.15 108.038 148.3 104.401 145.698 99.2694C144.662 97.2248 142.257 93.4369 146.209 90.1078C149.486 87.3422 153.378 94.0201 155.017 97.0216Z" fill="white"/>
<path d="M174.559 103.785L177.528 100.298C177.849 99.9183 178.275 99.6431 178.753 99.5054L185.732 97.4739C185.968 97.4084 186.217 97.5132 186.329 97.736C186.466 98.0047 186.342 98.3258 186.067 98.4372L183.183 99.6168C182.98 99.702 182.849 99.9117 182.869 100.135L183.013 101.878C183.098 102.946 182.508 103.955 181.532 104.401L179.435 105.358C179.356 105.39 179.271 105.423 179.192 105.456L175.594 106.668C175.306 106.767 174.998 106.59 174.932 106.301L174.461 104.237C174.421 104.08 174.461 103.916 174.572 103.791L174.559 103.785Z" fill="#CE7A63"/>
<path d="M173.694 103.424L175.47 107.906C175.581 108.182 175.902 108.306 176.171 108.175L176.761 107.887C177.003 107.769 177.108 107.487 177.01 107.238L175.313 102.939C175.227 102.716 174.998 102.585 174.762 102.618L174.087 102.723C173.76 102.775 173.569 103.109 173.687 103.417L173.694 103.424Z" fill="#263238"/>
<path d="M154.145 226.956L155.036 229.328L161.832 228.28L161.642 225.757L154.145 226.956Z" fill="#407BFF"/>
<path opacity="0.2" d="M154.145 226.956L155.036 229.328L161.832 228.28L161.642 225.757L154.145 226.956Z" fill="black"/>
<path d="M114.74 226.005L114.635 228.489L121.45 229.4L121.981 226.936L114.74 226.005Z" fill="#407BFF"/>
<path opacity="0.2" d="M114.74 226.005L114.635 228.489L121.45 229.4L121.981 226.936L114.74 226.005Z" fill="black"/>
<path d="M130.979 84.0519C130.979 84.0519 131.739 82.9706 134.033 84.2223C134.033 84.2223 137.29 80.5786 137.388 77.1643C137.388 77.1643 139.793 76.7186 139.59 75.1655C139.387 73.6123 138.247 71.5808 138.483 70.1718C138.725 68.7628 141.065 65.0667 139.079 63.4218C137.093 61.7769 136.857 63.7364 135.73 63.9461C134.603 64.1558 127.807 64.3983 126.942 69.2085C126.942 69.2085 123.515 72.7801 126.49 77.3805C129.465 81.9745 130.972 84.0519 130.972 84.0519H130.979Z" fill="#263238"/>
<path d="M137.493 73.9597L143.437 70.6567C143.437 70.6567 144.931 74.5495 144.217 74.7461C143.503 74.9427 142.559 71.8888 142.559 71.8888L138.325 73.9072L137.493 73.9662V73.9597Z" fill="#407BFF"/>
<path opacity="0.7" d="M142.709 71.9874L143.162 71.7188C143.162 71.7188 144.387 74.4712 144.053 74.7137C143.719 74.9561 142.709 71.9874 142.709 71.9874Z" fill="white"/>
<path d="M138.306 74.0778C139.21 74.6807 139.833 75.6113 140.036 76.6598C140.298 78.0557 138.987 78.6258 137.709 78.1278C136.549 77.6821 135.035 76.4173 135.357 75.0673C135.678 73.7173 137.192 73.3503 138.306 74.0778Z" fill="#CE7A63"/>
</g>
<defs>
<clipPath id="clip0_483_6913">
<rect width="327.67" height="241.663" fill="white" transform="translate(0.703857 0.463623)"/>
</clipPath>
</defs>
</svg>
