<svg width="242" height="234" viewBox="0 0 242 234" fill="none" xmlns="http://www.w3.org/2000/svg">
<g clip-path="url(#clip0_269_11768)">
<path d="M237.179 137.384L151.599 131.76C149.371 131.613 147.446 133.301 147.299 135.529L141.95 216.931C141.803 219.159 143.491 221.084 145.719 221.231L231.3 226.855C233.528 227.001 235.453 225.314 235.599 223.086L240.949 141.684C241.095 139.455 239.408 137.53 237.179 137.384Z" fill="#263238" stroke="#263238" stroke-width="0.534796" stroke-linecap="round" stroke-linejoin="round"/>
<path d="M234.908 133.601L149.327 127.977C147.099 127.831 145.174 129.518 145.028 131.746L139.678 213.148C139.532 215.376 141.219 217.301 143.447 217.448L229.028 223.072C231.256 223.219 233.181 221.531 233.327 219.303L238.677 137.901C238.824 135.673 237.136 133.748 234.908 133.601Z" fill="white" stroke="#263238" stroke-width="0.534796" stroke-linecap="round" stroke-linejoin="round"/>
<path d="M238.449 141.261L238.669 137.919C238.813 135.688 237.128 133.769 234.898 133.619L149.315 127.987C147.085 127.843 145.165 129.528 145.015 131.758L144.796 135.1L238.444 141.261H238.449Z" fill="white" stroke="#263238" stroke-width="0.534796" stroke-linecap="round" stroke-linejoin="round"/>
<path d="M223.176 137.047C223.218 136.368 222.705 135.779 222.026 135.737C221.347 135.694 220.758 136.207 220.716 136.886C220.673 137.566 221.186 138.154 221.865 138.197C222.545 138.239 223.133 137.726 223.176 137.047Z" fill="white" stroke="#263238" stroke-width="0.534796" stroke-linecap="round" stroke-linejoin="round"/>
<path d="M227.844 137.357C227.887 136.678 227.374 136.089 226.694 136.047C226.015 136.004 225.427 136.517 225.384 137.196C225.341 137.876 225.855 138.464 226.534 138.507C227.213 138.55 227.801 138.036 227.844 137.357Z" fill="white" stroke="#263238" stroke-width="0.534796" stroke-linecap="round" stroke-linejoin="round"/>
<path d="M232.513 137.662C232.556 136.983 232.042 136.394 231.363 136.351C230.684 136.309 230.096 136.822 230.053 137.501C230.01 138.18 230.524 138.769 231.203 138.812C231.882 138.854 232.47 138.341 232.513 137.662Z" fill="white" stroke="#263238" stroke-width="0.534796" stroke-linecap="round" stroke-linejoin="round"/>
<path d="M88.5345 132.023L3.7092 144.685C1.50075 145.014 -0.0223082 147.072 0.307353 149.28L12.3512 229.964C12.6809 232.173 14.7384 233.696 16.9469 233.366L101.772 220.704C103.981 220.374 105.504 218.317 105.174 216.108L93.1302 135.425C92.8005 133.216 90.743 131.693 88.5345 132.023Z" fill="#263238" stroke="#263238" stroke-width="0.534796" stroke-linecap="round" stroke-linejoin="round"/>
<path d="M90.807 128.999L5.98172 141.661C3.77327 141.991 2.25021 144.048 2.57987 146.257L14.6237 226.941C14.9534 229.149 17.011 230.672 19.2194 230.343L104.045 217.68C106.253 217.351 107.776 215.293 107.447 213.085L95.4027 132.401C95.073 130.193 93.0155 128.67 90.807 128.999Z" fill="white" stroke="#263238" stroke-width="0.534796" stroke-linecap="round" stroke-linejoin="round"/>
<path d="M95.8996 135.71L95.4076 132.399C95.076 130.191 93.0224 128.666 90.8137 128.998L5.98439 141.662C3.77568 141.993 2.25151 144.047 2.58309 146.256L3.0751 149.566L95.8996 135.71Z" fill="white" stroke="#263238" stroke-width="0.534796" stroke-linecap="round" stroke-linejoin="round"/>
<path d="M80.0751 134.832C79.9735 134.158 79.3478 133.693 78.6739 133.795C78.0001 133.896 77.5348 134.522 77.6364 135.196C77.738 135.87 78.3637 136.335 79.0376 136.233C79.7114 136.132 80.1767 135.506 80.0751 134.832Z" fill="white" stroke="#263238" stroke-width="0.534796" stroke-linecap="round" stroke-linejoin="round"/>
<path d="M84.7064 134.143C84.6048 133.469 83.9791 133.004 83.3052 133.105C82.6314 133.207 82.1661 133.833 82.2677 134.506C82.3693 135.18 82.995 135.646 83.6689 135.544C84.3427 135.442 84.808 134.817 84.7064 134.143Z" fill="white" stroke="#263238" stroke-width="0.534796" stroke-linecap="round" stroke-linejoin="round"/>
<path d="M89.3377 133.453C89.2361 132.779 88.6103 132.314 87.9365 132.415C87.2627 132.517 86.7974 133.143 86.899 133.816C87.0006 134.49 87.6263 134.956 88.3002 134.854C88.974 134.752 89.4393 134.127 89.3377 133.453Z" fill="white" stroke="#263238" stroke-width="0.534796" stroke-linecap="round" stroke-linejoin="round"/>
<path d="M187.911 113.157C187.911 113.157 187.547 113.248 186.932 113.43C183.697 114.377 173.482 117.794 172.199 123.441C170.669 130.164 177.274 135.865 177.274 135.865C177.274 135.865 180.05 145.502 178.707 149.443C177.365 153.385 171.263 154.224 172.06 160.941C172.857 167.658 179.44 173.675 197.393 174.081C215.346 174.488 220.485 174.049 222.486 161.615C224.095 151.593 215.635 144.277 213.784 137.025C211.934 129.773 215.02 125.324 208.233 117.746C201.447 110.168 187.916 113.152 187.916 113.152L187.911 113.157Z" fill="#263238" stroke="#263238" stroke-width="0.534796" stroke-linecap="round" stroke-linejoin="round"/>
<path d="M186.702 122.762C186.702 122.762 178.103 126.591 177.862 128.041C177.622 129.49 174.022 139.651 174.825 145.272C175.627 150.892 183.932 151.582 183.932 151.582C183.932 151.582 183.681 155.374 179.408 158.021C175.135 160.669 166.541 164.353 166.541 164.353C166.541 164.353 174.199 170.947 190.478 170.552C206.763 170.156 206.067 166.808 206.067 166.808C206.067 166.808 201.292 163.712 197.602 159.658C193.912 155.609 192.682 149.812 193.302 147.074C193.922 144.336 193.746 142.56 191.377 136.255C189.007 129.95 186.697 122.768 186.697 122.768L186.702 122.762Z" fill="white" stroke="#263238" stroke-width="0.534796" stroke-linecap="round" stroke-linejoin="round"/>
<path d="M182.905 131.448C182.905 131.448 183.071 133.362 181.472 135.453C179.873 137.544 177.643 137.983 178.483 138.625C179.317 139.266 181.788 139.577 181.788 139.577" stroke="#263238" stroke-width="0.534796" stroke-linecap="round" stroke-linejoin="round"/>
<path d="M179.622 141.336C179.622 141.336 182.558 143.432 186.269 140.453" stroke="#263238" stroke-width="0.534796" stroke-linecap="round" stroke-linejoin="round"/>
<path d="M178.264 130.913C178.264 130.913 179.943 128.426 182.312 130.207" stroke="#263238" stroke-width="0.534796" stroke-linecap="round" stroke-linejoin="round"/>
<path d="M185.43 130.522C185.43 130.522 188.056 130.046 189.537 132.196" stroke="#263238" stroke-width="0.534796" stroke-linecap="round" stroke-linejoin="round"/>
<path d="M180.515 132.902C180.472 133.554 180.146 134.068 179.793 134.046C179.44 134.025 179.183 133.474 179.226 132.822C179.269 132.169 179.595 131.656 179.948 131.677C180.301 131.699 180.558 132.25 180.515 132.902Z" fill="#263238"/>
<path d="M187.77 134.124C187.813 133.47 187.558 132.921 187.202 132.897C186.845 132.874 186.521 133.385 186.478 134.04C186.435 134.694 186.689 135.243 187.046 135.267C187.403 135.29 187.727 134.779 187.77 134.124Z" fill="#263238"/>
<path d="M183.927 151.577L189.136 151.422C189.136 151.422 188.97 152.278 186.612 153.636C184.253 154.995 182.472 155.743 182.472 155.743C182.472 155.743 183.793 153.47 183.927 151.577Z" fill="#263238" stroke="#263238" stroke-width="0.534796" stroke-miterlimit="10"/>
<path d="M151.556 217.881L162.717 172.364L174.782 176.728L165.819 218.897L151.556 217.881Z" fill="white" stroke="#263238" stroke-width="0.534796" stroke-linecap="round" stroke-linejoin="round"/>
<path d="M162.717 172.364L156.348 197.719C158.471 199.051 162.631 200.917 169.461 201.083C169.568 201.083 169.669 201.083 169.776 201.083L174.782 176.728L162.717 172.364Z" fill="#476CFF" stroke="#263238" stroke-width="0.534796" stroke-linecap="round" stroke-linejoin="round"/>
<path d="M163.016 218.635L167.145 197.805C167.145 197.805 164.861 194.082 163.642 189.986C162.423 185.889 165.979 174.814 165.979 174.814C165.979 174.814 174.445 177.306 185.499 178.926C196.553 180.547 207.308 177.68 207.308 177.68L200.206 201.917L202.5 221.357L163.011 218.64L163.016 218.635Z" fill="#476CFF" stroke="#263238" stroke-width="0.534796" stroke-linecap="round" stroke-linejoin="round"/>
<path d="M210.421 221.828L205.468 203.452L218.341 199.987L222.24 222.582L210.421 221.828Z" fill="white" stroke="#263238" stroke-width="0.534796" stroke-linecap="round" stroke-linejoin="round"/>
<path d="M200.292 184.809L205.463 203.452C205.463 203.452 205.961 204.971 210.806 203.655C215.656 202.34 218.341 199.987 218.341 199.987L210.923 174.792C210.923 174.792 208.362 172.985 205.035 173.808C201.709 174.632 200.741 175.76 200.741 175.76" fill="#476CFF"/>
<path d="M200.292 184.809L205.463 203.452C205.463 203.452 205.961 204.971 210.806 203.655C215.656 202.34 218.341 199.987 218.341 199.987L210.923 174.792C210.923 174.792 208.362 172.985 205.035 173.808C201.709 174.632 200.741 175.76 200.741 175.76" stroke="#263238" stroke-width="0.534796" stroke-linecap="round" stroke-linejoin="round"/>
<path d="M165.15 162.556C165.15 162.556 173.194 166.952 186.029 168.691C198.864 170.429 207.816 165.508 208.565 165.412C209.314 165.311 215.319 175.83 215.319 175.83C215.319 175.83 200.201 181.681 186.858 180.953C172.707 180.178 158.315 173.718 158.315 173.718L165.15 162.562V162.556Z" fill="#476CFF" stroke="#263238" stroke-width="0.534796" stroke-linecap="round" stroke-linejoin="round"/>
<path d="M74.3098 196.484L81.4975 167.263C81.4975 167.263 78.6256 159.733 78.8235 158.444C79.0214 157.155 80.1712 154.46 80.1391 153.588C80.107 152.716 78.0694 150.112 79.1069 149.278C80.1444 148.443 81.1552 149.358 81.9414 150.7C82.7222 152.037 82.4173 153.251 82.3852 154.321C82.3532 155.396 82.3959 156.358 82.3959 156.358C82.3959 156.358 86.6636 150.481 88.268 148.882C89.8724 147.283 91.5142 144.614 92.2843 144.593C93.0544 144.571 93.2897 144.833 93.0544 145.839C92.8137 146.844 90.1772 149.957 90.1772 149.957L88.4445 153.321C88.4445 153.321 89.974 155.128 91.1719 157.283C92.3645 159.433 92.9956 160.407 92.0864 162.097C91.1719 163.787 87.0807 168.862 87.0807 168.862C87.0807 168.862 87.7439 194.773 87.3909 196.286C87.0326 197.794 85.364 204.158 82.1232 207.169C81.0215 208.191 77.4865 207.961 75.8821 207.618C74.2777 207.276 72.1974 206.324 72.1974 206.324L70.3898 199.409L74.3205 196.495L74.3098 196.484Z" fill="white" stroke="#263238" stroke-width="0.534796" stroke-linecap="round" stroke-linejoin="round"/>
<path d="M88.4446 153.316C88.4446 153.316 83.7277 156.835 84.2357 157.632C84.7438 158.428 85.7759 158.856 85.7759 158.856C85.7759 158.856 85.2946 160.289 86.0113 161.038C86.5193 161.568 87.4499 161.616 87.4499 161.616C87.4499 161.616 86.0433 162.6 87.867 163.108C89.6906 163.611 92.7069 162.386 93.37 161.605C94.0278 160.83 93.2043 159.204 93.2043 159.204C93.2043 159.204 93.2363 158.129 92.9048 157.209C92.5732 156.289 91.9849 155.599 91.9849 155.599C91.9849 155.599 91.8084 153.781 90.9367 153.134C90.065 152.487 88.4392 153.31 88.4392 153.31L88.4446 153.316Z" fill="white" stroke="#263238" stroke-width="0.534796" stroke-linecap="round" stroke-linejoin="round"/>
<path d="M85.7759 158.856L91.9903 155.599" stroke="#263238" stroke-width="0.534796" stroke-linecap="round" stroke-linejoin="round"/>
<path d="M87.4499 161.616L93.2043 159.204" stroke="#263238" stroke-width="0.534796" stroke-linecap="round" stroke-linejoin="round"/>
<path d="M60.1324 169.771C60.1324 169.771 62.8011 170.734 64.7905 174.317C66.78 177.9 76.0587 195.832 76.0587 195.832L69.1598 199.677L59.8597 171.851L57.0841 168.867C57.0841 168.867 59.4746 169.284 60.1324 169.771Z" fill="#476CFF" stroke="#263238" stroke-width="0.534796" stroke-linecap="round" stroke-linejoin="round"/>
<path d="M26.7451 172.777C26.7451 172.777 17.8408 182.478 17.7713 185.077C17.7018 187.676 30.4994 228.54 30.4994 228.54L79.4867 221.229C79.4867 221.229 64.0151 174.675 61.1806 170.99C58.3462 167.306 54.2978 166.691 48.9766 166.723C43.6554 166.755 38.6123 167.659 38.6123 167.659C38.6123 167.659 30.3176 169.199 26.7398 172.782L26.7451 172.777Z" fill="#476CFF" stroke="#263238" stroke-width="0.534796" stroke-linecap="round" stroke-linejoin="round"/>
<path d="M30.1678 165.113C30.1678 165.113 26.9804 166.199 26.2852 167.669C25.5899 169.14 25.7129 175.06 25.7129 175.06C25.7129 175.06 32.1251 182.323 35.2858 184.136C38.4464 185.949 40.9279 187.253 40.9279 187.253C40.9279 187.253 43.1259 177.488 43.5056 176.975C43.8853 176.461 54.4047 179.611 54.4047 179.611C54.4047 179.611 53.7469 176.21 49.4097 170.616C45.0725 165.022 34.0504 162.557 30.1678 165.118V165.113Z" fill="#476CFF" stroke="#263238" stroke-width="0.534796" stroke-linecap="round" stroke-linejoin="round"/>
<path d="M45.3346 136.934C45.3346 136.934 47.6717 144.86 49.3884 147.956C51.1104 151.053 51.5489 156.123 49.3135 159.385C47.0781 162.647 42.7034 163.514 42.7034 163.514C42.7034 163.514 43.2329 166.37 43.8158 168.166C44.3987 169.963 45.3881 170.969 45.7625 174.894C46.1368 178.82 45.7999 180.755 45.7999 180.755C45.7999 180.755 41.4734 177.734 37.5908 175.589C33.7082 173.445 30.5743 169.3 30.5743 169.3C30.5743 169.3 25.9055 158.369 24.1407 155.695C22.3759 153.021 21.6057 151.358 21.4614 151.064C21.3116 150.77 16.2097 148.181 19.6323 139.496C23.0497 130.811 34.4355 130.581 38.6069 131.843C42.7783 133.105 45.3346 136.913 45.3346 136.913V136.934Z" fill="white" stroke="#263238" stroke-width="0.534796" stroke-linecap="round" stroke-linejoin="round"/>
<path d="M25.8894 130.201C25.8894 130.201 23.9 128.089 20.5201 129.324C17.1401 130.56 14.0651 137.309 16.9155 143.796C19.7713 150.283 23.1833 152.812 23.1833 152.812C23.1833 152.812 27.4724 154.165 29.1035 152.454C30.7346 150.743 25.3493 147.673 26.836 146.4C28.3227 145.133 33.8953 143.149 31.831 141.256C29.7667 139.362 26.4135 140.074 29.4618 137.314C32.5048 134.555 35.6869 134.811 37.6442 135.988C39.6016 137.164 43.1526 140.614 48.4524 136.785C53.7469 132.955 49.5915 128.966 47.1368 127.971C44.6821 126.976 42.6339 127.281 42.6339 127.281C42.6339 127.281 37.949 121.169 32.7187 121.217C27.4884 121.265 25.6969 128.239 25.8894 130.201Z" fill="#263238" stroke="#263238" stroke-width="0.534796" stroke-linecap="round" stroke-linejoin="round"/>
<path d="M42.222 140.646C42.222 140.646 43.1312 145.331 44.8265 146.86C46.5218 148.39 49.2974 149.444 48.292 150.428C47.2866 151.417 44.773 152.107 44.773 152.107" stroke="#263238" stroke-width="0.534796" stroke-linecap="round" stroke-linejoin="round"/>
<path d="M45.6983 155.53C45.6983 155.53 42.7516 157.54 39.3824 155.321" stroke="#263238" stroke-width="0.534796" stroke-linecap="round" stroke-linejoin="round"/>
<path d="M40.5268 155.989C40.5268 155.989 41.3076 159.118 42.6553 159.022C44.003 158.925 44.3399 156.257 44.3399 156.257C44.3399 156.257 41.6766 156.653 40.5268 155.989Z" fill="#263238" stroke="#263238" stroke-width="0.534796" stroke-linecap="round" stroke-linejoin="round"/>
<path d="M35.6494 144.352C35.6494 144.352 35.8847 142.432 38.318 141.86" stroke="#263238" stroke-width="0.534796" stroke-linecap="round" stroke-linejoin="round"/>
<path d="M43.436 140.362C43.436 140.362 44.9549 139.298 46.233 140.154" stroke="#263238" stroke-width="0.534796" stroke-linecap="round" stroke-linejoin="round"/>
<path d="M39.762 146.042C40.0294 146.769 39.9171 147.475 39.516 147.625C39.1149 147.775 38.5694 147.304 38.302 146.582C38.0346 145.855 38.1469 145.149 38.548 144.999C38.9491 144.849 39.4946 145.32 39.762 146.042Z" fill="#263238"/>
<path d="M46.3453 143.309C46.6127 144.037 46.5004 144.742 46.0993 144.892C45.6982 145.042 45.1527 144.571 44.8853 143.849C44.6179 143.122 44.7303 142.416 45.1313 142.266C45.5324 142.117 46.0779 142.587 46.3453 143.309Z" fill="#263238"/>
<path d="M28.5046 154.743C28.5046 154.743 23.8145 149.994 21.9694 152.369C20.1244 154.743 23.9001 158.995 26.189 159.594C28.4779 160.193 29.1678 157.786 29.1678 157.786" fill="white"/>
<path d="M28.5046 154.743C28.5046 154.743 23.8145 149.994 21.9694 152.369C20.1244 154.743 23.9001 158.995 26.189 159.594C28.4779 160.193 29.1678 157.786 29.1678 157.786" stroke="#263238" stroke-width="0.534796" stroke-linecap="round" stroke-linejoin="round"/>
<path d="M42.698 163.519C42.698 163.519 41.0348 164.289 38.7726 163.894C36.5158 163.498 35.2055 163.166 35.2055 163.166C35.2055 163.166 37.826 165.289 39.8582 166.241C41.8851 167.193 43.8104 168.167 43.8104 168.167L42.698 163.514V163.519Z" fill="#263238" stroke="#263238" stroke-width="0.534796" stroke-linecap="round" stroke-linejoin="round"/>
<path d="M67.4241 191.197L88.0542 190.101C88.6417 190.07 89.1422 190.52 89.1734 191.108L90.7001 219.855C90.7313 220.443 90.2813 220.943 89.6938 220.975L69.0637 222.07C68.4763 222.101 67.9757 221.651 67.9445 221.064L66.4178 192.316C66.3866 191.729 66.8367 191.228 67.4241 191.197Z" fill="#263238" stroke="#263238" stroke-width="0.534796" stroke-linecap="round" stroke-linejoin="round"/>
<path d="M24.868 219.288C24.868 219.288 28.2372 230.487 29.0608 230.631C29.8844 230.775 65.6729 218.02 65.6729 218.02C65.6729 218.02 67.5821 217.646 68.9137 216.999C70.2454 216.352 76.1977 211.357 76.1977 211.357C76.1977 211.357 78.7165 210.892 79.2246 210.1C79.7327 209.309 80.1926 208.795 79.6524 208.785C79.1176 208.774 68.6731 210.603 68.9351 210.565C69.1972 210.528 76.9196 207.228 77.9464 206.897C78.9679 206.565 79.7113 205.56 79.5187 204.875C79.3262 204.191 77.2619 205.303 76.326 205.619C75.3901 205.934 68.149 208.266 68.149 208.266C68.149 208.266 72.1386 205.078 73.3953 204.533C74.6521 203.987 77.1068 202.463 77.3742 201.886C77.647 201.308 77.0908 200.586 76.4918 200.768C75.8928 200.944 67.5126 205.234 66.8815 205.774C66.2505 206.314 61.8117 214.298 61.8117 214.298L38.4304 216.807L37.8261 215.737L24.868 219.277V219.288Z" fill="white" stroke="#263238" stroke-width="0.534796" stroke-linecap="round" stroke-linejoin="round"/>
<path d="M75.588 211.448L68.6089 213.737" stroke="#263238" stroke-width="0.534796" stroke-linecap="round" stroke-linejoin="round"/>
<path d="M23.6648 176.59C23.6648 176.59 16.3862 180.873 15.9316 185.965C15.4717 191.056 23.2476 220.764 23.2476 220.764L38.6069 215.576L31.4193 190.805" fill="#476CFF"/>
<path d="M23.6648 176.59C23.6648 176.59 16.3862 180.873 15.9316 185.965C15.4717 191.056 23.2476 220.764 23.2476 220.764L38.6069 215.576L31.4193 190.805" stroke="#263238" stroke-width="0.534796" stroke-linecap="round" stroke-linejoin="round"/>
<path d="M129.939 126.645V122.521L125.821 122.061C125.597 121.19 125.255 120.366 124.811 119.607L127.41 116.355L124.495 113.441L121.26 116.029C120.5 115.585 119.682 115.237 118.81 115.002L118.35 110.868H114.227L113.767 114.986C112.895 115.211 112.072 115.553 111.312 115.997L108.061 113.398L105.146 116.312L107.735 119.548C107.291 120.307 106.943 121.126 106.708 121.997L102.574 122.457V126.58L106.692 127.04C106.916 127.912 107.259 128.736 107.703 129.495L105.103 132.747L108.018 135.661L111.254 133.073C112.013 133.517 112.831 133.864 113.703 134.1L114.163 138.234H118.286L118.746 134.116C119.618 133.891 120.441 133.549 121.201 133.105L124.452 135.704L127.367 132.789L124.779 129.554C125.222 128.795 125.57 127.976 125.805 127.105L129.939 126.645ZM116.259 129.468C113.543 129.468 111.339 127.265 111.339 124.548C111.339 121.831 113.543 119.628 116.259 119.628C118.976 119.628 121.179 121.831 121.179 124.548C121.179 127.265 118.976 129.468 116.259 129.468Z" fill="#476CFF" stroke="#263238" stroke-width="0.534796" stroke-linecap="round" stroke-linejoin="round"/>
<path d="M146.144 118.366L145.689 115.639L142.914 115.794C142.667 115.243 142.347 114.735 141.972 114.28L143.336 111.842L141.084 110.232L139.229 112.307C138.678 112.098 138.095 111.959 137.496 111.9L136.731 109.21L134.004 109.665L134.159 112.441C133.608 112.687 133.1 113.007 132.645 113.382L130.207 112.018L128.597 114.27L130.672 116.125C130.463 116.676 130.324 117.259 130.266 117.858L127.576 118.623L128.03 121.35L130.806 121.195C131.052 121.746 131.373 122.254 131.747 122.709L130.383 125.147L132.635 126.752L134.49 124.677C135.041 124.885 135.624 125.024 136.223 125.083L136.988 127.773L139.715 127.319L139.56 124.543C140.111 124.297 140.619 123.976 141.074 123.602L143.512 124.966L145.117 122.714L143.042 120.858C143.25 120.307 143.389 119.725 143.448 119.126L146.138 118.361L146.144 118.366ZM137.4 121.757C135.603 122.056 133.897 120.842 133.597 119.045C133.298 117.248 134.512 115.542 136.309 115.243C138.106 114.943 139.812 116.157 140.111 117.954C140.411 119.751 139.197 121.457 137.4 121.757Z" fill="#263238" stroke="#263238" stroke-width="0.534796" stroke-miterlimit="10"/>
<path d="M188.783 78.0906C184.585 78.0906 181.183 81.4919 181.183 85.6901C181.183 89.8882 188.783 99.0172 188.783 99.0172C188.783 99.0172 196.382 89.8882 196.382 85.6901C196.382 81.4919 192.981 78.0906 188.783 78.0906ZM188.783 89.931C186.563 89.931 184.761 88.1287 184.761 85.9093C184.761 83.6899 186.563 81.8877 188.783 81.8877C191.002 81.8877 192.804 83.6899 192.804 85.9093C192.804 88.1287 191.002 89.931 188.783 89.931Z" fill="#263238"/>
<path d="M183.323 42.029H190.216V16.3642H183.323V42.029Z" fill="#476CFF" stroke="#263238" stroke-width="0.534796" stroke-linecap="round" stroke-linejoin="round"/>
<path d="M174.129 42.0237H181.023V22.1026H174.129V42.0237Z" fill="#263238" stroke="#263238" stroke-width="0.534796" stroke-miterlimit="10"/>
<path d="M164.931 42.029H171.825V26.7071H164.931V42.029Z" fill="#476CFF" stroke="#263238" stroke-width="0.534796" stroke-linecap="round" stroke-linejoin="round"/>
<path d="M155.743 42.0237H162.637V30.531H155.743V42.0237Z" fill="#263238" stroke="#263238" stroke-width="0.534796" stroke-miterlimit="10"/>
<path d="M158.968 28.8413L158.294 27.9536L165.343 22.5896L168.835 23.7554L174.611 17.5411L178.007 18.5732L184.157 11.5193L186.767 13.2092L189.473 11.2947L190.115 12.1985L186.794 14.5462L184.366 12.9739L178.37 19.8461L174.948 18.8086L169.167 25.0389L165.546 23.8303L158.968 28.8413Z" fill="#263238"/>
<path d="M190.676 14.3107L192.853 9.58307L187.671 10.059L190.676 14.3107Z" fill="#263238"/>
<path d="M98.6485 11.8347C98.718 11.471 98.7554 11.0913 98.7554 10.7063C98.7554 7.32635 96.0119 4.58285 92.632 4.58285C91.3699 4.58285 90.204 4.96255 89.2307 5.615C87.9953 2.6148 85.0433 0.497009 81.5938 0.497009C77.032 0.497009 73.3366 4.19245 73.3366 8.75425C73.3366 8.85586 73.3366 8.95747 73.3419 9.05909C71.0904 9.70084 69.4379 11.7705 69.4379 14.2306C69.4379 16.9527 71.4595 19.1935 74.0746 19.5571V19.6159H98.3864C100.536 19.6159 102.285 17.8725 102.285 15.7173C102.285 13.5621 100.681 11.9684 98.6538 11.8347H98.6485Z" fill="white" stroke="#263238" stroke-width="0.534796" stroke-linecap="round" stroke-linejoin="round"/>
<path d="M91.7121 17.1236L84.979 8.64709L78.2406 17.1236H80.8771V24.7551H89.0809V17.1236H91.7121Z" fill="#263238" stroke="#263238" stroke-width="0.534796" stroke-linecap="round" stroke-linejoin="round"/>
<path d="M91.7121 15.4874L84.979 7.00555L78.2406 15.4874H80.8771V23.1136H89.0809V15.4874H91.7121Z" fill="#476CFF" stroke="#263238" stroke-width="0.534796" stroke-linecap="round" stroke-linejoin="round"/>
<path d="M72.2631 45.1359L55.0614 39.4104C54.4056 39.1921 53.6971 39.5467 53.4788 40.2025L41.5682 75.9861C41.35 76.6419 41.7046 77.3505 42.3604 77.5687L59.5621 83.2943C60.2179 83.5126 60.9264 83.1579 61.1447 82.5022L73.0553 46.7185C73.2735 46.0628 72.9189 45.3542 72.2631 45.1359Z" fill="#476CFF" stroke="#263238" stroke-width="0.534796" stroke-linecap="round" stroke-linejoin="round"/>
<path d="M72.0104 49.8428L73.0532 46.7142C73.2725 46.0565 72.9195 45.3505 72.2617 45.1313L55.0574 39.4036C54.3996 39.1843 53.6936 39.5373 53.4744 40.1951L52.4315 43.3236L72.0104 49.8428Z" fill="#263238" stroke="#263238" stroke-width="0.534796" stroke-linecap="round" stroke-linejoin="round"/>
<path d="M42.495 73.1918L41.5645 75.9888C41.3452 76.6465 41.6982 77.3525 42.356 77.5717L59.5604 83.2994C60.2182 83.5187 60.9241 83.1657 61.1434 82.5079L62.0739 79.7109L42.495 73.1918Z" fill="#263238" stroke="#263238" stroke-width="0.534796" stroke-linecap="round" stroke-linejoin="round"/>
<path d="M50.3778 90.1557H19.7126C17.6536 90.1557 15.9904 91.8243 15.9904 93.8779V111.152C15.9904 113.211 17.659 114.874 19.7126 114.874H41.0242L44.8319 121.398L47.4899 114.874H50.3778C52.4367 114.874 54.1 113.205 54.1 111.152V93.8779C54.1 91.8189 52.4314 90.1557 50.3778 90.1557Z" fill="#263238" stroke="#263238" stroke-width="0.534796" stroke-linecap="round" stroke-linejoin="round"/>
<path d="M29.7241 103.205C29.7241 102.066 28.8043 101.146 27.6652 101.146C26.526 101.146 25.6062 102.066 25.6062 103.205C25.6062 104.344 26.526 105.264 27.6652 105.264C28.8043 105.264 29.7241 104.344 29.7241 103.205Z" fill="#476CFF"/>
<path d="M37.9653 103.205C37.9653 102.066 37.0454 101.146 35.9063 101.146C34.7672 101.146 33.8474 102.066 33.8474 103.205C33.8474 104.344 34.7672 105.264 35.9063 105.264C37.0454 105.264 37.9653 104.344 37.9653 103.205Z" fill="#476CFF"/>
<path d="M46.2066 103.205C46.2066 102.066 45.2867 101.146 44.1476 101.146C43.0085 101.146 42.0886 102.066 42.0886 103.205C42.0886 104.344 43.0085 105.264 44.1476 105.264C45.2867 105.264 46.2066 104.344 46.2066 103.205Z" fill="#476CFF"/>
<path d="M144.828 15.1669L90.22 45.0139L80.7542 83.2357L133.175 50.8378L144.828 15.1669Z" fill="#263238" stroke="#263238" stroke-width="0.534796" stroke-linecap="round" stroke-linejoin="round"/>
<path d="M142.004 18.1623L92.2094 45.3834L83.5778 80.2414L131.383 50.6939L142.004 18.1623Z" fill="white" stroke="#263238" stroke-width="0.534796" stroke-linecap="round" stroke-linejoin="round"/>
<path d="M133.175 50.8383L164.241 67.8181L109.141 106.147L80.7542 83.2362L133.175 50.8383Z" fill="#B0B0B0" stroke="#263238" stroke-width="0.534796" stroke-linecap="round" stroke-linejoin="round"/>
<path d="M148.78 76.091L140.94 70.866L115.168 88.3111L122.559 94.2419L148.78 76.091Z" fill="#B0B0B0" stroke="#263238" stroke-width="0.534796" stroke-linecap="round" stroke-linejoin="round"/>
<path d="M133.399 61.5183L135.084 62.497L138.1 60.5664L136.389 59.6038L133.399 61.5183Z" fill="#263238"/>
<path d="M106.114 86.6429L104.627 85.5358L101.547 87.5146L103.007 88.6323L106.114 86.6429Z" fill="#263238"/>
<path d="M118.265 65.6253L119.885 66.6467L122.848 64.7482L121.206 63.7428L118.265 65.6253Z" fill="#263238"/>
<path d="M131.11 60.1918L132.795 61.1705L135.779 59.2613L134.073 58.2933L131.11 60.1918Z" fill="#263238"/>
<path d="M104.098 85.14L102.617 84.033L99.563 85.9903L101.023 87.1134L104.098 85.14Z" fill="#263238"/>
<path d="M121.789 63.3688L123.425 64.3796L126.383 62.4811L124.725 61.4917L121.789 63.3688Z" fill="#263238"/>
<path d="M122.254 73.5082L120.661 72.4707L117.623 74.4227L119.195 75.4709L122.254 73.5082Z" fill="#263238"/>
<path d="M129.522 68.8559L127.88 67.8505L124.848 69.7918L126.463 70.8133L129.522 68.8559Z" fill="#263238"/>
<path d="M125.885 71.182L124.27 70.1605L121.233 72.1072L122.826 73.1447L125.885 71.182Z" fill="#263238"/>
<path d="M139.582 62.4116L137.876 61.449L135.688 62.8501L137.373 63.8288L139.582 62.4116Z" fill="#263238"/>
<path d="M133.153 66.5291L131.49 65.5344L128.458 67.4757L130.1 68.4864L133.153 66.5291Z" fill="#263238"/>
<path d="M136.785 64.2031L135.1 63.2244L132.073 65.1657L133.736 66.1551L136.785 64.2031Z" fill="#263238"/>
<path d="M125.308 61.1171L126.966 62.1118L129.923 60.2187L128.239 59.24L125.308 61.1171Z" fill="#263238"/>
<path d="M96.4984 84.4234L95.0331 83.3004L92.0329 85.2203L93.4768 86.3594L96.4984 84.4234Z" fill="#263238"/>
<path d="M114.746 67.8825L116.339 68.92L119.308 67.0161L117.692 65.9946L114.746 67.8825Z" fill="#263238"/>
<path d="M98.4826 85.9425L97.0226 84.8248L93.9903 86.7608L95.4342 87.8999L98.4826 85.9425Z" fill="#263238"/>
<path d="M100.467 87.4666L99.0068 86.3435L95.9478 88.3062L97.3917 89.44L100.467 87.4666Z" fill="#263238"/>
<path d="M93.6053 81.4235L95.0653 82.5465L98.0548 80.632L96.5734 79.5196L93.6053 81.4235Z" fill="#263238"/>
<path d="M90.081 83.6802L91.5196 84.814L94.5144 82.8994L93.0491 81.7764L90.081 83.6802Z" fill="#263238"/>
<path d="M111.221 70.1336L112.794 71.1871L115.767 69.2832L114.173 68.2457L111.221 70.1336Z" fill="#263238"/>
<path d="M107.702 72.3903L109.248 73.4599L112.227 71.5507L110.655 70.5025L107.702 72.3903Z" fill="#263238"/>
<path d="M100.654 76.9096L102.162 78.0006L105.141 76.0913L103.617 75.011L100.654 76.9096Z" fill="#263238"/>
<path d="M104.178 74.6475L105.708 75.7277L108.687 73.8239L107.136 72.7543L104.178 74.6475Z" fill="#263238"/>
<path d="M97.1295 79.1666L98.6162 80.2736L101.6 78.3591L100.092 77.2681L97.1295 79.1666Z" fill="#263238"/>
<path d="M127.565 62.465L129.223 63.4597L132.212 61.5451L130.528 60.5665L127.565 62.465Z" fill="#263238"/>
<path d="M116.489 74.4069L114.922 73.3587L111.906 75.2893L113.457 76.3536L116.489 74.4069Z" fill="#263238"/>
<path d="M120.094 72.1016L118.5 71.0641L115.489 72.9947L117.061 74.0429L120.094 72.1016Z" fill="#263238"/>
<path d="M123.693 69.7966L122.078 68.7698L119.072 70.6951L120.666 71.7326L123.693 69.7966Z" fill="#263238"/>
<path d="M118.623 75.8346L117.051 74.7864L114.008 76.7331L115.559 77.8027L118.623 75.8346Z" fill="#263238"/>
<path d="M127.297 67.4866L125.656 66.4812L122.655 68.4011L124.27 69.4279L127.297 67.4866Z" fill="#263238"/>
<path d="M126.238 66.1068L127.875 67.1176L130.897 65.1816L129.233 64.1869L126.238 66.1068Z" fill="#263238"/>
<path d="M104.74 79.878L106.248 80.969L109.291 79.0224L107.761 77.9421L104.74 79.878Z" fill="#263238"/>
<path d="M120.463 67.0158L122.078 68.0373L125.073 66.1174L123.431 65.1119L120.463 67.0158Z" fill="#263238"/>
<path d="M86.2786 81.4768L84.0271 82.8673L86.7599 85.0706L89.0114 83.632L86.2786 81.4768Z" fill="#263238"/>
<path d="M112.89 76.7171L111.339 75.6475L108.323 77.5834L109.852 78.6637L112.89 76.7171Z" fill="#263238"/>
<path d="M134.496 62.8767L132.811 61.898L129.816 63.8126L131.479 64.8073L134.496 62.8767Z" fill="#263238"/>
<path d="M124.014 64.7378L125.65 65.7485L128.64 63.834L126.976 62.8392L124.014 64.7378Z" fill="#263238"/>
<path d="M107.729 82.8138L106.226 81.7228L103.173 83.6748L104.659 84.7818L107.729 82.8138Z" fill="#263238"/>
<path d="M105.686 81.3322L104.184 80.2359L101.157 82.1719L102.643 83.2789L105.686 81.3322Z" fill="#263238"/>
<path d="M111.36 80.4873L109.836 79.407L106.788 81.3644L108.291 82.4554L111.36 80.4873Z" fill="#263238"/>
<path d="M114.992 78.1611L113.446 77.0969L110.398 79.0489L111.927 80.1292L114.992 78.1611Z" fill="#263238"/>
<path d="M102.087 83.6374L100.6 82.5304L97.5734 84.4664L99.0388 85.5894L102.087 83.6374Z" fill="#263238"/>
<path d="M113.355 71.5617L114.928 72.6153L117.928 70.6953L116.334 69.6578L113.355 71.5617Z" fill="#263238"/>
<path d="M109.804 73.8399L111.355 74.9041L114.361 72.9789L112.788 71.9307L109.804 73.8399Z" fill="#263238"/>
<path d="M116.906 69.2888L118.5 70.3263L121.5 68.4063L119.885 67.3849L116.906 69.2888Z" fill="#263238"/>
<path d="M106.253 76.1179L107.777 77.1982L110.788 75.2676L109.237 74.2034L106.253 76.1179Z" fill="#263238"/>
<path d="M102.697 78.3907L104.205 79.487L107.216 77.5564L105.686 76.4761L102.697 78.3907Z" fill="#263238"/>
<path d="M99.1458 80.6692L100.627 81.7763L103.643 79.8457L102.135 78.7493L99.1458 80.6692Z" fill="#263238"/>
<path d="M95.5894 82.9476L97.0547 84.0653L100.071 82.1347L98.5842 81.0276L95.5894 82.9476Z" fill="#263238"/>
<path d="M102.456 88.9904L100.991 87.8674L97.905 89.8461L99.3489 90.9799L102.456 88.9904Z" fill="#263238"/>
<path d="M98.7928 91.3332L97.3542 90.1995L94.9904 91.7129L96.4129 92.8627L98.7928 91.3332Z" fill="#263238"/>
<path d="M105.515 91.3384L102.975 89.3918L99.8624 91.3866L102.408 93.3921L105.515 91.3384Z" fill="#263238"/>
<path d="M106.644 87.0386L103.531 89.0334L106.061 90.9747L109.163 88.9211L106.644 87.0386Z" fill="#263238"/>
<path d="M113.981 82.3433L110.874 84.3327L113.366 86.1403L116.457 84.092L113.981 82.3433Z" fill="#263238"/>
<path d="M96.6001 78.7707L99.5575 76.8722L96.8729 74.9255L93.9101 76.7599L96.6001 78.7707Z" fill="#263238"/>
<path d="M96.8408 89.7929L95.3968 88.6591L93.0598 90.1565L94.4823 91.301L96.8408 89.7929Z" fill="#263238"/>
<path d="M89.5622 83.2739L92.525 81.3753L89.8082 79.295L86.8401 81.1293L89.5622 83.2739Z" fill="#263238"/>
<path d="M93.0812 81.0224L96.0386 79.1239L93.3432 77.113L90.3751 78.9474L93.0812 81.0224Z" fill="#263238"/>
<path d="M90.9686 85.1721L89.5247 84.033L87.2678 85.4823L88.6904 86.6267L90.9686 85.1721Z" fill="#263238"/>
<path d="M92.9261 86.7124L91.4821 85.5786L89.1985 87.0386L90.6211 88.1884L92.9261 86.7124Z" fill="#263238"/>
<path d="M94.8834 88.2529L93.4395 87.1191L91.1292 88.5951L92.5517 89.7449L94.8834 88.2529Z" fill="#263238"/>
<path d="M110.312 84.691L107.2 86.6858L109.713 88.5576L112.81 86.5093L110.312 84.691Z" fill="#263238"/>
<path d="M147.144 61.0959L143.935 63.1548L146.186 64.4223L149.374 62.3152L147.144 61.0959Z" fill="#263238"/>
<path d="M143.347 63.5288L140.261 65.5076L142.544 66.8338L145.603 64.807L143.347 63.5288Z" fill="#263238"/>
<path d="M139.673 65.8823L136.587 67.8611L138.897 69.2462L141.967 67.214L139.673 65.8823Z" fill="#263238"/>
<path d="M99.3116 91.7395L96.921 93.269L99.4773 95.3333L101.868 93.7503L99.3116 91.7395Z" fill="#263238"/>
<path d="M131.731 56.2612L134.758 54.3252L132.341 53.0096L129.298 54.8868L131.731 56.2612Z" fill="#263238"/>
<path d="M136.004 68.2355L132.907 70.2143L135.25 71.6582L138.325 69.626L136.004 68.2355Z" fill="#263238"/>
<path d="M134.683 72.0378L132.33 70.5885L114.542 81.9796L117.013 83.7284L134.683 72.0378Z" fill="#263238"/>
<path d="M139.074 65.5346L137.389 64.556L134.33 66.5133L135.993 67.508L139.074 65.5346Z" fill="#263238"/>
<path d="M131.747 70.2248L130.105 69.2194L127.041 71.1821L128.656 72.2035L131.747 70.2248Z" fill="#263238"/>
<path d="M109.772 84.3006L108.269 83.2042L105.189 85.1776L106.67 86.29L109.772 84.3006Z" fill="#263238"/>
<path d="M135.405 67.8823L133.747 66.8876L130.683 68.8449L132.324 69.8557L135.405 67.8823Z" fill="#263238"/>
<path d="M138.464 61.1335L140.175 62.0961L144.17 59.4703L142.437 58.5237L138.464 61.1335Z" fill="#263238"/>
<path d="M146.523 60.759L144.791 59.8124L138.223 64.1069L139.929 65.0695L146.523 60.759Z" fill="#263238"/>
<path d="M136.983 59.224L138.689 60.192L141.817 58.1865L140.084 57.2399L136.983 59.224Z" fill="#263238"/>
<path d="M113.435 81.9582L111.906 80.8779L108.831 82.8459L110.334 83.9423L113.435 81.9582Z" fill="#263238"/>
<path d="M117.094 79.6104L115.548 78.5462L112.473 80.5143L113.997 81.5945L117.094 79.6104Z" fill="#263238"/>
<path d="M128.083 72.5724L126.463 71.551L123.399 73.5137L124.992 74.5512L128.083 72.5724Z" fill="#263238"/>
<path d="M124.42 74.9203L122.826 73.8828L119.757 75.8509L121.329 76.8991L124.42 74.9203Z" fill="#263238"/>
<path d="M120.757 77.2626L119.184 76.2144L116.115 78.1824L117.66 79.2466L120.757 77.2626Z" fill="#263238"/>
<path d="M121.201 63.0103L124.131 61.1331L121.618 59.6304L118.671 61.454L121.201 63.0103Z" fill="#263238"/>
<path d="M114.174 67.5082L117.115 65.631L114.548 64.0052L111.596 65.8289L114.174 67.5082Z" fill="#263238"/>
<path d="M110.66 69.7594L113.601 67.8769L111.013 66.187L108.055 68.016L110.66 69.7594Z" fill="#263238"/>
<path d="M117.687 65.2619L120.623 63.3794L118.083 61.8178L115.136 63.6415L117.687 65.2619Z" fill="#263238"/>
<path d="M103.633 74.2625L106.579 72.3747L103.943 70.5564L100.98 72.3907L103.633 74.2625Z" fill="#263238"/>
<path d="M107.146 72.0112L110.093 70.1234L107.478 68.3746L104.52 70.2036L107.146 72.0112Z" fill="#263238"/>
<path d="M134.662 57.919L136.368 58.8817L139.464 56.8976L137.731 55.951L134.662 57.919Z" fill="#263238"/>
<path d="M132.346 56.609L134.052 57.5717L137.111 55.6143L135.378 54.6677L132.346 56.609Z" fill="#263238"/>
<path d="M128.827 58.8604L130.512 59.839L133.458 57.9512L131.752 56.9886L128.827 58.8604Z" fill="#263238"/>
<path d="M124.714 60.7588L127.634 58.887L125.158 57.4484L122.211 59.2667L124.714 60.7588Z" fill="#263238"/>
<path d="M125.757 57.0795L128.223 58.5127L131.143 56.6409L128.693 55.2612L125.757 57.0795Z" fill="#263238"/>
<path d="M100.114 76.5137L103.071 74.6259L100.408 72.7434L97.4451 74.5724L100.114 76.5137Z" fill="#263238"/>
<path d="M92.359 94.8246L78.5292 103.627V108.906" stroke="#263238" stroke-width="0.534796" stroke-linecap="round" stroke-linejoin="round"/>
<path d="M73.4968 110.922H84.059" stroke="#263238" stroke-width="0.534796" stroke-linecap="round" stroke-linejoin="round"/>
<path d="M73.4967 112.681H84.0589" stroke="#263238" stroke-width="0.534796" stroke-linecap="round" stroke-linejoin="round"/>
<path d="M73.4967 114.441H84.0589" stroke="#263238" stroke-width="0.534796" stroke-linecap="round" stroke-linejoin="round"/>
<path d="M73.4967 116.201H84.0589" stroke="#263238" stroke-width="0.534796" stroke-linecap="round" stroke-linejoin="round"/>
<path d="M124.297 0.267761H134.859" stroke="#263238" stroke-width="0.534796" stroke-linecap="round" stroke-linejoin="round"/>
<path d="M124.297 2.02722H134.859" stroke="#263238" stroke-width="0.534796" stroke-linecap="round" stroke-linejoin="round"/>
<path d="M124.297 3.78674H134.859" stroke="#263238" stroke-width="0.534796" stroke-linecap="round" stroke-linejoin="round"/>
<path d="M124.297 5.55139H134.859" stroke="#263238" stroke-width="0.534796" stroke-linecap="round" stroke-linejoin="round"/>
<path d="M129.832 28.9383V8.31659" stroke="#263238" stroke-width="0.534796" stroke-linecap="round" stroke-linejoin="round"/>
<path d="M175.6 53.0781H186.162" stroke="#263238" stroke-width="0.534796" stroke-linecap="round" stroke-linejoin="round"/>
<path d="M175.6 54.8376H186.162" stroke="#263238" stroke-width="0.534796" stroke-linecap="round" stroke-linejoin="round"/>
<path d="M175.6 56.5969H186.162" stroke="#263238" stroke-width="0.534796" stroke-linecap="round" stroke-linejoin="round"/>
<path d="M175.6 58.3619H186.162" stroke="#263238" stroke-width="0.534796" stroke-linecap="round" stroke-linejoin="round"/>
<path d="M157.995 64.1432L166.797 57.6026H172.835" stroke="#263238" stroke-width="0.534796" stroke-linecap="round" stroke-linejoin="round"/>
</g>
<defs>
<clipPath id="clip0_269_11768">
<rect width="241.214" height="233.679" fill="white"/>
</clipPath>
</defs>
</svg>
