<svg width="327" height="222" viewBox="0 0 327 222" fill="none" xmlns="http://www.w3.org/2000/svg">
<path d="M46.3161 38.3049H283.643C288.094 38.3049 291.709 41.9103 291.709 46.3503V201.562H38.2485V46.3503C38.2485 41.9103 41.8633 38.3049 46.3149 38.3049H46.3161Z" fill="white"/>
<path d="M291.709 201.831H38.2485C38.1002 201.831 37.981 201.712 37.981 201.564V46.3507C37.981 41.7676 41.7198 38.0385 46.3149 38.0385H283.642C288.237 38.0385 291.975 41.7676 291.975 46.3507V201.563C291.975 201.711 291.855 201.829 291.708 201.829L291.709 201.831ZM38.5161 201.297H291.44V46.3507C291.44 42.0611 287.942 38.5722 283.642 38.5722H46.3161C42.0154 38.5722 38.5173 42.0611 38.5173 46.3507V201.296L38.5161 201.297Z" fill="black"/>
<path d="M295.964 221.733H34.3612C22.7895 221.733 12.1507 216.801 6.6616 208.894L4.01984 205.089C2.16623 202.418 4.08795 198.773 7.35002 198.773H322.607C325.72 198.773 327.668 202.124 326.115 204.809L324.667 207.312C319.591 216.087 308.354 221.733 295.962 221.733H295.964Z" fill="white"/>
<path d="M295.964 222H34.3612C22.6862 222 11.989 217.036 6.44154 209.046L3.79978 205.241C2.87298 203.905 2.77081 202.25 3.52612 200.812C4.28386 199.368 5.7142 198.507 7.3501 198.507H322.607C324.169 198.507 325.567 199.311 326.346 200.656C327.123 201.998 327.123 203.601 326.346 204.942L324.898 207.446C319.783 216.287 308.426 222 295.962 222H295.964ZM7.3501 199.04C5.91611 199.04 4.66456 199.795 4.00047 201.059C3.33881 202.318 3.42882 203.768 4.24008 204.936L6.88184 208.742C12.3296 216.591 22.8589 221.466 34.3612 221.466H295.964C308.239 221.466 319.415 215.858 324.435 207.179L325.884 204.675C326.564 203.501 326.564 202.098 325.884 200.923C325.202 199.744 323.977 199.04 322.609 199.04H7.3501Z" fill="black"/>
<path d="M326.527 23.0673V8.82773C326.527 4.10023 322.685 0.268005 317.945 0.268005H174.916C170.176 0.268005 166.334 4.10023 166.334 8.82773V23.0673H326.529H326.527Z" fill="white"/>
<path d="M166.333 16.9012H326.528V89.403C326.528 95.5316 321.538 100.508 315.394 100.508H177.466C171.322 100.508 166.333 95.5316 166.333 89.403V16.9012Z" fill="white"/>
<path d="M315.394 100.775H177.466C171.179 100.775 166.065 95.6735 166.065 89.4029V16.9012C166.065 16.7532 166.184 16.6343 166.332 16.6343H326.527C326.676 16.6343 326.795 16.7532 326.795 16.9012V89.4029C326.795 95.6735 321.681 100.775 315.394 100.775ZM166.601 17.168V89.4029C166.601 95.3787 171.476 100.24 177.467 100.24H315.395C321.386 100.24 326.261 95.3775 326.261 89.4029V17.168H166.602H166.601Z" fill="black"/>
<path d="M326.527 12.6467C326.379 12.6467 326.26 12.5278 326.26 12.3798V8.82662C326.26 4.25439 322.529 0.533769 317.945 0.533769H174.914C170.33 0.533769 166.6 4.25439 166.6 8.82662V12.3798C166.6 12.5278 166.481 12.6467 166.332 12.6467C166.184 12.6467 166.065 12.5278 166.065 12.3798V8.82662C166.065 3.9596 170.035 0 174.914 0H317.945C322.825 0 326.795 3.9596 326.795 8.82662V12.3798C326.795 12.5278 326.676 12.6467 326.527 12.6467Z" fill="black"/>
<path d="M181.212 12.6467C179.314 12.6467 177.768 11.106 177.768 9.21112C177.768 7.31624 179.313 5.77679 181.212 5.77679C183.112 5.77679 184.657 7.31745 184.657 9.21112C184.657 11.1048 183.112 12.6467 181.212 12.6467ZM181.212 6.31056C179.608 6.31056 178.304 7.61223 178.304 9.21112C178.304 10.81 179.609 12.1117 181.212 12.1117C182.815 12.1117 184.121 10.81 184.121 9.21112C184.121 7.61223 182.815 6.31056 181.212 6.31056Z" fill="black"/>
<path d="M190.483 12.6467C188.584 12.6467 187.038 11.106 187.038 9.21112C187.038 7.31624 188.583 5.77679 190.483 5.77679C192.383 5.77679 193.927 7.31745 193.927 9.21112C193.927 11.1048 192.383 12.6467 190.483 12.6467ZM190.483 6.31056C188.879 6.31056 187.575 7.61223 187.575 9.21112C187.575 10.81 188.88 12.1117 190.483 12.1117C192.086 12.1117 193.391 10.81 193.391 9.21112C193.391 7.61223 192.086 6.31056 190.483 6.31056Z" fill="black"/>
<path d="M201.614 11.7918C203.038 10.7686 203.36 8.78825 202.334 7.36853C201.308 5.94881 199.323 5.62736 197.899 6.65054C196.476 7.67372 196.154 9.65408 197.179 11.0738C198.205 12.4935 200.191 12.815 201.614 11.7918Z" fill="#5479F7"/>
<path d="M235.413 30.0897H178.037V87.3171H235.413V30.0897Z" fill="white"/>
<path d="M235.414 87.5857H178.037C177.888 87.5857 177.769 87.4668 177.769 87.3188V30.0914C177.769 29.9434 177.888 29.8245 178.037 29.8245H235.414C235.562 29.8245 235.681 29.9434 235.681 30.0914V87.3188C235.681 87.4668 235.562 87.5857 235.414 87.5857ZM178.304 87.0507H235.146V30.3571H178.304V87.0507Z" fill="black"/>
<path d="M292.982 30.3573H246.431C246.283 30.3573 246.163 30.2384 246.163 30.0904C246.163 29.9424 246.283 29.8235 246.431 29.8235H292.982C293.13 29.8235 293.249 29.9424 293.249 30.0904C293.249 30.2384 293.13 30.3573 292.982 30.3573Z" fill="black"/>
<path d="M314.614 40.8701H304.007C303.858 40.8701 303.739 40.7513 303.739 40.6033C303.739 40.4553 303.858 40.3364 304.007 40.3364H314.614C314.762 40.3364 314.882 40.4553 314.882 40.6033C314.882 40.7513 314.762 40.8701 314.614 40.8701Z" fill="black"/>
<path d="M298.897 40.8701H280.522C280.373 40.8701 280.254 40.7513 280.254 40.6033C280.254 40.4553 280.373 40.3364 280.522 40.3364H298.897C299.046 40.3364 299.165 40.4553 299.165 40.6033C299.165 40.7513 299.046 40.8701 298.897 40.8701Z" fill="black"/>
<path d="M270.661 40.8701H259.636C259.487 40.8701 259.368 40.7513 259.368 40.6033C259.368 40.4553 259.487 40.3364 259.636 40.3364H270.661C270.81 40.3364 270.929 40.4553 270.929 40.6033C270.929 40.7513 270.81 40.8701 270.661 40.8701Z" fill="black"/>
<path d="M294.1 51.383H259.637C259.489 51.383 259.369 51.2641 259.369 51.1161C259.369 50.9681 259.489 50.8492 259.637 50.8492H294.1C294.249 50.8492 294.368 50.9681 294.368 51.1161C294.368 51.2641 294.249 51.383 294.1 51.383Z" fill="black"/>
<path d="M314.614 61.8948H281.848C281.699 61.8948 281.58 61.7759 281.58 61.6279C281.58 61.4799 281.699 61.361 281.848 61.361H314.614C314.763 61.361 314.882 61.4799 314.882 61.6279C314.882 61.7759 314.763 61.8948 314.614 61.8948Z" fill="black"/>
<path d="M273.943 61.8948H246.429C246.281 61.8948 246.162 61.7759 246.162 61.6279C246.162 61.4799 246.281 61.361 246.429 61.361H273.943C274.091 61.361 274.21 61.4799 274.21 61.6279C274.21 61.7759 274.091 61.8948 273.943 61.8948Z" fill="black"/>
<path d="M295.878 72.4075H253.095C252.946 72.4075 252.827 72.2886 252.827 72.1406C252.827 71.9926 252.946 71.8737 253.095 71.8737H295.878C296.027 71.8737 296.146 71.9926 296.146 72.1406C296.146 72.2886 296.027 72.4075 295.878 72.4075Z" fill="black"/>
<path d="M183.661 74.4172C183.613 74.4172 183.566 74.4051 183.522 74.3784C183.396 74.302 183.355 74.137 183.432 74.0108L200.127 46.6648C200.174 46.5872 200.258 46.5387 200.349 46.5362C200.443 46.5338 200.526 46.5787 200.577 46.6539L219.189 73.9999C219.272 74.1224 219.241 74.2874 219.119 74.3711C218.997 74.4548 218.831 74.4221 218.747 74.3008L200.369 47.2981L183.891 74.2898C183.841 74.3723 183.752 74.4184 183.662 74.4184L183.661 74.4172Z" fill="black"/>
<path d="M229.789 65.3227C229.709 65.3227 229.63 65.2876 229.578 65.2196L218.032 50.3578L212.082 58.7052C211.996 58.8253 211.829 58.8544 211.708 58.7683C211.588 58.6834 211.56 58.516 211.645 58.3959L217.804 49.7548C217.853 49.6857 217.932 49.6445 218.017 49.642C218.105 49.6445 218.182 49.6784 218.234 49.7451L230 64.8921C230.091 65.0085 230.069 65.1759 229.952 65.2669C229.904 65.3045 229.847 65.3227 229.788 65.3227H229.789Z" fill="black"/>
<path d="M224.587 45.2688C222.377 45.2688 220.578 43.4758 220.578 41.2704C220.578 39.065 222.377 37.272 224.587 37.272C226.797 37.272 228.596 39.0662 228.596 41.2704C228.596 43.4746 226.799 45.2688 224.587 45.2688ZM224.587 37.8057C222.672 37.8057 221.114 39.3597 221.114 41.2704C221.114 43.1811 222.672 44.735 224.587 44.735C226.503 44.735 228.061 43.1811 228.061 41.2704C228.061 39.3597 226.503 37.8057 224.587 37.8057Z" fill="black"/>
<path d="M203.298 69.1366C203.116 69.1366 202.936 69.1233 202.758 69.0954C201.06 68.8309 199.757 67.3534 198.812 66.0954C198.674 65.9122 198.537 65.7266 198.4 65.5397C197.559 64.397 196.688 63.2154 195.535 62.5676C194.804 62.1576 193.879 62.0508 193.12 62.2922C192.693 62.4281 192.114 62.7375 191.781 63.4411C191.717 63.5745 191.558 63.6315 191.424 63.5684C191.29 63.5054 191.233 63.3464 191.297 63.213C191.625 62.5191 192.199 62.0241 192.957 61.7839C193.865 61.4952 194.928 61.6141 195.798 62.103C197.053 62.8078 197.957 64.0355 198.831 65.2243C198.968 65.4087 199.104 65.5931 199.24 65.7751C200.126 66.953 201.333 68.3335 202.84 68.5677C204.038 68.7521 205.407 68.1589 206.502 66.9785C207.525 65.8758 208.23 64.4467 208.911 63.065C208.976 62.9328 209.134 62.8782 209.269 62.9437C209.402 63.0092 209.457 63.1681 209.391 63.3015C208.693 64.7173 207.972 66.1815 206.895 67.3412C205.818 68.5022 204.533 69.1378 203.298 69.1378V69.1366Z" fill="black"/>
<path d="M145.225 120.361H24.3889V185.828H145.225V120.361Z" fill="white"/>
<path d="M145.225 186.095H24.389C24.2407 186.095 24.1215 185.976 24.1215 185.828V120.361C24.1215 120.213 24.2407 120.095 24.389 120.095H145.225C145.374 120.095 145.493 120.213 145.493 120.361V185.828C145.493 185.976 145.374 186.095 145.225 186.095ZM24.6566 185.56H144.958V120.627H24.6566V185.56Z" fill="black"/>
<path d="M99.2937 162.47C106.386 155.397 106.386 143.928 99.2937 136.855C92.2016 129.781 80.7032 129.781 73.6111 136.855C66.5191 143.928 66.5191 155.397 73.6111 162.47C80.7032 169.544 92.2016 169.544 99.2937 162.47Z" fill="#E2EAFF"/>
<path d="M81.7135 158.107V141.217L95.5341 149.662L81.7135 158.107Z" fill="white"/>
<path d="M140.581 178.346H29.0339C28.8856 178.346 28.7664 178.227 28.7664 178.079C28.7664 177.931 28.8856 177.812 29.0339 177.812H140.581C140.73 177.812 140.849 177.931 140.849 178.079C140.849 178.227 140.73 178.346 140.581 178.346Z" fill="black"/>
<path d="M54.5934 181.108C56.2709 180.415 57.0674 178.497 56.3726 176.824C55.6778 175.151 53.7546 174.357 52.0771 175.05C50.3997 175.743 49.6031 177.661 50.2979 179.334C50.9927 181.007 52.9159 181.801 54.5934 181.108Z" fill="white"/>
<path d="M53.3352 181.625C51.3746 181.625 49.78 180.035 49.78 178.079C49.78 176.123 51.3746 174.533 53.3352 174.533C55.2959 174.533 56.8904 176.123 56.8904 178.079C56.8904 180.035 55.2959 181.625 53.3352 181.625ZM53.3352 175.067C51.6701 175.067 50.3152 176.418 50.3152 178.079C50.3152 179.74 51.6701 181.091 53.3352 181.091C55.0003 181.091 56.3552 179.74 56.3552 178.079C56.3552 176.418 55.0003 175.067 53.3352 175.067Z" fill="black"/>
<path d="M280.052 186.376H167.24C167.091 186.376 166.972 186.257 166.972 186.109V116.058C166.972 115.91 167.091 115.791 167.24 115.791C167.388 115.791 167.507 115.91 167.507 116.058V185.842H280.052C280.201 185.842 280.32 185.961 280.32 186.109C280.32 186.257 280.201 186.376 280.052 186.376Z" fill="black"/>
<path d="M180.77 134.988H171.931V182.061H180.77V134.988Z" fill="#E2EAFF"/>
<path d="M194.681 156.769H185.843V182.06H194.681V156.769Z" fill="#E2EAFF"/>
<path d="M208.593 151.304H199.755V182.061H208.593V151.304Z" fill="#E2EAFF"/>
<path d="M222.505 137.826H213.667V182.06H222.505V137.826Z" fill="#E2EAFF"/>
<path d="M236.194 144.49H227.802V182.061H236.194V144.49Z" fill="#E2EAFF"/>
<path d="M250.33 125.733H241.491V182.061H250.33V125.733Z" fill="#E2EAFF"/>
<path d="M264.242 119.934H255.403V182.061H264.242V119.934Z" fill="#E2EAFF"/>
<path d="M278.154 116.058H269.315V182.061H278.154V116.058Z" fill="#E2EAFF"/>
<path d="M190.261 160.892C190.238 160.892 190.215 160.889 190.192 160.883L175.877 157.026C175.734 156.987 175.649 156.841 175.688 156.699C175.727 156.555 175.874 156.472 176.016 156.511L190.238 160.342L218.719 147.262L245.786 136.005L273.574 118.388L281.896 111.314C282.008 111.218 282.177 111.231 282.273 111.344C282.369 111.456 282.356 111.624 282.243 111.72L273.906 118.807C273.897 118.815 273.887 118.823 273.876 118.829L246.052 136.467C246.039 136.476 246.025 136.483 246.012 136.488L218.933 147.749L190.373 160.866C190.338 160.881 190.3 160.89 190.261 160.89V160.892Z" fill="black"/>
<path d="M218.086 151.175C220.085 151.175 221.706 149.528 221.706 147.497C221.706 145.466 220.085 143.819 218.086 143.819C216.087 143.819 214.467 145.466 214.467 147.497C214.467 149.528 216.087 151.175 218.086 151.175Z" fill="white"/>
<path d="M218.086 151.441C215.942 151.441 214.198 149.671 214.198 147.496C214.198 145.321 215.942 143.551 218.086 143.551C220.231 143.551 221.974 145.321 221.974 147.496C221.974 149.671 220.229 151.441 218.086 151.441ZM218.086 144.086C216.238 144.086 214.734 145.616 214.734 147.496C214.734 149.376 216.238 150.907 218.086 150.907C219.935 150.907 221.438 149.377 221.438 147.496C221.438 145.614 219.935 144.086 218.086 144.086Z" fill="black"/>
<path d="M245.91 139.922C247.909 139.922 249.53 138.276 249.53 136.244C249.53 134.213 247.909 132.566 245.91 132.566C243.911 132.566 242.29 134.213 242.29 136.244C242.29 138.276 243.911 139.922 245.91 139.922Z" fill="#5479F7"/>
<path d="M273.733 122.284C275.732 122.284 277.353 120.637 277.353 118.605C277.353 116.574 275.732 114.927 273.733 114.927C271.734 114.927 270.114 116.574 270.114 118.605C270.114 120.637 271.734 122.284 273.733 122.284Z" fill="white"/>
<path d="M273.734 122.549C271.589 122.549 269.845 120.78 269.845 118.604C269.845 116.429 271.589 114.659 273.734 114.659C275.878 114.659 277.621 116.429 277.621 118.604C277.621 120.78 275.877 122.549 273.734 122.549ZM273.734 115.194C271.885 115.194 270.381 116.724 270.381 118.604C270.381 120.485 271.885 122.016 273.734 122.016C275.582 122.016 277.086 120.486 277.086 118.604C277.086 116.723 275.582 115.194 273.734 115.194Z" fill="black"/>
<path d="M190.262 163.621C192.261 163.621 193.881 161.975 193.881 159.943C193.881 157.912 192.261 156.265 190.262 156.265C188.263 156.265 186.642 157.912 186.642 159.943C186.642 161.975 188.263 163.621 190.262 163.621Z" fill="white"/>
<path d="M190.262 163.889C188.119 163.889 186.374 162.119 186.374 159.943C186.374 157.768 188.119 155.998 190.262 155.998C192.405 155.998 194.149 157.768 194.149 159.943C194.149 162.119 192.405 163.889 190.262 163.889ZM190.262 156.532C188.413 156.532 186.91 158.062 186.91 159.942C186.91 161.823 188.413 163.354 190.262 163.354C192.11 163.354 193.614 161.824 193.614 159.942C193.614 158.061 192.11 156.532 190.262 156.532Z" fill="black"/>
<path d="M293.284 151.763C311.644 151.763 326.527 136.922 326.527 118.615C326.527 100.308 311.644 85.4666 293.284 85.4666C274.924 85.4666 260.041 100.308 260.041 118.615C260.041 136.922 274.924 151.763 293.284 151.763Z" fill="white"/>
<path d="M293.283 152.03C274.805 152.03 259.772 137.04 259.772 118.615C259.772 100.19 274.805 85.1995 293.283 85.1995C311.761 85.1995 326.795 100.19 326.795 118.615C326.795 137.04 311.762 152.03 293.283 152.03ZM293.283 85.7333C275.099 85.7333 260.307 100.484 260.307 118.615C260.307 136.746 275.099 151.496 293.283 151.496C311.466 151.496 326.259 136.746 326.259 118.615C326.259 100.484 311.465 85.7333 293.283 85.7333Z" fill="black"/>
<path d="M293.284 144.453C286.362 144.453 279.855 141.766 274.962 136.886C270.067 132.005 267.372 125.517 267.372 118.616C267.372 111.715 270.067 105.226 274.962 100.347C279.856 95.4662 286.363 92.7792 293.284 92.7792C300.204 92.7792 306.712 95.4662 311.606 100.347C316.5 105.227 319.195 111.715 319.195 118.616C319.195 125.517 316.5 132.006 311.606 136.886C306.712 141.766 300.204 144.453 293.284 144.453Z" fill="#5479F7"/>
<path d="M293.284 136.191C288.576 136.191 284.15 134.363 280.821 131.043C277.492 127.724 275.659 123.31 275.659 118.616C275.659 113.923 277.492 109.508 280.821 106.189C284.15 102.87 288.576 101.042 293.284 101.042C297.992 101.042 302.418 102.87 305.747 106.189C309.076 109.508 310.909 113.923 310.909 118.616C310.909 123.31 309.076 127.724 305.747 131.043C302.418 134.363 297.992 136.191 293.284 136.191Z" fill="white"/>
<path d="M293.284 128.274C290.697 128.274 288.264 127.27 286.434 125.445C284.605 123.62 283.596 121.195 283.596 118.615C283.596 116.035 284.603 113.61 286.434 111.785C288.263 109.961 290.696 108.956 293.284 108.956C295.872 108.956 298.304 109.961 300.134 111.785C301.963 113.61 302.972 116.035 302.972 118.615C302.972 121.195 301.965 123.62 300.134 125.445C298.305 127.27 295.872 128.274 293.284 128.274Z" fill="#5479F7"/>
<path d="M285.104 113.796L293.711 118.382L285.883 112.573L285.104 113.796Z" fill="black"/>
<path d="M255.871 94.4498L263.322 99.1627L263.422 93.9476C263.467 91.5966 262.279 89.3935 260.289 88.1343L256.044 85.4497L255.871 94.451V94.4498Z" fill="white"/>
<path d="M263.323 99.4293C263.274 99.4293 263.224 99.416 263.18 99.3881L255.729 94.6751C255.65 94.6254 255.603 94.538 255.605 94.4446L255.778 85.4433C255.78 85.3475 255.834 85.2589 255.919 85.2128C256.004 85.168 256.107 85.1704 256.189 85.2225L260.434 87.9072C262.49 89.2076 263.738 91.5234 263.692 93.9509L263.592 99.1661C263.59 99.2619 263.536 99.3505 263.451 99.3966C263.411 99.4172 263.367 99.4281 263.325 99.4281L263.323 99.4293ZM256.143 94.3039L263.064 98.682L263.156 93.9412C263.198 91.6994 262.045 89.5594 260.147 88.3584L256.303 85.9273L256.143 94.3039Z" fill="black"/>
<path d="M255.871 94.4497L263.322 99.1627L258.633 101.476C256.521 102.518 254.015 102.386 252.024 101.127L247.779 98.4421L255.871 94.4497Z" fill="white"/>
<path d="M255.645 102.434C254.329 102.434 253.017 102.07 251.881 101.352L247.636 98.6674C247.554 98.6153 247.507 98.5243 247.512 98.4272C247.517 98.3302 247.574 98.2453 247.66 98.2016L255.752 94.2092C255.836 94.168 255.936 94.1729 256.014 94.2226L263.465 98.9355C263.546 98.9877 263.593 99.0787 263.589 99.1757C263.584 99.2728 263.527 99.3577 263.44 99.4014L258.751 101.715C257.775 102.196 256.709 102.434 255.645 102.434ZM248.324 98.4697L252.168 100.901C254.068 102.102 256.5 102.23 258.515 101.236L262.779 99.1333L255.857 94.7551L248.326 98.4697H248.324Z" fill="black"/>
<path d="M280.045 111.156L257.629 96.9781C257.166 96.6851 257.03 96.073 257.323 95.612L257.545 95.2626C257.839 94.8006 258.452 94.6644 258.914 94.9568L281.33 109.134L280.045 111.157L280.045 111.156Z" fill="white"/>
<path d="M280.045 111.422C279.996 111.422 279.946 111.409 279.901 111.381L257.486 97.2045C257.202 97.0237 257.005 96.7447 256.932 96.4172C256.858 96.0896 256.917 95.7524 257.097 95.4697L257.32 95.1203C257.692 94.5344 258.474 94.3621 259.059 94.7321L281.475 108.91C281.535 108.947 281.577 109.008 281.593 109.077C281.609 109.146 281.596 109.219 281.558 109.279L280.272 111.301C280.221 111.381 280.135 111.425 280.046 111.425L280.045 111.422ZM257.772 96.7532L279.962 110.788L280.962 109.217L258.772 95.1822C258.434 94.9675 257.985 95.0694 257.771 95.4054L257.548 95.7548C257.445 95.9186 257.411 96.1114 257.454 96.3007C257.496 96.4899 257.609 96.6501 257.772 96.7532Z" fill="black"/>
<path d="M283.43 114.217L274.057 108.289L276.178 104.953L285.551 110.881C286.314 111.364 286.542 112.374 286.057 113.136L285.69 113.713C285.206 114.474 284.194 114.701 283.429 114.218L283.43 114.217Z" fill="white"/>
<path d="M284.303 114.738C283.954 114.738 283.601 114.643 283.286 114.443L273.912 108.514C273.853 108.477 273.81 108.416 273.794 108.347C273.779 108.278 273.792 108.205 273.83 108.145L275.952 104.809C276.031 104.684 276.197 104.648 276.322 104.727L285.694 110.655C286.125 110.927 286.423 111.35 286.534 111.845C286.644 112.34 286.556 112.85 286.283 113.278L285.916 113.854C285.553 114.425 284.934 114.736 284.303 114.736V114.738ZM274.426 108.207L283.573 113.993C284.212 114.397 285.06 114.207 285.465 113.57L285.832 112.994C286.028 112.686 286.092 112.32 286.012 111.963C285.932 111.606 285.718 111.303 285.409 111.108L276.262 105.323L274.427 108.207H274.426Z" fill="black"/>
<path d="M87.3667 6.64055C85.6992 3.40882 82.5211 1.42902 79.0304 0.656263C75.0665 -0.220818 71.0005 0.491279 67.185 1.69347C63.0071 3.01092 59.0092 4.8876 54.74 5.9139C52.6626 6.4137 50.5439 6.68787 48.4044 6.5981C46.4024 6.51439 44.4211 6.16259 42.4775 5.68583C38.5331 4.71777 34.7176 3.2778 30.7404 2.43833C27.1281 1.67649 23.4975 1.53213 19.8875 2.3801C13.26 3.93531 7.33067 8.40563 4.12091 14.4069C0.888034 20.4519 0.787084 27.8276 3.33884 34.1346C4.60863 37.2741 6.51211 40.1722 8.9921 42.4941C11.7944 45.1181 15.2304 46.9766 18.8476 48.2237C22.5427 49.4986 26.4287 50.1489 30.3184 50.4497C34.742 50.7918 39.196 50.7069 43.6038 50.2095C47.8486 49.7316 52.0958 48.8981 56.1679 47.5989C59.0785 46.6697 61.9854 45.4299 64.3912 43.5168C64.4739 43.5447 64.5651 43.5325 64.6247 43.4488C64.6989 43.3433 64.7756 43.2414 64.851 43.1383C64.9884 43.0206 65.1246 42.9017 65.2584 42.7804C66.2387 41.8827 67.0731 40.8588 67.7494 39.7258C72.3128 35.0274 78.0513 31.5009 82.5478 26.7115C85.1482 23.942 87.3485 20.7175 88.296 17.0018C89.1656 13.5881 89.0014 9.80678 87.368 6.64055H87.3667Z" fill="black"/>
<path d="M85.6859 84.4752C85.6859 84.4752 97.4984 99.7083 113.671 104.574C128.73 109.104 153.906 103.343 167.385 97.4058C169.108 96.6463 171.002 96.3419 172.871 96.5772C175.995 96.9715 180.591 96.9314 179.569 93.0228C179.569 93.0228 185.097 91.6144 182.578 87.2387C182.578 87.2387 186.188 84.9119 182.171 83.0607C182.171 83.0607 192.748 82.8302 194.677 81.4521C196.606 80.0728 198.458 76.647 183.838 76.7925C169.218 76.9369 125.504 78.3162 125.504 78.3162L103.951 56.9581L85.6883 84.474L85.6859 84.4752Z" fill="white"/>
<path d="M126.603 106.475C121.877 106.475 117.427 105.983 113.593 104.83C97.5251 99.9959 85.5922 84.792 85.4743 84.6391C85.4037 84.5494 85.4001 84.4232 85.4633 84.3286L103.726 56.8127C103.77 56.746 103.843 56.7024 103.922 56.6939C104.001 56.6866 104.081 56.7133 104.138 56.7703L125.61 78.0471C128.119 77.9682 169.745 76.6666 183.835 76.5271C191.433 76.4531 195.58 77.3253 196.17 79.1231C196.434 79.931 195.936 80.8833 194.832 81.6707C193.193 82.8425 185.845 83.2052 183.155 83.3011C183.893 83.796 184.288 84.3613 184.333 84.9861C184.411 86.0767 183.381 86.9792 182.929 87.3201C183.561 88.5138 183.674 89.6105 183.262 90.5822C182.567 92.2223 180.595 92.9829 179.888 93.2098C180.109 94.2616 179.939 95.1144 179.382 95.7476C178.123 97.1767 175.129 97.1318 172.838 96.8443C171.053 96.6199 169.204 96.8977 167.494 97.6522C157.65 101.988 140.875 106.476 126.605 106.476L126.603 106.475ZM86.0155 84.4608C87.2938 86.05 98.6989 99.7909 113.748 104.318C129.026 108.914 154.246 102.9 167.275 97.1621C169.075 96.37 171.021 96.0764 172.903 96.3129C175.959 96.6987 178.116 96.3724 178.977 95.3946C179.454 94.8523 179.566 94.0784 179.308 93.0921C179.29 93.023 179.301 92.9502 179.336 92.8895C179.372 92.8289 179.431 92.784 179.5 92.767C179.526 92.7609 182.037 92.0986 182.767 90.3735C183.133 89.5074 182.991 88.4993 182.344 87.3747C182.273 87.2522 182.311 87.0945 182.43 87.0181C182.445 87.0084 183.87 86.0718 183.796 85.0237C183.751 84.3953 183.166 83.8179 182.057 83.3059C181.943 83.2538 181.881 83.1312 181.907 83.0087C181.933 82.8874 182.038 82.7989 182.164 82.7964C185.793 82.7176 193.047 82.2893 194.519 81.2376C195.216 80.739 195.881 79.9662 195.659 79.2893C195.374 78.4159 193.463 76.9613 183.838 77.0608C169.388 77.204 125.947 78.5699 125.511 78.5845C125.44 78.5906 125.366 78.559 125.313 78.5069L103.991 57.3793L86.0167 84.462L86.0155 84.4608Z" fill="black"/>
<path d="M161.984 91.0224C160.873 91.0224 159.765 90.764 158.798 90.2375C158.667 90.1671 158.62 90.0046 158.691 89.8748C158.761 89.7462 158.924 89.6977 159.054 89.768C161.105 90.8853 163.846 90.6912 165.719 89.2973C166.106 89.0098 166.472 88.6653 166.825 88.3329C167.396 87.7967 167.985 87.2411 168.709 86.8711C170.063 86.1772 171.612 86.2379 173.11 86.2961L173.173 86.2985C173.817 86.3228 174.35 86.3288 174.842 86.1444C175.277 85.9807 175.727 85.5876 175.749 85.0818C175.785 84.2277 174.641 83.717 173.955 83.4877C170.627 82.3777 167.174 81.5904 163.693 81.1452C163.546 81.127 163.443 80.9924 163.462 80.8468C163.482 80.7012 163.617 80.5993 163.761 80.6163C167.276 81.0651 170.763 81.8609 174.125 82.9819C175.576 83.4659 176.323 84.1998 176.284 85.1048C176.251 85.8545 175.631 86.4174 175.03 86.6443C174.399 86.882 173.708 86.8553 173.151 86.8323L173.088 86.8299C171.659 86.7741 170.181 86.7158 168.954 87.3466C168.298 87.6827 167.76 88.1873 167.192 88.7223C166.828 89.0644 166.45 89.4186 166.039 89.7256C164.888 90.5832 163.434 91.0224 161.986 91.0224H161.984Z" fill="black"/>
<path d="M176.226 84.822C176.111 84.822 176.005 84.748 175.97 84.634C175.926 84.4932 176.007 84.344 176.148 84.3004L179.027 83.4184C179.169 83.3748 179.317 83.4548 179.361 83.5955C179.405 83.7363 179.325 83.8855 179.184 83.9291L176.305 84.8111C176.278 84.8196 176.252 84.8232 176.226 84.8232V84.822Z" fill="black"/>
<path d="M174.844 89.7341C174.113 89.7341 173.292 89.6273 172.638 89.1433C172.177 88.8024 171.865 88.231 171.825 87.6524C171.792 87.1878 171.941 86.7692 172.241 86.4732C172.346 86.3689 172.516 86.3713 172.62 86.4756C172.723 86.58 172.722 86.7498 172.617 86.8529C172.376 87.0895 172.343 87.3976 172.359 87.6148C172.388 88.0357 172.623 88.4676 172.958 88.7139C173.621 89.2052 174.553 89.2246 175.292 89.187C177.779 89.0608 180.216 88.3062 182.338 87.0058C182.463 86.9294 182.628 86.9682 182.706 87.0931C182.784 87.2193 182.744 87.3831 182.619 87.4607C180.42 88.8073 177.896 89.5885 175.32 89.7195C175.168 89.7268 175.008 89.7329 174.845 89.7329L174.844 89.7341Z" fill="black"/>
<path d="M176.119 93.457C175.847 93.457 175.576 93.4522 175.305 93.4425C174.541 93.4146 173.752 93.3236 173.142 92.8553C172.602 92.4405 172.287 91.7611 172.318 91.083C172.349 90.4036 172.726 89.7558 173.302 89.3931C173.427 89.3143 173.592 89.3506 173.672 89.4756C173.751 89.6005 173.714 89.7655 173.589 89.8444C173.158 90.1161 172.876 90.6002 172.853 91.1084C172.83 91.6155 173.066 92.1238 173.47 92.4344C173.96 92.8104 174.651 92.8857 175.326 92.9111C176.973 92.9718 178.628 92.842 180.243 92.5241C180.388 92.4962 180.529 92.5897 180.558 92.734C180.586 92.8784 180.492 93.0191 180.348 93.0482C178.957 93.3212 177.538 93.4595 176.12 93.4595L176.119 93.457Z" fill="black"/>
<path d="M173.652 96.9546C172.998 96.9546 172.372 96.433 172.219 95.7354C172.084 95.1155 172.298 94.418 172.792 93.8696C173.256 93.3553 173.873 93.0484 174.361 92.8385C174.496 92.7791 174.654 92.8421 174.713 92.978C174.771 93.1139 174.709 93.2704 174.573 93.3286C174.136 93.5166 173.584 93.7896 173.19 94.2263C172.816 94.64 172.645 95.1749 172.742 95.6214C172.847 96.0993 173.298 96.4669 173.726 96.416C173.871 96.4002 174.005 96.5057 174.022 96.6525C174.038 96.7993 173.932 96.9315 173.785 96.9473C173.741 96.9522 173.697 96.9546 173.652 96.9546Z" fill="black"/>
<path d="M86.9775 90.2033L111.773 62.1986C111.773 62.1986 96.085 40.4378 65.6208 35.8765C35.1566 31.3151 12.1702 57.7768 2.33533 76.853L28.1691 86.6635L21.1378 112.147H64.784L84.2542 88.1519L86.9775 90.2045V90.2033Z" fill="#5479F7"/>
<path d="M36.0263 89.5288C35.991 89.5288 35.957 89.5215 35.9229 89.5082C35.7867 89.4512 35.7222 89.2947 35.7794 89.1588C37.9809 83.9339 40.7224 78.9104 43.9273 74.2302C44.0112 74.1077 44.1778 74.0774 44.2994 74.1599C44.4211 74.2436 44.4527 74.4086 44.37 74.5311C41.1858 79.1834 38.4613 84.1741 36.2732 89.3663C36.2306 89.4682 36.1309 89.53 36.0263 89.53V89.5288Z" fill="black"/>
<path d="M4.75099 77.7704C4.75099 77.7704 28.275 84.4825 34.1302 90.2036L32.1136 97.5126C32.1136 97.5126 56.6107 141.204 59.199 146.452C61.7884 151.699 64.086 154.818 61.9867 156.102C59.8874 157.387 56.8661 153.112 54.6793 150.788C54.6793 150.788 54.8228 154.643 50.5536 153.01C50.5536 153.01 49.5308 155.405 46.4925 155.211C46.4925 155.211 45.1157 157.15 42.1966 155.879C38.8105 154.404 11.9879 126.803 5.50143 112.59C-0.984987 98.3775 -1.68191 89.1324 4.74977 77.7716L4.75099 77.7704Z" fill="white"/>
<path d="M61.1462 156.609C59.4374 156.609 57.4901 154.38 55.7387 152.373C55.448 152.041 55.1682 151.72 54.8994 151.421C54.8094 151.976 54.5601 152.766 53.8753 153.254C53.1212 153.791 52.0485 153.82 50.6826 153.341C50.3274 153.953 49.1318 155.588 46.6141 155.484C46.2298 155.911 44.7338 157.275 42.092 156.123C40.2214 155.308 32.3095 147.553 24.8147 139.189C19.1323 132.847 9.03594 120.972 5.26061 112.701C-1.52501 97.834 -1.7184 88.6592 4.5199 77.6405C4.59287 77.5119 4.75586 77.467 4.88478 77.5386C5.01371 77.6114 5.05871 77.7739 4.98695 77.9025C-1.15283 88.7478 -0.953361 97.7952 5.74956 112.48C12.2469 126.716 39.1413 154.255 42.3085 155.635C44.9965 156.806 46.2663 155.075 46.2784 155.058C46.3319 154.983 46.422 154.944 46.5144 154.946C49.3289 155.127 50.3019 152.93 50.3116 152.907C50.3676 152.775 50.5196 152.712 50.6534 152.763C51.9451 153.256 52.9242 153.277 53.564 152.823C54.4518 152.192 54.4166 150.813 54.4153 150.8C54.4117 150.688 54.4774 150.586 54.5795 150.544C54.6829 150.501 54.8009 150.527 54.8775 150.607C55.2765 151.031 55.6985 151.514 56.1437 152.025C58.0058 154.158 60.324 156.812 61.8492 155.877C63.2674 155.009 62.3808 153.157 60.4043 149.385C59.9628 148.543 59.4641 147.59 58.9618 146.572C57.3916 143.389 47.8207 126.166 40.0681 112.28C39.9963 112.151 40.0426 111.989 40.1715 111.917C40.3004 111.847 40.4634 111.892 40.5352 112.02C48.2902 125.913 57.8659 143.143 59.4422 146.337C59.9421 147.348 60.4396 148.3 60.8787 149.139C62.7797 152.769 64.0349 155.166 62.129 156.333C61.8128 156.526 61.4844 156.613 61.1475 156.613L61.1462 156.609Z" fill="black"/>
<path d="M46.5764 155.41C46.5241 155.41 46.4706 155.394 46.4232 155.361C44.8347 154.254 43.4348 152.811 42.3754 151.192C42.2951 151.068 42.3292 150.903 42.4533 150.822C42.5761 150.742 42.7427 150.776 42.8242 150.899C43.8459 152.462 45.196 153.853 46.7297 154.922C46.8513 155.007 46.8805 155.173 46.7954 155.293C46.7431 155.367 46.6604 155.407 46.5752 155.407L46.5764 155.41Z" fill="black"/>
<path d="M50.8187 153.173C50.7677 153.173 50.7166 153.158 50.6716 153.128C49.2485 152.189 48.0821 150.895 47.2952 149.385C47.2271 149.254 47.2781 149.093 47.4095 149.025C47.5409 148.957 47.7026 149.008 47.7707 149.139C48.5151 150.568 49.6207 151.795 50.9671 152.683C51.09 152.764 51.124 152.93 51.0425 153.053C50.9915 153.13 50.9063 153.173 50.8187 153.173Z" fill="black"/>
<path d="M54.875 151.136C54.7899 151.136 54.706 151.095 54.6537 151.02L51.3381 146.167C51.2542 146.045 51.2858 145.88 51.4086 145.796C51.5315 145.712 51.6969 145.744 51.7808 145.866L55.0964 150.719C55.1803 150.841 55.1487 151.006 55.0259 151.09C54.9796 151.121 54.9273 151.136 54.875 151.136Z" fill="black"/>
<path d="M77.0818 88.7416C76.1063 88.7416 75.1333 88.6288 74.1858 88.3947C74.0423 88.3595 73.9547 88.2139 73.99 88.0708C74.0253 87.9276 74.1724 87.8403 74.3135 87.8755C78.2287 88.8435 82.6256 87.6595 85.5203 84.8585C88.4139 82.0586 89.7335 77.7096 88.8833 73.7779C88.8517 73.6335 88.9441 73.4916 89.0889 73.4601C89.2336 73.4297 89.3759 73.5207 89.4075 73.6651C90.2966 77.7715 88.9174 82.3158 85.8949 85.2418C83.5718 87.4897 80.3195 88.7416 77.083 88.7416H77.0818Z" fill="black"/>
<path d="M56.1181 88.9344C52.1798 88.9344 48.2171 87.2652 45.5547 84.3755C45.455 84.2663 45.4623 84.0977 45.5705 83.9982C45.6788 83.8988 45.849 83.9048 45.9488 84.014C49.0223 87.3513 53.8984 88.9963 58.3755 88.2053C58.5239 88.1798 58.6601 88.2769 58.6857 88.4213C58.7112 88.5668 58.6151 88.7051 58.4692 88.7306C57.6944 88.8677 56.9062 88.9344 56.1193 88.9344H56.1181Z" fill="black"/>
<path d="M72.1646 42.0808C72.1646 42.0808 76.8363 48.3453 70.2866 51.5892C63.7369 54.8343 51.6569 42.9712 57.6945 37.659C63.2967 32.7301 64.7842 32.8441 64.7842 32.8441L67.5609 28.5182L76.1637 38.8078L72.1646 42.0808Z" fill="white"/>
<path d="M68.8684 44.5398C68.782 44.5398 68.6969 44.4986 68.6458 44.4209C68.5643 44.2984 68.5972 44.1322 68.72 44.0509L71.2182 42.3902C71.3411 42.3089 71.5077 42.3417 71.5892 42.4642C71.6707 42.5867 71.6379 42.7529 71.515 42.8342L69.0168 44.495C68.9706 44.5253 68.9195 44.5398 68.8684 44.5398Z" fill="black"/>
<path d="M65.6208 28.7443C65.6208 28.7443 68.3939 26.6675 68.1786 21.3661C68.1786 21.3661 72.5597 16.214 80.1724 15.5311C80.1724 15.5311 86.4484 29.1374 85.6079 35.4953C84.7675 41.8532 75.559 47.3425 65.6208 35.8774C65.6208 35.8774 58.8254 36.5555 57.254 31.1099C55.6826 25.6642 61.6983 23.6225 65.6208 28.7443Z" fill="white"/>
<path d="M77.2313 42.8124C74.3244 42.8124 70.1903 41.5132 65.5064 36.1524C64.5042 36.2106 58.4836 36.3344 56.9973 31.1835C56.3162 28.824 56.9754 26.8163 58.7147 25.9428C60.443 25.0755 63.3244 25.477 65.656 28.3557C66.2666 27.7637 68.0849 25.6323 67.9122 21.3767C67.9098 21.31 67.9317 21.2445 67.9754 21.1935C68.0204 21.1413 72.5158 15.9504 80.1492 15.265C80.2647 15.2541 80.3693 15.3172 80.4168 15.4191C80.6746 15.9771 86.7159 29.1685 85.8754 35.5301C85.4546 38.7133 83.0391 41.4877 79.8646 42.4363C79.1677 42.645 78.2798 42.8136 77.2338 42.8136L77.2313 42.8124ZM65.6207 35.6101C65.6986 35.6101 65.7715 35.6441 65.8238 35.7023C72.0366 42.8694 77.1912 42.6778 79.7101 41.9244C82.6864 41.0364 84.9498 38.4379 85.3439 35.4597C86.1138 29.6343 80.7269 17.411 80.0081 15.8146C73.2115 16.4975 69.0239 20.8344 68.451 21.4628C68.6286 26.7629 65.8993 28.8689 65.7825 28.9574C65.6657 29.046 65.4991 29.0229 65.4091 28.9065C63.2332 26.0654 60.5391 25.625 58.9555 26.4196C57.4595 27.1705 56.9073 28.9392 57.5118 31.0355C59.0042 36.207 65.5283 35.6174 65.5952 35.6101C65.6037 35.6101 65.6134 35.6089 65.6219 35.6089L65.6207 35.6101Z" fill="black"/>
<path d="M64.7841 33.1112C64.7099 33.1112 64.6369 33.0808 64.5834 33.0214C63.6457 31.966 62.3029 31.2599 60.9005 31.0828C60.7534 31.0646 60.65 30.93 60.6682 30.7844C60.6865 30.6388 60.8203 30.5369 60.9674 30.5527C62.4963 30.7456 63.9607 31.5171 64.9836 32.6672C65.0821 32.7776 65.0712 32.9462 64.9605 33.0444C64.9094 33.0893 64.8461 33.1112 64.7829 33.1112H64.7841Z" fill="black"/>
</svg>
