<svg width="248" height="234" viewBox="0 0 248 234" fill="none" xmlns="http://www.w3.org/2000/svg">
<g clip-path="url(#clip0_483_7561)">
<path d="M175.335 230.905H246.994" stroke="#263238" stroke-width="0.514868" stroke-linecap="round" stroke-linejoin="round"/>
<path d="M10.3246 230.905H170.639" stroke="#263238" stroke-width="0.514868" stroke-linecap="round" stroke-linejoin="round"/>
<path d="M14.5363 124.647C14.5363 124.647 12.7703 129.507 9.01687 130.166C5.26348 130.831 -1.36286 123.54 2.83331 119.787C7.02948 116.033 12.7703 121.995 14.5363 124.647Z" fill="#5479F7" stroke="#263238" stroke-width="0.514868" stroke-linecap="round" stroke-linejoin="round"/>
<path d="M20.277 100.799C20.277 100.799 14.7576 114.268 16.9664 120.894C19.1752 127.52 32.8655 132.376 36.8403 123.767C40.8151 115.153 31.98 103.008 28.6694 100.361C25.3588 97.7096 21.384 98.5952 20.277 100.804V100.799Z" fill="#5479F7" stroke="#263238" stroke-width="0.514868" stroke-linecap="round" stroke-linejoin="round"/>
<path d="M52.5182 106.539C52.5182 106.539 43.024 115.153 41.917 123.762C40.8152 132.376 47.215 135.465 53.8414 134.363C60.4677 133.261 63.7783 116.476 61.7909 108.748C59.8035 101.02 52.5182 106.539 52.5182 106.539Z" fill="#5479F7" stroke="#263238" stroke-width="0.514868" stroke-linecap="round" stroke-linejoin="round"/>
<path d="M54.2839 154.236C54.2839 154.236 43.6828 154.679 43.2451 159.756C42.8023 164.832 47.8841 165.939 52.9607 161.522C58.0373 157.104 58.7015 154.458 54.2839 154.236Z" fill="#5479F7" stroke="#263238" stroke-width="0.514868" stroke-linecap="round" stroke-linejoin="round"/>
<path d="M43.4202 160.97C43.4202 160.97 51.7713 157.15 55.535 156.486" stroke="#263238" stroke-width="0.514868" stroke-miterlimit="10"/>
<path d="M56.6472 187.471C56.6472 187.471 48.8624 180.263 44.9494 183.532C41.0364 186.802 43.8321 191.178 50.546 191.667C57.2599 192.156 59.6077 190.756 56.6472 187.471Z" fill="#5479F7" stroke="#263238" stroke-width="0.514868" stroke-linecap="round" stroke-linejoin="round"/>
<path d="M44.2133 184.51C44.2133 184.51 52.8115 187.738 55.9368 189.942" stroke="#263238" stroke-width="0.514868" stroke-miterlimit="10"/>
<path d="M15.5762 185.35C15.5762 185.35 26.3112 175.418 31.7019 179.923C37.0977 184.428 33.2413 190.468 23.9892 191.137C14.737 191.812 11.5036 189.881 15.5762 185.35Z" fill="#5479F7" stroke="#263238" stroke-width="0.514868" stroke-linecap="round" stroke-linejoin="round"/>
<path d="M32.7161 181.267C32.7161 181.267 20.8639 185.721 16.5544 188.753" stroke="#263238" stroke-width="0.514868" stroke-miterlimit="10"/>
<path d="M28.0052 164.838C28.0052 164.838 26.9034 170.136 22.9286 172.123C18.9538 174.111 11.8898 169.914 15.6432 163.51C19.3966 157.105 26.023 162.186 28.0104 164.833L28.0052 164.838Z" fill="#5479F7" stroke="#263238" stroke-width="0.514868" stroke-linecap="round" stroke-linejoin="round"/>
<path d="M18.7324 148.274C18.7324 148.274 16.745 143.857 9.01683 146.73C1.28867 149.603 -1.80569 154.015 3.05467 155.565C7.91502 157.109 18.7324 148.28 18.7324 148.28V148.274Z" fill="#5479F7" stroke="#263238" stroke-width="0.514868" stroke-linecap="round" stroke-linejoin="round"/>
<path d="M17.2548 148.074C17.2548 148.074 9.06837 148.959 4.6405 152.723" stroke="#263238" stroke-width="0.514868" stroke-miterlimit="10"/>
<path d="M40.8151 95.2789C40.8151 95.2789 42.1383 98.3682 44.7898 97.7091C47.4414 97.0449 48.1004 93.0702 52.2966 94.1771C56.4928 95.2789 60.0248 100.139 60.0248 97.9305C60.0248 95.7217 54.7268 89.981 48.7646 89.981C42.8025 89.981 41.0365 92.4111 40.8151 95.2789Z" fill="#5479F7" stroke="#263238" stroke-width="0.514868" stroke-linecap="round" stroke-linejoin="round"/>
<path d="M18.7325 148.275C18.7325 148.275 28.2422 146.447 32.2015 157.007C32.5876 158.042 32.9172 159.128 33.1952 160.24" stroke="#263238" stroke-width="0.514868" stroke-miterlimit="10"/>
<path d="M58.4133 138.049C58.4133 138.049 60.4007 133.632 68.1289 136.505C75.8571 139.378 78.9514 143.79 74.0911 145.34C69.2307 146.884 58.4133 138.054 58.4133 138.054V138.049Z" fill="#5479F7" stroke="#263238" stroke-width="0.514868" stroke-linecap="round" stroke-linejoin="round"/>
<path d="M60.1793 138.338C60.1793 138.338 68.1443 137.895 71.908 142.544" stroke="#263238" stroke-width="0.514868" stroke-miterlimit="10"/>
<path d="M58.4133 138.049C58.4133 138.049 55.2623 137.442 51.8333 138.945" stroke="#263238" stroke-width="0.514868" stroke-miterlimit="10"/>
<path d="M23.7987 130.126C19.1391 125.368 14.5362 124.647 14.5362 124.647C14.5362 124.647 7.73482 122.85 5.08325 125.281" stroke="#263238" stroke-width="0.514868" stroke-miterlimit="10"/>
<path d="M24.7461 105.664L24.3342 103.821" stroke="#263238" stroke-width="0.514868" stroke-miterlimit="10"/>
<path d="M35.5018 203.288C35.5018 203.288 36.4903 165.26 35.5018 153.711C34.5132 142.163 29.8949 128.632 29.8949 128.632L25.189 107.62" stroke="#263238" stroke-width="0.514868" stroke-miterlimit="10"/>
<path d="M55.1234 113.829L55.9781 112.007" stroke="#263238" stroke-width="0.514868" stroke-miterlimit="10"/>
<path d="M37.8082 203.247C37.8082 203.247 38.1377 168.56 39.4558 158.659C40.7739 148.759 46.0564 133.251 46.0564 133.251L54.1604 115.895" stroke="#263238" stroke-width="0.514868" stroke-miterlimit="10"/>
<path d="M43.4203 160.971C43.4203 160.971 41.1086 180.855 39.7905 203.293" stroke="#263238" stroke-width="0.514868" stroke-miterlimit="10"/>
<path d="M32.2015 203.247C32.2015 203.247 32.8605 171.531 31.5424 167.242C30.2244 162.953 28.0104 164.843 28.0104 164.843C28.0104 164.843 21.9041 165.564 19.6902 169.101" stroke="#263238" stroke-width="0.514868" stroke-miterlimit="10"/>
<path d="M33.7151 162.711C35.4399 172.385 33.849 203.277 33.849 203.277" stroke="#263238" stroke-width="0.514868" stroke-miterlimit="10"/>
<path d="M49.9644 139.98C48.0542 141.288 46.2162 143.399 44.9496 146.781C40.9902 157.341 41.4433 203.293 41.4433 203.293" stroke="#263238" stroke-width="0.514868" stroke-miterlimit="10"/>
<path d="M24.952 131.387C27.0166 133.807 29.0143 137.081 30.5538 141.504C35.8312 156.682 37.8134 195.987 36.8249 203.247" stroke="#263238" stroke-width="0.514868" stroke-miterlimit="10"/>
<path d="M38.3591 145.592C38.0399 164.751 37.8082 203.247 37.8082 203.247" stroke="#263238" stroke-width="0.514868" stroke-miterlimit="10"/>
<path d="M38.4004 143.208C38.6166 130.542 38.8741 118.144 39.1315 111.477C39.7905 94.316 40.8151 95.2788 40.8151 95.2788C40.8151 95.2788 42.0354 91.4276 48.8985 91.8704" stroke="#263238" stroke-width="0.514868" stroke-miterlimit="10"/>
<path d="M29.9462 157.671C29.9462 157.671 24.4268 152.748 26.6356 150.329C28.8444 147.909 42.5347 146.132 46.5095 149.278C50.4843 152.424 41.6491 156.862 38.3385 157.835C35.0279 158.803 31.0532 158.479 29.9462 157.676V157.671Z" fill="#5479F7" stroke="#263238" stroke-width="0.514868" stroke-linecap="round" stroke-linejoin="round"/>
<path d="M35.0486 153.639C34.9714 154.139 34.925 154.633 34.925 155.107" stroke="#263238" stroke-width="0.514868" stroke-miterlimit="10"/>
<path d="M36.9434 147.894C36.9434 147.894 36.1196 149.536 35.5275 151.549" stroke="#263238" stroke-width="0.514868" stroke-miterlimit="10"/>
<path d="M29.9462 189.86C29.9462 189.86 24.4268 184.938 26.6356 182.518C28.8444 180.098 42.5347 178.322 46.5095 181.468C50.4843 184.614 41.6491 189.052 38.3385 190.025C35.0279 190.998 31.0532 190.668 29.9462 189.865V189.86Z" fill="#5479F7" stroke="#263238" stroke-width="0.514868" stroke-linecap="round" stroke-linejoin="round"/>
<path d="M36.9433 180.083C36.9433 180.083 34.925 184.125 34.925 187.301" stroke="#263238" stroke-width="0.514868" stroke-miterlimit="10"/>
<path d="M34.06 176.247C34.06 176.247 30.3117 172.905 31.81 171.263C33.3083 169.621 42.6068 168.416 45.3047 170.553C48.0026 172.689 42.0044 175.701 39.7595 176.36C37.5147 177.019 34.8117 176.798 34.06 176.252V176.247Z" fill="#5479F7" stroke="#263238" stroke-width="0.514868" stroke-linecap="round" stroke-linejoin="round"/>
<path d="M38.8071 169.605C38.8071 169.605 37.4375 172.349 37.4375 174.507" stroke="#263238" stroke-width="0.514868" stroke-miterlimit="10"/>
<path d="M43.8167 197.769H28.8752V230.905H43.8167V197.769Z" fill="white" stroke="#263238" stroke-width="0.514868" stroke-linecap="round" stroke-linejoin="round"/>
<path d="M138.496 137.184H185.39C186.631 137.184 187.64 138.193 187.64 139.434V180.114C187.64 181.355 186.631 182.364 185.39 182.364H138.496C137.255 182.364 136.246 181.355 136.246 180.114V139.434C136.246 138.193 137.255 137.184 138.496 137.184Z" fill="#263238" stroke="#263238" stroke-width="0.514868" stroke-linecap="round" stroke-linejoin="round"/>
<path d="M136.864 134.739H183.758C184.999 134.739 186.008 135.748 186.008 136.989V177.668C186.008 178.909 184.999 179.918 183.758 179.918H136.864C135.623 179.918 134.614 178.909 134.614 177.668V136.989C134.614 135.748 135.623 134.739 136.864 134.739Z" fill="white" stroke="#263238" stroke-width="0.514868" stroke-linecap="round" stroke-linejoin="round"/>
<path d="M186.008 140.449V136.989C186.008 135.748 184.999 134.739 183.758 134.739H136.864C135.623 134.739 134.614 135.748 134.614 136.989V140.449H186.008Z" fill="#5479F7" stroke="#263238" stroke-width="0.514868" stroke-linecap="round" stroke-linejoin="round"/>
<path d="M172.451 139.115C173.21 139.115 173.826 138.5 173.826 137.74C173.826 136.981 173.21 136.366 172.451 136.366C171.692 136.366 171.077 136.981 171.077 137.74C171.077 138.5 171.692 139.115 172.451 139.115Z" fill="white" stroke="#263238" stroke-width="0.514868" stroke-linecap="round" stroke-linejoin="round"/>
<path d="M178.187 137.74C178.187 136.978 177.569 136.366 176.812 136.366C176.055 136.366 175.438 136.984 175.438 137.74C175.438 138.497 176.055 139.115 176.812 139.115C177.569 139.115 178.187 138.497 178.187 137.74Z" fill="white" stroke="#263238" stroke-width="0.514868" stroke-linecap="round" stroke-linejoin="round"/>
<path d="M181.168 139.115C181.927 139.115 182.543 138.5 182.543 137.74C182.543 136.981 181.927 136.366 181.168 136.366C180.409 136.366 179.793 136.981 179.793 137.74C179.793 138.5 180.409 139.115 181.168 139.115Z" fill="white" stroke="#263238" stroke-width="0.514868" stroke-linecap="round" stroke-linejoin="round"/>
<path d="M179.639 143.548H141.595C140.946 143.548 140.416 144.074 140.416 144.727V159.164L143.16 154.865H179.634C180.282 154.865 180.813 154.34 180.813 153.686V144.727C180.813 144.079 180.287 143.548 179.634 143.548H179.639Z" stroke="#263238" stroke-width="0.514868" stroke-miterlimit="10"/>
<path d="M141.595 161.599H179.639C180.287 161.599 180.818 162.124 180.818 162.778V177.215L178.074 172.916H141.6C140.952 172.916 140.421 172.391 140.421 171.737V162.778C140.421 162.129 140.946 161.599 141.6 161.599H141.595Z" stroke="#263238" stroke-width="0.514868" stroke-miterlimit="10"/>
<path d="M147.367 152.573C149.266 152.573 150.806 151.034 150.806 149.134C150.806 147.235 149.266 145.695 147.367 145.695C145.467 145.695 143.928 147.235 143.928 149.134C143.928 151.034 145.467 152.573 147.367 152.573Z" fill="#5479F7" stroke="#263238" stroke-width="0.514868" stroke-linecap="round" stroke-linejoin="round"/>
<path d="M147.367 149.567C148.157 149.567 148.798 148.926 148.798 148.135C148.798 147.345 148.157 146.704 147.367 146.704C146.576 146.704 145.936 147.345 145.936 148.135C145.936 148.926 146.576 149.567 147.367 149.567Z" fill="white" stroke="#263238" stroke-width="0.514868" stroke-linecap="round" stroke-linejoin="round"/>
<path d="M147.367 152.573C148.119 152.573 148.808 152.331 149.375 151.92C149.359 150.823 148.469 149.932 147.367 149.932C146.265 149.932 145.369 150.818 145.359 151.92C145.925 152.326 146.615 152.573 147.367 152.573Z" fill="white" stroke="#263238" stroke-width="0.514868" stroke-linecap="round" stroke-linejoin="round"/>
<path d="M153.242 146.271H164.929" stroke="#263238" stroke-width="0.514868" stroke-miterlimit="10"/>
<path d="M153.489 149.603H177.584" stroke="#263238" stroke-width="0.514868" stroke-miterlimit="10"/>
<path d="M153.489 151.709H177.584" stroke="#263238" stroke-width="0.514868" stroke-miterlimit="10"/>
<path d="M147.367 170.996C149.266 170.996 150.806 169.456 150.806 167.557C150.806 165.657 149.266 164.117 147.367 164.117C145.467 164.117 143.928 165.657 143.928 167.557C143.928 169.456 145.467 170.996 147.367 170.996Z" fill="#263238" stroke="#263238" stroke-width="0.514868" stroke-linecap="round" stroke-linejoin="round"/>
<path d="M147.367 167.984C148.157 167.984 148.798 167.343 148.798 166.552C148.798 165.762 148.157 165.121 147.367 165.121C146.576 165.121 145.936 165.762 145.936 166.552C145.936 167.343 146.576 167.984 147.367 167.984Z" fill="white" stroke="#263238" stroke-width="0.514868" stroke-linecap="round" stroke-linejoin="round"/>
<path d="M147.367 170.996C148.119 170.996 148.808 170.754 149.375 170.342C149.359 169.245 148.469 168.354 147.367 168.354C146.265 168.354 145.369 169.24 145.359 170.342C145.925 170.749 146.615 170.996 147.367 170.996Z" fill="white" stroke="#263238" stroke-width="0.514868" stroke-linecap="round" stroke-linejoin="round"/>
<path d="M153.242 164.694H164.929" stroke="#263238" stroke-width="0.514868" stroke-miterlimit="10"/>
<path d="M153.489 168.02H177.584" stroke="#263238" stroke-width="0.514868" stroke-miterlimit="10"/>
<path d="M153.489 170.131H177.584" stroke="#263238" stroke-width="0.514868" stroke-miterlimit="10"/>
<path d="M60.9566 110.962H126.489C127.076 110.962 127.55 111.436 127.55 112.023V147.286C127.55 148.269 126.752 149.062 125.773 149.062H61.6774C60.694 149.062 59.9011 148.264 59.9011 147.286V112.023C59.9011 111.436 60.3748 110.962 60.9617 110.962H60.9566Z" fill="#263238" stroke="#263238" stroke-width="0.514868" stroke-linecap="round" stroke-linejoin="round"/>
<path d="M60.9566 110.962H126.489C127.076 110.962 127.55 111.436 127.55 112.023V117.176H59.896V112.023C59.896 111.436 60.3697 110.962 60.9566 110.962Z" fill="#263238" stroke="#263238" stroke-width="0.514868" stroke-linecap="round" stroke-linejoin="round"/>
<path d="M113.7 115.539C114.459 115.539 115.074 114.923 115.074 114.164C115.074 113.405 114.459 112.79 113.7 112.79C112.94 112.79 112.325 113.405 112.325 114.164C112.325 114.923 112.94 115.539 113.7 115.539Z" fill="#263238" stroke="#263238" stroke-width="0.514868" stroke-linecap="round" stroke-linejoin="round"/>
<path d="M118.055 115.539C118.815 115.539 119.43 114.923 119.43 114.164C119.43 113.405 118.815 112.79 118.055 112.79C117.296 112.79 116.681 113.405 116.681 114.164C116.681 114.923 117.296 115.539 118.055 115.539Z" fill="#263238" stroke="#263238" stroke-width="0.514868" stroke-linecap="round" stroke-linejoin="round"/>
<path d="M122.416 115.539C123.176 115.539 123.791 114.923 123.791 114.164C123.791 113.405 123.176 112.79 122.416 112.79C121.657 112.79 121.042 113.405 121.042 114.164C121.042 114.923 121.657 115.539 122.416 115.539Z" fill="#263238" stroke="#263238" stroke-width="0.514868" stroke-linecap="round" stroke-linejoin="round"/>
<path d="M81.0415 123.118H67.1504V136.391H81.0415V123.118Z" fill="#263238" stroke="#263238" stroke-width="0.514868" stroke-miterlimit="10"/>
<path d="M85.6754 124.663H122.107" stroke="#263238" stroke-width="0.514868" stroke-miterlimit="10"/>
<path d="M85.6754 128.982H122.107" stroke="#263238" stroke-width="0.514868" stroke-miterlimit="10"/>
<path d="M85.6754 133.307H122.107" stroke="#263238" stroke-width="0.514868" stroke-miterlimit="10"/>
<path d="M85.6754 137.627H122.107" stroke="#263238" stroke-width="0.514868" stroke-miterlimit="10"/>
<path d="M59.3244 108.516H124.857C125.444 108.516 125.917 108.99 125.917 109.577V144.84C125.917 145.823 125.119 146.616 124.141 146.616H60.0452C59.0618 146.616 58.2689 145.818 58.2689 144.84V109.577C58.2689 108.99 58.7426 108.516 59.3296 108.516H59.3244Z" fill="white" stroke="#263238" stroke-width="0.514868" stroke-linecap="round" stroke-linejoin="round"/>
<path d="M59.3244 108.516H124.857C125.444 108.516 125.917 108.99 125.917 109.577V114.731H58.2638V109.577C58.2638 108.99 58.7375 108.516 59.3244 108.516Z" fill="#5479F7" stroke="#263238" stroke-width="0.514868" stroke-linecap="round" stroke-linejoin="round"/>
<path d="M112.067 113.093C112.827 113.093 113.442 112.478 113.442 111.718C113.442 110.959 112.827 110.344 112.067 110.344C111.308 110.344 110.693 110.959 110.693 111.718C110.693 112.478 111.308 113.093 112.067 113.093Z" fill="white" stroke="#263238" stroke-width="0.514868" stroke-linecap="round" stroke-linejoin="round"/>
<path d="M116.423 113.093C117.183 113.093 117.798 112.478 117.798 111.718C117.798 110.959 117.183 110.344 116.423 110.344C115.664 110.344 115.049 110.959 115.049 111.718C115.049 112.478 115.664 113.093 116.423 113.093Z" fill="white" stroke="#263238" stroke-width="0.514868" stroke-linecap="round" stroke-linejoin="round"/>
<path d="M120.784 113.093C121.543 113.093 122.159 112.478 122.159 111.718C122.159 110.959 121.543 110.344 120.784 110.344C120.025 110.344 119.41 110.959 119.41 111.718C119.41 112.478 120.025 113.093 120.784 113.093Z" fill="white" stroke="#263238" stroke-width="0.514868" stroke-linecap="round" stroke-linejoin="round"/>
<path d="M79.4147 120.672H65.5236V133.946H79.4147V120.672Z" stroke="#263238" stroke-width="0.514868" stroke-miterlimit="10"/>
<path d="M84.0432 122.217H120.475" stroke="#263238" stroke-width="0.514868" stroke-miterlimit="10"/>
<path d="M84.0432 126.537H120.475" stroke="#263238" stroke-width="0.514868" stroke-miterlimit="10"/>
<path d="M84.0432 130.856H120.475" stroke="#263238" stroke-width="0.514868" stroke-miterlimit="10"/>
<path d="M84.0432 135.181H120.475" stroke="#263238" stroke-width="0.514868" stroke-miterlimit="10"/>
<path d="M185.39 82.9995H138.496C137.253 82.9995 136.246 84.0069 136.246 85.2495V125.929C136.246 127.172 137.253 128.179 138.496 128.179H185.39C186.632 128.179 187.64 127.172 187.64 125.929V85.2495C187.64 84.0069 186.632 82.9995 185.39 82.9995Z" fill="#263238" stroke="#263238" stroke-width="0.514868" stroke-linecap="round" stroke-linejoin="round"/>
<path d="M136.864 80.5542H183.758C184.999 80.5542 186.008 81.5633 186.008 82.8042V123.484C186.008 124.725 184.999 125.734 183.758 125.734H136.864C135.623 125.734 134.614 124.725 134.614 123.484V82.8042C134.614 81.5633 135.623 80.5542 136.864 80.5542Z" fill="white" stroke="#263238" stroke-width="0.514868" stroke-linecap="round" stroke-linejoin="round"/>
<path d="M145.894 98.6416H141.152V120.56H145.894V98.6416Z" fill="#263238" stroke="#263238" stroke-width="0.514868" stroke-linecap="round" stroke-linejoin="round"/>
<path d="M152.613 102.199H147.871V120.564H152.613V102.199Z" fill="#5479F7" stroke="#263238" stroke-width="0.514868" stroke-linecap="round" stroke-linejoin="round"/>
<path d="M159.327 105.16H154.585V120.565H159.327V105.16Z" fill="white" stroke="#263238" stroke-width="0.514868" stroke-linecap="round" stroke-linejoin="round"/>
<path d="M166.041 96.0771H161.299V120.564H166.041V96.0771Z" fill="#263238" stroke="#263238" stroke-width="0.514868" stroke-linecap="round" stroke-linejoin="round"/>
<path d="M172.755 99.0381H168.013V120.565H172.755V99.0381Z" fill="#5479F7" stroke="#263238" stroke-width="0.514868" stroke-linecap="round" stroke-linejoin="round"/>
<path d="M179.469 88.7661H174.727V120.559H179.469V88.7661Z" fill="white" stroke="#263238" stroke-width="0.514868" stroke-linecap="round" stroke-linejoin="round"/>
<path d="M141.477 86.4849H146.214" stroke="#263238" stroke-width="0.514868" stroke-miterlimit="10"/>
<path d="M141.477 88.457H146.214" stroke="#263238" stroke-width="0.514868" stroke-miterlimit="10"/>
<path d="M141.477 90.4341H146.214" stroke="#263238" stroke-width="0.514868" stroke-miterlimit="10"/>
<path d="M147.794 86.4849H166.952" stroke="#263238" stroke-width="0.514868" stroke-miterlimit="10"/>
<path d="M147.794 88.457H166.952" stroke="#263238" stroke-width="0.514868" stroke-miterlimit="10"/>
<path d="M147.794 90.4341H166.952" stroke="#263238" stroke-width="0.514868" stroke-miterlimit="10"/>
<path d="M185.39 29.4688H138.496C137.253 29.4688 136.246 30.4761 136.246 31.7187V72.3984C136.246 73.6411 137.253 74.6484 138.496 74.6484H185.39C186.632 74.6484 187.64 73.6411 187.64 72.3984V31.7187C187.64 30.4761 186.632 29.4688 185.39 29.4688Z" fill="#263238" stroke="#263238" stroke-width="0.514868" stroke-linecap="round" stroke-linejoin="round"/>
<path d="M136.864 27.0234H183.758C184.999 27.0234 186.008 28.0326 186.008 29.2734V69.9531C186.008 71.194 184.999 72.2031 183.758 72.2031H136.864C135.623 72.2031 134.614 71.194 134.614 69.9531V29.2734C134.614 28.0326 135.623 27.0234 136.864 27.0234Z" fill="white" stroke="#263238" stroke-width="0.514868" stroke-linecap="round" stroke-linejoin="round"/>
<path d="M159.049 63.0948C167.011 63.0948 173.466 56.6404 173.466 48.6785C173.466 40.7166 167.011 34.2622 159.049 34.2622C151.087 34.2622 144.633 40.7166 144.633 48.6785C144.633 56.6404 151.087 63.0948 159.049 63.0948Z" fill="white" stroke="#263238" stroke-width="0.514868" stroke-linecap="round" stroke-linejoin="round"/>
<path d="M173.043 45.2082C172.436 42.7471 171.169 40.4148 169.244 38.4892C163.616 32.8617 154.488 32.8617 148.855 38.4892L159.049 48.6836L173.043 45.2082Z" fill="#263238" stroke="#263238" stroke-width="0.514868" stroke-linecap="round" stroke-linejoin="round"/>
<path d="M173.043 45.208L159.049 48.6834L154.884 62.487C159.801 63.9646 165.356 62.765 169.239 58.8777C173.121 54.9905 174.212 49.9499 173.038 45.208H173.043Z" fill="#5479F7" stroke="#263238" stroke-width="0.514868" stroke-linecap="round" stroke-linejoin="round"/>
<path d="M164.78 39.5959L169.517 33.4741H172.482" stroke="#263238" stroke-width="0.514868" stroke-miterlimit="10"/>
<path d="M175.242 33.6699H179.984" stroke="#263238" stroke-width="0.514868" stroke-miterlimit="10"/>
<path d="M175.242 35.647H179.984" stroke="#263238" stroke-width="0.514868" stroke-miterlimit="10"/>
<path d="M175.242 37.6245H179.984" stroke="#263238" stroke-width="0.514868" stroke-miterlimit="10"/>
<path d="M175.242 59.3462H179.984" stroke="#263238" stroke-width="0.514868" stroke-miterlimit="10"/>
<path d="M175.242 61.3188H179.984" stroke="#263238" stroke-width="0.514868" stroke-miterlimit="10"/>
<path d="M175.242 63.2954H179.984" stroke="#263238" stroke-width="0.514868" stroke-miterlimit="10"/>
<path d="M138.511 58.9497H143.253" stroke="#263238" stroke-width="0.514868" stroke-miterlimit="10"/>
<path d="M138.511 60.9219H143.253" stroke="#263238" stroke-width="0.514868" stroke-miterlimit="10"/>
<path d="M138.511 62.8989H143.253" stroke="#263238" stroke-width="0.514868" stroke-miterlimit="10"/>
<path d="M150.955 58.3579L149.179 62.899H144.437" stroke="#263238" stroke-width="0.514868" stroke-miterlimit="10"/>
<path d="M170.109 52.8281H178.007V55.3922" stroke="#263238" stroke-width="0.514868" stroke-miterlimit="10"/>
<path d="M123.729 29.6333H76.8351C75.5924 29.6333 74.5851 30.6406 74.5851 31.8833V72.563C74.5851 73.8056 75.5924 74.813 76.8351 74.813H123.729C124.972 74.813 125.979 73.8056 125.979 72.563V31.8833C125.979 30.6406 124.972 29.6333 123.729 29.6333Z" fill="#263238" stroke="#263238" stroke-width="0.514868" stroke-linecap="round" stroke-linejoin="round"/>
<path d="M121.551 27.0234H74.6572C73.4146 27.0234 72.4072 28.0308 72.4072 29.2734V69.9531C72.4072 71.1957 73.4146 72.2031 74.6572 72.2031H121.551C122.794 72.2031 123.801 71.1957 123.801 69.9531V29.2734C123.801 28.0308 122.794 27.0234 121.551 27.0234Z" fill="white" stroke="#263238" stroke-width="0.514868" stroke-linecap="round" stroke-linejoin="round"/>
<path d="M77.7412 63.6509V65.3911" stroke="#263238" stroke-width="0.514868" stroke-miterlimit="10"/>
<path d="M81.9271 63.6509V65.3911" stroke="#263238" stroke-width="0.514868" stroke-miterlimit="10"/>
<path d="M86.113 63.6509V65.3911" stroke="#263238" stroke-width="0.514868" stroke-miterlimit="10"/>
<path d="M90.299 63.6509V65.3911" stroke="#263238" stroke-width="0.514868" stroke-miterlimit="10"/>
<path d="M94.4849 63.6509V65.3911" stroke="#263238" stroke-width="0.514868" stroke-miterlimit="10"/>
<path d="M98.6655 63.6509V65.3911" stroke="#263238" stroke-width="0.514868" stroke-miterlimit="10"/>
<path d="M102.851 63.6509V65.3911" stroke="#263238" stroke-width="0.514868" stroke-miterlimit="10"/>
<path d="M107.037 63.6509V65.3911" stroke="#263238" stroke-width="0.514868" stroke-miterlimit="10"/>
<path d="M111.223 63.6509V65.3911" stroke="#263238" stroke-width="0.514868" stroke-miterlimit="10"/>
<path d="M115.409 63.6509V65.3911" stroke="#263238" stroke-width="0.514868" stroke-miterlimit="10"/>
<path d="M119.595 63.6509V65.3911" stroke="#263238" stroke-width="0.514868" stroke-miterlimit="10"/>
<path d="M117.855 39.2309L113.319 41.6765L109.658 34.3499L104.947 40.4511L100.761 36.7904L96.7502 32.2544L92.5644 37.1405L88.3785 48.9979L83.8425 44.637L79.3065 47.9527V58.94H117.855V39.2309Z" fill="#5479F7" stroke="#263238" stroke-width="0.514868" stroke-linecap="round" stroke-linejoin="round"/>
<path d="M79.4147 32.1562H84.1515" stroke="#263238" stroke-width="0.514868" stroke-miterlimit="10"/>
<path d="M79.4147 34.1338H84.1515" stroke="#263238" stroke-width="0.514868" stroke-miterlimit="10"/>
<path d="M79.4147 36.1055H84.1515" stroke="#263238" stroke-width="0.514868" stroke-miterlimit="10"/>
<path d="M117.855 48.8896L113.319 50.5681L109.658 42.4229L104.947 48.1276L100.761 46.7323L96.7502 55.4542L92.5644 43.7667L88.3785 55.4542L83.8425 51.0932L79.3065 56.8495V61.0302H117.855V48.8896Z" fill="#263238" stroke="#263238" stroke-width="0.514868" stroke-linecap="round" stroke-linejoin="round"/>
<path d="M210.196 52.0098C210.196 52.0098 208.487 47.4893 203.601 47.9784C198.715 48.4675 196.516 52.3754 197.371 54.9394C198.225 57.5035 198.715 58.3582 198.715 58.3582C198.715 58.3582 197.129 57.627 197.618 60.1911C198.107 62.7551 201.768 62.266 202.38 62.024C202.993 61.782 205.676 54.9394 210.196 52.0098Z" fill="#263238" stroke="#263238" stroke-width="0.514868" stroke-linecap="round" stroke-linejoin="round"/>
<path d="M179.088 95.8402L170.418 100.175C169.728 100.52 169.702 101.499 170.376 101.875L193.509 114.885C193.911 115.112 194.41 115.024 194.714 114.674L200.146 108.352C200.542 107.888 200.414 107.178 199.883 106.879L179.989 95.8505C179.711 95.6961 179.376 95.6909 179.093 95.8299L179.088 95.8402Z" fill="#263238" stroke="#263238" stroke-width="0.514868" stroke-linecap="round" stroke-linejoin="round"/>
<path d="M200.228 103.651L196.578 101.283C196.578 101.283 193.849 98.2191 192.819 97.6991C191.79 97.1791 184.911 98.4199 184.911 98.4199L200.038 106.977L200.223 103.651H200.228Z" fill="white" stroke="#263238" stroke-width="0.514868" stroke-linecap="round" stroke-linejoin="round"/>
<path d="M192.778 99.9131C192.778 99.9131 190.091 100.037 188.433 99.3262C186.775 98.6208 185.822 98.9503 186.687 100.346C187.552 101.741 190.235 101.617 190.235 101.617C190.235 101.617 192.577 104.47 195.42 103.352" fill="white"/>
<path d="M192.778 99.9131C192.778 99.9131 190.091 100.037 188.433 99.3262C186.775 98.6208 185.822 98.9503 186.687 100.346C187.552 101.741 190.235 101.617 190.235 101.617C190.235 101.617 192.577 104.47 195.42 103.352" stroke="#263238" stroke-width="0.514868" stroke-linecap="round" stroke-linejoin="round"/>
<path d="M229.761 222.889C229.761 222.889 231.295 228.764 231.167 229.783C231.038 230.803 227.846 231.699 226.059 231.699C224.273 231.699 220.694 232.337 220.694 232.337L220.823 222.889H229.761Z" fill="white" stroke="#263238" stroke-width="0.514868" stroke-linecap="round" stroke-linejoin="round"/>
<path d="M231.167 229.783C231.198 229.526 231.126 228.959 230.997 228.259C229.941 228.82 228.495 229.505 227.079 229.912C224.906 230.535 221.817 230.566 220.72 230.556L220.694 232.337C220.694 232.337 224.268 231.699 226.059 231.699C227.851 231.699 231.038 230.803 231.167 229.783Z" fill="white" stroke="#263238" stroke-width="0.514868" stroke-linecap="round" stroke-linejoin="round"/>
<path d="M218.908 166.444C218.908 166.444 220.566 180.361 221.204 183.044C221.842 185.726 225.035 190.324 226.312 197.475C227.588 204.627 230.013 221.226 230.013 221.612C230.013 221.999 230.271 223.147 230.394 223.909C230.394 223.909 227.583 225.057 225.544 224.805C223.5 224.547 221.714 224.037 221.714 224.037C221.714 224.037 222.61 218.549 220.694 208.715C218.779 198.881 216.864 188.666 215.716 181.515C214.567 174.363 218.908 166.444 218.908 166.444Z" fill="#999999" stroke="#263238" stroke-width="0.514868" stroke-linecap="round" stroke-linejoin="round"/>
<path d="M212.395 221.355C212.395 221.355 211.627 222.632 209.46 224.547C207.287 226.462 203.204 228.506 202.051 229.016C200.903 229.526 200.007 229.526 200.264 230.674C200.522 231.822 202.437 232.718 208.183 232.718C213.929 232.718 220.061 232.461 220.699 232.337C221.338 232.214 223.253 232.208 223.253 230.803C223.253 229.397 222.615 223.78 222.615 223.78L212.4 221.355H212.395Z" fill="white" stroke="#263238" stroke-width="0.514868" stroke-linecap="round" stroke-linejoin="round"/>
<path d="M220.694 232.337C221.333 232.208 223.248 232.208 223.248 230.802C223.248 230.597 223.233 230.298 223.212 229.938C221.029 230.221 216.071 230.839 210.479 231.312C205.557 231.729 202.066 230.895 200.223 230.262C200.218 230.38 200.223 230.514 200.259 230.674C200.517 231.822 202.432 232.718 208.178 232.718C213.924 232.718 220.056 232.46 220.694 232.337Z" fill="white" stroke="#263238" stroke-width="0.514868" stroke-linecap="round" stroke-linejoin="round"/>
<path d="M198.859 137.076C198.859 137.076 198.73 147.162 200.136 158.531C201.541 169.894 205.624 183.687 205.624 183.687C205.624 183.687 207.668 194.798 208.307 198.628C208.945 202.459 212.266 217.529 212.266 217.529L210.86 219.445L211.118 222.766C211.118 222.766 212.266 223.023 216.225 223.914C220.185 224.81 222.61 224.681 222.61 224.681C222.61 224.681 222.867 218.039 222.738 217.148C222.61 216.252 221.843 212.041 221.719 210.635C221.59 209.23 221.976 193.65 221.08 190.077C220.185 186.503 218.655 181.267 218.655 176.669C218.655 172.072 222.105 149.598 222.105 149.598C222.105 149.598 225.807 144.361 225.807 141.298C225.807 138.234 225.426 136.7 225.426 136.7L198.864 137.081L198.859 137.076Z" fill="#BDBDBD" stroke="#263238" stroke-width="0.514868" stroke-linecap="round" stroke-linejoin="round"/>
<path d="M216.961 213.199C217.245 216.021 217.373 217.9 217.373 217.9C217.373 217.9 216.555 218.312 216.961 219.748C217.373 221.185 217.579 222.209 217.579 222.209" stroke="#263238" stroke-width="0.386151" stroke-linecap="round" stroke-linejoin="round"/>
<path d="M208.713 151.601C208.394 156.698 208.332 163.643 209.372 170.903C211.427 185.268 214.912 198.196 215.937 204.967C216.246 207.006 216.498 208.988 216.704 210.764" stroke="#263238" stroke-width="0.386151" stroke-linecap="round" stroke-linejoin="round"/>
<path d="M209.573 143.409C209.573 143.409 209.187 145.669 208.878 149.335" stroke="#263238" stroke-width="0.386151" stroke-linecap="round" stroke-linejoin="round"/>
<path d="M223.511 56.1646C223.511 56.1646 225.096 49.8163 234.627 50.5474C244.157 51.2785 244.028 59.954 244.028 59.954L241.953 58.9758C241.953 58.9758 243.663 63.9854 241.711 67.6462C239.755 71.312 234.75 73.3869 231.45 72.7742C228.15 72.1616 224.612 69.1084 224.123 67.399C223.634 65.6897 225.467 59.7069 223.511 56.1646Z" fill="#263238" stroke="#263238" stroke-width="0.514868" stroke-linecap="round" stroke-linejoin="round"/>
<path d="M204.579 55.4285C204.579 55.4285 203.848 56.6488 202.38 59.2128C200.913 61.7769 201.526 64.0989 200.548 65.3191C199.569 66.5394 196.882 66.4158 197.252 67.6412C197.618 68.8614 199.209 69.7161 199.209 69.7161C199.209 69.7161 199.209 76.5536 199.94 77.4082C200.671 78.2629 206.288 76.7956 206.288 76.7956C206.288 76.7956 207.385 78.5049 206.654 82.2892C205.923 86.0735 199.327 96.5768 198.473 101.828C197.618 107.08 200.548 120.147 200.548 120.147L197.736 139.198C197.736 139.198 204.821 141.885 213.249 141.154C221.678 140.423 226.806 138.714 226.806 138.714L221.189 116.61C221.189 116.61 221.678 100.979 220.576 92.3085C219.479 83.6381 216.668 81.5632 216.668 78.3865C216.668 75.2098 220.699 73.5004 223.264 70.4472C224.432 69.0571 227.537 63.7282 224.484 57.1327C222.481 52.813 216.055 51.15 211.658 51.0264C207.261 50.9028 204.574 55.4234 204.574 55.4234L204.579 55.4285Z" fill="white" stroke="#263238" stroke-width="0.514868" stroke-linecap="round" stroke-linejoin="round"/>
<path d="M206.288 76.8006L208.966 76.1982L207.297 79.5346C207.297 79.5346 206.947 77.8149 206.288 76.7955V76.8006Z" fill="#263238" stroke="#263238" stroke-width="0.514868" stroke-linecap="round" stroke-linejoin="round"/>
<path d="M226.806 138.724L221.189 116.621C221.189 116.621 221.678 100.989 220.576 92.3189C220.283 90.0123 219.871 88.1742 219.423 86.6605C217.626 85.26 214.851 83.4992 212.029 83.2829C208.749 83.0307 205.47 86.8304 203.745 89.2194C201.598 93.5855 198.988 98.6723 198.473 101.844C197.618 107.096 200.548 120.163 200.548 120.163L197.736 139.213C197.736 139.213 204.821 141.901 213.249 141.17C221.678 140.438 226.806 138.729 226.806 138.729V138.724Z" fill="#5479F7" stroke="#263238" stroke-width="0.514868" stroke-linecap="round" stroke-linejoin="round"/>
<path d="M211.664 51.0313C207.267 50.9077 204.579 55.4283 204.579 55.4283C204.579 55.4283 204.198 56.0667 203.436 57.3848C204.198 56.4786 206.968 53.5078 208.121 56.6537C208.796 58.4866 207.143 61.0506 207.998 61.9053C208.852 62.76 210.562 64.7165 210.32 65.082C210.078 65.4476 209.954 66.3023 209.954 66.3023C209.954 66.3023 212.153 63.1255 213.862 65.082C215.571 67.0385 213.249 70.6993 213.249 70.6993L211.782 71.1884C211.782 71.1884 216.544 76.5636 217.399 76.5636C217.636 76.5636 218.254 74.7307 219.356 74.3651C220.622 73.1655 221.683 72.3417 223.263 70.4573C224.432 69.0671 227.537 63.7382 224.484 57.1428C222.481 52.8179 216.055 51.16 211.658 51.0364L211.664 51.0313Z" fill="#263238" stroke="#263238" stroke-width="0.514868" stroke-linecap="round" stroke-linejoin="round"/>
<path d="M203.348 64.9999C203.215 65.628 202.89 66.0863 202.628 66.0348C202.365 65.9781 202.257 65.4221 202.391 64.7991C202.525 64.1709 202.849 63.7127 203.112 63.7642C203.374 63.8208 203.482 64.3717 203.348 64.9999Z" fill="#263238"/>
<path d="M202.38 62.0238C202.38 62.0238 203.724 60.5564 204.579 62.3893" stroke="#263238" stroke-width="0.514868" stroke-linecap="round" stroke-linejoin="round"/>
<path d="M200.182 71.1831C200.182 71.1831 200.424 71.6722 201.768 71.1831" stroke="#263238" stroke-width="0.514868" stroke-linecap="round" stroke-linejoin="round"/>
<path d="M208.245 89.873C208.245 89.873 206.412 92.4371 205.681 97.1996C204.95 101.962 205.557 117.475 205.557 117.475C205.557 117.475 195.177 114.546 191.759 112.836C188.34 111.127 187.238 110.396 187.238 110.396C187.238 110.396 186.142 107.832 185.282 106.853C184.427 105.875 182.105 105.633 181.25 105.02C180.396 104.408 179.783 102.456 178.686 103.188C177.59 103.919 178.074 104.897 178.563 105.262C179.052 105.628 180.885 107.461 180.885 107.461L176.246 105.386C176.246 105.386 175.88 107.219 176.488 107.826C177.095 108.434 178.321 109.536 178.321 109.536C178.321 109.536 180.154 112.1 181.25 112.713C182.347 113.325 184.303 113.809 184.669 113.933C185.766 114.298 186.862 115.23 187.841 115.822C189.915 117.084 191.99 118.35 194.065 119.607C197.211 121.507 200.712 123.159 204.244 124.4C206.469 125.183 211.911 127.572 213.841 125.178C214.675 124.143 214.418 121.074 214.634 119.771C215.999 111.58 217.76 103.337 217.76 95.0011" fill="#5479F7"/>
<path d="M208.245 89.873C208.245 89.873 206.412 92.4371 205.681 97.1996C204.95 101.962 205.557 117.475 205.557 117.475C205.557 117.475 195.177 114.546 191.759 112.836C188.34 111.127 187.238 110.396 187.238 110.396C187.238 110.396 186.142 107.832 185.282 106.853C184.427 105.875 182.105 105.633 181.25 105.02C180.396 104.408 179.783 102.456 178.686 103.188C177.59 103.919 178.074 104.897 178.563 105.262C179.052 105.628 180.885 107.461 180.885 107.461L176.246 105.386C176.246 105.386 175.88 107.219 176.488 107.826C177.095 108.434 178.321 109.536 178.321 109.536C178.321 109.536 180.154 112.1 181.25 112.713C182.347 113.325 184.303 113.809 184.669 113.933C185.766 114.298 186.862 115.23 187.841 115.822C189.915 117.084 191.99 118.35 194.065 119.607C197.211 121.507 200.712 123.159 204.244 124.4C206.469 125.183 211.911 127.572 213.841 125.178C214.675 124.143 214.418 121.074 214.634 119.771C215.999 111.58 217.76 103.337 217.76 95.0011" stroke="#263238" stroke-width="0.514868" stroke-linecap="round" stroke-linejoin="round"/>
<path d="M201.855 116.384C198.524 115.375 193.844 113.876 191.759 112.831C188.34 111.122 187.238 110.391 187.238 110.391C187.238 110.391 186.142 107.827 185.282 106.848C184.427 105.87 182.105 105.628 181.25 105.016C180.396 104.403 179.783 102.451 178.686 103.183C177.59 103.914 178.074 104.892 178.563 105.258C179.052 105.623 180.885 107.456 180.885 107.456L176.246 105.381C176.246 105.381 175.88 107.214 176.488 107.822C177.095 108.429 178.321 109.531 178.321 109.531C178.321 109.531 180.154 112.095 181.25 112.708C182.347 113.32 184.303 113.804 184.669 113.928C185.766 114.293 186.862 115.225 187.841 115.817C189.915 117.079 191.99 118.345 194.065 119.602C196.027 120.786 198.128 121.877 200.29 122.83L201.85 116.379L201.855 116.384Z" fill="white" stroke="#263238" stroke-width="0.514868" stroke-linecap="round" stroke-linejoin="round"/>
<path d="M209.1 121.012L205.557 117.475L206.53 120.77" stroke="#263238" stroke-width="0.514868" stroke-linecap="round" stroke-linejoin="round"/>
<path d="M53.2078 170.666C53.2078 170.666 50.999 183.908 48.1158 196.131C45.2274 208.354 46.0769 225.329 46.0769 225.329C46.0769 225.329 44.5477 228.552 45.907 230.082C47.2662 231.611 49.4699 231.101 49.9796 231.101C50.4893 231.101 54.0522 230.931 54.0522 230.931C54.0522 230.931 56.7707 214.805 57.785 200.204C58.8044 185.602 57.9549 163.365 56.9355 164.215C55.916 165.064 53.7124 169.477 53.7124 169.477L53.2027 170.666H53.2078Z" fill="#263238" stroke="#263238" stroke-width="0.514868" stroke-linecap="round" stroke-linejoin="round"/>
<path d="M46.2468 127.716C46.2468 127.716 44.208 139.599 44.7177 142.997C45.2274 146.395 46.5866 150.638 46.5866 150.638C46.5866 150.638 51.169 171.011 51.6787 172.535C52.1884 174.064 51.6787 192.229 50.6592 200.209C49.6398 208.19 51.3389 213.452 51.6787 215.995C52.0185 218.544 51.8486 226.859 51.8486 226.859L51.5088 231.611C51.5088 231.611 53.8875 232.461 58.13 232.461C62.3725 232.461 71.3724 232.97 71.3724 232.97C71.3724 232.97 76.8042 232.8 76.2945 230.422C75.7848 228.043 69.6733 226.859 67.9743 225.33C66.2752 223.8 65.0858 222.441 65.0858 222.441C65.0858 222.441 65.2558 220.742 64.9159 219.893C64.5761 219.043 63.2169 219.043 63.3868 217.854C63.5567 216.664 66.4451 189.67 68.6487 182.714C70.8524 175.758 72.5514 147.234 72.3815 142.307C72.2116 137.385 71.1922 129.914 71.1922 129.914L46.2365 127.706L46.2468 127.716Z" fill="#263238" stroke="#263238" stroke-width="0.514868" stroke-linecap="round" stroke-linejoin="round"/>
<path d="M48.0128 81.3774C48.0128 81.3774 43.0031 92.0301 42.272 99.336C41.5409 106.647 45.5105 124.812 45.5105 124.812C45.5105 124.812 43.9453 129.404 45.0935 130.135C46.2416 130.867 71.8254 132.226 71.8254 132.226C71.8254 132.226 73.3906 132.015 73.3906 130.661C73.3906 129.306 72.9736 128.364 72.7625 127.216C72.5514 126.068 73.0766 102.575 70.7802 97.3538C68.4839 92.133 63.7832 85.7641 63.7832 85.7641L48.0179 81.3774H48.0128Z" fill="#D4D4D4" stroke="#263238" stroke-width="0.514868" stroke-linecap="round" stroke-linejoin="round"/>
<path d="M52.5282 124.524C55.3651 120.786 59.6334 115.035 62.6556 110.37" stroke="#263238" stroke-width="0.514868" stroke-linecap="round" stroke-linejoin="round"/>
<path d="M49.5265 128.431C49.5265 128.431 50.0928 127.71 51.0145 126.511" stroke="#263238" stroke-width="0.514868" stroke-linecap="round" stroke-linejoin="round"/>
<path d="M62.2489 108.115C62.2489 108.115 52.3995 114.885 51.1689 115.297" stroke="#263238" stroke-width="0.514868" stroke-linecap="round" stroke-linejoin="round"/>
<path d="M69.4159 52.7664C69.4159 52.7664 71.0841 47.2316 71.3981 45.5634C71.7122 43.8953 72.5463 42.3249 72.5463 42.3249V46.3975C72.5463 46.3975 73.7974 44.9353 75.1567 43.159C76.5159 41.3827 77.7671 41.4908 77.247 43.3701C76.727 45.2494 75.3678 47.3397 75.2648 47.6487C75.1618 47.9576 74.6367 50.259 74.0137 51.6183C73.3907 52.9775 71.8203 54.7487 71.8203 54.7487L69.421 52.7664H69.4159Z" fill="white" stroke="#263238" stroke-width="0.514868" stroke-linecap="round" stroke-linejoin="round"/>
<path d="M62.6299 56.9423L69.4158 52.7667C69.4158 52.7667 71.2951 52.5556 71.8151 54.749C72.3351 56.9423 72.0262 55.6912 72.0262 55.6912L66.7025 63.2083L62.6299 56.9423Z" fill="white" stroke="#263238" stroke-width="0.514868" stroke-linecap="round" stroke-linejoin="round"/>
<path d="M61.6877 54.2283C61.6877 54.2283 56.5699 48.9046 55.3188 49.3216C54.0677 49.7387 54.6907 51.932 54.6907 51.932C54.6907 51.932 51.6632 50.7838 51.5603 51.6179L51.4573 52.452C51.4573 52.452 46.0254 55.6905 44.5684 59.135C43.1061 62.5795 42.9002 65.921 44.5684 67.8002C46.2365 69.6795 50.3091 76.3625 50.3091 76.3625L50.4121 79.601L60.7506 82.2114L61.6929 77.8247C61.6929 77.8247 66.5995 77.8247 67.0166 77.0936C67.4336 76.3625 67.6447 68.3202 67.6447 68.3202L69.8381 65.6069C69.8381 65.6069 65.8684 61.0143 65.2454 59.655C64.6225 58.2958 62.9491 55.7935 61.6929 54.2232L61.6877 54.2283Z" fill="white" stroke="#263238" stroke-width="0.514868" stroke-linecap="round" stroke-linejoin="round"/>
<path d="M67.0114 70.3597C67.0114 70.3597 66.5223 71.0084 65.2249 69.7109" stroke="#263238" stroke-width="0.514868" stroke-linecap="round" stroke-linejoin="round"/>
<path d="M61.6877 54.2283C61.6877 54.2283 56.5699 48.9046 55.3188 49.3216C54.0677 49.7387 54.6907 51.932 54.6907 51.932C54.6907 51.932 51.6632 50.7838 51.5603 51.6179L51.4573 52.452C51.4573 52.452 46.0254 55.6905 44.5684 59.135C43.1061 62.5795 42.9002 65.921 44.5684 67.8002C45.8607 69.2522 48.5843 73.5719 49.7582 75.4615C50.4739 75.5387 51.1999 75.5438 51.8795 75.4203C54.8039 74.9003 56.7862 71.5588 56.7862 71.5588C56.7862 71.5588 54.8039 70.9306 54.6958 68.3202C54.5928 65.7099 56.261 65.1898 56.261 65.1898C56.261 65.1898 57.7232 66.858 58.9744 66.1321C60.2255 65.4061 57.4092 64.0417 56.9921 63.0017C56.5751 61.9616 57.6203 60.4943 57.8262 59.7631C58.0321 59.032 55.844 59.2431 55.0047 58.8209C54.1706 58.4039 58.6603 56.3135 59.5973 55.6905C60.5344 55.0675 58.5522 55.4794 57.404 54.8565C56.2559 54.2283 61.6826 54.2283 61.6826 54.2283H61.6877Z" fill="#263238" stroke="#263238" stroke-width="0.514868" stroke-linecap="round" stroke-linejoin="round"/>
<path d="M64.5863 62.1624C64.7871 62.7339 64.7563 63.2642 64.5091 63.3518C64.262 63.4393 63.9016 63.048 63.7008 62.4765C63.5 61.905 63.5309 61.3747 63.778 61.2871C64.0251 61.1996 64.3855 61.5909 64.5863 62.1624Z" fill="#263238"/>
<path d="M62.2128 60.4949C62.2128 60.4949 62.6298 57.5705 64.5091 58.8267" stroke="#263238" stroke-width="0.514868" stroke-linecap="round" stroke-linejoin="round"/>
<path d="M56.781 71.5591L58.7684 71.0391L59.2884 72.6043" stroke="#263238" stroke-width="0.514868" stroke-linecap="round" stroke-linejoin="round"/>
<path d="M47.6988 77.6191C48.0128 77.6191 64.3032 82.7369 64.3032 82.7369L64.6173 87.5406L47.2869 82.3199L47.7039 77.6191H47.6988Z" fill="#D4D4D4" stroke="#263238" stroke-width="0.514868" stroke-linecap="round" stroke-linejoin="round"/>
<path d="M50.7261 100.69C50.7261 100.69 70.1469 109.15 75.4706 109.67C80.7944 110.19 104.916 85.1312 104.916 85.1312L102.094 81.4756C102.094 81.4756 82.3596 91.603 79.9603 92.4371C77.561 93.2712 57.615 86.9023 56.1528 86.5882C54.6906 86.2742 51.4521 86.7993 50.2009 88.4675" fill="#D4D4D4"/>
<path d="M50.7261 100.69C50.7261 100.69 70.1469 109.15 75.4706 109.67C80.7944 110.19 104.916 85.1312 104.916 85.1312L102.094 81.4756C102.094 81.4756 82.3596 91.603 79.9603 92.4371C77.561 93.2712 57.615 86.9023 56.1528 86.5882C54.6906 86.2742 51.4521 86.7993 50.2009 88.4675" stroke="#263238" stroke-width="0.514868" stroke-linecap="round" stroke-linejoin="round"/>
<path d="M56.9921 103.409L49.3669 104.032" stroke="#263238" stroke-width="0.514868" stroke-linecap="round" stroke-linejoin="round"/>
<path d="M99.6952 83.2573L102.831 87.1188" stroke="#263238" stroke-width="0.514868" stroke-linecap="round" stroke-linejoin="round"/>
<path d="M102.1 81.4804L105.024 77.4078L106.275 73.6493C106.486 73.0211 108.469 71.667 109.097 70.8278C109.725 69.9937 110.348 68.1144 110.976 68.6344C111.604 69.1545 111.496 70.3026 111.29 70.8278C111.079 71.3478 110.039 72.496 109.931 73.0211C109.823 73.5463 116.197 71.873 116.197 71.873C116.197 71.873 117.242 72.187 116.928 73.0211C116.614 73.8552 115.569 75.2145 115.569 75.2145C115.569 75.2145 114.318 79.1841 113.375 80.1212C112.433 81.0634 108.052 82.3145 108.052 82.3145L104.921 85.136L102.1 81.4804Z" fill="white" stroke="#263238" stroke-width="0.514868" stroke-linecap="round" stroke-linejoin="round"/>
</g>
<defs>
<clipPath id="clip0_483_7561">
<rect width="246.786" height="233.92" fill="white" transform="translate(0.464722 0.0800781)"/>
</clipPath>
</defs>
</svg>
