<svg width="317" height="237" viewBox="0 0 317 237" fill="none" xmlns="http://www.w3.org/2000/svg">
<g clip-path="url(#clip0_483_6756)">
<path d="M316.774 207.942H0.0267334V208.101H316.774V207.942Z" fill="#EBEBEB"/>
<path d="M54.2411 213.973H33.2598V214.132H54.2411V213.973Z" fill="#EBEBEB"/>
<path d="M143.551 212.256H108.443V212.415H143.551V212.256Z" fill="#EBEBEB"/>
<path d="M69.8315 217.736H57.6747V217.895H69.8315V217.736Z" fill="#EBEBEB"/>
<path d="M271.574 213.891H244.214V214.049H271.574V213.891Z" fill="#EBEBEB"/>
<path d="M281.229 213.891H277.219V214.049H281.229V213.891Z" fill="#EBEBEB"/>
<path d="M205.311 216.115H175.638V216.273H205.311V216.115Z" fill="#EBEBEB"/>
<path d="M150.171 179.689H27.8435C25.8479 179.689 24.2262 178.067 24.2262 176.071V4.12165C24.2262 2.12614 25.8479 0.504395 27.8435 0.504395H150.171C152.167 0.504395 153.789 2.12614 153.789 4.12165V176.071C153.789 178.067 152.167 179.689 150.171 179.689ZM27.8435 0.662768C25.9366 0.662768 24.3846 2.21483 24.3846 4.12165V176.071C24.3846 177.978 25.9366 179.53 27.8435 179.53H150.171C152.078 179.53 153.63 177.978 153.63 176.071V4.12165C153.63 2.21483 152.078 0.662768 150.171 0.662768H27.8435Z" fill="#EBEBEB"/>
<path d="M287.196 179.689H164.868C162.873 179.689 161.251 178.067 161.251 176.071V4.12165C161.251 2.12614 162.873 0.504395 164.868 0.504395H287.196C289.192 0.504395 290.814 2.12614 290.814 4.12165V176.071C290.814 178.067 289.192 179.689 287.196 179.689ZM164.868 0.662768C162.962 0.662768 161.41 2.21483 161.41 4.12165V176.071C161.41 177.978 162.962 179.53 164.868 179.53H287.196C289.103 179.53 290.655 177.978 290.655 176.071V4.12165C290.655 2.21483 289.103 0.662768 287.196 0.662768H164.868Z" fill="#EBEBEB"/>
<path d="M188.707 12.8193H66.4042V100.615H188.707V12.8193Z" fill="#FAFAFA"/>
<path d="M181.745 100.615L150.64 12.8193H127.296L158.4 100.615H181.745Z" fill="white"/>
<path d="M118.972 100.615L87.8671 12.8193H79.3529L110.458 100.615H118.972Z" fill="white"/>
<path d="M60.5761 9.8042H194.541C194.839 9.8042 195.086 10.0513 195.086 10.349C195.086 10.6467 194.839 10.8938 194.541 10.8938H60.5761C60.2783 10.8938 60.0312 10.6467 60.0312 10.349C60.0312 10.0513 60.2783 9.8042 60.5761 9.8042Z" fill="#E0E0E0"/>
<path d="M128.284 12.6299H126.833V100.806H128.284V12.6299Z" fill="#F0F0F0"/>
<path d="M126.827 12.6299H126.105V100.806H126.827V12.6299Z" fill="#E0E0E0"/>
<path d="M65.5553 55.9922V57.4429L189.549 57.4429V55.9922L65.5553 55.9922Z" fill="#F0F0F0"/>
<path d="M65.5616 100.014V11.9771H189.556V100.014V101.465H65.5616V100.014ZM188.105 100.014V13.4214H67.0123V100.014H188.105Z" fill="#F0F0F0"/>
<path d="M65.5553 11.9771H64.8331V101.465H65.5553V11.9771Z" fill="#E0E0E0"/>
<path opacity="0.5" d="M83.5403 8.47363V111.581H57.3643L62.1661 8.47363H83.5403Z" fill="#EBEBEB"/>
<path opacity="0.5" d="M170.849 8.47363V111.581H197.025L192.223 8.47363H170.849Z" fill="#EBEBEB"/>
<path d="M49.2366 123.935H39.2527V204.914H49.2366V123.935Z" fill="#F0F0F0"/>
<path d="M151.166 204.914H41.1722V207.942H151.166V204.914Z" fill="#F0F0F0"/>
<path d="M49.243 204.908H153.086V123.928L49.243 123.928L49.243 204.908Z" fill="#F5F5F5"/>
<path d="M48.204 121.292H37.9984V123.934H48.204V121.292Z" fill="#F0F0F0"/>
<path d="M48.1977 123.928L154.333 123.928V121.287L48.1977 121.287V123.928Z" fill="#FAFAFA"/>
<path d="M149.494 169.502H52.8285V129.478H149.494V169.502ZM53.5 168.83H148.822V130.149H53.5V168.83Z" fill="#E0E0E0"/>
<path d="M149.494 199.365H52.8285V173.512H149.494V199.365ZM53.5 198.693H148.822V174.183H53.5V198.693Z" fill="#E0E0E0"/>
<path d="M135.582 129.813H66.7402C66.2503 129.813 65.8533 130.21 65.8533 130.7V131.074C65.8533 131.563 66.2503 131.961 66.7402 131.961H135.582C136.072 131.961 136.469 131.563 136.469 131.074V130.7C136.469 130.21 136.072 129.813 135.582 129.813Z" fill="#E0E0E0"/>
<path d="M135.582 173.848H66.7402C66.2503 173.848 65.8533 174.245 65.8533 174.735V175.108C65.8533 175.598 66.2503 175.995 66.7402 175.995H135.582C136.072 175.995 136.469 175.598 136.469 175.108V174.735C136.469 174.245 136.072 173.848 135.582 173.848Z" fill="#E0E0E0"/>
<path d="M220.394 204.053H278.473V26.8515H220.394L220.394 204.053Z" fill="#F0F0F0"/>
<path d="M220.394 26.8579H218.551V204.059H220.394V26.8579Z" fill="#E0E0E0"/>
<path d="M229.821 197.293H269.053V33.6105H229.821L229.821 197.293Z" fill="#FAFAFA"/>
<path d="M158.4 236.551C226.237 236.551 281.229 233.34 281.229 229.38C281.229 225.419 226.237 222.208 158.4 222.208C90.5642 222.208 35.572 225.419 35.572 229.38C35.572 233.34 90.5642 236.551 158.4 236.551Z" fill="#F5F5F5"/>
<path d="M90.8445 223.862L95.8048 221.981L92.764 209.995L87.8037 211.877L90.8445 223.862Z" fill="#B55B52"/>
<path d="M53.5759 223.957H58.8783L59.6765 211.674H54.3678L53.5759 223.957Z" fill="#B55B52"/>
<path d="M59.4105 223.343H52.9425C52.7271 223.343 52.5434 223.495 52.5117 223.704L51.7009 228.417C51.6185 228.905 52.0239 229.367 52.5244 229.361C54.6023 229.323 56.1163 229.203 58.739 229.203C60.3544 229.203 65.2197 229.367 67.4496 229.367C69.6795 229.367 69.8568 227.163 68.9383 226.966C64.8079 226.073 61.6657 224.838 60.2974 223.666C60.0503 223.457 59.7399 223.343 59.4232 223.343H59.4105Z" fill="#263238"/>
<path d="M95.5514 221.417L90.1351 223.469C89.9323 223.545 89.812 223.754 89.8437 223.97L90.5342 228.753C90.6038 229.247 91.117 229.551 91.5794 229.367C93.5179 228.594 95.1713 227.612 97.642 226.726C100.531 225.687 103.4 224.578 105.738 223.089C107.575 221.917 106.802 219.706 105.934 220.055C101.994 221.639 101.025 222.158 96.8881 221.36C96.4383 221.271 95.9759 221.265 95.5451 221.43L95.5514 221.417Z" fill="#263238"/>
<path d="M81.5575 62.2954C83.2299 65.2475 84.9847 68.2883 86.7585 71.2277C88.5322 74.1861 90.3504 77.1002 92.2825 79.8432C92.7513 80.5401 93.2708 81.1989 93.7332 81.8451C93.9296 82.1301 94.012 82.2125 94.145 82.3202C94.2844 82.4215 94.6075 82.5166 95.1079 82.4722C95.6021 82.4406 96.2292 82.2948 96.8817 82.0541C98.193 81.5727 99.5994 80.7871 100.974 79.9129C101.658 79.4631 102.349 79.0007 103.033 78.5065C103.704 78.0188 104.395 77.474 105.016 76.9988L107.993 79.6468C107.423 80.4767 106.866 81.1799 106.251 81.9084C105.643 82.6306 105.016 83.3401 104.332 84.0053C103.654 84.6831 102.932 85.3356 102.152 85.9501C101.373 86.5709 100.537 87.1664 99.5994 87.6859C98.6555 88.2054 97.6229 88.6932 96.3813 88.9972C95.1523 89.2886 93.6572 89.4027 92.0988 88.9846C90.5341 88.5855 89.1277 87.5845 88.1965 86.5203C87.563 85.7854 86.9422 85.0949 86.3594 84.3664C84.0091 81.484 81.9312 78.5002 79.9611 75.4658C78.0036 72.4123 76.1918 69.3462 74.4813 66.0964L81.5638 62.2954H81.5575Z" fill="#B65B52"/>
<path d="M72.1437 62.5361C70.712 67.4013 80.7846 80.6667 80.7846 80.6667L90.9395 74.1354C90.9395 74.1354 87.9558 67.3696 83.9014 62.2067C79.7393 56.9043 73.7148 57.1957 72.1437 62.5361Z" fill="#5479F7"/>
<path opacity="0.2" d="M72.1437 62.5361C70.712 67.4013 80.7846 80.6667 80.7846 80.6667L90.9395 74.1354C90.9395 74.1354 87.9558 67.3696 83.9014 62.2067C79.7393 56.9043 73.7148 57.1957 72.1437 62.5361Z" fill="black"/>
<path opacity="0.2" d="M78.333 68.2509C80.4235 69.1441 83.496 74.1741 85.0924 77.899L80.7846 80.6674C80.7846 80.6674 76.9076 75.5614 74.3103 70.5188C75.6723 69.0237 77.2307 67.7821 78.333 68.2509Z" fill="black"/>
<path d="M104.382 78.6463L106.245 73.439L111.522 75.9603C111.522 75.9603 110.426 80.6038 106.562 80.5975L104.382 78.6463Z" fill="#B55B52"/>
<path d="M110.939 70.0049L113.175 72.4755L111.522 75.9597L106.245 73.4384L110.939 70.0049Z" fill="#B55B52"/>
<path opacity="0.2" d="M92.764 209.995L94.3287 216.178L89.3684 218.06L87.8037 211.883L92.764 209.995Z" fill="black"/>
<path opacity="0.2" d="M54.3678 211.68H59.6765L59.2647 218.009H53.9561L54.3678 211.68Z" fill="black"/>
<path d="M48.5016 60.389C54.2157 80.5405 53.2781 101.921 53.6392 106.267C57.795 106.115 73.455 105.526 81.9945 105.202C86.809 75.1684 78.1618 58.4442 78.1618 58.4442C78.1618 58.4442 76.3437 58.0894 73.8667 57.836C73.0875 57.7537 72.2513 57.684 71.3834 57.6396C70.902 57.608 70.4142 57.5953 69.9201 57.5826C66.7209 57.5319 61.4882 58.0387 57.89 58.4822C57.1361 58.5772 56.3696 58.6912 55.6284 58.8116C54.9379 58.932 54.2664 59.0523 53.6266 59.179C50.7378 59.7555 48.5079 60.3827 48.5079 60.3827L48.5016 60.389Z" fill="#5479F7"/>
<path opacity="0.2" d="M48.5016 60.389C54.2157 80.5405 53.2781 101.921 53.6392 106.267C57.795 106.115 73.455 105.526 81.9945 105.202C86.809 75.1684 78.1618 58.4442 78.1618 58.4442C78.1618 58.4442 76.3437 58.0894 73.8667 57.836C73.0875 57.7537 72.2513 57.684 71.3834 57.6396C70.902 57.608 70.4142 57.5953 69.9201 57.5826C66.7209 57.5319 61.4882 58.0387 57.89 58.4822C57.1361 58.5772 56.3696 58.6912 55.6284 58.8116C54.9379 58.932 54.2664 59.0523 53.6266 59.179C50.7378 59.7555 48.5079 60.3827 48.5079 60.3827L48.5016 60.389Z" fill="black"/>
<path opacity="0.2" d="M54.5389 69.0298C55.0457 70.9809 54.4692 79.8752 52.4294 82.0671C52.1506 79.2164 51.7832 76.2453 51.2954 73.2045L54.5389 69.0298Z" fill="black"/>
<path d="M58.0675 44.8491C59.1128 48.6628 60.3988 55.6946 57.8838 58.4819C60.1454 60.4141 63.0721 62.625 67.6776 62.4476C72.2831 62.2702 71.2442 59.1661 69.9075 57.5887C65.5174 56.8792 65.3907 53.6674 65.9165 50.6076L58.0612 44.8555L58.0675 44.8491Z" fill="#B55B52"/>
<path d="M67.798 61.7949L68.6343 62.3587L65.5808 63.2456L66.3663 61.8329L67.798 61.7949Z" fill="#5479F7"/>
<path d="M68.951 61.4976L68.6343 62.3591L71.7004 63.246L71.4913 61.6053L68.951 61.4976Z" fill="#5479F7"/>
<path d="M56.053 58.1905L57.263 57.5824C57.6558 57.386 58.1245 57.424 58.473 57.6837C59.74 58.6276 63.1101 60.8449 67.798 61.7888C65.3717 62.9481 65.9735 66.0459 65.9735 66.0459C65.9735 66.0459 58.2766 63.5055 55.8059 58.9127C55.6666 58.6466 55.7869 58.3172 56.053 58.1842V58.1905Z" fill="white"/>
<path d="M71.257 57.3926L69.4895 57.1265C69.2868 57.0948 69.1411 57.3229 69.2615 57.4939C69.8823 58.3682 70.9085 60.3067 68.951 61.4976C71.3773 62.6569 72.1249 65.4823 72.1249 65.4823C72.1249 65.4823 75.2797 62.0804 71.5991 57.589C71.5104 57.4813 71.39 57.4116 71.2506 57.3926H71.257Z" fill="white"/>
<path opacity="0.2" d="M61.2667 47.1992L65.9165 50.6011C65.7898 51.3233 65.7011 52.0581 65.7075 52.7613C64.0414 52.6473 61.6404 51.0065 61.3364 49.2897C61.1843 48.4345 61.159 47.6046 61.273 47.1929L61.2667 47.1992Z" fill="black"/>
<path d="M71.5292 37.0317C71.3138 38.8688 69.5527 40.4589 68.4061 40.858L66.9807 32.8379C70.1799 30.5827 71.827 34.447 71.5292 37.0317Z" fill="#263238"/>
<path d="M56.4647 39.2425C57.3896 44.4244 57.662 47.5096 60.6078 49.8852C65.0359 53.4581 71.2061 50.3223 71.8523 44.9693C72.4351 40.1484 70.826 32.4831 65.4793 30.9943C60.2087 29.5246 55.5461 34.0605 56.4647 39.2425Z" fill="#B55B52"/>
<path d="M57.453 42.7393C59.8539 44.0126 60.9118 41.1492 60.9308 39.9836C60.9625 38.1338 60.1643 36.1002 59.2077 35.3591C63.8449 35.3337 73.0116 35.131 70.6993 30.7155C68.3871 26.3001 63.7562 26.8069 60.2657 29.2205C58.4222 30.4938 52.4547 29.3852 53.9307 32.8251C50.8203 34.4785 53.5189 40.6424 57.453 42.7393Z" fill="#263238"/>
<path d="M54.4312 32.5404C54.4312 32.5404 53.4113 32.6355 52.1443 31.7612C52.5117 33.402 54.1715 33.44 54.1715 33.44L54.4312 32.5404Z" fill="#263238"/>
<path d="M54.5136 43.5058C55.1408 44.7792 56.2937 45.647 57.4087 46.0018C59.0811 46.5403 59.4612 45.0135 59.0558 43.3981C58.6883 41.9474 57.9028 39.9709 56.1987 40.1356C54.5199 40.294 53.7977 42.0488 54.5136 43.5058Z" fill="#B55B52"/>
<path d="M88.1648 161.285C86.011 145.239 81.9883 105.202 81.9883 105.202L63.3508 105.899C63.3508 105.899 72.1437 145.904 75.3239 162.128C78.504 178.352 87.354 217.502 87.354 217.502L95.7541 214.322C95.7541 214.322 90.4074 177.965 88.1648 161.279V161.285Z" fill="#263238"/>
<path opacity="0.2" d="M70.313 116.688C69.1473 116.979 67.3102 117.695 66.1699 118.81C67.931 126.899 70.2306 137.548 72.2008 146.931C73.5501 138.803 73.5881 123.46 70.313 116.688Z" fill="black"/>
<path d="M71.9347 105.582C71.9347 105.582 67.9817 149.014 66.1699 164.446C64.1871 181.354 61.7101 216.779 61.7101 216.779H51.9923C51.9923 216.779 51.5868 185.44 52.8538 168.894C54.2919 150.041 53.6394 106.26 53.6394 106.26L71.9347 105.569V105.582Z" fill="#263238"/>
<path d="M62.9961 216.995H51.5552L51.3145 213.574L64.0857 213.353L62.9961 216.995Z" fill="#5479F7"/>
<path d="M96.8816 214.119L86.8788 217.92L85.6498 214.683L96.774 210.267L96.8816 214.119Z" fill="#5479F7"/>
<path d="M64.5544 39.7876C64.6051 40.2121 64.8712 40.5288 65.1436 40.4971C65.416 40.4655 65.606 40.0917 65.5553 39.6673C65.5047 39.2428 65.2386 38.9261 64.9662 38.9577C64.6875 38.9894 64.5037 39.3632 64.5544 39.7876Z" fill="#263238"/>
<path d="M69.3563 39.2359C69.407 39.6603 69.6731 39.9771 69.9455 39.9454C70.2242 39.9137 70.4079 39.5399 70.3573 39.1155C70.3066 38.6911 70.0405 38.3743 69.7681 38.406C69.4957 38.4377 69.3057 38.8114 69.3563 39.2359Z" fill="#263238"/>
<path d="M67.855 39.6226C67.855 39.6226 69.103 41.9665 70.3066 43.0244C69.6351 43.81 68.3174 43.6389 68.3174 43.6389L67.855 39.6226Z" fill="#A02724"/>
<path d="M66.6578 44.9821C65.017 44.9504 64.1364 43.9115 64.0984 43.8671C64.0541 43.8164 64.0604 43.7341 64.1174 43.6897C64.1681 43.6454 64.2505 43.6517 64.2948 43.7088C64.3075 43.7214 65.3338 44.9251 67.1899 44.7097C67.2596 44.7033 67.3229 44.754 67.3293 44.8174C67.3356 44.8871 67.2849 44.9504 67.2216 44.9567C67.0252 44.9821 66.8415 44.9884 66.6641 44.9821H66.6578Z" fill="#263238"/>
<path d="M62.8947 38.4064C62.8503 38.4064 62.8123 38.3937 62.7743 38.3747C62.6539 38.305 62.6159 38.153 62.6856 38.0326C63.3888 36.8353 64.5481 36.772 64.5988 36.7656C64.7381 36.7656 64.8522 36.867 64.8585 37.0064C64.8585 37.1457 64.7571 37.2597 64.6178 37.2661C64.5798 37.2661 63.6739 37.3294 63.1164 38.286C63.0657 38.3684 62.9833 38.4127 62.8947 38.4127V38.4064Z" fill="#263238"/>
<path d="M71.2378 37.3425C71.1555 37.3425 71.0794 37.2982 71.0288 37.2285C70.4333 36.2909 69.5274 36.2656 69.4894 36.2592C69.35 36.2592 69.2423 36.1452 69.2423 36.0059C69.2423 35.8665 69.3563 35.7588 69.4957 35.7588C69.5464 35.7588 70.7057 35.7841 71.4532 36.9561C71.5292 37.0701 71.4912 37.2285 71.3772 37.3045C71.3328 37.3299 71.2822 37.3425 71.2378 37.3425Z" fill="#263238"/>
<path d="M61.2096 224.274C60.7218 224.274 60.1834 224.173 59.8096 224.084C59.7589 224.071 59.7209 224.033 59.7083 223.983C59.6956 223.932 59.7209 223.881 59.7589 223.856C59.949 223.736 61.6024 222.684 62.2042 222.988C62.2992 223.032 62.4133 223.134 62.4386 223.343C62.4703 223.622 62.3943 223.85 62.2106 224.008C61.9825 224.211 61.6087 224.28 61.2033 224.28L61.2096 224.274ZM60.1707 223.907C61.0829 224.09 61.7734 224.052 62.0522 223.812C62.1726 223.704 62.2232 223.558 62.1979 223.355C62.1852 223.26 62.1472 223.222 62.1092 223.21C61.7988 223.051 60.8422 223.508 60.1707 223.907Z" fill="#5479F7"/>
<path d="M59.8413 224.084C59.8413 224.084 59.7906 224.078 59.7716 224.065C59.7336 224.04 59.7083 223.995 59.7083 223.951C59.7083 223.888 59.7589 222.355 60.3544 221.854C60.5065 221.721 60.6838 221.67 60.8802 221.696C61.1843 221.734 61.273 221.917 61.2983 222.025C61.4377 222.614 60.4368 223.78 59.9046 224.078C59.8856 224.09 59.8666 224.09 59.8476 224.09L59.8413 224.084ZM60.8042 221.936C60.7028 221.936 60.6078 221.974 60.5191 222.044C60.139 222.367 60.0123 223.26 59.9743 223.704C60.5001 223.292 61.1336 222.412 61.0513 222.063C61.0449 222.032 61.0259 221.955 60.8612 221.936C60.8612 221.936 60.8232 221.936 60.8042 221.936Z" fill="#5479F7"/>
<path d="M96.2989 221.917C96.2546 221.917 96.2102 221.892 96.1849 221.854C96.1595 221.809 96.1659 221.746 96.2039 221.708C96.3876 221.505 97.9967 219.738 98.7252 219.846C98.8646 219.865 98.9723 219.947 99.0356 220.086C99.1433 220.314 99.1433 220.536 99.0356 220.739C98.6745 221.429 97.1795 221.771 96.3179 221.917C96.3179 221.917 96.3052 221.917 96.2989 221.917ZM98.6365 220.093C98.2121 220.105 97.2872 220.929 96.6473 221.6C97.813 221.366 98.6112 221.011 98.8139 220.625C98.8836 220.492 98.8836 220.346 98.8139 220.194C98.7885 220.137 98.7505 220.105 98.6935 220.099C98.6809 220.099 98.6618 220.099 98.6428 220.099L98.6365 220.093Z" fill="#5479F7"/>
<path d="M96.2988 221.917C96.2988 221.917 96.2735 221.917 96.2608 221.917C96.2165 221.905 96.1848 221.873 96.1722 221.829C96.1531 221.772 95.7857 220.384 96.2165 219.624C96.3495 219.396 96.5396 219.244 96.793 219.174C97.1287 219.085 97.2808 219.212 97.3568 219.339C97.6609 219.865 96.8817 221.385 96.3812 221.886C96.3559 221.911 96.3305 221.924 96.2988 221.924V221.917ZM96.9894 219.396C96.9577 219.396 96.9133 219.402 96.8627 219.415C96.6789 219.466 96.5396 219.573 96.4382 219.744C96.1531 220.245 96.2798 221.106 96.3622 221.524C96.831 220.923 97.3188 219.776 97.1414 219.459C97.1287 219.44 97.1034 219.39 96.9894 219.396Z" fill="#5479F7"/>
<path d="M54.3298 67.8828C52.7397 71.1643 51.1179 74.5471 49.5469 77.8793C48.7677 79.5581 47.9821 81.2242 47.2473 82.9029L46.145 85.4179L45.6192 86.6786L45.4862 86.9953L45.3911 87.2297C45.3278 87.3817 45.2834 87.5338 45.2264 87.6795C44.8463 88.8895 44.745 90.1628 45.0174 91.5311C45.2644 92.8995 45.8663 94.3439 46.6898 95.7439C47.5134 97.1502 48.5459 98.5249 49.7052 99.8299C50.2817 100.489 50.8835 101.135 51.517 101.749C51.8338 102.06 52.1569 102.364 52.4863 102.655C52.803 102.953 53.1578 103.263 53.4365 103.511L51.3207 106.887C50.3387 106.387 49.5152 105.899 48.6663 105.335C47.8238 104.778 47.0002 104.195 46.202 103.561C44.6119 102.288 43.1106 100.844 41.7739 99.1521C40.4499 97.467 39.2842 95.5032 38.5747 93.2226C37.8716 90.9547 37.6942 88.332 38.2707 85.8867C38.3467 85.5826 38.4164 85.2785 38.5114 84.9808L38.7584 84.1953L39.2082 82.8016C39.5186 81.883 39.8291 80.9581 40.1711 80.0522C40.8363 78.2341 41.5332 76.435 42.2807 74.6612C43.7631 71.1009 45.3658 67.661 47.1713 64.2085L54.3234 67.8764L54.3298 67.8828Z" fill="#B65B52"/>
<path d="M48.5017 60.3887C43.6618 61.9027 38.9043 78.3166 38.9043 78.3166L50.1045 83.2199C50.1045 83.2199 53.7281 75.2885 55.8123 69.0739C58.0802 62.3018 54.3679 58.5579 48.5081 60.3887H48.5017Z" fill="#5479F7"/>
<path opacity="0.2" d="M48.5017 60.3887C43.6618 61.9027 38.9043 78.3166 38.9043 78.3166L50.1045 83.2199C50.1045 83.2199 53.7281 75.2885 55.8123 69.0739C58.0802 62.3018 54.3679 58.5579 48.5081 60.3887H48.5017Z" fill="black"/>
<path d="M52.2647 102.472L56.8956 105.227L52.3914 109.713C52.3914 109.713 48.4764 106.703 49.6484 104.347L52.2647 102.478V102.472Z" fill="#B55B52"/>
<path d="M59.9933 109.617L55.3434 112.873L52.3914 109.712L56.8955 105.227L59.9933 109.617Z" fill="#B55B52"/>
<path d="M284.066 101.29L283.845 104.341L284.477 104.387L284.698 101.335L284.066 101.29Z" fill="#5479F7"/>
<path d="M284.894 89.7333L284.254 98.5854L284.886 98.6312L285.526 89.7791L284.894 89.7333Z" fill="#5479F7"/>
<path d="M267.564 189.292H112.396C107.658 189.292 104.053 185.415 104.395 180.67L112.605 66.1346C112.947 61.396 117.103 57.5127 121.841 57.5127H277.01C281.748 57.5127 285.353 61.3897 285.011 66.1346L276.801 180.67C276.459 185.409 272.303 189.292 267.564 189.292Z" fill="#5479F7"/>
<path d="M231.474 229.38H181.105L172.128 167.139H222.498L231.474 229.38Z" fill="#5479F7"/>
<path d="M223.473 225.667H168.993L167.909 229.38H222.396L223.473 225.667Z" fill="#5479F7"/>
<path d="M225.152 197.103L176.062 194.417L172.128 167.139H220.832L225.152 197.103Z" fill="#263238"/>
<path d="M265.816 189.292H110.648C105.909 189.292 102.305 185.415 102.647 180.67L110.857 66.1346C111.199 61.396 115.355 57.5127 120.093 57.5127H275.261C280 57.5127 283.605 61.3897 283.262 66.1346L275.052 180.67C274.71 185.409 270.555 189.292 265.816 189.292Z" fill="#263238"/>
<path d="M282.855 67.2406L278.146 132.943L278.752 132.986L283.462 67.2841L282.855 67.2406Z" fill="white"/>
<path d="M277.765 138.664L276.134 161.417L276.741 161.461L278.372 138.707L277.765 138.664Z" fill="white"/>
<path d="M265.487 187.145H111.281C107.588 187.145 104.788 184.123 105.054 180.436L113.232 66.3689C113.498 62.6756 116.736 59.6602 120.422 59.6602H274.628C278.321 59.6602 281.121 62.6819 280.855 66.3689L272.677 180.436C272.411 184.129 269.173 187.145 265.487 187.145Z" fill="white"/>
<path opacity="0.2" d="M265.487 187.145H111.281C107.588 187.145 104.788 184.123 105.054 180.436L113.232 66.3689C113.498 62.6756 116.736 59.6602 120.422 59.6602H274.628C278.321 59.6602 281.121 62.6819 280.855 66.3689L272.677 180.436C272.411 184.129 269.173 187.145 265.487 187.145Z" fill="#5479F7"/>
<path opacity="0.5" d="M150.837 182.09H114.822C113.042 182.09 111.687 180.633 111.813 178.846L119.764 67.953C119.89 66.1728 121.455 64.7095 123.235 64.7095H159.249C161.03 64.7095 162.385 66.1665 162.259 67.953L154.308 178.846C154.182 180.626 152.617 182.09 150.837 182.09Z" fill="white"/>
<path opacity="0.4" d="M149.443 80.3502H130.806C129.196 80.3502 127.98 79.0389 128.094 77.4298L128.297 74.5728C128.411 72.9637 129.817 71.6523 131.426 71.6523H150.064C151.673 71.6523 152.889 72.9637 152.775 74.5728L152.572 77.4298C152.458 79.0389 151.052 80.3502 149.443 80.3502Z" fill="#5479F7"/>
<path d="M137.59 125.209H109.134C106.334 125.209 104.205 122.915 104.401 120.115L106.441 91.6587C106.644 88.8587 109.102 86.5654 111.902 86.5654H140.359C143.159 86.5654 145.287 88.8587 145.091 91.6587L143.051 120.115C142.848 122.915 140.39 125.209 137.59 125.209Z" fill="#5479F7"/>
<path d="M141.67 101.877C140.599 101.877 139.668 102.751 139.592 103.815L139.294 107.946C139.218 109.016 140.029 109.884 141.1 109.884H143.989C144.255 109.884 144.483 109.669 144.502 109.403L145.008 102.352C145.027 102.086 144.825 101.871 144.559 101.871H141.67V101.877Z" fill="white"/>
<path d="M130.691 93.7996H112.757C112.326 93.7996 112.003 93.4512 112.035 93.0204C112.067 92.5896 112.44 92.2412 112.871 92.2412H130.805C131.236 92.2412 131.559 92.5896 131.528 93.0204C131.496 93.4512 131.122 93.7996 130.691 93.7996Z" fill="white"/>
<path d="M130.413 97.7654H112.478C112.048 97.7654 111.725 97.417 111.756 96.9862C111.788 96.5555 112.162 96.207 112.593 96.207H130.527C130.958 96.207 131.281 96.5555 131.249 96.9862C131.217 97.417 130.844 97.7654 130.413 97.7654Z" fill="white"/>
<path d="M123.926 101.724H112.187C111.756 101.724 111.433 101.376 111.465 100.945C111.496 100.514 111.87 100.166 112.301 100.166H124.04C124.47 100.166 124.794 100.514 124.762 100.945C124.73 101.376 124.356 101.724 123.926 101.724Z" fill="white"/>
<path opacity="0.5" d="M130.742 120.609H113.391C111.56 120.609 110.166 119.108 110.299 117.277L110.952 108.161C111.085 106.33 112.687 104.829 114.518 104.829H131.87C133.7 104.829 135.094 106.33 134.961 108.161L134.309 117.277C134.176 119.108 132.573 120.609 130.742 120.609Z" fill="white"/>
<path opacity="0.4" d="M146.94 135.864H125.351C124.559 135.864 123.951 135.211 124.008 134.419C124.065 133.628 124.762 132.975 125.554 132.975H147.143C147.935 132.975 148.543 133.628 148.486 134.419C148.429 135.211 147.732 135.864 146.94 135.864Z" fill="#5479F7"/>
<path opacity="0.8" d="M142.588 141.527H128.886C128.094 141.527 127.486 140.874 127.543 140.083C127.6 139.291 128.297 138.638 129.089 138.638H142.791C143.583 138.638 144.191 139.291 144.134 140.083C144.077 140.874 143.38 141.527 142.588 141.527Z" fill="white"/>
<path opacity="0.4" d="M145.819 151.504H124.23C123.438 151.504 122.83 150.852 122.887 150.06C122.944 149.268 123.641 148.616 124.432 148.616H146.022C146.814 148.616 147.422 149.268 147.365 150.06C147.308 150.852 146.611 151.504 145.819 151.504Z" fill="#5479F7"/>
<path opacity="0.8" d="M141.467 157.168H127.765C126.973 157.168 126.365 156.516 126.422 155.724C126.479 154.932 127.176 154.279 127.967 154.279H141.67C142.462 154.279 143.07 154.932 143.013 155.724C142.956 156.516 142.259 157.168 141.467 157.168Z" fill="white"/>
<path opacity="0.4" d="M144.698 167.139H123.108C122.317 167.139 121.708 166.487 121.765 165.695C121.822 164.903 122.519 164.25 123.311 164.25H144.901C145.693 164.25 146.301 164.903 146.244 165.695C146.187 166.487 145.49 167.139 144.698 167.139Z" fill="#5479F7"/>
<path opacity="0.8" d="M140.346 172.809H126.643C125.851 172.809 125.243 172.156 125.3 171.364C125.357 170.572 126.054 169.92 126.846 169.92H140.549C141.34 169.92 141.949 170.572 141.892 171.364C141.835 172.156 141.138 172.809 140.346 172.809Z" fill="white"/>
<path opacity="0.5" d="M267.159 149.572C268.096 148.147 270.238 148.749 270.124 150.402L268.046 179.385C267.938 180.88 266.81 182.09 265.531 182.09H161.105C159.826 182.09 158.869 180.873 158.977 179.385L160.212 162.166C160.377 159.841 162.74 158.169 164.913 158.847C170.798 160.684 175.841 159.607 180.528 157.282C190.55 152.303 198.938 141.628 210.461 141.628C210.904 141.628 211.335 141.641 211.76 141.666C228.902 142.699 234.122 163.991 247.406 163.991C251.334 163.991 254.913 162.299 258.037 159.879C261.857 156.921 264.98 152.892 267.153 149.572H267.159Z" fill="#5479F7"/>
<path opacity="0.5" d="M269.325 161.514L268.046 179.384C267.938 180.88 266.81 182.09 265.531 182.09H161.105C159.826 182.09 158.869 180.873 158.977 179.384L161.524 143.871C161.701 141.438 164.887 140.418 166.173 142.382C169.506 147.463 174.631 154.032 180.528 157.276C182.79 158.517 185.153 159.271 187.579 159.271C196.017 159.271 203.195 149.262 211.76 141.66C217.018 136.997 222.789 133.234 229.7 133.234C244.125 133.234 246.254 156.674 258.03 159.879C260.298 160.5 262.927 160.367 266.069 159.163C267.754 158.523 269.439 159.752 269.313 161.514H269.325Z" fill="#5479F7"/>
<g opacity="0.8">
<path d="M269.839 154.589C269.782 154.589 269.731 154.564 269.687 154.526C269.668 154.507 269.649 154.482 269.642 154.456C269.63 154.431 269.623 154.399 269.623 154.374C269.623 154.311 269.649 154.26 269.687 154.222C269.763 154.14 269.908 154.133 269.991 154.222C270.035 154.26 270.054 154.317 270.054 154.374C270.054 154.399 270.054 154.431 270.041 154.456C270.029 154.482 270.01 154.507 269.991 154.526C269.953 154.564 269.896 154.589 269.839 154.589Z" fill="white"/>
<path d="M168.308 169.432C168.188 169.432 168.093 169.337 168.093 169.217C168.093 169.103 168.188 169.008 168.308 169.008C168.429 169.008 168.524 169.103 168.524 169.217C168.524 169.337 168.429 169.439 168.308 169.439V169.432ZM166.135 169.312C166.015 169.312 165.926 169.198 165.939 169.078C165.952 168.957 166.059 168.875 166.18 168.887C166.3 168.9 166.382 169.008 166.37 169.122C166.357 169.236 166.262 169.318 166.154 169.318C166.154 169.318 166.142 169.318 166.129 169.318L166.135 169.312ZM170.234 169.122C170.221 169.002 170.304 168.894 170.424 168.881C170.545 168.868 170.652 168.951 170.665 169.071C170.678 169.192 170.595 169.299 170.475 169.312H170.45C170.342 169.312 170.247 169.23 170.234 169.122ZM163.994 168.983C163.88 168.957 163.804 168.843 163.823 168.723C163.849 168.609 163.963 168.533 164.083 168.552C164.197 168.577 164.273 168.691 164.254 168.811C164.229 168.913 164.14 168.983 164.039 168.983H163.994ZM172.35 168.767C172.318 168.647 172.388 168.533 172.508 168.501C172.622 168.476 172.736 168.545 172.768 168.659C172.8 168.773 172.724 168.894 172.61 168.925H172.559C172.458 168.925 172.369 168.862 172.35 168.767ZM241.635 168.856C241.515 168.856 241.42 168.761 241.42 168.64C241.42 168.52 241.521 168.425 241.635 168.425C241.756 168.425 241.851 168.52 241.851 168.64C241.851 168.761 241.756 168.856 241.635 168.856ZM243.568 168.552C243.555 168.431 243.644 168.324 243.758 168.317C243.878 168.298 243.986 168.387 243.998 168.507C244.011 168.628 243.922 168.735 243.802 168.748H243.783C243.675 168.748 243.58 168.666 243.568 168.552ZM239.469 168.723C239.355 168.71 239.266 168.602 239.285 168.482C239.298 168.362 239.405 168.279 239.526 168.292C239.646 168.311 239.729 168.419 239.716 168.533C239.697 168.647 239.608 168.729 239.501 168.729C239.501 168.729 239.482 168.729 239.469 168.729V168.723ZM161.891 168.463C161.777 168.431 161.707 168.311 161.739 168.197C161.777 168.083 161.891 168.013 162.011 168.045C162.125 168.083 162.189 168.197 162.157 168.317C162.132 168.412 162.043 168.469 161.948 168.469C161.948 168.469 161.91 168.469 161.891 168.469V168.463ZM245.696 168.254C245.671 168.134 245.747 168.02 245.867 168.001C245.981 167.975 246.095 168.051 246.121 168.172C246.146 168.286 246.07 168.4 245.95 168.425C245.95 168.425 245.924 168.425 245.911 168.425C245.81 168.425 245.715 168.349 245.696 168.248V168.254ZM237.34 168.33C237.22 168.305 237.15 168.191 237.182 168.07C237.207 167.956 237.321 167.887 237.442 167.912C237.556 167.937 237.625 168.058 237.6 168.172C237.575 168.273 237.486 168.336 237.391 168.336C237.391 168.336 237.353 168.336 237.34 168.336V168.33ZM174.403 168.153C174.358 168.039 174.415 167.912 174.529 167.874C174.637 167.83 174.764 167.887 174.808 167.994C174.846 168.108 174.795 168.235 174.681 168.273C174.681 168.273 174.631 168.292 174.605 168.292C174.517 168.292 174.434 168.235 174.403 168.153ZM247.793 167.779C247.761 167.658 247.825 167.538 247.945 167.506C248.059 167.475 248.179 167.544 248.211 167.658C248.243 167.773 248.173 167.893 248.059 167.925C248.059 167.925 248.021 167.937 248.002 167.937C247.907 167.937 247.818 167.874 247.793 167.779ZM235.262 167.703C235.148 167.665 235.091 167.538 235.129 167.43C235.174 167.316 235.294 167.259 235.408 167.297C235.522 167.342 235.579 167.462 235.541 167.576C235.509 167.665 235.421 167.716 235.332 167.716C235.332 167.716 235.281 167.715 235.262 167.703ZM176.373 167.297C176.316 167.196 176.36 167.063 176.468 167.006C176.575 166.955 176.702 167.006 176.759 167.107C176.81 167.209 176.772 167.342 176.664 167.392C176.664 167.392 176.601 167.418 176.563 167.418C176.487 167.418 176.411 167.373 176.373 167.297ZM249.852 167.145C249.807 167.031 249.871 166.911 249.979 166.873C250.086 166.829 250.213 166.892 250.251 167C250.289 167.114 250.232 167.24 250.118 167.278C250.118 167.278 250.074 167.291 250.048 167.291C249.96 167.291 249.877 167.234 249.845 167.145H249.852ZM233.261 166.879C233.153 166.835 233.102 166.702 233.153 166.594C233.204 166.487 233.33 166.442 233.438 166.487C233.552 166.537 233.596 166.664 233.546 166.778C233.508 166.854 233.432 166.905 233.349 166.905C233.349 166.905 233.286 166.898 233.261 166.879ZM251.86 166.385C251.816 166.277 251.86 166.151 251.98 166.106C252.088 166.056 252.215 166.106 252.259 166.22C252.31 166.328 252.259 166.455 252.145 166.506C252.145 166.506 252.088 166.518 252.063 166.518C251.974 166.518 251.898 166.468 251.86 166.385ZM178.248 166.258C178.185 166.157 178.216 166.018 178.318 165.954C178.419 165.891 178.552 165.923 178.615 166.024C178.679 166.125 178.647 166.258 178.546 166.322C178.546 166.322 178.47 166.36 178.432 166.36C178.362 166.36 178.292 166.322 178.248 166.258ZM231.328 165.91C231.221 165.853 231.183 165.72 231.24 165.612C231.297 165.511 231.43 165.473 231.537 165.53C231.639 165.587 231.677 165.714 231.62 165.821C231.582 165.891 231.506 165.935 231.43 165.935C231.398 165.935 231.36 165.923 231.328 165.91ZM253.83 165.517C253.78 165.41 253.83 165.283 253.932 165.232C254.039 165.182 254.172 165.232 254.223 165.334C254.274 165.441 254.223 165.568 254.115 165.619C254.115 165.619 254.052 165.644 254.02 165.644C253.938 165.644 253.862 165.6 253.824 165.517H253.83ZM180.034 165.067C179.965 164.966 179.99 164.833 180.085 164.763C180.18 164.694 180.319 164.713 180.389 164.808C180.459 164.903 180.433 165.042 180.338 165.112C180.3 165.137 180.256 165.156 180.212 165.156C180.142 165.156 180.079 165.125 180.034 165.067ZM229.46 164.827C229.358 164.763 229.327 164.63 229.39 164.529C229.447 164.421 229.58 164.39 229.681 164.453C229.789 164.516 229.821 164.649 229.757 164.751C229.713 164.82 229.643 164.858 229.574 164.858C229.536 164.858 229.491 164.846 229.46 164.827ZM255.756 164.554C255.699 164.453 255.737 164.32 255.845 164.263C255.946 164.206 256.079 164.25 256.136 164.352C256.193 164.459 256.155 164.586 256.047 164.649C256.047 164.649 255.978 164.675 255.946 164.675C255.87 164.675 255.794 164.63 255.756 164.554ZM181.757 163.769C181.681 163.674 181.694 163.541 181.789 163.465C181.884 163.389 182.017 163.408 182.093 163.496C182.169 163.591 182.15 163.731 182.062 163.807C182.017 163.839 181.973 163.851 181.922 163.851C181.859 163.851 181.795 163.826 181.757 163.769ZM227.635 163.674C227.534 163.604 227.508 163.471 227.572 163.37C227.641 163.268 227.775 163.243 227.876 163.306C227.971 163.37 228.003 163.509 227.939 163.604C227.895 163.674 227.825 163.705 227.756 163.705C227.711 163.705 227.673 163.693 227.635 163.674ZM257.637 163.515C257.574 163.408 257.612 163.281 257.713 163.218C257.815 163.161 257.948 163.192 258.011 163.294C258.068 163.395 258.037 163.528 257.935 163.591C257.897 163.61 257.859 163.623 257.821 163.623C257.752 163.623 257.675 163.585 257.637 163.515ZM225.842 162.476C225.747 162.407 225.716 162.274 225.785 162.172C225.855 162.077 225.988 162.052 226.089 162.115C226.184 162.185 226.21 162.318 226.146 162.419C226.102 162.483 226.032 162.515 225.963 162.515C225.925 162.515 225.88 162.502 225.842 162.476ZM259.475 162.4C259.411 162.299 259.443 162.166 259.544 162.096C259.646 162.033 259.779 162.065 259.842 162.166C259.905 162.267 259.874 162.4 259.772 162.464C259.772 162.464 259.703 162.502 259.658 162.502C259.589 162.502 259.519 162.464 259.475 162.4ZM183.424 162.413C183.348 162.324 183.36 162.185 183.449 162.109C183.544 162.033 183.683 162.046 183.759 162.134C183.835 162.229 183.823 162.362 183.728 162.438C183.69 162.476 183.639 162.489 183.588 162.489C183.531 162.489 183.468 162.464 183.424 162.413ZM261.28 161.222C261.21 161.121 261.236 160.988 261.331 160.918C261.432 160.848 261.565 160.874 261.635 160.975C261.698 161.07 261.679 161.21 261.578 161.273C261.54 161.298 261.495 161.311 261.457 161.311C261.388 161.311 261.318 161.279 261.28 161.222ZM224.062 161.273C223.961 161.203 223.936 161.07 224.005 160.975C224.069 160.874 224.202 160.848 224.303 160.912C224.404 160.981 224.43 161.114 224.36 161.216C224.322 161.279 224.252 161.311 224.183 161.311C224.145 161.311 224.1 161.298 224.062 161.273ZM185.077 161.032C184.995 160.943 185.007 160.804 185.102 160.728C185.191 160.652 185.33 160.665 185.406 160.753C185.482 160.848 185.47 160.981 185.381 161.057C185.337 161.095 185.292 161.108 185.242 161.108C185.178 161.108 185.115 161.083 185.077 161.032ZM222.276 160.082C222.174 160.012 222.143 159.879 222.212 159.784C222.276 159.683 222.415 159.651 222.51 159.721C222.612 159.784 222.637 159.917 222.574 160.019C222.536 160.082 222.466 160.114 222.396 160.114C222.352 160.114 222.314 160.114 222.276 160.082ZM263.041 159.981C262.965 159.886 262.991 159.752 263.086 159.683C263.181 159.613 263.32 159.632 263.39 159.727C263.459 159.822 263.434 159.962 263.339 160.031C263.301 160.057 263.257 160.069 263.212 160.069C263.149 160.069 263.079 160.044 263.041 159.981ZM186.73 159.657C186.654 159.569 186.667 159.429 186.762 159.353C186.857 159.277 186.99 159.296 187.066 159.385C187.142 159.48 187.129 159.619 187.034 159.689C186.996 159.727 186.946 159.74 186.895 159.74C186.838 159.74 186.775 159.714 186.73 159.657ZM220.47 158.923C220.369 158.859 220.337 158.726 220.401 158.625C220.464 158.523 220.597 158.492 220.698 158.555C220.8 158.619 220.831 158.752 220.768 158.853C220.724 158.923 220.654 158.961 220.584 158.961C220.546 158.961 220.502 158.948 220.47 158.923ZM264.764 158.695C264.688 158.6 264.707 158.46 264.802 158.39C264.897 158.314 265.03 158.333 265.106 158.428C265.176 158.523 265.157 158.657 265.068 158.733C265.03 158.764 264.986 158.777 264.942 158.777C264.872 158.777 264.809 158.745 264.771 158.695H264.764ZM188.415 158.327C188.346 158.232 188.365 158.093 188.46 158.023C188.555 157.953 188.688 157.972 188.764 158.067C188.834 158.162 188.815 158.295 188.72 158.371C188.682 158.397 188.637 158.416 188.593 158.416C188.523 158.416 188.46 158.384 188.415 158.327ZM218.627 157.827C218.525 157.77 218.487 157.637 218.551 157.529C218.608 157.428 218.741 157.39 218.842 157.453C218.95 157.51 218.988 157.643 218.925 157.744C218.887 157.814 218.811 157.858 218.735 157.858C218.703 157.858 218.665 157.846 218.627 157.827ZM266.443 157.352C266.367 157.263 266.38 157.123 266.475 157.047C266.57 156.971 266.703 156.984 266.779 157.079C266.855 157.168 266.842 157.307 266.753 157.383C266.709 157.415 266.658 157.434 266.614 157.434C266.551 157.434 266.487 157.409 266.443 157.352ZM190.164 157.073C190.094 156.971 190.12 156.838 190.221 156.769C190.322 156.705 190.455 156.731 190.525 156.832C190.588 156.927 190.563 157.066 190.462 157.13C190.424 157.155 190.386 157.168 190.341 157.168C190.272 157.168 190.202 157.13 190.164 157.073ZM216.745 156.807C216.644 156.756 216.6 156.623 216.657 156.515C216.707 156.408 216.84 156.37 216.948 156.42C217.049 156.477 217.094 156.61 217.043 156.718C217.005 156.788 216.923 156.832 216.847 156.832C216.847 156.832 216.777 156.832 216.745 156.807ZM268.09 155.964C268.014 155.875 268.02 155.736 268.109 155.66C268.198 155.584 268.331 155.59 268.413 155.679C268.489 155.768 268.477 155.907 268.388 155.983C268.35 156.021 268.299 156.04 268.249 156.04C268.185 156.04 268.128 156.015 268.084 155.964H268.09ZM191.982 155.926C191.919 155.825 191.957 155.692 192.064 155.628C192.166 155.571 192.299 155.609 192.356 155.711C192.413 155.818 192.381 155.945 192.273 156.009C192.235 156.028 192.197 156.034 192.166 156.034C192.09 156.034 192.014 155.996 191.976 155.926H191.982ZM214.82 155.888C214.712 155.837 214.661 155.711 214.712 155.603C214.756 155.495 214.889 155.445 214.997 155.495C215.105 155.54 215.155 155.666 215.105 155.78C215.073 155.856 214.991 155.907 214.908 155.907C214.877 155.907 214.851 155.907 214.82 155.888ZM212.843 155.084C212.729 155.046 212.672 154.919 212.716 154.805C212.754 154.697 212.881 154.64 212.995 154.678C213.103 154.723 213.16 154.843 213.122 154.957C213.09 155.046 213.008 155.096 212.919 155.096C212.919 155.096 212.868 155.096 212.843 155.084ZM193.883 154.932C193.838 154.824 193.883 154.691 193.99 154.647C194.098 154.596 194.231 154.647 194.282 154.754C194.326 154.862 194.282 154.989 194.168 155.039C194.168 155.039 194.111 155.058 194.079 155.058C193.997 155.058 193.921 155.014 193.883 154.932ZM210.816 154.418C210.702 154.38 210.638 154.266 210.67 154.146C210.702 154.032 210.829 153.969 210.943 154C211.057 154.032 211.12 154.152 211.088 154.273C211.057 154.361 210.974 154.425 210.879 154.425C210.879 154.425 210.841 154.425 210.816 154.425V154.418ZM195.872 154.121C195.834 154.007 195.897 153.886 196.011 153.848C196.125 153.81 196.245 153.874 196.283 153.988C196.321 154.102 196.258 154.222 196.144 154.26C196.144 154.26 196.1 154.273 196.074 154.273C195.986 154.273 195.903 154.216 195.872 154.121ZM208.751 153.893C208.637 153.867 208.561 153.753 208.586 153.639C208.611 153.519 208.725 153.443 208.846 153.475C208.96 153.494 209.036 153.608 209.01 153.728C208.991 153.829 208.896 153.899 208.795 153.899C208.795 153.899 208.77 153.899 208.751 153.899V153.893ZM197.931 153.532C197.905 153.411 197.981 153.297 198.102 153.272C198.216 153.246 198.33 153.322 198.355 153.437C198.38 153.557 198.311 153.671 198.19 153.696C198.19 153.696 198.159 153.696 198.146 153.696C198.045 153.696 197.956 153.627 197.931 153.525V153.532ZM206.654 153.525C206.54 153.506 206.451 153.399 206.47 153.278C206.483 153.158 206.597 153.075 206.711 153.094C206.825 153.107 206.907 153.221 206.895 153.341C206.876 153.443 206.787 153.525 206.679 153.525H206.647H206.654ZM200.046 153.164C200.034 153.044 200.122 152.942 200.236 152.93C200.357 152.911 200.465 152.999 200.477 153.12C200.49 153.24 200.401 153.341 200.281 153.361H200.262C200.154 153.361 200.059 153.278 200.046 153.164ZM204.532 153.303H204.538C204.418 153.303 204.323 153.196 204.335 153.075C204.335 152.955 204.443 152.866 204.563 152.873C204.684 152.873 204.772 152.987 204.766 153.107C204.766 153.221 204.665 153.31 204.551 153.31C204.551 153.31 204.538 153.303 204.532 153.303ZM202.188 153.025C202.181 152.904 202.283 152.809 202.403 152.809C202.517 152.803 202.618 152.904 202.618 153.025C202.618 153.145 202.523 153.24 202.403 153.24C202.283 153.24 202.188 153.145 202.188 153.025Z" fill="white"/>
<path d="M159.826 167.785C159.826 167.785 159.769 167.785 159.744 167.766C159.718 167.754 159.693 167.741 159.674 167.716C159.655 167.697 159.636 167.678 159.629 167.646C159.617 167.621 159.61 167.595 159.61 167.564C159.61 167.507 159.636 167.456 159.674 167.411C159.693 167.392 159.718 167.373 159.744 167.367C159.794 167.342 159.858 167.342 159.908 167.367C159.94 167.367 159.959 167.392 159.978 167.411C160.022 167.456 160.041 167.507 160.041 167.564C160.041 167.595 160.041 167.621 160.029 167.646C160.016 167.678 160.003 167.697 159.978 167.716C159.959 167.741 159.934 167.754 159.908 167.766C159.883 167.779 159.858 167.785 159.826 167.785Z" fill="white"/>
</g>
<path d="M194.561 102.909L193.078 101.313C190.455 103.765 186.959 105.279 183.221 105.279C176.956 105.279 171.989 101.022 170.861 95.2441L168.644 95.827L166.617 96.3591C167.213 99.3872 168.606 102.149 170.665 104.366C177.095 111.291 188.492 111.291 195.916 104.366L194.567 102.909H194.561Z" fill="white"/>
<path d="M197.722 79.1147L195.783 80.9202L194.446 82.1682C196.721 84.6135 198 88.0027 197.728 91.7403C197.462 95.4779 195.701 98.8671 193.078 101.319L194.237 102.567L195.91 104.366C199.495 101.015 201.706 96.4789 202.042 91.7403C202.384 87.0081 200.826 82.4659 197.715 79.1147H197.722Z" fill="#263238"/>
<path d="M197.722 79.115C191.292 72.1908 179.895 72.1908 172.47 79.115C167.65 83.6191 165.407 90.2075 166.611 96.3587L169.119 95.6999L170.855 95.2437C170.64 94.1288 170.564 92.9505 170.652 91.7405C171.191 84.2653 177.684 78.2027 185.159 78.2027C188.897 78.2027 192.172 79.7168 194.446 82.1684L196.157 80.572L197.715 79.115H197.722Z" fill="#5479F7"/>
<path d="M215.922 102.909L217.632 101.313C215.358 98.8613 214.085 95.4784 214.357 91.7344C214.807 85.4692 219.438 80.1985 225.329 78.6528L224.905 76.4735L224.512 74.4844C221.427 75.2952 218.551 76.8917 216.175 79.1026C208.751 86.0267 207.933 97.4232 214.363 104.354L215.922 102.897V102.909Z" fill="white"/>
<path d="M239.608 104.366L237.93 102.56L236.77 101.312C234.148 103.764 230.657 105.285 226.913 105.285C223.169 105.285 219.894 103.77 217.62 101.319L216.283 102.567L214.351 104.366C217.461 107.717 221.864 109.599 226.603 109.599C231.341 109.599 236.016 107.717 239.602 104.366H239.608Z" fill="#263238"/>
<path d="M239.608 104.366C247.026 97.4421 247.844 86.0455 241.42 79.115C237.239 74.6109 230.777 72.8498 224.506 74.4969L224.987 76.9548L225.323 78.6589C226.463 78.3612 227.654 78.2028 228.858 78.2028C236.333 78.2028 241.959 84.2654 241.426 91.7406C241.16 95.4782 239.399 98.8611 236.777 101.313L238.259 102.909L239.608 104.366Z" fill="#5479F7"/>
<path opacity="0.3" d="M269.528 75.4784C269.889 75.4784 270.219 75.6177 270.459 75.8711C270.7 76.1245 270.814 76.4666 270.789 76.8341L270.003 87.7618C269.946 88.541 269.243 89.1999 268.464 89.1999H257.536C257.175 89.1999 256.846 89.0605 256.605 88.8071C256.364 88.5537 256.25 88.2116 256.276 87.8442L257.061 76.9164C257.118 76.1372 257.821 75.4784 258.6 75.4784H269.528ZM269.528 74.9209H258.6C257.524 74.9209 256.58 75.8015 256.504 76.8784L255.718 87.8062C255.642 88.8831 256.459 89.7637 257.536 89.7637H268.464C269.541 89.7637 270.485 88.8831 270.561 87.8062L271.346 76.8784C271.422 75.8015 270.605 74.9209 269.528 74.9209Z" fill="#5479F7"/>
<path opacity="0.3" d="M268.179 94.2806C268.54 94.2806 268.869 94.42 269.11 94.6734C269.351 94.9268 269.465 95.2689 269.44 95.6363L268.654 106.564C268.597 107.343 267.894 108.002 267.115 108.002H256.187C255.826 108.002 255.496 107.863 255.256 107.609C255.015 107.356 254.901 107.014 254.926 106.646L255.712 95.7187C255.769 94.9395 256.472 94.2806 257.251 94.2806H268.179ZM268.179 93.7231H257.251C256.174 93.7231 255.23 94.6037 255.154 95.6807L254.369 106.608C254.293 107.685 255.11 108.566 256.187 108.566H267.115C268.192 108.566 269.135 107.685 269.211 106.608L269.997 95.6807C270.073 94.6037 269.256 93.7231 268.179 93.7231Z" fill="#5479F7"/>
<path d="M252.183 154.748C252.487 154.748 252.766 154.868 252.969 155.077C253.165 155.293 253.267 155.578 253.241 155.888C253.191 156.56 252.608 157.111 251.936 157.111C251.632 157.111 251.353 156.99 251.151 156.781C250.954 156.566 250.853 156.281 250.878 155.971C250.929 155.299 251.512 154.748 252.183 154.748ZM252.183 154.184C251.22 154.184 250.39 154.963 250.321 155.926C250.251 156.889 250.973 157.668 251.936 157.668C252.899 157.668 253.729 156.889 253.799 155.926C253.868 154.963 253.146 154.184 252.183 154.184Z" fill="#5479F7"/>
<path d="M252.322 154.197L252.044 154.178L252.088 153.621L252.367 153.64L252.322 154.197Z" fill="#5479F7"/>
<path d="M252.443 152.493L252.164 152.474L252.246 151.328L252.525 151.347L252.443 152.493ZM252.607 150.206L252.329 150.187L252.411 149.041L252.69 149.06L252.607 150.206ZM252.772 147.919L252.493 147.9L252.576 146.754L252.855 146.773L252.772 147.919ZM252.937 145.633L252.658 145.614L252.741 144.467L253.019 144.486L252.937 145.633ZM253.102 143.346L252.823 143.327L252.905 142.18L253.184 142.199L253.102 143.346ZM253.266 141.052L252.988 141.033L253.07 139.887L253.349 139.906L253.266 141.052ZM253.431 138.765L253.152 138.746L253.235 137.6L253.513 137.619L253.431 138.765ZM253.596 136.479L253.317 136.46L253.399 135.313L253.678 135.332L253.596 136.479ZM253.76 134.192L253.482 134.173L253.564 133.026L253.843 133.045L253.76 134.192ZM253.919 131.905L253.64 131.886L253.722 130.739L254.001 130.758L253.919 131.905ZM254.084 129.611L253.805 129.592L253.887 128.446L254.166 128.465L254.084 129.611Z" fill="#5479F7"/>
<path d="M254.007 126.751L253.968 127.307L254.246 127.326L254.285 126.77L254.007 126.751Z" fill="#5479F7"/>
<path d="M265.955 127.064H165.641C165.078 127.064 164.558 126.842 164.178 126.437C163.798 126.031 163.614 125.493 163.658 124.929L164.153 118.024C164.235 116.871 165.242 115.927 166.395 115.927H266.709C267.273 115.927 267.792 116.149 268.173 116.554C268.553 116.96 268.736 117.498 268.698 118.062L268.204 124.967C268.122 126.12 267.115 127.064 265.962 127.064H265.955ZM166.402 116.529C165.559 116.529 164.824 117.213 164.761 118.062L164.267 124.967C164.241 125.366 164.368 125.74 164.628 126.019C164.887 126.298 165.249 126.456 165.648 126.456H265.962C266.804 126.456 267.539 125.772 267.602 124.923L268.097 118.018C268.122 117.619 267.995 117.245 267.735 116.966C267.476 116.687 267.115 116.535 266.715 116.535H166.402V116.529Z" fill="#5479F7"/>
<path opacity="0.8" fill-rule="evenodd" clip-rule="evenodd" d="M263.801 120.375H168.714C168.194 120.375 167.802 119.95 167.84 119.437C167.878 118.918 168.327 118.5 168.847 118.5H263.934C264.454 118.5 264.847 118.924 264.809 119.437C264.771 119.957 264.321 120.375 263.801 120.375Z" fill="white"/>
<path opacity="0.8" fill-rule="evenodd" clip-rule="evenodd" d="M247.958 124.34H168.429C167.909 124.34 167.517 123.916 167.555 123.402C167.593 122.883 168.042 122.465 168.562 122.465H248.091C248.61 122.465 249.003 122.889 248.965 123.402C248.927 123.922 248.477 124.34 247.958 124.34Z" fill="white"/>
</g>
<defs>
<clipPath id="clip0_483_6756">
<rect width="316.748" height="236.047" fill="white" transform="translate(0.0267334 0.504395)"/>
</clipPath>
</defs>
</svg>
