<svg width="254" height="231" viewBox="0 0 254 231" fill="none" xmlns="http://www.w3.org/2000/svg">
<g clip-path="url(#clip0_831_19590)">
<path d="M225.511 176.057H133.69C132.049 176.057 130.713 174.524 130.713 172.64V19.2577C130.713 17.3741 132.049 15.8408 133.69 15.8408H225.511C227.152 15.8408 228.488 17.3741 228.488 19.2577V172.64C228.488 174.524 227.152 176.057 225.511 176.057ZM133.69 15.9881C132.121 15.9881 130.84 17.4553 130.84 19.2577V172.64C130.84 174.442 132.121 175.91 133.69 175.91H225.511C227.081 175.91 228.361 174.442 228.361 172.64V19.2577C228.361 17.4553 227.081 15.9881 225.511 15.9881H133.69Z" fill="#E0E0E0"/>
<path d="M119.629 176.057H27.8128C26.172 176.057 24.8359 174.524 24.8359 172.64V19.2577C24.8359 17.3741 26.172 15.8408 27.8128 15.8408H119.634C121.275 15.8408 122.611 17.3741 122.611 19.2577V172.64C122.611 174.524 121.275 176.057 119.634 176.057H119.629ZM27.8128 15.9881C26.2431 15.9881 24.9629 17.4553 24.9629 19.2577V172.64C24.9629 174.442 26.2431 175.91 27.8128 175.91H119.634C121.204 175.91 122.484 174.442 122.484 172.64V19.2577C122.484 17.4553 121.204 15.9881 119.634 15.9881H27.8128Z" fill="#E0E0E0"/>
<path d="M254 196.02H0V196.146H254V196.02Z" fill="#E0E0E0"/>
<path d="M34.407 203.265H26.2485V203.392H34.407V203.265Z" fill="#E0E0E0"/>
<path d="M113.731 201.889H86.5376V202.016H113.731V201.889Z" fill="#E0E0E0"/>
<path d="M53.33 207.981H34.915V208.108H53.33V207.981Z" fill="#E0E0E0"/>
<path d="M214.142 201.823H192.202V201.95H214.142V201.823Z" fill="#E0E0E0"/>
<path d="M221.884 201.823H218.668V201.95H221.884V201.823Z" fill="#E0E0E0"/>
<path d="M188.011 204.985H160.635V205.112H188.011V204.985Z" fill="#E0E0E0"/>
<path d="M81.7016 84.5637C80.4774 90.5089 80.457 96.515 81.468 102.293L73.2739 106.476L79.822 122.951L88.6511 120.372C91.882 125.271 96.0272 129.622 100.995 133.105L98.171 141.828L114.457 148.849L118.862 140.807C124.811 142.031 130.82 142.051 136.601 141.041L140.787 149.23L157.272 142.68L154.691 133.857C159.593 130.623 163.947 126.485 167.432 121.514L176.159 124.337L183.185 108.06L175.138 103.658C176.362 97.7132 176.383 91.707 175.372 85.9294L183.566 81.7459L177.018 65.2709L168.189 67.8501C164.958 62.9507 160.812 58.5997 155.839 55.1169L158.664 46.3945L142.377 39.373L137.973 47.415C132.024 46.1914 126.014 46.166 120.233 47.1814L116.048 38.9922L99.5629 45.5416L102.144 54.3654C97.2414 57.5944 92.8878 61.7373 89.4029 66.7026L80.6755 63.8798L73.6498 80.1568L81.6966 84.5586L81.7016 84.5637ZM137.709 71.9675C149.235 76.9329 154.549 90.3007 149.581 101.82C144.607 113.34 131.237 118.651 119.71 113.686C108.184 108.72 102.87 95.3524 107.838 83.8326C112.806 72.3128 126.182 67.0022 137.709 71.9675Z" fill="#EBEBEB"/>
<path d="M35.0624 134.897C34.6458 136.918 34.6407 138.959 34.9811 140.929L32.1973 142.35L34.4223 147.95L37.4246 147.072C38.5219 148.737 39.9341 150.22 41.6207 151.403L40.6605 154.368L46.1977 156.754L47.6963 154.017C49.7182 154.434 51.7603 154.439 53.7314 154.099L55.1538 156.881L60.757 154.652L59.8782 151.651C61.5444 150.555 63.0278 149.143 64.2114 147.453L67.1781 148.412L69.5657 142.878L66.8276 141.381C67.2442 139.36 67.2493 137.319 66.9089 135.349L69.6927 133.927L67.4677 128.327L64.4654 129.206C63.3681 127.541 61.9559 126.058 60.2643 124.875L61.2244 121.91L55.6872 119.524L54.1886 122.26C52.1667 121.844 50.1195 121.834 48.1535 122.179L46.7311 119.397L41.1279 121.626L42.0067 124.626C40.3405 125.723 38.8571 127.134 37.6735 128.82L34.7068 127.86L32.3192 133.394L35.0573 134.892L35.0624 134.897ZM54.1073 130.612C58.0291 132.303 59.8325 136.847 58.1459 140.766C56.4543 144.686 51.9077 146.488 47.9859 144.802C44.0641 143.112 42.2607 138.568 43.9473 134.648C45.6389 130.729 50.1855 128.927 54.1073 130.612Z" fill="#EBEBEB"/>
<path d="M162.9 166.979C162.519 168.837 162.509 170.711 162.829 172.513L160.269 173.818L162.316 178.961L165.075 178.154C166.086 179.682 167.376 181.042 168.93 182.129L168.047 184.85L173.132 187.043L174.508 184.53C176.368 184.911 178.242 184.921 180.045 184.601L181.351 187.16L186.497 185.114L185.689 182.357C187.218 181.347 188.58 180.057 189.667 178.504L192.39 179.387L194.584 174.305L192.07 172.929C192.451 171.071 192.461 169.198 192.141 167.395L194.701 166.09L192.654 160.947L189.896 161.755C188.885 160.227 187.594 158.866 186.04 157.779L186.924 155.058L181.839 152.865L180.462 155.378C178.603 154.997 176.728 154.987 174.925 155.307L173.619 152.748L168.473 154.794L169.281 157.551C167.752 158.561 166.39 159.851 165.303 161.404L162.58 160.521L160.386 165.603L162.9 166.979ZM180.386 163.044C183.982 164.598 185.644 168.771 184.094 172.366C182.54 175.965 178.364 177.62 174.767 176.072C171.171 174.518 169.51 170.35 171.059 166.751C172.613 163.156 176.784 161.496 180.386 163.044Z" fill="#EBEBEB"/>
<path d="M33.7564 38.0986C33.3754 39.9568 33.3653 41.8302 33.6853 43.6326L31.125 44.9374L33.1722 50.0804L35.9307 49.2732C36.9416 50.8013 38.2319 52.162 39.7864 53.2485L38.9025 55.9698L43.9876 58.163L45.3642 55.6499C47.2235 56.0307 49.098 56.0408 50.9014 55.721L52.207 58.2798L57.353 56.2338L56.5453 53.4769C58.0744 52.4666 59.4358 51.177 60.523 49.6235L63.2458 50.5069L65.4404 45.4248L62.9258 44.0489C63.3068 42.1907 63.317 40.3173 62.9969 38.5149L65.5572 37.2101L63.51 32.0671L60.7516 32.8743C59.7406 31.3461 58.4503 29.9855 56.8958 28.899L57.7798 26.1777L52.6947 23.9844L51.318 26.4976C49.4587 26.1168 47.5842 26.1066 45.7808 26.4265L44.4752 23.8677L39.3292 25.9137L40.1369 28.6706C38.6078 29.6809 37.2464 30.9704 36.1593 32.524L33.4364 31.6406L31.2418 36.7227L33.7564 38.0986ZM51.2469 34.1639C54.8435 35.7175 56.5047 39.8908 54.9553 43.4853C53.4008 47.085 49.225 48.7401 45.6284 47.1916C42.0267 45.638 40.3706 41.4698 41.92 37.8701C43.4745 34.2756 47.6452 32.6154 51.2469 34.1639Z" fill="#EBEBEB"/>
<path d="M190.881 85.0964C190.546 86.7211 190.541 88.3661 190.815 89.945L188.575 91.0873L190.368 95.5958L192.786 94.89C193.67 96.2304 194.803 97.4184 196.164 98.3729L195.392 100.759L199.847 102.678L201.051 100.48C202.677 100.815 204.323 100.82 205.903 100.546L207.046 102.785L211.557 100.993L210.851 98.581C212.192 97.6976 213.38 96.5655 214.335 95.2048L216.723 95.9765L218.643 91.524L216.444 90.3207C216.779 88.6961 216.784 87.0511 216.51 85.4721L218.75 84.3298L216.957 79.8214L214.539 80.5271C213.655 79.1868 212.522 77.9988 211.16 77.0443L211.933 74.6581L207.477 72.7389L206.273 74.9373C204.648 74.6022 203.002 74.5971 201.422 74.8713L200.279 72.6323L195.768 74.4245L196.474 76.8412C195.133 77.7246 193.944 78.8568 192.989 80.2174L190.602 79.4457L188.681 83.8983L190.881 85.1015V85.0964ZM206.202 81.6491C209.357 83.0098 210.81 86.6652 209.448 89.8181C208.087 92.9709 204.429 94.423 201.275 93.0623C198.12 91.7017 196.667 88.0462 198.029 84.8934C199.39 81.7405 203.048 80.2885 206.202 81.6491Z" fill="#EBEBEB"/>
<path d="M236.154 221.669C236.154 226.812 187.285 230.985 127 230.985C66.7158 230.985 17.8462 226.812 17.8462 221.669C17.8462 216.526 66.7158 212.353 127 212.353C187.285 212.353 236.154 216.526 236.154 221.669Z" fill="#F5F5F5"/>
<path d="M206.822 202.356C206.665 201.914 206.238 201.325 205.928 200.975C205.618 200.624 205.141 200.386 204.678 200.477C204.089 200.589 203.708 201.208 203.667 201.802C203.627 202.396 203.759 203.188 203.993 203.737C204.993 206.082 205.923 208.235 207.797 210.205C208.311 207.641 207.691 204.798 206.822 202.351V202.356Z" fill="#407BFF"/>
<path d="M211.221 214.068C208.758 211.453 207.01 208.24 206.147 204.752C206.086 204.513 205.72 204.615 205.781 204.853C206.66 208.402 208.448 211.677 210.952 214.337C211.12 214.515 211.389 214.246 211.221 214.068Z" fill="#263238"/>
<path d="M212.868 202.097C212.283 201.919 211.394 202.523 210.993 202.98C210.19 203.884 209.769 204.742 209.403 205.894C208.941 207.357 209.23 209.21 209.378 210.398C210.922 208.514 212.492 206.59 213.345 204.31C213.492 203.914 213.624 203.493 213.579 203.072C213.533 202.65 213.279 202.224 212.873 202.102L212.868 202.097Z" fill="#407BFF"/>
<path d="M209.383 211.717C209.367 209.839 210.002 208.169 210.835 206.514C210.947 206.295 210.617 206.102 210.505 206.321C210.079 207.163 209.672 208.026 209.398 208.935C209.124 209.844 208.997 210.773 209.002 211.717C209.002 211.961 209.383 211.961 209.383 211.717Z" fill="#263238"/>
<path d="M39.2582 202.736C39.1007 202.295 38.674 201.706 38.3641 201.356C38.0542 201.005 37.5767 200.767 37.1144 200.858C36.5251 200.97 36.1441 201.589 36.1035 202.183C36.0628 202.777 36.1949 203.569 36.4286 204.117C37.4294 206.463 38.359 208.616 40.2335 210.586C40.7466 208.022 40.1268 205.179 39.2582 202.731V202.736Z" fill="#407BFF"/>
<path d="M43.6575 214.449C41.1937 211.834 39.4461 208.621 38.5825 205.133C38.5216 204.894 38.1558 204.996 38.2168 205.234C39.0956 208.783 40.8838 212.058 43.3882 214.718C43.5559 214.896 43.8251 214.627 43.6575 214.449Z" fill="#263238"/>
<path d="M45.3036 202.472C44.7194 202.295 43.8304 202.899 43.429 203.356C42.6264 204.259 42.2048 205.117 41.839 206.27C41.3767 207.732 41.6663 209.585 41.8136 210.773C43.3579 208.89 44.9276 206.965 45.7811 204.686C45.9284 204.29 46.0605 203.868 46.0148 203.447C45.969 203.026 45.715 202.599 45.3086 202.477L45.3036 202.472Z" fill="#407BFF"/>
<path d="M41.8186 212.098C41.8034 210.22 42.4384 208.549 43.2715 206.894C43.3833 206.676 43.0531 206.483 42.9413 206.701C42.5146 207.544 42.1082 208.407 41.8339 209.316C41.5596 210.225 41.4326 211.154 41.4376 212.098C41.4376 212.342 41.8186 212.342 41.8186 212.098Z" fill="#263238"/>
<path d="M71.9379 103.917H66.6699V122.093H71.9379V103.917Z" fill="#407BFF"/>
<path d="M60.7109 110.477V115.528H77.8864V110.477H60.7109Z" fill="#407BFF"/>
<path d="M134.701 36.7124H132.7V43.9066H134.701V36.7124Z" fill="#407BFF"/>
<path d="M130.434 39.3068V41.3071H136.962V39.3068H130.434Z" fill="#407BFF"/>
<path d="M71.9581 89.2241H69.9565V96.4183H71.9581V89.2241Z" fill="#407BFF"/>
<path d="M67.6958 91.8234V93.8237H74.2236V91.8234H67.6958Z" fill="#407BFF"/>
<path d="M92.1666 132.237H90.165V139.431H92.1666V132.237Z" fill="#407BFF"/>
<path d="M87.9043 134.831V136.832H94.4321V134.831H87.9043Z" fill="#407BFF"/>
<path d="M214.787 116.163C204.104 112.071 197.922 105.019 197.922 104.435C197.922 105.019 191.165 111.518 180.477 115.61C180.477 115.61 177.231 148.874 197.434 151.398C217.637 148.874 214.787 116.163 214.787 116.163Z" fill="#407BFF"/>
<path opacity="0.2" d="M180.477 115.61C180.477 115.61 177.231 148.874 197.434 151.398L197.922 104.435C197.922 105.019 191.165 111.518 180.477 115.61Z" fill="black"/>
<path d="M200.071 119.641H194.925V138.146H200.071V119.641Z" fill="white"/>
<path d="M189.103 126.317V131.46H205.892V126.317H189.103Z" fill="white"/>
<path d="M213.198 117.28C203.505 113.569 197.892 107.167 197.892 106.639C197.892 107.167 191.76 113.066 182.067 116.778C182.067 116.778 179.121 146.96 197.455 149.25C215.788 146.96 213.198 117.28 213.198 117.28Z" stroke="black" stroke-width="0.5" stroke-miterlimit="10"/>
<path d="M131.856 10.246C129.992 8.2507 129.774 5.8188 130.038 3.84891C130.307 1.85363 132.248 0.538682 134.198 1.04639C159.329 7.60084 177.104 12.886 186.573 17.9681C196.855 23.4869 209.047 56.7364 214.554 61.4225C220.06 66.1086 238.353 72.3686 239.171 72.5717C239.171 72.5717 240.218 109.776 239.171 110.609C234.366 114.442 189.077 80.6848 189.077 80.6848C176.667 71.7086 168.173 49.8367 168.173 49.8367C168.173 49.8367 148.575 34.0065 143.022 29.1072C137.47 24.2129 138.206 21.4104 138.206 21.4104C138.206 21.4104 135.88 20.8824 132.806 16.9629C129.728 13.0434 131.851 10.2409 131.851 10.2409L131.856 10.246Z" fill="#B97964"/>
<path d="M164.211 22.3752C158.237 20.1768 152.247 17.9785 146.477 15.2673C143.865 14.0387 141.051 12.8101 138.77 11.0179C137.226 9.80446 136.139 8.16965 136.078 6.1693C136.052 5.37729 136.2 4.5345 136.733 3.9151C137.46 3.07739 138.638 2.97585 139.669 3.04185C140.157 3.07231 140.157 2.31076 139.669 2.28029C137.795 2.16352 135.946 2.83877 135.448 4.81373C135.052 6.39269 135.478 8.24581 136.367 9.58615C137.993 12.0434 140.98 13.3888 143.52 14.6733C146.604 16.232 149.773 17.618 152.979 18.9177C156.621 20.3952 160.314 21.7507 164.003 23.1114C164.465 23.2789 164.663 22.5427 164.206 22.3752H164.211Z" fill="#A24E3F"/>
<path d="M171.414 26.4618C170.718 32.9096 170.576 39.4082 170.988 45.8814C171.018 46.3688 171.78 46.3739 171.75 45.8814C171.338 39.4082 171.48 32.9096 172.176 26.4618C172.227 25.9744 171.465 25.9795 171.414 26.4618Z" fill="#A24E3F"/>
<path d="M131.755 10.8656C141.168 18.8467 151.308 25.9343 162.042 32.0216C165.115 33.763 168.234 35.4232 171.389 37.0123C171.826 37.2307 172.212 36.5757 171.775 36.3523C160.818 30.8336 150.332 24.3959 140.558 16.9733C137.744 14.8359 134.991 12.6172 132.293 10.3274C131.922 10.0127 131.379 10.5458 131.755 10.8656Z" fill="#A24E3F"/>
<path d="M138.328 22.1565C146.223 28.0154 154.346 33.5595 162.682 38.7685C165.074 40.2612 167.482 41.7284 169.911 43.1652C170.332 43.414 170.718 42.7591 170.297 42.5052C161.844 37.4891 153.589 32.1379 145.562 26.4618C143.261 24.8321 140.98 23.1769 138.714 21.4964C138.318 21.202 137.942 21.8671 138.328 22.1565Z" fill="#A24E3F"/>
<path d="M201.458 45.2115C192.288 36.9918 183.083 28.8026 173.853 20.6488C171.983 18.9937 169.448 17.2371 167.203 18.3337C165.989 18.9277 165.263 20.2528 165.085 21.5932C164.907 22.9284 165.191 24.284 165.552 25.5837C167.818 33.7882 173.136 41.1144 180.238 45.8106C182.037 46.9986 184.013 48.0953 185.151 49.923C186.436 51.9843 186.405 54.5583 186.609 56.9801C187.279 64.8343 190.972 72.394 196.764 77.7502" fill="#B97964"/>
<path d="M201.727 44.9423C195.052 38.9565 188.356 32.991 181.651 27.0407C179.99 25.5684 178.328 24.096 176.662 22.6237C175.174 21.3037 173.726 19.8516 172.044 18.7753C170.653 17.8817 168.91 17.2268 167.284 17.8767C165.847 18.4554 164.963 19.9075 164.729 21.395C164.435 23.2888 165.004 25.2181 165.578 27.0102C166.111 28.6755 166.766 30.3002 167.538 31.869C169.062 34.9761 171.039 37.8649 173.375 40.4238C175.712 42.9826 178.537 45.1302 181.498 47.0798C183.114 48.1459 184.658 49.3594 185.374 51.2176C186.055 52.9793 186.065 54.9086 186.218 56.7668C186.792 63.8949 189.769 70.7591 194.569 76.0595C195.184 76.7398 195.834 77.3897 196.505 78.0141C196.865 78.3492 197.404 77.8111 197.043 77.476C191.902 72.6883 188.433 66.2303 187.29 59.3002C186.741 55.99 187.269 52.0654 185.146 49.2324C184.15 47.9073 182.748 46.9782 181.376 46.0897C179.924 45.1505 178.516 44.1656 177.196 43.0435C172.014 38.6468 168.107 32.7524 166.147 26.2436C165.598 24.421 165.014 22.3343 165.781 20.4913C166.548 18.6484 168.295 17.9985 170.109 18.6433C171.923 19.2881 173.391 20.7401 174.818 22.0043C176.418 23.4208 178.019 24.8373 179.619 26.2538C186.014 31.9197 192.4 37.606 198.765 43.3075C199.578 44.0335 200.386 44.7596 201.199 45.4856C201.564 45.8105 202.103 45.2774 201.737 44.9474L201.727 44.9423Z" fill="#A24E3F"/>
<path d="M120.452 9.30164C122.316 7.30636 122.535 4.87446 122.27 2.90457C122.001 0.909298 120.061 -0.405654 118.11 0.10205C92.9792 6.6565 75.2043 11.9417 65.7352 17.0238C55.4533 22.5425 43.2613 55.792 37.7545 60.4781C32.2478 65.1643 13.9547 71.4242 13.1369 71.6273C13.1369 71.6273 12.1005 109.776 13.1369 110.609C17.9273 114.462 63.2307 79.7353 63.2307 79.7353C75.6412 70.7591 84.1349 48.8873 84.1349 48.8873C84.1349 48.8873 103.734 33.0571 109.286 28.1577C114.838 23.2635 114.102 20.461 114.102 20.461C114.102 20.461 116.428 19.9329 119.502 16.0135C122.58 12.094 120.457 9.29148 120.457 9.29148L120.452 9.30164Z" fill="#B97964"/>
<path d="M88.3007 22.1619C94.7828 19.7757 101.285 17.3895 107.503 14.3585C108.951 13.6528 110.389 12.9267 111.786 12.1296C113.025 11.4189 114.265 10.6116 115.23 9.54036C116.434 8.21525 117.186 6.31644 117.252 4.52425C117.282 3.71192 117.125 2.83867 116.561 2.21419C115.834 1.40695 114.691 1.27494 113.67 1.34094C113.183 1.37141 113.177 2.13296 113.67 2.1025C114.514 2.04665 115.53 2.09235 116.088 2.82852C116.495 3.36668 116.53 4.10285 116.479 4.74763C116.332 6.56521 115.479 8.32187 114.143 9.55051C113.147 10.4695 111.958 11.1701 110.775 11.8199C109.434 12.5561 108.072 13.2415 106.695 13.9066C103.851 15.2774 100.945 16.5111 98.0086 17.6788C94.7269 18.9836 91.4148 20.2021 88.0975 21.4257C87.6403 21.5932 87.8385 22.3294 88.3007 22.1619Z" fill="#A24E3F"/>
<path d="M80.1318 25.5175C80.8278 31.9653 80.97 38.4639 80.5585 44.9371C80.5281 45.4245 81.2901 45.4245 81.3205 44.9371C81.732 38.4639 81.5898 31.9653 80.8938 25.5175C80.843 25.0351 80.081 25.0301 80.1318 25.5175Z" fill="#A24E3F"/>
<path d="M120.142 9.28623C110.719 17.2775 100.553 24.3701 89.7991 30.4625C86.7511 32.1887 83.6624 33.8337 80.5382 35.4076C80.1014 35.6259 80.4874 36.2859 80.9243 36.0676C92.0241 30.4778 102.636 23.9335 112.522 16.3992C115.301 14.282 118.024 12.0888 120.685 9.82948C121.061 9.50962 120.518 8.97654 120.147 9.29131L120.142 9.28623Z" fill="#A24E3F"/>
<path d="M113.594 20.5523C105.699 26.4112 97.5765 31.9553 89.2403 37.1643C86.8476 38.657 84.4397 40.1242 82.0114 41.561C81.5898 41.8098 81.9708 42.4698 82.3975 42.221C90.8506 37.2049 99.1056 31.8537 107.132 26.1776C109.433 24.5479 111.714 22.8928 113.98 21.2123C114.371 20.9229 113.99 20.2629 113.594 20.5523Z" fill="#A24E3F"/>
<path d="M50.8506 44.2618C60.02 36.0421 69.2249 27.8528 78.4553 19.6991C80.3247 18.044 82.8597 16.2874 85.105 17.384C86.3191 17.978 87.0456 19.3031 87.2234 20.6435C87.4012 21.9787 87.1167 23.3343 86.756 24.634C84.4903 32.8385 79.1716 40.1647 72.0697 44.8609C70.2714 46.0489 68.2953 47.1456 67.1574 48.9733C65.8721 51.0346 65.9026 53.6086 65.6994 56.0304C65.0289 63.8846 61.3357 71.4443 55.5445 76.8005" fill="#B97964"/>
<path d="M51.1198 44.5311C57.485 38.8245 63.8604 33.1382 70.2561 27.4672C71.8563 26.0507 73.4515 24.6342 75.0517 23.2177C76.6519 21.8012 78.12 20.3644 79.7761 19.1002C81.1375 18.0594 83.0222 16.9222 84.7748 17.6533C86.5274 18.3844 87.0354 20.5522 86.8525 22.2987C86.6696 24.0452 86.0143 25.939 85.3691 27.6347C84.7595 29.2391 84.028 30.7926 83.1898 32.2904C81.5287 35.2553 79.4459 37.9817 77.0176 40.3628C75.7933 41.5661 74.4827 42.678 73.0959 43.6883C71.709 44.6986 70.2561 45.4957 68.9353 46.5314C67.6145 47.5671 66.5884 48.8415 66.0651 50.456C65.5419 52.0705 65.4809 53.8881 65.3489 55.6142C64.8155 62.6459 61.8894 69.439 57.1396 74.6531C56.5452 75.3081 55.9204 75.9325 55.2752 76.5316C54.9145 76.8667 55.453 77.4049 55.8137 77.0698C61.0867 72.1603 64.6681 65.4789 65.7959 58.3558C66.3598 54.807 65.7553 50.5829 68.5696 47.8565C69.9005 46.567 71.5769 45.6937 73.0857 44.6326C74.4878 43.6477 75.8187 42.5561 77.0684 41.3833C79.6084 38.987 81.803 36.2098 83.5607 33.189C85.3183 30.1682 86.8017 26.7818 87.4672 23.3395C87.8025 21.6032 87.7669 19.7145 86.6798 18.2371C85.74 16.9577 84.2109 16.4449 82.6717 16.7699C80.914 17.1405 79.4154 18.3539 78.0997 19.5165C76.4334 20.9838 74.7723 22.4561 73.1111 23.9285C66.4309 29.8432 59.7659 35.7783 53.1162 41.7286C52.2729 42.485 51.4297 43.2364 50.5864 43.9929C50.2206 44.3229 50.7591 44.856 51.1249 44.5311H51.1198Z" fill="#A24E3F"/>
<path d="M126.771 61.9248C126.771 61.9248 132.568 61.9248 135.164 65.235C137.754 68.5453 145.75 89.8587 147.681 92.7729C149.967 96.2303 151.267 98.581 150.5 99.6421C149.702 100.754 144.897 105.298 143.048 103.942C139.588 101.414 132.41 86.6043 129.001 79.73C125.598 72.8557 126.776 61.9248 126.776 61.9248H126.771Z" fill="#407BFF"/>
<path opacity="0.3" d="M126.624 61.8791C126.624 61.8791 132.567 61.9248 135.158 65.235C137.749 68.5452 145.745 89.8586 147.675 92.7729C149.961 96.2303 151.262 98.581 150.495 99.6421C149.697 100.754 144.892 105.298 143.042 103.942C139.583 101.414 132.405 86.6043 128.996 79.73C125.593 72.8556 126.624 61.874 126.624 61.874V61.8791Z" fill="black"/>
<path d="M133.254 202.219L135.261 217.079L139.863 215.703L141.001 201.361L133.254 202.219Z" fill="#263238"/>
<path d="M133.731 219.547L137.877 219.608C137.877 219.608 138.72 219.176 139.213 219.242C139.7 219.308 141.407 219.658 141.407 219.658L152.416 219.816C152.334 219.354 152.233 218.943 152.111 218.577C151.969 218.13 151.796 217.755 151.608 217.43C150.942 216.308 150.018 215.896 149.007 215.82C147.468 215.703 142.662 212.393 142.662 212.393C142.662 212.393 140.909 211.754 140.843 209.88C140.818 209.179 139.792 208.306 139.299 208.23C138.293 208.068 137.724 208.697 137.562 209.702L137.374 210.87L135.052 210.474C135.052 210.474 132.705 209.251 132.802 210.408C132.858 211.068 133.213 214.013 133.427 216.348C133.477 216.891 133.523 217.409 133.564 217.861C133.655 218.866 133.721 219.552 133.721 219.552L133.731 219.547Z" fill="#263238"/>
<g opacity="0.3">
<path d="M133.731 219.547L137.877 219.608C137.877 219.608 138.72 219.176 139.213 219.242C139.7 219.308 141.407 219.658 141.407 219.658L152.416 219.816C152.334 219.354 152.233 218.943 152.111 218.577C151.969 218.13 151.796 217.755 151.608 217.43C150.942 216.308 150.018 215.896 149.007 215.82C147.468 215.703 142.662 212.393 142.662 212.393C142.662 212.393 140.909 211.754 140.843 209.88C140.818 209.179 139.792 208.306 139.299 208.23C138.293 208.068 137.724 208.697 137.562 209.702L137.374 210.87L135.052 210.474C135.052 210.474 132.705 209.251 132.802 210.408C132.858 211.068 133.213 214.013 133.427 216.348C133.477 216.891 133.523 217.409 133.564 217.861C133.655 218.866 133.721 219.552 133.721 219.552L133.731 219.547Z" fill="black"/>
</g>
<path d="M145.06 213.627C145.009 213.576 144.933 213.571 144.872 213.606C144.598 213.784 144.364 214.038 144.201 214.353C144.115 214.52 144.359 214.688 144.445 214.52C144.587 214.236 144.791 214.013 145.034 213.86C145.116 213.809 145.131 213.698 145.06 213.632V213.627Z" fill="#407BFF"/>
<path d="M144.191 213.099C144.14 213.048 144.064 213.043 144.003 213.079C143.729 213.256 143.495 213.51 143.333 213.825C143.246 213.992 143.49 214.16 143.577 213.992C143.719 213.708 143.922 213.485 144.166 213.332C144.247 213.282 144.262 213.17 144.191 213.104V213.099Z" fill="#407BFF"/>
<path d="M143.297 212.607C143.246 212.556 143.17 212.551 143.109 212.586C142.835 212.764 142.601 213.018 142.439 213.333C142.352 213.5 142.596 213.668 142.682 213.495C142.825 213.211 143.028 212.987 143.272 212.835C143.353 212.784 143.368 212.673 143.297 212.607Z" fill="#407BFF"/>
<path d="M112.705 199L110.683 213.81L105.857 214.053L104.292 199.777L112.705 199Z" fill="#263238"/>
<path d="M101.742 220.684H112.542C112.542 220.684 112.776 220.232 112.507 219.024C112.466 218.836 112.41 218.628 112.344 218.405C112.344 218.394 112.339 218.384 112.334 218.369C112.233 218.034 112.116 217.623 111.994 217.181C111.501 215.374 110.917 213.013 110.917 213.013C110.917 213.013 109.119 209.169 107.015 210.129C105.171 210.972 105.608 213.383 105.608 213.383C105.608 213.383 105.425 214.8 104.028 216.049C103.165 216.82 102.301 217.414 101.89 218.374C101.814 218.552 101.753 218.745 101.707 218.953C101.707 218.978 101.697 219.004 101.692 219.029C101.605 219.491 101.61 220.034 101.737 220.689L101.742 220.684Z" fill="#263238"/>
<g opacity="0.3">
<path d="M101.742 220.684H112.542C112.542 220.684 112.776 220.232 112.507 219.024C112.466 218.836 112.41 218.628 112.344 218.405C112.344 218.394 112.339 218.384 112.334 218.369C112.233 218.034 112.116 217.623 111.994 217.181C111.501 215.374 110.917 213.013 110.917 213.013C110.917 213.013 109.119 209.169 107.015 210.129C105.171 210.972 105.608 213.383 105.608 213.383C105.608 213.383 105.425 214.8 104.028 216.049C103.165 216.82 102.301 217.414 101.89 218.374C101.814 218.552 101.753 218.745 101.707 218.953C101.707 218.978 101.697 219.004 101.692 219.029C101.605 219.491 101.61 220.034 101.737 220.689L101.742 220.684Z" fill="black"/>
</g>
<path d="M106.05 213.982C106.66 213.51 107.457 213.571 108.001 214.104C108.148 214.246 108.372 214.023 108.224 213.881C107.544 213.216 106.568 213.18 105.821 213.759C105.659 213.886 105.888 214.109 106.045 213.982H106.05Z" fill="#407BFF"/>
<path d="M105.745 214.993C106.355 214.52 107.153 214.581 107.696 215.114C107.843 215.257 108.067 215.033 107.92 214.891C107.239 214.226 106.264 214.19 105.517 214.769C105.354 214.896 105.583 215.12 105.74 214.993H105.745Z" fill="#407BFF"/>
<path d="M105.435 215.922C106.045 215.45 106.842 215.511 107.386 216.044C107.533 216.186 107.757 215.962 107.61 215.82C106.929 215.155 105.953 215.12 105.207 215.698C105.044 215.825 105.273 216.049 105.43 215.922H105.435Z" fill="#407BFF"/>
<path d="M104.15 102.369L123.713 107.192L136.546 104.821C136.546 104.821 140.229 151.773 141.026 159.861C141.824 167.949 142.032 211.322 142.032 211.322L131.471 211.586C131.471 211.586 127.686 166.847 126.828 162.471C126.081 158.658 122.891 132.719 120.782 126.505C120.569 127.779 120.351 129.059 120.132 130.328C119.599 136.06 117.892 154.337 117.145 161.135C117.145 161.135 115.53 199.985 113.655 211.266L103.83 211.281C102.535 195.263 102.647 137.162 102.647 137.162C102.205 115.726 104.155 102.374 104.155 102.374L104.15 102.369Z" fill="#263238"/>
<path d="M130.465 62.5597C128.128 62.123 125.761 61.8336 123.388 61.6864C122.885 61.6509 122.377 61.6306 121.854 61.6255C117.648 61.6813 113.452 61.9809 109.281 62.514C108.489 62.6104 107.691 62.7221 106.909 62.8491C102.946 63.4735 101.361 64.2199 101.361 64.2199L102.332 94.5501C102.789 103.257 102.093 113.056 102.357 115.305C112.685 117.097 125.38 117.112 138.598 115.087C135.778 81.8575 130.465 62.5546 130.465 62.5546V62.5597Z" fill="#407BFF"/>
<path opacity="0.3" d="M130.465 62.5597C128.128 62.123 125.761 61.8336 123.388 61.6864C122.885 61.6509 122.377 61.6306 121.854 61.6255C117.648 61.6813 113.452 61.9809 109.281 62.514C108.489 62.6104 107.691 62.7221 106.909 62.8491C102.946 63.4735 101.361 64.2199 101.361 64.2199L102.332 94.5501C102.789 103.257 102.093 113.056 102.357 115.305C112.685 117.097 125.38 117.112 138.598 115.087C135.778 81.8575 130.465 62.5546 130.465 62.5546V62.5597Z" fill="black"/>
<g opacity="0.3">
<path d="M131.15 69.0986C134.264 80.5169 135.885 92.2905 137.089 104.044C137.444 107.532 137.764 111.025 137.993 114.518C138.008 114.761 138.389 114.761 138.374 114.518C137.637 103.206 136.307 91.8387 134.219 80.6895C133.482 76.7548 132.573 72.8556 131.521 68.992C131.455 68.7534 131.089 68.8549 131.155 69.0936L131.15 69.0986Z" fill="black"/>
</g>
<path d="M103.104 38.3421C102.489 36.3316 103.205 33.986 104.836 32.6609C106.467 31.3358 108.915 31.1175 110.759 32.1329C111.099 31.478 111.963 30.3356 113.233 30.3306C113.975 30.3306 115.184 30.7012 115.184 30.7012C115.184 30.7012 115.529 29.9396 116.159 29.305C116.926 28.5333 118.501 28.4368 119.426 29.0105C120.345 29.5893 120.894 30.361 120.538 31.3866C122.799 30.5946 125.562 31.6861 126.67 33.8134C127.777 35.9356 126.345 38.9057 124.399 40.3069C124.379 41.7437 124.033 43.8862 124.013 45.323L106.751 47.6026C106.329 46.3689 104.734 43.1044 104.313 41.8656C103.363 42.2971 102.098 41.7539 101.762 40.7639C101.427 39.7738 102.098 38.5706 103.114 38.337L103.104 38.3421Z" fill="#263238"/>
<path d="M121.193 42.7996C124.607 43.2515 123.555 38.7888 122.189 36.8899C119.857 33.5899 117.779 42.3478 121.193 42.7996Z" fill="#263238"/>
<path d="M118.1 63.8644C114.356 64.2351 111.76 62.3972 111.303 62.3566C112.029 61.529 112.034 56.9292 112.161 55.3706C112.624 52.893 112.288 54.6699 111.892 52.1822C111.699 50.7403 111.435 49.3086 111.1 47.8921L115.006 50.9688L119.319 54.3196C119.141 55.1218 119.024 55.9392 118.974 56.7617C118.867 59.0616 120.259 61.5849 120.818 61.6255C121.681 62.9963 121.696 63.6055 118.1 63.8644Z" fill="#A24E3F"/>
<path opacity="0.2" d="M112.527 55.2437C112.527 55.2437 114.533 59.5541 118.984 57.8786L118.973 56.8125L112.527 55.2437Z" fill="black"/>
<path d="M107.742 41.2005C108.529 36.9053 112.649 34.0571 116.947 34.8441C122.875 35.9356 125.288 44.1097 125.08 49.3948C124.841 55.2791 118.425 59.2798 113.314 55.8376C109.906 53.5479 109.342 50.2275 107.889 44.6884C107.579 43.5512 107.533 42.3632 107.742 41.2005Z" fill="#A24E3F"/>
<path d="M116.2 49.4255C116.139 49.3798 116.129 49.2935 116.169 49.2326C116.215 49.1716 116.301 49.1615 116.362 49.2021C117.251 49.9687 118.45 50.2632 119.593 49.9992C119.614 49.989 119.639 49.984 119.664 49.989C119.741 49.9992 119.797 50.0652 119.791 50.1414C119.781 50.2175 119.715 50.2734 119.639 50.2683C119.441 50.314 119.243 50.3444 119.04 50.3597C118.003 50.4511 116.977 50.1109 116.205 49.4204L116.2 49.4255Z" fill="#263238"/>
<path d="M115.189 44.8662C115.341 45.5008 115.87 45.8969 116.286 45.7649C116.703 45.6329 116.865 45.0236 116.672 44.3991C116.479 43.7747 115.981 43.3736 115.575 43.5005C115.169 43.6274 114.996 44.2316 115.189 44.8662Z" fill="#263238"/>
<path d="M120.695 43.1807C120.848 43.8153 121.386 44.2062 121.793 44.0793C122.199 43.9524 122.372 43.3381 122.179 42.7136C121.986 42.0891 121.488 41.688 121.082 41.8149C120.675 41.9419 120.508 42.5867 120.695 43.1807Z" fill="#263238"/>
<path d="M123.043 39.7433C122.967 39.8245 122.85 39.86 122.743 39.8296C122.012 39.6214 121.224 39.7686 120.62 40.2306C120.498 40.3423 120.31 40.3322 120.198 40.2103C120.086 40.0885 120.096 39.9006 120.218 39.7889C120.97 39.1899 121.961 38.9868 122.885 39.2508C123.043 39.2863 123.144 39.4488 123.109 39.6062C123.109 39.6062 123.109 39.6062 123.109 39.6113C123.094 39.6569 123.068 39.7026 123.038 39.7382L123.043 39.7433Z" fill="#263238"/>
<path d="M114.478 42.5863C114.422 42.6016 114.356 42.6016 114.3 42.5812C114.158 42.4949 114.117 42.3122 114.198 42.1751C114.198 42.1751 114.198 42.1751 114.198 42.17C114.691 41.3424 115.56 40.8094 116.52 40.7383C116.682 40.7383 116.819 40.8652 116.819 41.0327C116.819 41.1952 116.687 41.3272 116.525 41.3374C115.768 41.4135 115.092 41.8502 114.701 42.5C114.64 42.566 114.554 42.6016 114.462 42.5965L114.478 42.5863Z" fill="#263238"/>
<path d="M119.532 49.5977C118.303 49.6078 117.084 49.354 115.961 48.8564C115.915 49.0646 115.895 49.2728 115.91 49.486C115.926 49.8617 116.032 50.2272 116.22 50.5573C116.606 51.2223 117.444 51.8265 119.268 51.8265C119.405 51.8316 119.537 51.8316 119.675 51.8265C119.791 51.0751 119.964 50.3339 120.188 49.6078C120.188 49.6078 119.939 49.618 119.532 49.6078V49.5977Z" fill="#263238"/>
<path d="M115.986 48.8467C115.941 49.0548 115.92 49.263 115.936 49.4762C116.469 49.9992 117.673 50.2327 119.39 50.2479L119.558 49.593C118.328 49.6032 117.109 49.3493 115.986 48.8518V48.8467Z" fill="white"/>
<path d="M118.242 50.9484C117.597 50.6946 116.911 50.5626 116.22 50.5474C116.606 51.2125 117.444 51.8166 119.268 51.8166C119.024 51.4257 118.669 51.1211 118.242 50.9484Z" fill="#D7504D"/>
<path d="M119.629 42.9468C120.67 44.2516 121.89 45.4041 123.251 46.3789C122.728 47.0744 121.92 47.5009 121.051 47.5415L119.629 42.9468Z" fill="#7C2A1F"/>
<path d="M106.487 37.2711C106.573 36.8852 106.675 36.4892 106.899 36.1643C107.137 35.8191 107.493 35.5804 107.854 35.3723C109.51 34.4178 111.435 33.9913 113.345 33.971C115.255 33.9507 117.155 34.3213 118.984 34.8696C120.086 35.1997 121.189 35.6058 122.113 36.2912C123.038 36.9766 123.779 37.9768 123.937 39.114C123.952 39.2054 123.957 39.307 123.911 39.3882C123.825 39.5405 123.612 39.5557 123.439 39.5354C122.245 39.4136 118.735 40.0888 118.141 37.6874C118.069 37.398 118.019 37.9565 118.141 37.6874C116.149 38.383 115.921 38.1494 113.817 38.0326C114.295 38.4845 114.32 39.3019 113.939 39.8401C113.558 40.3731 112.847 40.6219 112.192 40.5356C112.319 41.3682 112.415 42.2618 112.06 43.0284C111.821 43.5412 111.247 43.9931 110.724 43.7798C110.871 44.2977 110.988 44.8257 111.079 45.3537C111.166 45.8665 111.222 46.4097 111.013 46.887C110.785 47.3947 110.292 47.7298 109.825 48.0344L106.264 44.4652C105.888 42.0841 105.969 39.6319 106.487 37.2762V37.2711Z" fill="#263238"/>
<path d="M105.547 49.8672C106.355 51.2177 107.665 52.1925 109.194 52.5784C111.221 53.0759 112.166 51.2431 111.552 49.3646C110.988 47.6993 109.266 45.3791 107.254 45.7396C105.242 46.1001 104.572 48.1969 105.542 49.8672H105.547Z" fill="#A24E3F"/>
<g opacity="0.3">
<path d="M107.025 47.8872C107.137 47.6587 107.396 47.5622 107.645 47.5927C107.95 47.6333 108.219 47.8313 108.438 48.0293C108.875 48.4202 109.19 48.933 109.347 49.4966C109.413 49.7301 109.779 49.6337 109.713 49.395C109.52 48.7046 109.113 48.0699 108.544 47.6232C108.255 47.3947 107.909 47.1967 107.528 47.2018C107.188 47.2068 106.848 47.3795 106.695 47.6892C106.589 47.9075 106.919 48.1004 107.025 47.8821V47.8872Z" fill="black"/>
</g>
<g opacity="0.3">
<path d="M112.227 40.2713C111.714 40.2206 111.257 40.0175 110.866 39.6875C110.739 39.5809 110.551 39.6519 110.541 39.8245C110.5 40.7232 109.768 41.5457 108.854 41.6117C107.94 41.6777 107.137 41.0126 106.929 40.1596C106.883 39.9769 106.609 39.9819 106.563 40.1596C106.263 41.2715 105.166 42.0026 104.028 41.8757C103.784 41.8503 103.784 42.2311 104.028 42.2564C105.334 42.3986 106.593 41.5254 106.929 40.2612H106.563C106.822 41.3172 107.869 42.1143 108.971 41.9823C110.073 41.8503 110.876 40.8958 110.927 39.8245L110.602 39.9616C111.074 40.3678 111.613 40.5963 112.232 40.6572C112.476 40.6826 112.476 40.3018 112.232 40.2764L112.227 40.2713Z" fill="black"/>
</g>
<path d="M148.245 213.814L142.855 214.342L138.872 200.7L147.071 199.812L148.245 213.814Z" fill="#B97964"/>
<path d="M142.077 211.961H144.003C144.44 211.961 144.841 212.179 145.1 212.535C146.207 214.048 147.046 213.479 148.25 212.053C149.017 211.961 149.225 212.845 149.286 213.078L150.723 218.307C150.85 218.744 150.596 219.201 150.16 219.323C150.083 219.343 150.002 219.353 149.921 219.353H134.676C132.253 219.353 131.75 216.911 132.745 216.683C137.236 215.693 140.416 214.368 141.808 213.063C142.067 212.834 141.803 212.662 142.082 211.956L142.077 211.961Z" fill="#263238"/>
<path d="M139.207 213.743C139.817 213.728 140.421 213.652 141.01 213.51C141.066 213.489 141.097 213.428 141.076 213.373C141.066 213.342 141.041 213.317 141.01 213.307C140.741 213.175 138.333 212.053 137.729 212.479C137.617 212.555 137.556 212.682 137.571 212.819C137.571 213.068 137.693 213.301 137.896 213.449C138.287 213.682 138.745 213.789 139.202 213.743H139.207ZM140.634 213.367C139.923 213.499 138.607 213.677 138.059 213.266C137.917 213.154 137.83 212.987 137.82 212.809C137.81 212.753 137.835 212.697 137.881 212.667C138.216 212.433 139.634 212.931 140.634 213.367Z" fill="#407BFF"/>
<path d="M140.985 213.52C140.985 213.52 141.036 213.525 141.061 213.52C141.092 213.489 141.107 213.449 141.092 213.408C141.092 213.307 140.528 210.941 139.207 211.093C138.882 211.139 138.785 211.296 138.775 211.428C138.694 212.058 140.208 213.241 140.929 213.545L140.985 213.525V213.52ZM139.339 211.276C140.172 211.276 140.66 212.657 140.822 213.21C140.035 212.794 138.938 211.809 139.009 211.428C139.009 211.398 139.009 211.306 139.253 211.286H139.339V211.276Z" fill="#407BFF"/>
<path d="M140.741 213.444C141.402 213.535 142.016 213.931 142.377 214.495" stroke="#407BFF" stroke-width="0.5" stroke-linecap="round" stroke-linejoin="round"/>
<path d="M139.542 214.347C140.203 214.439 140.823 214.835 141.178 215.398" stroke="#407BFF" stroke-width="0.5" stroke-linecap="round" stroke-linejoin="round"/>
<path d="M138.054 215.104C138.715 215.195 139.334 215.591 139.69 216.155" stroke="#407BFF" stroke-width="0.5" stroke-linecap="round" stroke-linejoin="round"/>
<path opacity="0.3" d="M140.98 207.91L141.468 209.58L147.813 208.611L147.696 207.24L140.98 207.91Z" fill="black"/>
<path d="M144.567 108.156C144.699 108.146 144.826 108.136 144.958 108.126L145.806 108.684C147.315 111.269 149.321 116.63 149.291 123.814C149.001 135.06 147.33 152.525 147.178 156.317C147.162 156.317 147.147 156.317 147.132 156.317C147.229 159.216 147.33 161.415 147.437 162.506C148.819 177.265 149.291 210.484 149.291 210.484L139.248 210.631C139.248 210.631 131.74 160.364 131.552 157.282C131.531 156.942 131.506 156.591 131.481 156.241L131.018 150.859C130.546 145.94 129.951 140.467 129.657 134.928C128.194 123.316 131.47 111.096 133.97 104.999" fill="#407BFF"/>
<path d="M162.331 58.0919C160.457 54.5684 159.629 50.7353 158.227 46.9986C157.81 45.8867 156.891 44.6733 156.093 43.7899C154.879 42.4496 151.648 40.9061 150.464 40.8198L144.45 41.7946C138.354 41.0229 137.343 49.9839 137.16 56.0154C136.977 62.052 138.674 68.2764 142.133 73.2265C142.819 74.2064 143.586 75.1913 144.648 75.7397C145.969 76.4251 147.538 76.3438 149.022 76.2271C154.025 75.8361 159.466 74.9933 162.849 71.2871C161.61 69.3528 160.843 67.1239 160.624 64.8393C161.59 66.865 163.185 68.5861 165.13 69.698C166.405 68.5861 167.686 67.4692 168.961 66.3573C165.547 63.3111 164.211 61.6052 162.336 58.0817L162.331 58.0919Z" fill="#263238"/>
<path d="M164.115 73.602C164.109 73.602 164.104 73.5969 164.094 73.5918L164.115 73.602Z" fill="#407BFF"/>
<path d="M140.03 69.1548C140.03 69.1548 137.018 69.4188 135.011 72.8712C133.009 76.3236 131.043 79.1515 131.043 79.1515L137.52 83.4669L140.025 69.1548H140.03Z" fill="#407BFF"/>
<g opacity="0.4">
<path d="M140.03 69.1548C140.03 69.1548 137.018 69.4188 135.011 72.8712C133.009 76.3236 131.043 79.1515 131.043 79.1515L137.52 83.4669L140.025 69.1548H140.03Z" fill="white"/>
</g>
<path d="M161.366 214.013L155.971 214.541L151.989 200.899L160.188 200.01L161.366 214.013Z" fill="#B97964"/>
<path d="M155.194 212.159H157.119C157.556 212.159 157.958 212.378 158.217 212.733C159.324 214.246 160.162 213.677 161.366 212.251C162.133 212.159 162.342 213.043 162.403 213.276L163.84 218.506C163.967 218.942 163.713 219.399 163.276 219.521C163.2 219.541 163.119 219.552 163.038 219.552H147.792C145.369 219.552 144.866 217.109 145.862 216.881C150.353 215.891 153.533 214.566 154.925 213.261C155.184 213.033 154.92 212.86 155.199 212.154L155.194 212.159Z" fill="#263238"/>
<path d="M152.324 213.941C152.933 213.926 153.538 213.85 154.127 213.708C154.183 213.688 154.213 213.627 154.193 213.571C154.183 213.54 154.157 213.515 154.127 213.505C153.858 213.373 151.45 212.251 150.845 212.677C150.734 212.748 150.673 212.88 150.688 213.017C150.688 213.266 150.81 213.5 151.013 213.647C151.404 213.88 151.861 213.987 152.319 213.941H152.324ZM153.751 213.566C153.04 213.698 151.724 213.875 151.176 213.464C151.033 213.352 150.947 213.185 150.937 213.007C150.927 212.951 150.952 212.896 150.998 212.865C151.333 212.632 152.75 213.129 153.751 213.566Z" fill="#407BFF"/>
<path d="M154.102 213.718C154.102 213.718 154.152 213.723 154.178 213.718C154.208 213.688 154.224 213.647 154.208 213.606C154.208 213.505 153.644 211.139 152.324 211.291C151.999 211.337 151.902 211.494 151.892 211.626C151.811 212.256 153.324 213.439 154.046 213.743L154.102 213.723V213.718ZM152.456 211.474C153.289 211.474 153.776 212.855 153.939 213.408C153.152 212.992 152.054 212.007 152.125 211.626C152.125 211.596 152.126 211.51 152.369 211.484H152.456V211.474Z" fill="#407BFF"/>
<path d="M153.858 213.647C154.518 213.738 155.138 214.134 155.494 214.698" stroke="#407BFF" stroke-width="0.5" stroke-linecap="round" stroke-linejoin="round"/>
<path d="M152.659 214.545C153.32 214.637 153.939 215.033 154.295 215.596" stroke="#407BFF" stroke-width="0.5" stroke-linecap="round" stroke-linejoin="round"/>
<path d="M151.17 215.302C151.831 215.394 152.451 215.79 152.806 216.353" stroke="#407BFF" stroke-width="0.5" stroke-linecap="round" stroke-linejoin="round"/>
<path opacity="0.3" d="M160.929 208.809L160.812 207.438L154.097 208.108L154.584 209.784" fill="black"/>
<path opacity="0.2" d="M132.42 110.055C132.42 110.055 136.377 114.234 144.135 114.305C151.892 114.376 160.594 109.863 160.594 109.863L159.618 108.197L137.282 110.629L133.004 108.197L132.415 110.061L132.42 110.055Z" fill="black"/>
<path opacity="0.2" d="M145.258 139.487C145.293 139.665 139.893 117.6 139.893 117.6C139.893 117.6 138.44 135.613 143.871 144.209L145.258 139.487Z" fill="black"/>
<path d="M135.687 103.963C135.687 103.963 145.364 109.162 158.562 108.192C158.694 108.182 158.821 108.172 158.953 108.162L159.802 108.72C161.31 111.304 163.317 116.666 163.286 123.85C162.997 135.095 161.326 152.56 161.173 156.353C161.158 156.353 161.143 156.353 161.127 156.353C161.224 159.252 161.326 161.45 161.432 162.542C162.814 177.301 163.286 210.52 163.286 210.52L153.243 210.667C153.243 210.667 145.735 160.399 145.547 157.318C145.527 156.977 145.501 156.627 145.476 156.277L145.014 150.895C144.541 145.976 143.947 140.503 143.652 134.963L142.885 125.992C136.291 123.824 132.776 114.132 131.628 112.482C133.35 106.146 134.112 106.72 135.682 103.958L135.687 103.963Z" fill="#407BFF"/>
<path d="M162.763 83.5987L166.131 72.1144C163.997 68.9362 153.451 66.4941 153.451 66.4941L146.502 66.8749C146.502 66.8749 143.83 67.4689 141.544 68.2153C138.491 69.2104 136.84 70.0125 136.113 71.7032C136.113 71.7032 134.838 75.4551 135.605 83.1824C135.814 85.3096 136.296 96.5248 135.702 100.175L131.384 108.618C144.079 118.498 160.335 108.618 160.335 108.618C159.766 106.872 158.511 103.008 158.252 101.302C158.44 99.1293 159.049 97.6976 159.969 93.8898C160.147 93.1536 162.443 84.3145 162.753 83.5987H162.763Z" fill="#407BFF"/>
<g opacity="0.4">
<path d="M162.763 83.5987L166.131 72.1144C163.997 68.9362 153.451 66.4941 153.451 66.4941L146.502 66.8749C146.502 66.8749 143.83 67.4689 141.544 68.2153C138.491 69.2104 136.84 70.0125 136.113 71.7032C136.113 71.7032 134.838 75.4551 135.605 83.1824C135.814 85.3096 136.296 96.5248 135.702 100.175L131.384 108.618C144.079 118.498 160.335 108.618 160.335 108.618C159.766 106.872 158.511 103.008 158.252 101.302C158.44 99.1293 159.049 97.6976 159.969 93.8898C160.147 93.1536 162.443 84.3145 162.753 83.5987H162.763Z" fill="white"/>
</g>
<path d="M146.989 66.9107C147.716 66.1847 148.046 66.0223 147.909 64.9662C147.812 64.1539 147.553 63.3111 147.238 62.4886L148.32 61.3108L153.959 56.0205C153.69 59.681 153.512 65.1643 156.306 67.256L146.984 74.7852V66.9107H146.989Z" fill="#B97964"/>
<path opacity="0.2" d="M147.934 65.2097C149.464 64.377 151.16 62.8945 151.028 61.1277C150.967 60.3814 150.835 59.6757 150.673 59.2188L147.472 63.1484C147.696 63.8033 147.787 64.2196 147.934 65.2046V65.2097Z" fill="black"/>
<path d="M155.443 50.187C154.726 55.7565 154.544 58.1224 151.551 60.9452C147.051 65.1947 140.431 63.4685 139.481 57.8888C138.628 52.8676 139.939 44.6022 145.516 42.4546C151.008 40.3375 156.159 44.6175 155.443 50.1819V50.187Z" fill="#B97964"/>
<path d="M147.376 52.2941C147.376 52.9287 147.071 53.4669 146.705 53.4973C146.339 53.5278 146.045 53.0404 146.05 52.4058C146.05 51.7712 146.355 51.233 146.72 51.2025C147.086 51.1721 147.381 51.6595 147.376 52.2941Z" fill="#263238"/>
<path d="M141.783 51.8368C141.808 52.4511 141.534 52.9943 141.168 53.0502C140.802 53.106 140.487 52.6542 140.462 52.0399C140.437 51.4255 140.711 50.8823 141.077 50.8264C141.443 50.7706 141.757 51.2225 141.783 51.8368Z" fill="#263238"/>
<path d="M148.503 50.1617C148.432 50.1617 148.361 50.1414 148.305 50.0906C147.482 49.2529 146.497 49.4915 146.486 49.4915C146.339 49.527 146.197 49.4407 146.172 49.2884C146.146 49.1412 146.243 48.9889 146.39 48.9533C146.441 48.9432 147.675 48.6436 148.696 49.6844C148.798 49.786 148.793 49.9637 148.681 50.0754C148.63 50.1312 148.559 50.1566 148.493 50.1617H148.503Z" fill="#263238"/>
<path d="M139.893 47.6179C139.827 47.5976 139.771 47.5519 139.741 47.491C139.675 47.359 139.741 47.2016 139.878 47.1305C141.29 46.4502 142.387 47.0391 142.433 47.0645C142.565 47.1356 142.601 47.298 142.519 47.425C142.438 47.5519 142.265 47.5976 142.133 47.5265C142.093 47.5011 141.229 47.0594 140.106 47.5976C140.035 47.6331 139.954 47.6382 139.888 47.6128L139.893 47.6179Z" fill="#263238"/>
<path d="M144.13 51.3088C144.13 51.3088 143.18 53.3701 142.143 54.6342C141.961 54.8576 142.057 55.1927 142.321 55.2993C143.002 55.5786 143.82 55.3755 143.82 55.3755L144.13 51.3037V51.3088Z" fill="#A24E3F"/>
<path d="M146.883 51.2276L145.587 50.9839C145.587 50.9839 146.334 51.9079 146.883 51.2276Z" fill="#263238"/>
<path d="M141.3 50.8724L139.989 50.71C139.989 50.71 140.787 51.5883 141.3 50.8724Z" fill="#263238"/>
<path d="M156.951 47.1356C157.708 48.2322 156.199 51.4105 156.199 51.4105C156.199 51.4105 153.517 50.6134 153.37 54.6496C152.379 54.8121 151.272 51.0449 151.434 47.2524C151.633 45.1099 155.61 45.1962 156.951 47.1305V47.1356Z" fill="#263238"/>
<path d="M143.896 42.6424C145.079 40.1851 147.147 39.2865 152.684 41.6575C157.688 43.7949 154.508 51.2429 153.37 54.6496C153.126 55.3756 146.751 47.3082 146.751 47.3082L143.891 42.6424H143.896Z" fill="#263238"/>
<path d="M156.967 54.8017C156.266 55.9238 155.163 56.6041 154.173 56.8173C152.679 57.1321 152.004 54.7307 152.563 53.2634C153.065 51.9484 154.554 51.1158 155.981 51.4611C157.389 51.8012 157.77 53.5223 156.967 54.8017Z" fill="#B97964"/>
<path opacity="0.2" d="M154.909 52.8522C155.382 52.6694 155.874 52.9842 156.032 53.3751C156.22 53.8473 155.961 54.949 154.508 55.2942" stroke="black" stroke-width="0.5" stroke-linecap="round" stroke-linejoin="round"/>
<path d="M145.648 56.5233C145.257 57.0767 144.566 57.361 143.906 57.2848C143.804 57.2747 143.713 57.3813 143.713 57.4777C143.713 57.5894 143.799 57.6554 143.906 57.6707C144.709 57.7621 145.516 57.3762 145.979 56.7213C146.04 56.635 145.994 56.508 145.913 56.4623C145.816 56.4065 145.709 56.4471 145.653 56.5283L145.648 56.5233Z" fill="#263238"/>
<path d="M142.296 125.946C142.372 128.891 142.758 131.846 143.094 134.77C143.454 137.913 143.845 141.056 144.292 144.188C144.872 148.255 145.481 152.311 145.877 156.399C146.208 159.79 146.421 163.186 146.716 166.578C147.076 170.695 147.64 174.782 148.422 178.844C148.468 179.083 148.834 178.981 148.788 178.743C148.077 175.057 147.539 171.34 147.188 167.604C146.878 164.273 146.675 160.932 146.37 157.597C145.71 150.362 144.465 143.198 143.617 135.984C143.226 132.658 142.763 129.297 142.677 125.946C142.672 125.703 142.291 125.703 142.296 125.946Z" fill="#263238"/>
<path d="M125.766 86.7414C125.766 86.7414 121.214 79.4508 127.823 76.2116C134.432 72.9725 138.044 80.5119 140.975 81.8167C143.906 83.1265 162.108 93.5903 157.866 99.0735C153.629 104.557 141.971 103.993 135.926 101.069C129.88 98.1393 125.766 86.7414 125.766 86.7414Z" fill="#407BFF"/>
<path d="M165.806 72.0332C169.575 75.186 166.573 88.6452 166.573 88.6452L155.107 86.4824C155.107 86.4824 157.073 76.3639 159.583 73.6731C161.711 71.4036 163.733 70.241 165.806 72.0332Z" fill="#407BFF"/>
<g opacity="0.4">
<path d="M165.806 72.0332C169.575 75.186 166.573 88.6452 166.573 88.6452L155.107 86.4824C155.107 86.4824 157.073 76.3639 159.583 73.6731C161.711 71.4036 163.733 70.241 165.806 72.0332Z" fill="white"/>
</g>
<path d="M134.691 98.8757C134.691 98.8757 128.808 94.0525 128.641 94.3571C128.473 94.6617 126.974 97.7689 134.889 101.612C137.139 102.704 150.403 107.258 154.411 105.476C158.745 103.547 165.364 88.417 165.364 88.417L157.307 86.8989C157.307 86.8989 153.157 97.8653 150.231 97.9567C147.299 98.043 134.985 99.0178 134.985 99.0178" fill="#B97964"/>
<path d="M128.321 84.9443C130.409 87.2544 132.878 88.7673 135.199 87.559C138.516 85.7719 138.212 83.0709 137.505 81.2736C135.961 78.4863 133.345 75.237 130.068 77.5471C126.827 79.8267 126.756 82.3753 128.326 84.9443H128.321Z" fill="#B97964"/>
<path d="M131.607 82.8476C131.811 83.0913 132.125 83.2741 132.451 83.2132C132.598 83.1878 132.73 83.0913 132.806 82.9593C132.887 82.8172 132.898 82.6496 132.867 82.4872C132.832 82.2942 132.725 82.1165 132.598 81.9693C132.532 81.8931 132.395 81.8982 132.329 81.9693C132.252 82.0505 132.263 82.1571 132.329 82.2384C132.329 82.2435 132.344 82.2536 132.349 82.2587C132.349 82.2587 132.329 82.2333 132.344 82.2485C132.354 82.2638 132.364 82.2739 132.374 82.2891C132.395 82.3196 132.415 82.3501 132.43 82.3856C132.435 82.4008 132.446 82.411 132.451 82.4262C132.451 82.4364 132.456 82.4415 132.461 82.4516C132.471 82.4719 132.456 82.4364 132.456 82.4364C132.461 82.4668 132.481 82.5024 132.486 82.5328C132.491 82.5582 132.491 82.5887 132.501 82.6141C132.501 82.6141 132.501 82.5633 132.501 82.5988C132.501 82.6039 132.501 82.609 132.501 82.6141C132.501 82.6293 132.501 82.6496 132.501 82.6648C132.501 82.675 132.501 82.6902 132.501 82.7004C132.501 82.7207 132.501 82.675 132.501 82.675C132.501 82.6801 132.501 82.6902 132.501 82.6953C132.501 82.7055 132.496 82.7207 132.491 82.7308C132.491 82.741 132.471 82.7816 132.486 82.7512C132.501 82.7207 132.486 82.7562 132.476 82.7613C132.471 82.7715 132.461 82.7816 132.456 82.7969C132.456 82.7969 132.481 82.7664 132.471 82.7765C132.471 82.7765 132.461 82.7867 132.456 82.7918C132.446 82.8019 132.435 82.807 132.425 82.8172C132.41 82.8324 132.461 82.7918 132.44 82.807C132.44 82.807 132.43 82.8121 132.43 82.8172C132.42 82.8222 132.41 82.8273 132.4 82.8324C132.364 82.8527 132.435 82.8222 132.405 82.8324C132.39 82.8324 132.379 82.8425 132.364 82.8425C132.364 82.8425 132.354 82.8425 132.349 82.8425C132.319 82.8476 132.369 82.8425 132.369 82.8425C132.359 82.8425 132.349 82.8425 132.334 82.8425C132.308 82.8425 132.283 82.8425 132.258 82.8425C132.313 82.8425 132.278 82.8425 132.258 82.8425C132.247 82.8425 132.232 82.8375 132.222 82.8324C132.212 82.8273 132.197 82.8273 132.186 82.8222C132.181 82.8222 132.171 82.8172 132.166 82.8121C132.141 82.8019 132.171 82.8121 132.181 82.8172C132.151 82.8019 132.12 82.7867 132.09 82.7715C132.059 82.7562 132.034 82.7308 132.004 82.7105C132.004 82.7105 132.034 82.7359 132.019 82.7207C132.009 82.7156 132.004 82.7055 131.993 82.7004C131.978 82.6902 131.968 82.675 131.953 82.6648C131.922 82.6344 131.897 82.6039 131.871 82.5735C131.805 82.4973 131.668 82.5024 131.602 82.5735C131.526 82.6547 131.536 82.7613 131.602 82.8425L131.607 82.8476Z" fill="#263238"/>
<path d="M134.051 80.781C134.244 81.0145 134.554 81.1871 134.864 81.1364C135.001 81.111 135.128 81.0196 135.199 80.9028C135.28 80.7657 135.285 80.6033 135.26 80.4509C135.229 80.258 135.128 80.0905 135.011 79.9382C134.986 79.9026 134.92 79.8823 134.874 79.8823C134.828 79.8823 134.772 79.9026 134.737 79.9382C134.701 79.9737 134.681 80.0245 134.681 80.0753C134.681 80.1311 134.706 80.1666 134.737 80.2123C134.737 80.2174 134.747 80.2225 134.747 80.2276C134.757 80.2428 134.767 80.2529 134.772 80.2682C134.793 80.2986 134.808 80.3291 134.823 80.3596C134.828 80.3748 134.838 80.385 134.843 80.4002C134.854 80.4205 134.838 80.385 134.838 80.385C134.838 80.3951 134.843 80.4002 134.848 80.4103C134.859 80.4408 134.869 80.4662 134.874 80.4966C134.874 80.5119 134.879 80.522 134.884 80.5373C134.884 80.5525 134.884 80.6033 134.884 80.5423C134.884 80.5677 134.884 80.5982 134.884 80.6236C134.884 80.6337 134.884 80.649 134.884 80.6591C134.884 80.6946 134.894 80.6134 134.884 80.654C134.879 80.6794 134.869 80.6997 134.864 80.7251C134.879 80.6693 134.874 80.7048 134.864 80.7251C134.864 80.7302 134.838 80.7657 134.859 80.7353C134.879 80.7048 134.859 80.7353 134.848 80.7454C134.838 80.7556 134.828 80.7607 134.823 80.7708C134.823 80.7708 134.864 80.7403 134.838 80.7556C134.838 80.7556 134.833 80.7556 134.828 80.7606C134.818 80.7657 134.813 80.7708 134.803 80.7759C134.777 80.7911 134.848 80.7606 134.813 80.7759C134.803 80.7759 134.787 80.781 134.777 80.786C134.777 80.786 134.767 80.786 134.762 80.786C134.742 80.7911 134.808 80.786 134.787 80.786C134.777 80.786 134.767 80.786 134.757 80.786C134.747 80.786 134.737 80.786 134.726 80.786C134.726 80.786 134.716 80.786 134.711 80.786C134.676 80.786 134.747 80.7911 134.726 80.786C134.701 80.786 134.681 80.7759 134.655 80.7708C134.645 80.7708 134.63 80.7657 134.62 80.7606C134.615 80.7606 134.605 80.7607 134.599 80.7556C134.569 80.7454 134.63 80.7708 134.61 80.7556C134.594 80.7505 134.437 80.6693 134.447 80.6591C134.447 80.6591 134.483 80.6896 134.457 80.6642C134.452 80.6591 134.442 80.654 134.437 80.649C134.422 80.6388 134.412 80.6286 134.401 80.6134C134.371 80.588 134.346 80.5576 134.32 80.5271C134.254 80.451 134.117 80.456 134.051 80.5271C133.975 80.6083 133.98 80.715 134.051 80.7962V80.781Z" fill="#263238"/>
<path d="M131.404 80.8317C131.414 80.7962 131.409 80.7606 131.399 80.7251C131.353 80.6388 131.247 80.6032 131.16 80.6489C130.642 80.8926 130.276 81.38 130.185 81.9486C130.175 82.0451 130.246 82.1314 130.343 82.1416C130.439 82.1416 130.525 82.0756 130.536 81.9791C130.617 81.5273 130.911 81.1465 131.328 80.9586C131.369 80.9282 131.394 80.8825 131.399 80.8317H131.404Z" fill="#263238"/>
<path d="M134.285 78.2834C134.3 78.2529 134.31 78.2123 134.31 78.1768C134.29 78.0803 134.198 78.0143 134.102 78.0295C133.533 78.1158 133.045 78.4712 132.791 78.984C132.756 79.0754 132.796 79.1769 132.888 79.2176C132.979 79.2531 133.081 79.2074 133.121 79.1211C133.33 78.7149 133.726 78.4408 134.178 78.3849C134.224 78.3646 134.264 78.3291 134.285 78.2834Z" fill="#263238"/>
<path d="M133.701 80.9385L134.839 82.2534C135.164 81.9742 135.397 81.6036 135.509 81.1923C134.894 81.2177 134.285 81.1365 133.701 80.9436V80.9385Z" fill="#A24E3F"/>
<path d="M129.931 84.5231C129.931 84.5231 128.56 83.6803 127.884 85.1222C127.391 86.163 129.555 88.534 131.044 87.3866C132.212 86.4879 131.089 84.909 129.931 84.5231Z" fill="#B97964"/>
<g opacity="0.3">
<path d="M129.002 85.0053C128.814 85.188 128.717 85.4521 128.727 85.7161C128.737 85.9801 128.859 86.2187 129.032 86.4116C129.378 86.7924 130.038 87.1224 130.47 86.6756C130.642 86.4979 130.373 86.2288 130.2 86.4065C130.084 86.5233 129.921 86.5335 129.759 86.4725C129.586 86.4065 129.423 86.2796 129.301 86.1425C129.245 86.0765 129.195 86.0054 129.159 85.9242C129.129 85.8582 129.113 85.7719 129.108 85.7161C129.103 85.5536 129.149 85.3962 129.271 85.2744C129.444 85.1017 129.174 84.8327 129.002 85.0053Z" fill="black"/>
</g>
<path d="M134.965 83.6346C134.965 83.6346 134.945 83.66 134.92 83.6904C134.899 83.7107 134.879 83.731 134.859 83.7514C134.808 83.797 134.793 83.8072 134.742 83.8427C134.691 83.8783 134.635 83.9087 134.579 83.9341C134.6 83.924 134.569 83.9341 134.559 83.9392C134.549 83.9392 134.534 83.9494 134.523 83.9544C134.493 83.9646 134.462 83.9747 134.427 83.9849C134.396 83.99 134.371 84.0001 134.341 84.0052C134.325 84.0052 134.315 84.0052 134.3 84.0103C134.33 84.0103 134.285 84.0103 134.28 84.0103C134.219 84.0154 134.153 84.0154 134.092 84.0103C134.076 84.0103 134.066 84.0103 134.051 84.0103C133.99 84.0103 134.066 84.0103 134.036 84.0103C134.005 84.0103 133.98 84.0001 133.949 83.9951C133.919 83.9849 133.883 83.9798 133.853 83.9697C133.843 83.9697 133.827 83.9595 133.817 83.9544C133.756 83.9341 133.848 83.9697 133.792 83.9443C133.7 83.8986 133.589 83.9189 133.533 84.0103C133.487 84.0915 133.507 84.2286 133.599 84.2692C134.193 84.5434 134.909 84.3555 135.296 83.8326C135.357 83.7514 135.311 83.6194 135.23 83.5737C135.133 83.5178 135.031 83.5584 134.97 83.6397L134.965 83.6346Z" fill="#263238"/>
<path d="M144.734 140.492C144.18 140.721 137.632 140.558 136.764 139.949C135.895 139.34 133.03 133.511 132.171 131.841L127.396 135.699C129.057 138.73 133.045 146.376 135.057 146.579C137.073 146.783 145.196 145.163 145.689 144.234C146.182 143.305 145.283 140.269 144.729 140.497L144.734 140.492Z" fill="#B97964"/>
<path d="M125.125 126.195C125.125 126.195 129.184 125.759 131.892 129.45C134.604 133.135 135.275 134.867 135.285 135.095C135.306 135.603 130.276 139.441 129.179 139.208C128.082 138.979 125.12 126.195 125.12 126.195H125.125Z" fill="#407BFF"/>
<path opacity="0.3" d="M125.125 126.195C125.125 126.195 129.184 125.759 131.892 129.45C134.604 133.135 135.275 134.867 135.285 135.095C135.306 135.603 130.276 139.441 129.179 139.208C128.082 138.979 125.12 126.195 125.12 126.195H125.125Z" fill="white"/>
<path d="M96.9007 170.208C96.9007 170.208 93.2024 171 87.4773 171.746C81.7521 172.493 79.4763 171.386 76.8397 168.609C74.2032 165.837 73.111 160.932 74.2032 158.8C75.2954 156.668 79.0191 154.353 76.5654 153.982C74.1118 153.616 69.3874 157.602 68.3866 160.841C67.3859 164.08 69.6617 169.264 69.6617 169.264C69.6617 169.264 66.7509 166.71 66.6594 166.878C66.568 167.045 65.0237 171.026 69.7531 174.909C74.4826 178.793 78.445 179.433 78.445 179.433L74.7519 180.733C74.7519 180.733 76.1133 183.139 80.2992 182.946C84.4801 182.759 90.0223 178.123 90.0223 178.123L97.3731 169.949" fill="#407BFF"/>
<path opacity="0.2" d="M96.9007 170.208C96.9007 170.208 93.2024 171 87.4773 171.746C81.7521 172.493 79.4763 171.386 76.8397 168.609C74.2032 165.837 73.111 160.932 74.2032 158.8C75.2954 156.668 79.0191 154.353 76.5654 153.982C74.1118 153.616 69.3874 157.602 68.3866 160.841C67.3859 164.08 69.6617 169.264 69.6617 169.264C69.6617 169.264 66.7509 166.71 66.6594 166.878C66.568 167.045 65.0237 171.026 69.7531 174.909C74.4826 178.793 78.445 179.433 78.445 179.433L74.7519 180.733C74.7519 180.733 76.1133 183.139 80.2992 182.946C84.4801 182.759 90.0223 178.123 90.0223 178.123L97.3731 169.949" fill="black"/>
<path opacity="0.4" d="M76.8398 168.614C74.2032 165.842 73.111 160.937 74.2032 158.805C75.2954 156.673 79.0191 154.357 76.5654 153.987C75.5698 153.84 74.2032 154.413 72.857 155.353C71.775 156.195 70.4491 157.805 69.7532 159.17C68.5797 161.46 69.7532 166.73 72.5878 169.715C75.4224 172.696 77.8659 173.889 84.0178 173.087C90.1748 172.284 94.1473 171.431 94.1473 171.431L94.6553 171.167L96.7381 170.243C95.9812 170.401 92.5116 171.091 87.4722 171.751C81.747 172.498 79.4712 171.391 76.8347 168.614H76.8398Z" fill="black"/>
<path opacity="0.4" d="M97.3731 169.959L96.7432 170.238C96.8448 170.218 96.9006 170.203 96.9006 170.203L97.3731 169.954V169.959Z" fill="black"/>
<path d="M120.746 185.718C120.772 185.759 120.756 185.952 120.7 186.262C120.35 188.282 118.338 195.37 114.477 199.426C110.022 204.102 107.934 203.787 107.934 203.787L111.48 216.526C111.48 216.526 115.311 217.688 114.35 219.709C113.39 221.73 108.641 219.293 108.641 219.293C108.641 219.293 101.935 205.234 101.117 203.138C100.299 201.041 101.732 196.944 101.864 196.766C101.996 196.583 102.839 189.358 102.839 189.358L107.823 181.174L120.756 185.962" fill="#407BFF"/>
<path opacity="0.2" d="M120.746 185.718C120.772 185.759 120.756 185.952 120.7 186.262C120.35 188.282 118.338 195.37 114.477 199.426C110.022 204.102 107.934 203.787 107.934 203.787L111.48 216.526C111.48 216.526 115.311 217.688 114.35 219.709C113.39 221.73 108.641 219.293 108.641 219.293C108.641 219.293 101.935 205.234 101.117 203.138C100.299 201.041 101.732 196.944 101.864 196.766C101.996 196.583 102.839 189.358 102.839 189.358L107.823 181.174L120.756 185.962" fill="black"/>
<path d="M151.897 172.599C152.39 176.331 148.275 190.856 147.752 195.268C147.051 201.147 145.887 214.388 146.71 215.622C147.533 216.856 149.281 216.785 148.498 218.628C147.716 220.47 144.744 219.678 143.164 218.739C141.585 217.805 140.64 215.373 139.918 210.717C139.197 206.062 139.852 187.18 139.852 187.18L151.897 172.599Z" fill="#407BFF"/>
<path opacity="0.2" d="M151.897 172.599C152.39 176.331 148.275 190.856 147.752 195.268C147.051 201.147 145.887 214.388 146.71 215.622C147.533 216.856 149.281 216.785 148.498 218.628C147.716 220.47 144.744 219.678 143.164 218.739C141.585 217.805 140.64 215.373 139.918 210.717C139.197 206.062 139.852 187.18 139.852 187.18L151.897 172.599Z" fill="black"/>
<path d="M150.286 141.579C150.286 141.579 152.968 133.917 154.955 134.034C156.941 134.151 158.262 139.873 156.707 143.97L153.283 143.625L150.286 141.579Z" fill="#407BFF"/>
<path opacity="0.2" d="M150.286 141.579C150.286 141.579 152.968 133.917 154.955 134.034C156.941 134.151 158.262 139.873 156.707 143.97L153.283 143.625L150.286 141.579Z" fill="black"/>
<path d="M167.106 153.733C168.163 151.469 168.198 150.057 167.416 149.763C165.176 148.935 161.142 148.986 160.604 148.382C160.07 147.778 158.597 144.63 156.397 143.061C155.915 142.757 156.265 142.447 155.696 142.335C156.565 141.67 156.931 140.589 156.631 139.573C156.631 139.573 155.707 141.086 154.36 141.223C154.635 140.995 154.777 140.66 154.746 140.32C154.746 140.32 153.222 141.609 150.22 141.228C146.547 140.777 143.454 142.67 143.22 144.808L144.353 145.249C143.073 147.478 140.497 153.088 144.947 156.282C150.576 160.313 156.443 160.024 161.899 158.221L162.031 158.176L161.965 158.485C163.037 158.297 164.038 157.845 164.861 157.17L164.53 158.247C165.486 157.475 166.222 156.49 166.674 155.383V155.815C167.06 155.134 167.238 154.363 167.187 153.591L167.106 153.728V153.733Z" fill="#407BFF"/>
<path opacity="0.2" d="M167.106 153.733C168.163 151.469 168.198 150.057 167.416 149.763C165.176 148.935 161.142 148.986 160.604 148.382C160.07 147.778 158.597 144.63 156.397 143.061C155.915 142.757 156.265 142.447 155.696 142.335C156.565 141.67 156.931 140.589 156.631 139.573C156.631 139.573 155.707 141.086 154.36 141.223C154.635 140.995 154.777 140.66 154.746 140.32C154.746 140.32 153.222 141.609 150.22 141.228C146.547 140.777 143.454 142.67 143.22 144.808L144.353 145.249C143.073 147.478 140.497 153.088 144.947 156.282C150.576 160.313 156.443 160.024 161.899 158.221L162.031 158.176L161.965 158.485C163.037 158.297 164.038 157.845 164.861 157.17L164.53 158.247C165.486 157.475 166.222 156.49 166.674 155.383V155.815C167.06 155.134 167.238 154.363 167.187 153.591L167.106 153.728V153.733Z" fill="black"/>
<path opacity="0.4" d="M167.106 153.733L167.187 153.596C167.238 154.367 167.06 155.134 166.674 155.819V155.388C166.222 156.495 165.486 157.475 164.531 158.251L164.861 157.175C164.038 157.845 163.037 158.302 161.965 158.49L162.031 158.18L161.899 158.226C159.171 159.13 156.342 159.653 153.492 159.444C152.496 157.779 152.593 152.773 154.762 151.001C156.931 149.23 160.604 148.387 160.604 148.387C161.137 148.991 165.176 148.94 167.416 149.768C168.198 150.062 168.163 151.479 167.106 153.738V153.733Z" fill="black"/>
<path d="M154.01 149.098C154.01 150.032 153.548 150.789 153.025 150.789C152.501 150.789 152.039 150.032 152.039 149.098C152.039 148.164 152.491 147.407 153.025 147.407C153.558 147.407 154.01 148.159 154.01 149.093V149.098Z" fill="#263238"/>
<path d="M158.953 147.209C159.105 147.991 158.902 148.717 158.48 148.824C158.059 148.93 157.612 148.392 157.464 147.61C157.312 146.834 157.52 146.102 157.932 145.986C158.343 145.869 158.8 146.427 158.958 147.204L158.953 147.209Z" fill="#263238"/>
<path d="M164.673 150.519C165.405 149.641 166.583 149.296 167.66 149.656C168.554 150.159 166.918 152.332 166.918 152.332C166.918 152.332 164.18 151.626 164.678 150.514L164.673 150.519Z" fill="#263238"/>
<path d="M151.912 144.28C152.09 144.28 152.232 144.133 152.232 143.955C152.232 143.777 152.09 143.63 151.912 143.63C150.992 143.65 150.139 144.097 149.59 144.848C149.504 145.006 149.555 145.204 149.707 145.295C149.86 145.371 150.042 145.321 150.134 145.178C150.108 145.219 150.154 145.153 150.154 145.153L150.205 145.092C150.235 145.057 150.271 145.021 150.301 144.985C150.368 144.919 150.434 144.859 150.5 144.803C150.561 144.752 150.622 144.706 150.688 144.666C150.764 144.62 150.84 144.574 150.921 144.529L151.048 144.468L151.074 144.457L151.135 144.437C151.226 144.402 151.317 144.376 151.409 144.351L151.546 144.32L151.607 144.31C151.704 144.3 151.795 144.29 151.892 144.29H151.912V144.28Z" fill="#263238"/>
<path d="M157.83 143.28C157.998 143.31 158.161 143.203 158.201 143.036C158.227 142.863 158.125 142.701 157.962 142.66C157.114 142.391 156.19 142.533 155.448 143.036C155.316 143.132 155.275 143.32 155.361 143.462C155.448 143.62 155.646 143.671 155.798 143.579C156.393 143.163 157.139 143.056 157.825 143.285H157.835L157.83 143.28Z" fill="#263238"/>
<path d="M149.55 142.564C149.55 142.564 149.55 142.477 149.55 142.325C149.524 141.568 149.362 139.131 148.229 136.857C146.868 134.126 145.933 133.095 145.349 133.41C144.764 133.73 142.311 136.268 141.965 140.309C141.615 144.351 142.595 149.814 142.595 149.814L149.555 142.558L149.55 142.564Z" fill="#407BFF"/>
<path opacity="0.2" d="M149.55 142.564C149.55 142.564 149.55 142.477 149.55 142.325C149.524 141.568 149.362 139.131 148.229 136.857C146.868 134.126 145.933 133.095 145.349 133.41C144.764 133.73 142.311 136.268 141.965 140.309C141.615 144.351 142.595 149.814 142.595 149.814L149.555 142.558L149.55 142.564Z" fill="black"/>
<path d="M122.148 176.077C122.148 176.316 118.115 182.896 119.862 189.78L116.667 188.871C116.667 188.871 114.112 181.571 117.546 176.082H122.148V176.077Z" fill="black"/>
<path opacity="0.2" d="M147.579 141.36L143.921 142.63C143.921 142.63 143.982 135.156 145.714 135.882C147.172 136.497 147.579 141.36 147.579 141.36Z" fill="black"/>
<path d="M134.858 156.414C131.704 158.891 121.91 162.054 114.391 162.989C104.947 164.167 95.7374 169.34 95.5037 169.447C94.5284 172.737 97.9117 188.232 97.9117 188.232C97.9117 188.232 101.844 184.074 113.202 187.77C124.561 191.466 122.23 189.836 122.524 189.983C122.814 190.13 124.617 201.381 124.566 206.443C124.546 208.631 124.744 210.804 124.744 210.804C124.917 214.135 123.825 216.201 126.349 218.658C128.956 221.192 130.693 220.699 132.801 219.638C134.437 218.816 131.414 217.704 130.977 216.369C130.54 215.033 132.771 197.512 132.771 197.512C134.549 190.405 136.738 190.405 136.738 190.405L152.197 173.529C151.612 170.269 153.004 158.795 153.004 158.795L145.196 151.728L143.693 142.366C143.515 142.411 142.443 142.366 140.04 146.524C138.968 148.382 137.18 151.697 134.036 152.906C132.212 153.606 135.687 153.444 135.687 153.444C135.687 153.444 132.059 155.393 133.121 156.14C134.183 156.886 134.858 156.404 134.858 156.404V156.414Z" fill="#407BFF"/>
<path opacity="0.2" d="M134.858 156.414C131.704 158.891 121.91 162.054 114.391 162.989C104.947 164.167 95.7374 169.34 95.5037 169.447C94.5284 172.737 97.9117 188.232 97.9117 188.232C97.9117 188.232 101.844 184.074 113.202 187.77C124.561 191.466 122.23 189.836 122.524 189.983C122.814 190.13 124.617 201.381 124.566 206.443C124.546 208.631 124.744 210.804 124.744 210.804C124.917 214.135 123.825 216.201 126.349 218.658C128.956 221.192 130.693 220.699 132.801 219.638C134.437 218.816 131.414 217.704 130.977 216.369C130.54 215.033 132.771 197.512 132.771 197.512C134.549 190.405 136.738 190.405 136.738 190.405L152.197 173.529C151.612 170.269 153.004 158.795 153.004 158.795L145.196 151.728L143.693 142.366C143.515 142.411 142.443 142.366 140.04 146.524C138.968 148.382 137.18 151.697 134.036 152.906C132.212 153.606 135.687 153.444 135.687 153.444C135.687 153.444 132.059 155.393 133.121 156.14C134.183 156.886 134.858 156.404 134.858 156.404V156.414Z" fill="black"/>
<path d="M166.832 151.494C166.832 151.494 167.218 153.738 166.608 154.916C165.999 156.089 160.558 154.551 160.558 154.551" stroke="#263238" stroke-width="0.75" stroke-linecap="round" stroke-linejoin="round"/>
<path d="M141.244 150.357C139.969 151.88 138.602 153.332 137.165 154.693C138.678 154.723 140.197 154.332 141.518 153.571C140.883 154.957 140.141 156.287 139.293 157.546" stroke="#263238" stroke-width="0.75" stroke-linecap="round" stroke-linejoin="round"/>
<path d="M106.766 185.982C107.04 186.399 103.484 195.598 95.8238 199.787C88.1632 203.975 86.248 204.255 86.248 204.255L82.8292 215.125C82.8292 215.125 86.7966 216.516 85.4301 218.882C85.4301 218.882 82.4177 219.44 80.7768 218.887C79.136 218.333 78.4502 215.546 78.4502 215.546L79.1309 199.381C79.1309 199.381 81.0461 199.381 84.4649 191.014C87.8838 182.652 88.4324 176.519 88.4324 176.519C88.4324 176.519 90.0986 173.625 92.3592 171.289C93.8528 169.746 100.167 167.578 104.439 166.888C112.237 165.623 106.766 185.972 106.766 185.972V185.982Z" fill="#407BFF"/>
<path opacity="0.2" d="M106.766 185.982C107.04 186.399 103.484 195.598 95.8238 199.787C88.1632 203.975 86.248 204.255 86.248 204.255L82.8292 215.125C82.8292 215.125 86.7966 216.516 85.4301 218.882C85.4301 218.882 82.4177 219.44 80.7768 218.887C79.136 218.333 78.4502 215.546 78.4502 215.546L79.1309 199.381C79.1309 199.381 81.0461 199.381 84.4649 191.014C87.8838 182.652 88.4324 176.519 88.4324 176.519C88.4324 176.519 90.0986 173.625 92.3592 171.289C93.8528 169.746 100.167 167.578 104.439 166.888C112.237 165.623 106.766 185.972 106.766 185.972V185.982Z" fill="black"/>
<path d="M84.8204 184.525C84.5308 188.765 82.6055 192.867 79.5474 195.761" stroke="#407BFF" stroke-linecap="round" stroke-linejoin="round"/>
<path d="M90.5712 189.125C89.6619 190.897 88.5799 192.572 87.3403 194.121C88.6002 193.537 89.8651 192.958 91.1249 192.374C90.5865 193.887 89.5857 195.223 88.3005 196.162C89.2047 196.197 90.114 195.913 90.8455 195.375" stroke="#263238" stroke-width="0.75" stroke-linecap="round" stroke-linejoin="round"/>
<path opacity="0.4" d="M87.8635 180.007C88.2344 177.727 89.1183 175.564 90.4492 173.671C90.8912 173.041 91.2163 172.574 91.1554 172.65C90.9826 172.858 86.5935 174.219 85.354 181.266L87.8635 180.007Z" fill="black"/>
<path d="M123.124 191.877C122.28 189.44 121.615 186.937 121.147 184.398" stroke="#263238" stroke-width="0.75" stroke-linecap="round" stroke-linejoin="round"/>
<path d="M101.61 195.192C104.19 193.192 106.766 190.384 107.492 187.104L107.259 187.236C110.921 188.028 114.584 188.825 118.252 189.617C118.77 189.729 119.293 189.841 119.811 189.957C120.05 190.008 120.152 189.643 119.913 189.592C116.25 188.8 112.588 188.003 108.92 187.211C108.402 187.099 107.878 186.987 107.36 186.871C107.264 186.85 107.147 186.901 107.127 187.003C106.415 190.221 103.875 192.958 101.34 194.923C101.147 195.075 101.417 195.339 101.61 195.192Z" fill="#263238"/>
<path d="M136.337 190.719C139.755 187.714 143.113 184.322 145.491 180.413C145.618 180.205 145.288 180.012 145.161 180.22C142.803 184.099 139.461 187.465 136.067 190.445C135.884 190.607 136.154 190.877 136.337 190.714V190.719Z" fill="#263238"/>
<path d="M152.811 162.978C146.298 165.288 138.968 162.628 134.437 156.805L132.974 157.597C132.974 157.597 136.083 163.313 144.16 164.928C150.429 166.182 152.593 164.461 152.593 164.461L152.816 162.983L152.811 162.978Z" fill="#263238"/>
<path d="M106.461 187.145C107.193 184.652 107.112 181.971 106.218 179.535C106.136 179.306 105.765 179.403 105.852 179.636C106.726 182.017 106.812 184.617 106.096 187.049C106.025 187.282 106.395 187.384 106.461 187.15V187.145Z" fill="#263238"/>
<path d="M107.746 170.35C107.746 170.35 107.056 184.551 107.31 187.871C107.558 191.192 105.75 208.57 107.548 215.485L112.263 215.475C112.263 215.475 115.173 195.456 115.6 190.349C116.022 185.241 118.861 171.523 118.861 171.523L107.751 170.345L107.746 170.35Z" fill="#B97964"/>
<path d="M107.497 215.282C107.497 215.282 106.603 211.195 106.735 207.494L113.472 207.479L112.405 215.15L107.497 215.287V215.282Z" fill="#407BFF"/>
<path opacity="0.7" d="M107.497 215.282C107.497 215.282 106.603 211.195 106.735 207.494L113.472 207.479L112.405 215.15L107.497 215.287V215.282Z" fill="white"/>
<path d="M114.355 215.318C114.975 215.308 115.565 215.191 115.763 214.932C115.864 214.779 115.859 214.581 115.752 214.439C115.671 214.302 115.539 214.211 115.382 214.175C114.579 213.967 112.913 214.952 112.842 215.008C112.796 215.028 112.776 215.079 112.786 215.13C112.796 215.176 112.831 215.211 112.872 215.216C113.36 215.297 113.858 215.328 114.35 215.318H114.355ZM115.107 214.373C115.178 214.373 115.255 214.378 115.326 214.394C115.417 214.409 115.504 214.465 115.554 214.546C115.636 214.693 115.61 214.754 115.58 214.8C115.361 215.115 114.147 215.135 113.248 215.043C113.817 214.698 114.452 214.47 115.107 214.373Z" fill="#407BFF"/>
<path d="M112.898 215.201H112.948C113.522 214.932 114.66 213.881 114.564 213.317C114.549 213.185 114.447 213.028 114.137 213.002C113.909 212.982 113.68 213.053 113.502 213.206C112.903 213.718 112.781 214.988 112.781 215.069C112.781 215.109 112.801 215.15 112.832 215.17C112.847 215.186 112.872 215.196 112.898 215.196V215.201ZM114.051 213.236H114.117C114.325 213.246 114.34 213.332 114.34 213.353C114.376 213.683 113.624 214.51 113.04 214.871C113.086 214.322 113.299 213.8 113.655 213.378C113.766 213.282 113.903 213.231 114.051 213.236Z" fill="#407BFF"/>
<path d="M112.379 214.536L107.122 214.607C106.923 214.607 106.751 214.749 106.715 214.947L105.826 219.237C105.745 219.618 105.989 219.988 106.365 220.07C106.421 220.08 106.471 220.085 106.527 220.085C108.422 220.024 110.078 219.897 112.466 219.862C115.255 219.821 114.549 220.161 117.82 220.166C119.796 220.166 120.126 217.917 119.283 217.821C115.453 217.389 115.036 216.242 113.543 214.891C113.213 214.632 112.796 214.505 112.379 214.536Z" fill="#263238"/>
<path d="M121.214 170.02C121.214 170.02 121.763 184.226 122.301 187.51C122.839 190.795 122.55 208.27 124.943 214.997L129.642 214.581C129.642 214.581 130.8 194.385 130.774 189.257C130.749 184.129 132.385 170.223 132.385 170.223L121.214 170.02Z" fill="#B97964"/>
<path d="M124.704 214.566C124.704 214.566 123.505 209.575 123.429 206.798L130.084 206.519L129.657 214.358L124.704 214.566Z" fill="#407BFF"/>
<path opacity="0.7" d="M124.704 214.566C124.704 214.566 123.505 209.575 123.429 206.798L130.084 206.519L129.657 214.358L124.704 214.566Z" fill="white"/>
<path d="M132.136 214.805C132.755 214.759 133.34 214.607 133.517 214.338C133.609 214.18 133.594 213.982 133.477 213.845C133.39 213.713 133.248 213.627 133.091 213.602C132.278 213.439 130.668 214.516 130.607 214.582C130.566 214.607 130.546 214.658 130.556 214.703C130.566 214.749 130.602 214.78 130.647 214.785C131.14 214.835 131.638 214.84 132.131 214.8L132.136 214.805ZM132.832 213.82C132.903 213.815 132.979 213.82 133.05 213.83C133.147 213.84 133.228 213.891 133.284 213.967C133.375 214.109 133.35 214.175 133.324 214.221C133.126 214.546 131.912 214.642 131.008 214.597C131.557 214.221 132.176 213.957 132.827 213.82H132.832Z" fill="#407BFF"/>
<path d="M130.673 214.774L130.723 214.764C131.282 214.465 132.359 213.353 132.227 212.799C132.207 212.673 132.095 212.515 131.785 212.51C131.557 212.5 131.328 212.586 131.165 212.749C130.597 213.297 130.551 214.571 130.551 214.648C130.551 214.688 130.571 214.724 130.607 214.749C130.627 214.764 130.647 214.774 130.673 214.774ZM131.709 212.749L131.775 212.739C131.983 212.744 132.004 212.83 132.004 212.85C132.06 213.18 131.353 214.043 130.795 214.439C130.81 213.891 130.993 213.358 131.323 212.916C131.425 212.815 131.567 212.759 131.709 212.749Z" fill="#407BFF"/>
<path d="M130.114 214.145L124.871 214.515C124.673 214.531 124.511 214.678 124.48 214.876L123.835 219.207C123.774 219.587 124.038 219.948 124.424 220.009C124.48 220.019 124.536 220.019 124.587 220.014C126.477 219.846 128.122 219.623 130.505 219.45C133.284 219.252 132.603 219.633 135.864 219.45C137.835 219.334 138.039 217.074 137.19 217.023C133.34 216.815 132.857 215.693 131.292 214.429C130.947 214.19 130.525 214.089 130.109 214.14L130.114 214.145Z" fill="#263238"/>
<path d="M105.268 185.358C105.268 185.358 116.967 185.78 117.287 185.196C117.896 184.074 119.527 172.457 119.527 172.457L120.452 185.505C120.452 185.505 132.984 185.505 132.979 184.135C132.979 183.779 132.253 162.77 131.038 157.668L106.599 158.836C106.599 158.836 105.064 182.916 105.268 185.358Z" fill="#263238"/>
<path d="M129.474 131.597C129.265 129.49 127.208 126.673 125.125 126.195C124.51 126.068 124.018 125.931 125.125 126.195C121.686 125.845 118.226 125.693 114.767 125.733L114.64 125.723C113.202 126.236 106.852 127.114 107.122 129.394C108.854 144.701 106.126 155.647 106.116 159.064C115.046 160.562 123.657 159.399 132.501 158.83C131.44 144.32 129.895 135.847 129.463 131.602L129.474 131.597Z" fill="#407BFF"/>
<path opacity="0.3" d="M129.474 131.597C129.265 129.49 127.208 126.673 125.125 126.195C124.51 126.068 124.018 125.931 125.125 126.195C121.686 125.845 118.226 125.693 114.767 125.733L114.64 125.723C113.202 126.236 106.852 127.114 107.122 129.394C108.854 144.701 106.126 155.647 106.116 159.064C115.046 160.562 123.657 159.399 132.501 158.83C131.44 144.32 129.895 135.847 129.463 131.602L129.474 131.597Z" fill="white"/>
<path d="M131.643 110.289C131.302 110.137 130.932 110.081 130.596 109.928C130.068 109.69 129.651 109.223 129.479 108.674C129.27 108.025 129.397 107.324 129.301 106.649C129.154 105.557 128.392 104.567 127.37 104.141C126.283 103.689 125.018 103.856 123.936 103.394C123.139 103.049 122.519 102.389 121.793 101.907C120.319 100.937 117.551 101.018 115.864 102.694L119.781 103.272C123.515 104.689 126.349 108.253 126.878 112.213C126.903 112.396 126.934 112.604 127.086 112.711C127.167 112.767 127.269 112.787 127.365 112.802C128.727 113.005 130.149 112.802 131.399 112.218C131.871 112 132.379 111.614 132.334 111.096C132.298 110.726 131.978 110.446 131.643 110.294V110.289Z" fill="#263238"/>
<path d="M122.154 126.084C121.463 125.363 121.468 123.835 121.493 122.839C121.514 121.956 121.727 121.088 122.108 120.291L119.207 120.265L114.869 119.915C115.57 120.636 114.645 121.23 115.077 122.134C115.565 124.083 114.925 124.875 114.661 126.053C114.661 126.053 118.669 129.511 121.945 128.14C123.546 127.47 122.154 126.084 122.154 126.084Z" fill="#B97964"/>
<path opacity="0.2" d="M121.803 121.352L119.238 121.453L114.005 121.509C114.706 122.23 117.318 125.129 121.59 124.728C121.559 124.57 121.493 124.088 121.478 123.804C121.498 122.92 121.422 122.144 121.803 121.352Z" fill="black"/>
<path d="M109.398 112.736C109.961 117.432 113.553 122.814 117.49 123.352C124.719 124.347 126.725 122.58 127.294 117.209C127.823 112.396 125.796 104.892 119.812 103.75C113.822 102.607 108.646 106.222 109.398 112.736Z" fill="#B97964"/>
<path d="M117.647 107.583L115.29 103.623C109.199 103.765 105.085 105.862 108.884 112.137C107.543 118.554 114.132 121.966 114.132 121.966C114.091 117.686 116.327 114.574 115.56 111.375C114.792 108.172 117.647 107.588 117.647 107.588V107.583Z" fill="#263238"/>
<path d="M118.882 113.944C118.928 114.538 119.289 115.006 119.7 114.97C120.111 114.934 120.365 114.427 120.315 113.828C120.264 113.229 119.908 112.777 119.502 112.797C119.095 112.822 118.836 113.345 118.887 113.944H118.882Z" fill="#263238"/>
<path d="M123.723 113.518C123.769 114.087 124.114 114.533 124.485 114.498C124.856 114.462 125.11 113.975 125.079 113.406C125.049 112.838 124.688 112.396 124.312 112.421C123.936 112.447 123.677 112.949 123.723 113.518Z" fill="#263238"/>
<path d="M120.111 111.314C120.152 111.279 120.182 111.228 120.198 111.177C120.218 111.03 120.116 110.893 119.969 110.873C119.111 110.725 118.232 111.005 117.622 111.629C117.526 111.741 117.536 111.908 117.648 112.005C117.648 112.005 117.648 112.005 117.653 112.005C117.769 112.096 117.932 112.081 118.034 111.974C118.531 111.487 119.232 111.274 119.913 111.401C119.989 111.401 120.061 111.365 120.111 111.309V111.314Z" fill="#263238"/>
<path d="M125.928 110.675C125.979 110.649 126.024 110.614 126.055 110.563C126.116 110.426 126.055 110.263 125.923 110.197C125.145 109.806 124.221 109.817 123.454 110.233C123.327 110.314 123.291 110.482 123.367 110.609C123.454 110.73 123.611 110.766 123.743 110.695C124.358 110.375 125.095 110.38 125.704 110.71C125.78 110.725 125.862 110.71 125.928 110.675Z" fill="#263238"/>
<path d="M122.865 113.457L123.124 116.087C123.774 116.026 124.389 115.772 124.892 115.356C124.109 114.853 123.424 114.208 122.87 113.462L122.865 113.457Z" fill="#A24E3F"/>
<path d="M115.046 114.599C115.046 114.599 114.086 112.35 111.978 113.548C110.454 114.411 111.064 119.25 113.914 119.128C116.154 119.037 116.149 116.092 115.052 114.599H115.046Z" fill="#B97964"/>
<g opacity="0.3">
<path d="M113.462 114.488C112.69 114.615 112.273 115.397 112.365 116.128C112.456 116.859 112.928 117.803 113.817 117.646C114.056 117.6 113.955 117.234 113.716 117.28C113.076 117.397 112.771 116.519 112.735 116.031C112.695 115.483 112.989 114.95 113.563 114.858C113.807 114.818 113.701 114.452 113.462 114.493V114.488Z" fill="black"/>
</g>
<path d="M122.138 117.996C121.437 118.229 120.619 117.925 120.248 117.285C120.126 117.072 119.796 117.265 119.918 117.478C120.365 118.26 121.381 118.651 122.24 118.367C122.473 118.29 122.372 117.92 122.138 118.001V117.996Z" fill="#263238"/>
<path d="M127.797 108.547C127.599 107.06 126.639 105.73 125.369 104.927C124.297 104.247 123.022 103.932 121.747 103.917C119.354 102.952 115.407 102.059 113.893 101.901C113.182 101.83 112.41 101.851 111.821 102.257C111.379 102.561 111.094 103.049 110.688 103.409C110.205 103.841 109.575 104.069 108.981 104.328C108.28 104.633 107.584 105.003 107.071 105.572C106.558 106.141 106.253 106.943 106.441 107.684C106.527 108.029 106.71 108.339 106.817 108.674C106.924 109.009 106.949 109.41 106.736 109.69C106.497 110.004 106.045 110.086 105.806 110.395C105.44 110.867 105.781 111.578 106.268 111.923C106.969 112.421 107.889 112.487 108.752 112.436C109.611 112.385 110.48 112.238 111.328 112.38C112.187 112.523 112.974 112.949 113.822 113.127C114.671 113.304 115.707 113.147 116.159 112.406C116.474 111.888 116.428 111.238 116.433 110.629C116.444 110.02 116.571 109.334 117.089 109.009C117.658 108.654 118.491 108.887 118.994 108.446C119.624 107.887 119.197 106.811 119.522 106.034C119.72 105.557 120.904 105.075 121.945 104.846C122.194 105.059 122.377 105.344 122.438 105.664C122.54 106.197 122.352 106.791 122.626 107.258C122.905 107.735 123.535 107.852 124.089 107.892C124.643 107.938 125.262 107.989 125.618 108.415C126.06 108.943 125.953 109.908 126.588 110.172C126.969 110.329 127.432 110.096 127.64 109.74C127.848 109.385 127.853 108.943 127.797 108.537V108.547Z" fill="#263238"/>
<path d="M108.544 154.378C110.165 155.033 111.846 155.53 113.558 155.87C113.787 155.916 114.031 155.962 114.219 156.104C114.407 156.246 114.518 156.515 114.407 156.723C114.315 156.886 114.122 156.957 113.939 157.003C113.381 157.145 111.45 156.627 111.963 157.419C112.639 158.754 113.955 159.653 115.169 160.526C115.484 160.75 115.799 160.993 115.971 161.338C116.144 161.684 115.733 162.196 115.423 162.136C115.514 162.374 115.651 162.506 115.428 162.806C115.296 162.983 114.96 163.1 114.752 162.958C114.386 163.41 113.477 163.522 112.161 162.633C112.334 162.78 112.217 163.09 112.014 163.181C111.806 163.273 111.552 163.247 111.349 163.146C108.595 161.734 106.523 159.333 106.091 156.317C106.06 156.124 106.116 155.921 106.228 155.759C106.954 154.688 107.508 154.261 108.549 154.373L108.544 154.378Z" fill="#B97964"/>
<path d="M109.947 161.207C110.653 161.785 111.374 162.334 112.116 162.862C112.202 162.923 112.329 162.877 112.375 162.796C112.431 162.699 112.39 162.593 112.309 162.537C111.592 162.029 110.896 161.501 110.216 160.943C110.134 160.877 110.023 160.866 109.947 160.943C109.88 161.009 109.865 161.146 109.947 161.212V161.207Z" fill="#A24E3F"/>
<path d="M111.044 160.679C112.202 161.471 113.365 162.268 114.523 163.06C114.727 163.197 114.915 162.867 114.716 162.73C113.558 161.938 112.395 161.141 111.237 160.349C111.033 160.212 110.845 160.542 111.044 160.679Z" fill="#A24E3F"/>
<path d="M111.968 159.881C113.055 160.633 114.051 161.501 115.138 162.252C115.341 162.395 115.529 162.065 115.331 161.922C114.244 161.171 113.249 160.303 112.161 159.551C111.958 159.409 111.77 159.739 111.968 159.881Z" fill="#A24E3F"/>
<path d="M103.423 133.115C101.315 136.491 97.4037 145.772 98.3333 147.905C99.263 150.042 106.329 157.297 107.538 157.267C108.747 157.236 109.123 154.86 108.585 154.439C108.046 154.017 104.521 147.346 104.648 146.133C104.775 144.919 107.802 139.177 108.686 137.08" fill="#B97964"/>
<path d="M130.922 139.106C130.642 136.334 130.068 133.608 129.205 130.958C129.129 130.724 128.763 130.826 128.839 131.059C129.692 133.674 130.266 136.37 130.546 139.106C130.571 139.35 130.952 139.35 130.927 139.106H130.922Z" fill="#263238"/>
<path d="M101.259 135.979C101.137 136.187 108.107 141.533 109.103 140.776C110.099 140.02 112.75 127.424 110.429 127.2C108.107 126.977 105.567 128.465 101.259 135.979Z" fill="#407BFF"/>
<path opacity="0.3" d="M101.259 135.979C101.137 136.187 108.107 141.533 109.103 140.776C110.099 140.02 112.75 127.424 110.429 127.2C108.107 126.977 105.567 128.465 101.259 135.979Z" fill="white"/>
<path d="M68.2243 154.007C65.2982 155.434 63.317 158.419 63.0478 161.648C62.9868 162.379 64.1298 162.374 64.1908 161.648C64.4295 158.81 66.2482 156.236 68.7983 154.992C69.4587 154.667 68.8796 153.682 68.2192 154.007H68.2243Z" fill="#263238"/>
<path d="M110.515 131.323C110.515 131.323 111.176 131.835 111.77 131.247C112.141 130.881 112.451 128.373 111.43 125.266C111.43 125.266 111.983 126.164 112.751 127.693C113.055 128.302 112.994 129.201 113.538 129.83C114.305 130.713 114.93 128.348 114.168 126.555C113.406 124.758 110.846 122.164 108.996 120.351C108.793 120.153 108.539 119.92 108.26 119.676L105.618 116.99L102.748 119.767C103.551 120.747 103.505 122.174 103.8 123.083C104.272 124.54 105.877 125.261 106.014 125.916C106.38 127.667 105.72 131.013 106.756 131.155C107.792 131.292 108.057 127.581 108.057 127.581C108.057 127.581 108.275 131.577 109.245 131.683C110.592 131.825 110.51 131.333 110.51 131.333L110.515 131.323Z" fill="#A24E3F"/>
<path d="M110.556 131.328C110.653 130.211 110.729 129.089 110.526 127.982C110.292 126.692 109.682 125.514 108.992 124.413C108.865 124.205 108.534 124.397 108.661 124.606C109.332 125.682 109.926 126.824 110.155 128.083C110.348 129.155 110.262 130.251 110.17 131.328C110.15 131.571 110.531 131.571 110.551 131.328H110.556Z" fill="#7C2A1F"/>
<path d="M108.229 127.647C108.133 127.098 108.061 126.535 107.909 126.002C107.777 125.54 107.553 125.088 107.167 124.783C107.086 124.717 106.979 124.707 106.898 124.783C106.832 124.849 106.817 124.986 106.898 125.052C107.264 125.342 107.452 125.763 107.569 126.205C107.701 126.713 107.767 127.236 107.858 127.753C107.899 127.992 108.27 127.89 108.224 127.652L108.229 127.647Z" fill="#7C2A1F"/>
<path d="M101.361 64.2246C100.482 64.6003 97.0228 66.1183 94.3304 75.2824C91.638 84.4464 88.2293 94.6868 88.6713 98.9211C89.1132 103.155 98.7602 121.874 101.356 121.26C103.952 120.646 108.031 117.574 107.041 115.853C106.05 114.132 98.9786 97.6924 98.9786 97.6924C98.9786 97.6924 105.293 77.4757 105.451 72.424C105.608 67.3724 101.351 64.2297 101.351 64.2297L101.361 64.2246Z" fill="#407BFF"/>
<path opacity="0.3" d="M101.361 64.2246C100.482 64.6003 97.0228 66.1183 94.3304 75.2824C91.638 84.4464 88.2293 94.6868 88.6713 98.9211C89.1132 103.155 98.7602 121.874 101.356 121.26C103.952 120.646 108.031 117.574 107.041 115.853C106.05 114.132 98.9786 97.6924 98.9786 97.6924C98.9786 97.6924 105.293 77.4757 105.451 72.424C105.608 67.3724 101.351 64.2297 101.351 64.2297L101.361 64.2246Z" fill="black"/>
<g opacity="0.3">
<path d="M103.799 78.4861C103.718 78.4201 103.789 78.476 103.764 78.6131C103.738 78.7705 103.723 78.9278 103.693 79.0852C103.606 79.5828 103.495 80.0803 103.383 80.5779C103.032 82.1467 102.636 83.7003 102.235 85.2589C101.259 89.0464 100.228 92.8186 99.1207 96.5705C99.009 96.9513 98.7397 97.4489 98.8413 97.8398C98.8871 98.0226 99.009 98.2053 99.0852 98.378C99.4763 99.2411 99.8624 100.099 100.254 100.962C101.458 103.633 102.656 106.308 103.845 108.984C104.455 110.36 105.064 111.731 105.659 113.112C105.969 113.838 106.329 114.564 106.563 115.32C106.634 115.554 107.005 115.452 106.929 115.218C106.37 113.411 105.445 111.659 104.678 109.928C103.449 107.146 102.209 104.374 100.96 101.607C100.508 100.607 100.061 99.6066 99.6084 98.6064C99.4865 98.3424 99.3392 98.0784 99.2426 97.8043C99.1309 97.4895 99.2528 97.4743 99.3646 97.0833C100.487 93.2959 101.529 89.4881 102.519 85.6651C102.971 83.9237 103.418 82.1822 103.804 80.4256C103.916 79.9077 104.033 79.3899 104.109 78.8669C104.135 78.7045 104.226 78.3491 104.069 78.2171C103.881 78.0648 103.606 78.3338 103.799 78.4861Z" fill="black"/>
</g>
</g>
<defs>
<clipPath id="clip0_831_19590">
<rect width="254" height="231" fill="white" transform="translate(0 -0.00976562)"/>
</clipPath>
</defs>
</svg>
