<svg width="1200" height="630" viewBox="0 0 1200 630" fill="none" xmlns="http://www.w3.org/2000/svg">
<rect width="1200" height="630" fill="white"/>
<path fill-rule="evenodd" clip-rule="evenodd" d="M314.241 215.866L301.117 266.115C299.404 272.674 303.195 277.981 309.593 277.981H358.608C365.006 277.981 368.797 283.288 367.084 289.847L350.843 351.981H290.235C283.837 351.981 280.045 346.674 281.759 340.115L294.883 289.866C296.596 283.307 292.805 278 286.407 278H237.392C230.994 278 227.203 272.693 228.916 266.134L245.157 204H305.765C312.163 204 315.955 209.307 314.241 215.866ZM263.494 330.753L276.181 348.524H276.199C277.803 350.748 278.223 353.757 277.402 356.915L259.338 426H198.73C192.332 426 188.541 420.693 190.254 414.134L204.345 360.204C204.938 357.941 204.581 355.889 203.522 354.403L254.49 329.296C258.026 327.614 261.672 328.212 263.494 330.753ZM203.518 354.397C203.519 354.399 203.521 354.401 203.522 354.403L203.506 354.411L203.518 354.397ZM203.518 354.397C202.46 352.917 200.704 352 198.494 352H145.888C139.49 352 135.698 346.693 137.412 340.134L153.635 278.019H221.023C224.086 278.019 226.71 279.271 228.296 281.495L241.493 299.976C243.334 302.573 242.842 306.554 240.29 309.749L203.518 354.397Z" fill="#0E121B"/>
<path d="M421.99 230.641H444.781V359.236H421.99V230.641Z" fill="#0E121B"/>
<path d="M464.533 270.93H486.426V282.888C490.494 277.86 495.339 274.181 500.962 271.85C506.584 269.397 512.506 268.171 518.727 268.171C530.332 268.171 539.005 271.421 544.748 277.921C550.49 284.299 553.362 292.823 553.362 303.493V359.236H530.751V305.701C530.751 292.823 524.889 286.384 513.164 286.384C508.02 286.384 503.175 287.672 498.629 290.247C494.083 292.7 490.254 296.441 487.144 301.469V359.236H464.533V270.93Z" fill="#0E121B"/>
<path d="M605.825 361.995C599.604 361.995 592.964 361.259 585.905 359.788C578.847 358.316 573.344 356.292 569.396 353.717V334.032C574.062 336.975 579.625 339.367 586.085 341.207C592.545 342.924 598.646 343.782 604.389 343.782C610.131 343.782 614.319 343.292 616.951 342.311C619.583 341.207 620.898 339.244 620.898 336.424C620.898 334.216 620.181 332.438 618.745 331.088C617.429 329.617 615.216 328.329 612.105 327.225C609.114 325.999 604.449 324.527 598.108 322.81C590.93 320.725 585.247 318.579 581.06 316.371C576.993 314.163 573.882 311.404 571.729 308.092C569.695 304.658 568.678 300.243 568.678 294.846C568.678 286.016 572.088 279.393 578.907 274.978C585.726 270.44 594.938 268.171 606.542 268.171C612.524 268.171 618.446 268.784 624.308 270.011C630.29 271.114 634.956 272.709 638.305 274.794V293.743C634.716 291.535 630.35 289.757 625.205 288.408C620.061 287.058 614.797 286.384 609.414 286.384C603.551 286.384 599.125 286.997 596.134 288.224C593.143 289.327 591.648 291.535 591.648 294.846C591.648 297.054 592.425 298.832 593.981 300.182C595.656 301.408 597.809 302.512 600.441 303.493C603.073 304.352 607.858 305.701 614.797 307.54C622.214 309.625 628.017 311.894 632.204 314.347C636.391 316.8 639.382 319.744 641.177 323.178C642.971 326.612 643.868 330.904 643.868 336.056C643.868 343.905 640.578 350.221 633.998 355.004C627.538 359.665 618.147 361.995 605.825 361.995Z" fill="#0E121B"/>
<path d="M693.76 361.995C682.156 361.995 673.482 358.806 667.74 352.429C661.997 345.929 659.126 337.343 659.126 326.673V270.93H681.737V324.466C681.737 337.343 687.599 343.782 699.323 343.782C704.467 343.782 709.313 342.556 713.859 340.103C718.405 337.527 722.233 333.725 725.344 328.697V270.93H747.955V359.236H726.061V347.278C721.994 352.306 717.149 356.047 711.526 358.5C705.903 360.83 699.981 361.995 693.76 361.995Z" fill="#0E121B"/>
<path d="M767.757 270.93H789.65V285.096C793.12 280.313 798.025 276.756 804.365 274.426C810.826 272.096 818.183 270.93 826.438 270.93V288.591C817.705 288.591 810.108 290.002 803.648 292.823C797.307 295.521 792.881 299.814 790.368 305.701V359.236H767.757V270.93Z" fill="#0E121B"/>
<path d="M891.799 361.995C874.093 361.995 860.694 357.273 851.602 347.83C842.629 338.263 838.143 325.385 838.143 309.196V230.641H860.933V309.564C860.933 319.744 863.685 327.532 869.188 332.928C874.811 338.202 882.348 340.839 891.799 340.839C901.131 340.839 908.548 338.202 914.051 332.928C919.674 327.532 922.485 319.744 922.485 309.564V230.641H945.276V309.196C945.276 325.385 940.789 338.263 931.817 347.83C922.844 357.273 909.505 361.995 891.799 361.995Z" fill="#0E121B"/>
<path d="M960.61 270.93H982.503V281.601C987.169 277.063 992.253 273.69 997.757 271.482C1003.26 269.275 1009.54 268.171 1016.6 268.171C1025.33 268.171 1033.11 270.133 1039.93 274.058C1046.87 277.86 1052.25 283.318 1056.08 290.431C1060.03 297.422 1062 305.578 1062 314.899C1062 324.098 1060.03 332.254 1056.08 339.367C1052.25 346.481 1046.87 352.061 1039.93 356.108C1033.11 360.033 1025.33 361.995 1016.6 361.995C1010.02 361.995 1003.8 361.075 997.936 359.236C992.194 357.273 987.288 354.391 983.221 350.589V399.525H960.61V270.93ZM1011.04 343.782C1019.17 343.782 1025.87 341.084 1031.13 335.688C1036.4 330.291 1039.03 323.362 1039.03 314.899C1039.03 306.437 1036.4 299.568 1031.13 294.295C1025.87 289.021 1019.17 286.384 1011.04 286.384C1004.58 286.384 998.833 288.162 993.809 291.719C988.784 295.276 985.255 300.059 983.221 306.069V323.914C985.135 329.923 988.604 334.768 993.629 338.447C998.773 342.004 1004.58 343.782 1011.04 343.782Z" fill="#0E121B"/>
</svg>
