<svg width="216" height="216" viewBox="0 0 216 216" fill="none" xmlns="http://www.w3.org/2000/svg">
<g clip-path="url(#clip0_483_6630)">
<path d="M3.80642 176.135C10.0786 191.469 24.0036 200.772 34.1479 203.34C75.8326 213.891 142.988 227.989 191.212 194.061C226.876 168.969 214.834 132.963 206.419 77.2055C197.06 15.2098 155.401 4.67253 114.701 0.937612C80.9822 -2.15683 36.9304 10.235 21.3373 40.1003C11.532 58.8804 23.2857 64.8312 15.2399 107.37C8.27683 144.189 -3.86635 157.38 3.80525 176.136L3.80642 176.135Z" fill="#CADDFF"/>
<path d="M72.1879 139.364C110.049 139.364 140.741 108.464 140.741 70.347C140.741 32.2297 110.049 1.32959 72.1879 1.32959C34.3272 1.32959 3.63501 32.2297 3.63501 70.347C3.63501 108.464 34.3272 139.364 72.1879 139.364Z" fill="#CADDFF"/>
<path d="M54.0577 6.88389C53.7761 7.30032 54.6125 8.69974 56.2782 8.69974C57.9439 8.69974 58.7756 8.42056 59.47 10.2364C60.1644 12.0523 59.192 18.2001 60.1633 20.4347C61.1345 22.6705 62.8002 24.0676 64.0483 22.8101C65.2976 21.5526 65.158 18.2001 66.6853 17.3614C68.2114 16.5227 73.7622 13.1701 74.0402 10.376C74.3182 7.58185 72.3745 5.48682 67.5182 4.92729C62.6618 4.36893 56.1386 3.80939 54.0577 6.88272V6.88389Z" fill="#CADDFF"/>
<path d="M36.1257 69.4801C35.477 69.8449 35.0887 70.544 35.1204 71.2912C35.2189 73.6349 34.3368 79.4731 32.4846 81.3382C30.1256 83.7136 30.9948 87.9928 30.9585 89.7207C30.8834 93.2292 31.2201 94.7905 34.9667 96.4667C38.7134 98.143 40.1808 98.238 40.4576 101.592C40.7356 104.944 41.1673 117.897 42.277 121.25C43.3867 124.603 45.7456 130.052 46.9949 131.309C48.2442 132.567 51.158 133.265 49.3539 128.515C47.5498 123.765 46.4401 121.53 48.521 118.875C50.6032 116.221 54.0718 110.074 54.3498 107.698C54.6278 105.323 55.8759 103.926 56.9868 103.647C58.0964 103.368 60.4554 102.529 61.1498 101.691C61.8443 100.854 60.4566 98.4785 60.0402 96.3823C59.6237 94.2873 59.6237 93.0298 63.0935 91.3523C66.5622 89.6761 64.8977 84.9253 60.1797 83.669C55.4618 82.4115 52.548 79.757 53.1029 77.1024C53.6577 74.4479 49.9111 74.727 47.6905 73.4696C45.47 72.2121 45.5368 70.2379 43.0665 69.2959C39.7268 68.0232 37.382 68.7751 36.128 69.4789L36.1257 69.4801Z" fill="#99B9FF"/>
<path d="M122.1 66.5515C120.931 64.7849 121.077 61.9896 124 58.1632C126.297 55.1579 123.002 52.1526 121.482 51.0007C121.203 50.7895 121.328 50.3508 121.676 50.3109C123.558 50.0963 127.925 50.7332 129.847 60.5175C132.331 73.1732 133.355 68.758 134.67 67.287C135.986 65.8148 133.524 63.0676 135.986 60.223C137.538 58.4306 138.325 55.816 138.725 53.6834C133.782 33.6094 120.115 17.004 102.005 8.18286C102.032 10.3858 101.504 18.0633 92.5739 14.8973C92.5739 14.8973 87.0196 12.2486 88.3346 22.9912C89.6496 33.7337 94.181 22.2557 95.0584 21.8134C95.9358 21.3724 98.2737 20.7835 97.2508 27.9941C97.2508 27.9941 97.1042 30.4962 92.5739 30.0551C88.0425 29.6141 87.1651 31.8205 87.1651 32.9982C87.1651 34.176 87.6038 37.2657 85.1193 39.4733C82.6349 41.681 83.3657 47.4194 86.7276 45.5074C90.0895 43.5942 92.4285 37.5613 95.4983 36.9725C98.5681 36.3836 101.345 40.3566 104.269 39.3267C107.192 38.2968 105.877 33.2927 107.339 33.2927C108.8 33.2927 111.87 36.2358 111.432 38.4434C110.993 40.6511 106.461 41.681 107.631 44.3297C108.8 46.9784 111.285 46.0951 112.016 47.8617C112.746 49.6271 108.362 51.6881 104.853 49.4804C101.345 47.2728 100.76 50.5104 99.0068 49.0394C97.2531 47.5672 97.1065 44.4775 94.622 45.5074C92.1376 46.5373 90.6748 48.5972 87.4595 50.0693C84.2443 51.5414 81.6132 53.4535 81.6132 55.5145C81.6132 57.5755 82.7827 59.782 82.1985 63.0195C81.6132 66.2571 80.5903 75.0864 91.1147 73.321C101.639 71.5545 100.323 76.9996 100.323 77.5885C100.323 78.1774 100.176 85.829 101.2 87.1545C102.223 88.4789 104.562 92.3053 101.2 97.3083C97.8385 102.311 99.1534 113.496 102.223 112.024C105.293 110.552 108.363 104.813 112.162 101.87C115.963 98.927 121.225 86.1246 119.033 82.1504C116.84 78.1774 122.103 74.9398 122.833 72.2899C123.564 69.6413 123.272 68.3169 122.103 66.5503L122.1 66.5515Z" fill="#99B9FF"/>
<path d="M22.6944 22.5953C22.7495 25.047 22.3178 27.7144 20.8926 30.2153C16.5911 37.759 16.7295 41.5315 16.3131 49.0764C15.8967 56.6202 25.3654 69.9199 27.7243 71.317C30.0833 72.7141 30.4469 69.3909 30.4469 66.7363C30.4469 64.0818 29.4393 60.8982 28.0516 57.8248C26.6639 54.7515 26.6639 52.7949 27.0803 51.5374C27.4968 50.2799 29.1625 49.8612 30.2721 51.1187C31.3818 52.3761 34.0505 53.4917 35.3326 52.7058C36.908 51.7404 36.2945 47.9585 36.8505 46.701C37.4053 45.4436 40.4587 44.6048 41.7068 41.9514C42.9561 39.2969 45.037 38.179 47.5356 36.9215C50.033 35.664 52.2535 35.1057 52.6699 34.267C53.0863 33.4282 52.5315 31.4728 53.2248 29.237C53.9192 27.0012 55.5837 24.3478 54.8905 23.2299C54.1972 22.112 52.1151 20.2962 48.23 23.0904C44.3449 25.8845 43.3737 25.8845 42.2628 23.7883C41.1531 21.6921 43.5121 16.2446 48.3684 16.2446C53.2248 16.2446 54.1972 14.5683 54.3356 13.3108C54.474 12.0533 52.9479 10.6563 51.2822 10.3771C49.6165 10.0979 49.3397 11.075 42.4012 13.8692C37.7701 15.7343 33.6986 15.2968 31.5015 14.7994C28.3484 17.1443 25.4017 19.7531 22.6944 22.5965V22.5953Z" fill="#99B9FF"/>
<path d="M137.51 82.7809C136.475 82.5498 136.704 85.0976 135.324 85.561C133.943 86.0243 133.367 86.7199 133.713 89.2689C134.058 91.8179 133.483 95.1774 132.103 96.4525C130.722 97.7264 128.765 98.6543 128.65 101.782C128.535 104.91 125.658 107.922 123.933 108.965C122.207 110.008 119.559 111.63 119.559 114.294C119.559 116.01 119.515 118.204 119.91 119.891C129.045 110.971 135.719 99.5141 138.815 86.6472C138.545 84.9369 138.104 82.9134 137.511 82.7809H137.51Z" fill="#99B9FF"/>
<path d="M84.1245 138.71C83.9392 138.71 83.7762 138.578 83.7421 138.389C83.7046 138.178 83.8454 137.976 84.0577 137.938C116.677 132.172 140.352 103.746 140.352 70.3461C140.352 32.5042 109.774 1.71815 72.1878 1.71815C34.6017 1.71815 4.02325 32.5054 4.02325 70.3472C4.02325 89.5638 12.6016 109.367 26.4116 122.026C26.57 122.172 26.5806 122.417 26.4351 122.575C26.2896 122.733 26.0445 122.744 25.8861 122.599C11.9212 109.796 3.2467 89.7749 3.2467 70.3472C3.2467 50.9196 10.4174 34.3799 23.438 21.2713C36.4598 8.16041 53.7725 0.94043 72.1878 0.94043C90.6032 0.94043 107.916 8.16041 120.938 21.2702C133.958 34.3787 141.129 51.8076 141.129 70.3461C141.129 86.7684 135.327 102.7 124.793 115.208C114.38 127.572 99.9604 135.916 84.1914 138.704C84.168 138.708 84.1457 138.71 84.1234 138.71H84.1245Z" fill="black"/>
<path d="M209.924 161.964L83.1171 144.329C79.9335 143.923 77.5475 141.213 77.5475 138.004L75.8079 49.5553C75.8079 49.5553 78.6983 47.472 80.337 46.6732C81.171 46.2673 82.1305 46.089 83.1288 46.2157L209.559 62.339C212.742 62.7448 215.128 65.4545 215.128 68.6639V155.537C215.128 157.091 214.417 158.461 213.32 159.366C212.307 160.198 209.925 161.964 209.925 161.964H209.924Z" fill="#5479F7"/>
<path d="M206.054 163.138L79.6237 147.015C76.4401 146.609 74.0542 143.899 74.0542 140.69V53.8166C74.0542 50.8313 76.6747 48.5239 79.6355 48.9017L206.065 65.0249C209.249 65.4308 211.635 68.1405 211.635 71.3499V158.223C211.635 161.208 209.014 163.516 206.054 163.138Z" fill="#99B9FF"/>
<path d="M203.366 159.558L82.6454 144.162C80.3299 143.866 78.595 141.897 78.595 139.563V55.765C78.595 53.7709 80.3451 52.2307 82.3229 52.4829L203.044 67.8789C205.359 68.1745 207.094 70.144 207.094 72.4783V156.276C207.094 158.27 205.344 159.81 203.366 159.558Z" fill="white"/>
<path d="M206.68 163.567C206.456 163.567 206.23 163.553 206.004 163.524L102.246 150.203C102.032 150.176 101.882 149.981 101.909 149.768C101.936 149.554 102.131 149.404 102.344 149.432L206.103 162.753C207.402 162.919 208.714 162.517 209.698 161.651C210.683 160.784 211.247 159.534 211.247 158.224V71.3509C211.247 68.3456 208.998 65.7919 206.016 65.4119L79.5862 49.2886C78.2865 49.1232 76.9751 49.5244 75.9909 50.3913C75.0067 51.2581 74.4425 52.5074 74.4425 53.8177V72.7281C74.4425 72.9427 74.2689 73.1163 74.0542 73.1163C73.8396 73.1163 73.666 72.9427 73.666 72.7281V53.8177C73.666 52.2834 74.3264 50.8218 75.4783 49.8071C76.6302 48.7924 78.1633 48.3221 79.6859 48.5168L206.116 64.64C209.485 65.0694 212.026 67.955 212.026 71.3509V158.224C212.026 159.758 211.365 161.22 210.213 162.235C209.233 163.099 207.974 163.568 206.681 163.568L206.68 163.567Z" fill="black"/>
<path d="M132.295 214.301L2.26734 197.532C1.24915 197.402 0.675542 196.549 0.688446 195.698C0.69783 195.11 0.744751 190.972 0.744751 190.972L69.497 151.667C72.9422 149.7 77.3985 148.94 81.3329 149.444L209.718 166.006C210.491 166.106 211.154 166.607 211.46 167.323L211.667 167.807C211.667 167.807 211.556 171.259 211.601 172.065C211.636 172.695 211.352 173.346 210.692 173.723L143.665 212.046C140.22 214.013 136.228 214.805 132.294 214.302L132.295 214.301Z" fill="#5479F7"/>
<path d="M132.295 209.696L2.73186 192.958C1.0122 192.737 0.55941 190.457 2.06558 189.597L68.7322 151.521C72.1774 149.554 76.1692 148.762 80.1035 149.265L209.667 166.002C211.386 166.222 211.839 168.503 210.333 169.362L143.666 207.439C140.221 209.406 136.229 210.198 132.295 209.695V209.696Z" fill="white"/>
<path d="M157.662 188.56L45.3139 173.94C43.7608 173.741 43.3514 171.681 44.7121 170.905L71.1287 155.97C74.2395 154.192 77.8454 153.478 81.3997 153.933L193.748 168.553C195.301 168.752 195.71 170.812 194.349 171.588L167.933 186.523C164.822 188.301 161.216 189.015 157.662 188.56Z" fill="#99B9FF"/>
<path d="M134.585 210.229C133.804 210.229 133.022 210.18 132.246 210.08L2.68268 193.344C1.73136 193.222 0.994697 192.534 0.808186 191.594C0.621675 190.652 1.03927 189.735 1.87329 189.26L40.5339 167.073C40.7204 166.966 40.9574 167.03 41.0641 167.216C41.1709 167.402 41.1063 167.639 40.921 167.746L2.25922 189.934C1.60467 190.308 1.47447 190.958 1.57065 191.441C1.66684 191.926 2.03517 192.476 2.78122 192.572L132.344 209.309C136.17 209.799 140.123 209.015 143.473 207.101L210.139 169.025C210.793 168.651 210.923 168.002 210.827 167.517C210.731 167.033 210.362 166.481 209.616 166.386L103.02 152.529C102.806 152.502 102.657 152.307 102.684 152.094C102.713 151.882 102.907 151.731 103.12 151.759L209.715 165.616C210.666 165.738 211.402 166.425 211.588 167.366C211.775 168.308 211.357 169.224 210.523 169.699L143.856 207.775C141.041 209.384 137.817 210.227 134.583 210.227L134.585 210.229Z" fill="black"/>
<path d="M85.266 63.0882L163.268 72.9181C163.832 72.9897 164.255 73.4694 164.255 74.0384V121.513C164.255 122.196 163.655 122.722 162.978 122.632L86.3288 113.102C85.1358 112.955 84.2373 111.944 84.2314 110.74L83.9945 64.2154C83.9898 63.5327 84.588 63.0025 85.2649 63.087L85.266 63.0882Z" fill="#CADDFF"/>
<path d="M85.544 115.311L120.694 119.302C121.252 119.365 121.672 119.839 121.669 120.401L121.518 145.429C121.515 146.085 120.941 146.591 120.289 146.514L85.4396 142.369C84.8894 142.303 84.473 141.838 84.4707 141.283L84.3205 116.409C84.317 115.75 84.8894 115.236 85.544 115.31V115.311Z" fill="#CADDFF"/>
<path d="M127.901 120.698L163.013 124.685C163.581 124.75 164.008 125.232 164.004 125.802L163.854 150.793C163.851 151.461 163.266 151.976 162.605 151.896L127.792 147.755C127.232 147.688 126.81 147.216 126.806 146.653L126.656 121.816C126.653 121.146 127.235 120.623 127.9 120.699L127.901 120.698Z" fill="#CADDFF"/>
<path d="M169.703 125.806L198.774 129.156C199.208 129.207 199.535 129.575 199.533 130.012L199.418 155.329C199.416 155.839 198.97 156.235 198.463 156.176L169.659 152.864C169.229 152.815 168.903 152.452 168.9 152.019L168.748 126.663C168.744 126.149 169.193 125.748 169.703 125.806Z" fill="#CADDFF"/>
<path d="M169.776 74.2472L198.471 77.4941C199.053 77.5598 199.492 78.056 199.485 78.6425L199.186 103.429C199.177 104.105 198.586 104.626 197.914 104.549L169.666 101.301C169.093 101.235 168.659 100.751 168.655 100.173L168.506 75.3874C168.502 74.7035 169.096 74.1698 169.776 74.246V74.2472Z" fill="#CADDFF"/>
<path d="M169.546 104.005L199.1 107.35C199.464 107.391 199.736 107.702 199.73 108.067L199.672 111.45C199.665 111.869 199.297 112.192 198.88 112.142L169.439 108.637C169.087 108.594 168.82 108.299 168.814 107.945L168.757 104.722C168.75 104.294 169.121 103.956 169.547 104.004L169.546 104.005Z" fill="#CADDFF"/>
<path d="M169.851 110.44L198.996 113.702C199.418 113.749 199.736 114.11 199.729 114.536L199.676 117.685C199.668 118.174 199.237 118.548 198.752 118.489L169.622 114.956C169.203 114.906 168.891 114.548 168.897 114.127L168.936 111.249C168.943 110.763 169.367 110.387 169.852 110.441L169.851 110.44Z" fill="#CADDFF"/>
<path d="M169.772 116.974L199.359 120.322C199.715 120.362 199.981 120.665 199.974 121.022L199.917 124.438C199.909 124.848 199.549 125.163 199.141 125.115L169.669 121.606C169.325 121.565 169.064 121.277 169.058 120.931L169 117.675C168.993 117.257 169.356 116.927 169.771 116.975L169.772 116.974Z" fill="#CADDFF"/>
<path d="M206.9 75.1833L207.094 72.4783C207.094 70.144 205.359 68.1745 203.044 67.8789L82.3229 52.4829C80.3452 52.2307 78.595 53.7721 78.595 55.765L78.5422 59.1164L206.9 75.1821V75.1833Z" fill="#CADDFF"/>
<path d="M87.7188 56.7748C87.7247 57.5455 87.1053 58.1754 86.3347 58.1813C85.564 58.1872 84.9341 57.5678 84.9282 56.7971C84.9223 56.0264 85.5417 55.3965 86.3124 55.3907C87.0831 55.3848 87.713 56.0042 87.7188 56.7748Z" fill="#99B9FF"/>
<path d="M92.7077 57.5305C92.7136 58.3011 92.0942 58.931 91.3236 58.9369C90.5529 58.9428 89.923 58.3234 89.9171 57.5527C89.9112 56.7821 90.5306 56.1521 91.3013 56.1463C92.0719 56.1404 92.7019 56.7598 92.7077 57.5305Z" fill="#99B9FF"/>
<path d="M97.8961 58.1865C97.9019 58.9571 97.2826 59.5871 96.5119 59.5929C95.7412 59.5988 95.1113 58.9794 95.1054 58.2087C95.0996 57.4381 95.7189 56.8082 96.4896 56.8023C97.2603 56.7964 97.8902 57.4158 97.8961 58.1865Z" fill="#99B9FF"/>
<path d="M71.6261 190.843C67.5592 192.566 62.8448 190.995 60.6242 187.177L47.7069 164.961C40.8669 156.519 36.4787 146.358 35.0218 135.591L29.8886 97.6422C28.8329 89.8392 33.9426 82.5324 41.6329 80.8456L63.2389 76.1054C67.904 75.0825 72.7827 75.8697 76.8894 78.3072L104.41 94.6498C109.664 97.7701 112.524 103.747 111.658 109.796L107.002 142.303C104.976 156.447 97.9089 169.385 87.1018 178.732L76.7792 187.638C75.2378 188.967 73.4994 190.049 71.6249 190.843H71.6261Z" fill="#5479F7"/>
<path d="M59.7186 185.678L43.8922 166.144C37.0522 157.702 32.664 147.541 31.2071 136.774L26.529 102.189C25.2164 92.4859 31.5695 83.3985 41.1344 81.2999L59.4348 77.2847C64.0929 76.263 68.9656 77.0489 73.0665 79.4841L98.4813 94.5762C105.016 98.4566 108.573 105.889 107.495 113.412L103.189 143.484C101.163 157.629 94.0965 170.566 83.2883 179.914L75.0536 187.035C70.4753 190.996 63.5286 190.38 59.7186 185.677V185.678Z" fill="white"/>
<path d="M68.0682 190.038C67.7351 190.038 67.4008 190.023 67.0641 189.994C64.0424 189.726 61.3257 188.28 59.416 185.923L43.5895 166.389C36.7027 157.889 32.2886 147.666 30.8223 136.826L26.1443 102.242C25.4967 97.4511 26.6651 92.6323 29.4346 88.671C32.2041 84.7097 36.3296 81.9578 41.0511 80.922L59.3515 76.9067C64.1233 75.8604 69.0641 76.6569 73.2647 79.1507L98.6795 94.2429C105.372 98.2171 108.983 105.763 107.88 113.468L103.572 143.542C101.534 157.779 94.4203 170.802 83.5416 180.21L75.3082 187.332C73.2694 189.096 70.7298 190.039 68.0682 190.039V190.038ZM63.4817 77.2352C62.1609 77.2352 60.833 77.3783 59.518 77.6657L41.2177 81.6809C31.9214 83.7208 25.6387 92.7062 26.9138 102.137L31.5918 136.721C33.0393 147.42 37.3971 157.509 44.1936 165.898L60.0201 185.433C61.7961 187.625 64.3216 188.969 67.1322 189.218C69.9439 189.468 72.6653 188.588 74.7991 186.742L83.0337 179.62C93.7704 170.335 100.791 157.482 102.804 143.43L107.111 113.356C108.171 105.964 104.705 98.7238 98.2842 94.9103L72.8694 79.8182C69.9967 78.1126 66.7627 77.234 63.4829 77.234L63.4817 77.2352Z" fill="black"/>
<path d="M73.2695 180.976C69.6719 184.088 64.2114 183.605 61.2167 179.909L46.8236 162.146C40.8612 154.787 37.0371 145.931 35.7667 136.546L30.9608 101.158C30.0271 94.2851 34.5268 87.8463 41.3022 86.3589L61.2014 81.9929C64.5 81.2692 67.9499 81.8264 70.8543 83.5495L95.9606 98.4587C100.514 101.163 103.033 106.309 102.375 111.564L98.5107 142.394C96.7453 154.724 90.5846 166 81.1652 174.148L73.2707 180.976H73.2695Z" fill="#5479F7"/>
<path d="M42.5642 122.908L63.1637 160.58C63.9544 162.026 66.0447 161.991 66.7872 160.519L91.68 111.112C92.0612 110.403 91.639 109.528 90.846 109.387L81.6999 107.762C81.1767 107.669 80.6547 107.936 80.426 108.416L65.2681 140.152C64.8494 141.029 63.6118 141.054 63.1567 140.197L51.5989 118.441C51.2997 117.879 50.61 117.654 50.0376 117.932L43.0991 121.302C42.502 121.592 42.2604 122.318 42.5642 122.908Z" fill="white"/>
<path d="M188.548 2.92613C189.258 3.0012 189.929 3.16074 190.535 3.41294C193.093 4.48039 194.895 6.87102 197.268 8.3068C199.902 9.90095 202.779 11.0493 205.621 12.2118C209.017 13.5995 211.772 16.2998 212.931 19.813C213.518 21.5925 213.705 23.5503 213.452 25.4084C213.162 27.5304 212.224 29.8002 212.572 31.9644C212.898 33.9902 214.667 35.6993 214.326 37.8518C214.188 38.7222 213.682 39.4941 213.084 40.1404C210.855 42.551 206.572 43.7791 203.656 41.9422C200.681 40.0677 200.433 36.0243 197.888 33.7568C195.796 31.8917 192.278 32.741 190.17 30.6084C189.31 29.7392 188.849 28.5638 188.41 27.4224C187.288 24.5051 186.406 21.9902 183.674 20.1931C181.423 18.7116 178.098 18.0852 176.458 15.7966C171.566 8.96487 181.869 2.22114 188.548 2.92496V2.92613Z" fill="black"/>
<path d="M189.003 59.7543C189.003 59.7543 194.361 61.7508 196.462 60.0699C198.563 58.3889 193.206 55.5525 191.945 55.7625C190.684 55.9725 189.003 59.7543 189.003 59.7543Z" fill="black"/>
<path d="M162.076 102.59L167.119 111.415L169.851 107.633L165.438 99.0168L162.076 102.59Z" fill="white"/>
<path d="M167.119 111.803C167.112 111.803 167.105 111.803 167.098 111.803C166.966 111.796 166.846 111.722 166.781 111.607L161.738 102.782C161.654 102.633 161.676 102.448 161.792 102.324L165.154 98.7517C165.241 98.659 165.367 98.6156 165.492 98.6332C165.617 98.6508 165.725 98.7283 165.783 98.8409L170.194 107.456C170.261 107.586 170.249 107.742 170.164 107.86L167.432 111.642C167.359 111.743 167.242 111.803 167.116 111.803H167.119ZM162.557 102.646L167.157 110.698L169.397 107.598L165.344 99.6854L162.557 102.646Z" fill="black"/>
<path d="M165.372 110.068C166.702 112.81 170.068 119.458 173.311 122.645C174.102 123.422 175.439 123.062 175.723 121.99C176.737 118.152 177.414 110.154 173.632 103.85C173.632 103.85 171.834 103.64 168.472 104.27L169.22 107.422L168.807 107.127C168.185 106.684 167.342 106.72 166.762 107.218L165.793 108.048C165.21 108.548 165.037 109.377 165.372 110.068Z" fill="black"/>
<path d="M173.842 121.889C173.797 121.889 173.75 121.881 173.705 121.863C173.505 121.787 173.404 121.563 173.479 121.362C176.328 113.831 172.476 104.936 172.436 104.847C172.349 104.651 172.438 104.421 172.634 104.335C172.831 104.248 173.06 104.337 173.147 104.533C173.312 104.908 177.169 113.803 174.205 121.637C174.146 121.793 173.998 121.888 173.841 121.888L173.842 121.889Z" fill="white"/>
<path d="M167.329 114.279C167.201 114.279 167.076 114.217 167.002 114.102C166.886 113.922 166.937 113.681 167.117 113.565L169.639 111.93C169.819 111.814 170.059 111.864 170.177 112.045C170.293 112.225 170.242 112.466 170.062 112.582L167.54 114.217C167.474 114.259 167.401 114.279 167.329 114.279Z" fill="white"/>
<path d="M168.59 116.519C168.473 116.519 168.357 116.466 168.281 116.366C168.15 116.196 168.183 115.952 168.353 115.821L170.663 114.047C170.834 113.916 171.078 113.949 171.208 114.119C171.339 114.289 171.306 114.533 171.136 114.664L168.825 116.438C168.755 116.492 168.672 116.518 168.59 116.518V116.519Z" fill="white"/>
<path d="M146.106 102.8C146.106 103.01 141.483 113.096 141.483 113.096L146.736 113.516L150.308 104.901L146.106 102.8Z" fill="white"/>
<path d="M146.737 113.905C146.727 113.905 146.716 113.905 146.706 113.904L141.453 113.484C141.326 113.473 141.212 113.403 141.148 113.293C141.083 113.184 141.077 113.05 141.13 112.934C142.897 109.079 145.562 103.214 145.725 102.721C145.746 102.617 145.809 102.525 145.901 102.469C146.016 102.399 146.159 102.392 146.28 102.452L150.482 104.552C150.665 104.644 150.746 104.861 150.667 105.049L147.095 113.663C147.034 113.809 146.892 113.903 146.736 113.903L146.737 113.905ZM142.069 112.752L146.486 113.105L149.812 105.086L146.309 103.335C145.96 104.182 144.955 106.45 142.069 112.752Z" fill="black"/>
<path d="M146.317 110.995C146.317 110.995 145.266 108.473 142.535 109.734C142.535 109.734 137.521 116.976 135.658 122.957C135.131 124.649 136.867 126.173 138.483 125.444C142.261 123.739 148.184 120.157 151.571 113.517C151.571 113.517 150.52 110.785 148.839 109.525L146.317 110.996V110.995Z" fill="black"/>
<path d="M137.188 124.007C136.967 124.007 136.837 123.991 136.804 123.986C136.592 123.954 136.445 123.757 136.477 123.545C136.509 123.334 136.706 123.187 136.916 123.218C136.979 123.225 142.493 123.837 149.994 113.498C150.119 113.325 150.362 113.286 150.537 113.411C150.71 113.538 150.749 113.781 150.624 113.954C143.846 123.296 138.62 124.008 137.188 124.008V124.007Z" fill="white"/>
<path d="M141.483 118.317C141.416 118.317 141.35 118.3 141.287 118.264L138.765 116.793C138.58 116.685 138.518 116.447 138.626 116.261C138.735 116.076 138.973 116.013 139.157 116.122L141.679 117.593C141.865 117.701 141.927 117.939 141.819 118.124C141.746 118.249 141.616 118.317 141.483 118.317Z" fill="white"/>
<path d="M142.744 116.426C142.682 116.426 142.619 116.411 142.56 116.379L139.828 114.908C139.639 114.806 139.568 114.57 139.67 114.381C139.772 114.193 140.008 114.122 140.196 114.223L142.928 115.694C143.117 115.796 143.189 116.032 143.087 116.221C143.016 116.351 142.883 116.425 142.744 116.425V116.426Z" fill="white"/>
<path d="M173.001 51.9504C173.001 51.9504 159.306 54.3962 149.438 64.7446C146.946 67.357 146.066 71.1165 147.135 74.564C149.327 81.6374 154.1 94.5548 162.076 104.27L168.17 99.017C168.17 99.017 166.699 86.8304 162.707 79.2655C158.715 71.7007 182.038 55.3123 182.038 55.3123L173.004 51.9504H173.001Z" fill="white"/>
<path d="M162.076 104.659C162.065 104.659 162.053 104.659 162.043 104.658C161.938 104.649 161.842 104.598 161.775 104.517C153.719 94.7026 148.912 81.6105 146.764 74.6791C145.655 71.0978 146.571 67.1881 149.157 64.4761C159 54.1546 172.796 51.5927 172.934 51.5681C173.002 51.5563 173.074 51.5622 173.139 51.5868L182.173 54.9487C182.308 54.9992 182.404 55.12 182.423 55.2631C182.442 55.4062 182.38 55.5482 182.261 55.6303C182.031 55.7921 159.263 71.9072 163.05 79.0849C167.031 86.6252 168.541 98.8481 168.556 98.9713C168.571 99.1003 168.521 99.2282 168.423 99.3126L162.329 104.565C162.259 104.626 162.168 104.659 162.076 104.659ZM172.968 52.3528C171.698 52.605 158.938 55.3464 149.719 65.0133C147.327 67.5212 146.479 71.1365 147.507 74.4491C149.616 81.2527 154.303 94.0375 162.125 103.715L167.758 98.8598C167.543 97.234 165.995 86.3284 162.363 79.4474C158.579 72.2767 177.488 58.1171 181.216 55.4215L172.968 52.3528Z" fill="black"/>
<path d="M144.425 104.691L151.569 106.792C151.569 106.792 164.597 79.2667 168.378 75.2738C172.16 71.282 179.515 64.7681 187.289 62.4561C195.064 60.1452 195.064 54.2613 195.064 54.2613L181.826 50.4795C181.826 50.4795 163.336 58.4643 157.242 67.4989C151.148 76.5336 144.424 104.69 144.424 104.69L144.425 104.691Z" fill="white"/>
<path d="M151.57 107.181C151.534 107.181 151.497 107.177 151.461 107.166L144.317 105.065C144.119 105.006 144.001 104.803 144.049 104.602C144.324 103.45 150.858 76.2743 156.921 67.2842C163.008 58.2589 180.915 50.4524 181.673 50.1252C181.756 50.09 181.848 50.0841 181.934 50.1087L195.172 53.8906C195.338 53.9387 195.453 54.0912 195.453 54.2648C195.453 54.327 195.36 60.4654 187.4 62.8326C178.751 65.4039 170.87 73.2127 168.661 75.5447C164.965 79.4462 152.051 106.686 151.921 106.962C151.855 107.1 151.717 107.185 151.57 107.185V107.181ZM144.891 104.422L151.361 106.325C152.862 103.167 164.486 78.8186 168.098 75.0062C170.341 72.6391 178.346 64.7106 187.18 62.0842C193.682 60.151 194.545 55.7346 194.659 54.5498L181.855 50.8912C180.218 51.6161 163.263 59.2677 157.565 67.7159C151.951 76.0397 145.699 101.117 144.891 104.421V104.422Z" fill="black"/>
<path d="M205.78 32.6204C202.209 25.4767 196.325 24.4256 196.325 24.4256L186.239 23.5846C183.085 23.3711 179.732 25.3195 178.488 28.2251L169.22 49.8498C169.22 49.8498 171.11 54.8926 179.515 55.7337C187.92 56.5748 193.698 56.0493 196.43 59.4111C198.231 61.627 198.173 46.8457 197.139 35.1541L205.78 32.6216V32.6204Z" fill="#5479F7"/>
<path d="M196.77 60.022C196.592 60.022 196.363 59.9434 196.129 59.6548C194.117 57.1798 190.189 56.9111 184.75 56.5393C183.167 56.4314 181.371 56.3082 179.476 56.1193C170.93 55.2642 168.936 50.2003 168.855 49.9856C168.82 49.8917 168.822 49.7885 168.862 49.6959L178.13 28.0711C179.418 25.0658 182.918 22.9708 186.266 23.196L196.357 24.0371C196.369 24.0371 196.381 24.0394 196.394 24.0418C196.641 24.0863 202.51 25.2101 206.129 32.4453C206.18 32.5485 206.184 32.6694 206.137 32.7749C206.091 32.8805 206.001 32.9603 205.89 32.9931L197.553 35.4365C198.008 40.687 198.267 46.5475 198.25 51.1809C198.217 59.4848 197.369 59.8285 197.006 59.9751C196.946 59.9997 196.864 60.022 196.769 60.022H196.77ZM169.644 49.8472C170.021 50.6319 172.281 54.619 179.555 55.3463C181.437 55.534 183.225 55.6572 184.804 55.7639C190.437 56.1487 194.508 56.4267 196.733 59.1645C196.742 59.1763 196.752 59.1868 196.76 59.1962C197.626 58.0021 197.798 46.992 196.753 35.1879C196.736 35.0037 196.853 34.8324 197.031 34.7808L205.221 32.3808C201.851 26.0312 196.598 24.8781 196.274 24.8124L186.208 23.9737C183.181 23.7684 180.01 25.6629 178.847 28.3796L169.645 49.8483L169.644 49.8472Z" fill="black"/>
<path d="M178.885 51.5304L183.508 49.4295L187.08 50.9005C187.08 50.9005 206.243 48.4723 197.674 34.762C197.636 34.7022 204.407 33.3333 204.407 33.3333C204.407 33.3333 212.217 51.9504 187.499 52.3703C187.499 52.3703 186.238 52.7902 184.557 51.9504C182.876 51.1105 179.934 52.7914 178.884 51.5304H178.885Z" fill="white"/>
<path d="M186.659 52.8639C186.082 52.8639 185.288 52.7489 184.386 52.2973C183.71 51.9595 182.716 52.1073 181.756 52.2504C180.543 52.4311 179.288 52.6176 178.587 51.7789C178.51 51.6862 178.481 51.5618 178.508 51.4434C178.535 51.3249 178.615 51.2264 178.726 51.1759L183.349 49.075C183.446 49.0305 183.559 49.0293 183.657 49.0692L187.132 50.5003C188.142 50.3513 196.518 48.973 198.871 44.0099C200.053 41.5196 199.539 38.4779 197.345 34.9682C197.277 34.8603 197.268 34.7242 197.318 34.6069C197.391 34.4372 199.729 33.8859 204.332 32.9529C204.512 32.9166 204.695 33.0128 204.767 33.184C204.892 33.4843 207.809 40.6011 204.123 46.2492C201.4 50.4205 195.828 52.6105 187.56 52.7595C187.43 52.7947 187.112 52.8651 186.66 52.8651L186.659 52.8639ZM183.313 51.3143C183.819 51.3143 184.301 51.3871 184.733 51.6029C186.233 52.3525 187.333 52.0158 187.38 52.0017C187.417 51.99 187.457 51.983 187.494 51.983C195.518 51.8469 200.892 49.7742 203.471 45.8246C206.528 41.1419 204.663 35.1676 204.162 33.7811C202.171 34.1846 199.379 34.7594 198.278 35.0081C200.387 38.5717 200.822 41.7108 199.572 44.3454C196.894 49.9876 187.526 51.2357 187.128 51.2862C187.061 51.2944 186.993 51.2862 186.931 51.2604L183.515 49.8539L179.716 51.5806C180.215 51.6944 180.915 51.5912 181.641 51.4833C182.2 51.4 182.77 51.3155 183.313 51.3155V51.3143Z" fill="black"/>
<path d="M196.756 36.089L206.143 33.4368L205.782 32.6204C205.782 32.6204 204.715 31.804 204.511 31.804C204.307 31.804 199.002 31.5999 199.002 31.5999L195.737 32.6204L196.758 36.089H196.756Z" fill="#5479F7"/>
<path d="M161.187 52.9102H179.412L165.901 32.1312C165.479 31.4825 164.743 31.0884 163.953 31.0884H149.162C148.222 31.0884 147.652 32.0937 148.153 32.8655L161.187 52.9114V52.9102Z" fill="black"/>
<path d="M157.554 38.3739C158.146 39.2842 159.42 40.0232 160.398 40.0232C161.377 40.0232 161.691 39.2853 161.099 38.3739C160.506 37.4636 159.232 36.7246 158.254 36.7246C157.276 36.7246 156.961 37.4624 157.554 38.3739Z" fill="white"/>
<path d="M160.398 40.4115C159.286 40.4115 157.894 39.6092 157.228 38.5851C156.844 37.9951 156.762 37.4039 157.001 36.9628C157.221 36.5581 157.665 36.3364 158.253 36.3364C159.365 36.3364 160.757 37.1388 161.424 38.1628C161.807 38.7529 161.889 39.3441 161.65 39.7851C161.431 40.1898 160.986 40.4115 160.398 40.4115ZM158.254 37.113C158.086 37.113 157.79 37.1411 157.685 37.3335C157.588 37.5141 157.659 37.8238 157.88 38.1617C158.398 38.9593 159.553 39.6338 160.398 39.6338C160.685 39.6338 160.891 39.5529 160.967 39.4133C161.065 39.2326 160.992 38.923 160.773 38.5851C160.254 37.7875 159.1 37.113 158.254 37.113Z" fill="black"/>
<path d="M191.324 54.4724L161.652 54.4724C161.36 54.4724 161.125 54.2355 161.125 53.9446V52.7762L191.853 52.7762V53.9446C191.853 54.2366 191.616 54.4724 191.325 54.4724H191.324Z" fill="black"/>
<path d="M189.601 22.9544C189.413 22.8605 186.885 19.8775 185.406 18.1215C185.519 17.6335 185.501 17.4787 185.461 16.7397C185.461 16.7397 186.227 15.9714 185.92 14.9755C185.562 13.8165 184.462 14.7467 184.462 14.7467C184.462 14.7467 183.953 13.8564 182.036 15.3919C180.119 16.9274 178.096 15.0599 178.096 15.0599C178.096 15.0599 178.096 16.2107 179.109 17.6089C179.668 18.3808 179.761 19.3989 179.788 20.3514L180.862 20.1966C181.453 20.8969 181.892 21.2394 182.703 21.5761C182.703 21.5761 183.345 21.4588 184.011 20.9074L185.188 23.5878L183.988 24.2177C183.988 24.2177 183.717 25.8987 186.869 26.3186C190.021 26.7386 192.542 24.2177 192.542 24.2177C192.542 24.2177 190.861 23.5878 189.6 22.9567L189.601 22.9544Z" fill="white"/>
<path d="M187.593 26.7527C187.339 26.7527 187.081 26.7363 186.818 26.7011C185.44 26.5169 184.482 26.0759 183.97 25.3885C183.52 24.782 183.595 24.2155 183.605 24.1533C183.625 24.0325 183.701 23.9281 183.808 23.8706L184.687 23.4084L183.849 21.4999C183.277 21.8589 182.8 21.9504 182.775 21.955C182.7 21.968 182.626 21.9597 182.557 21.9316C181.777 21.609 181.288 21.263 180.708 20.6084L179.845 20.7328C179.736 20.748 179.623 20.7163 179.539 20.6448C179.454 20.5732 179.404 20.4688 179.4 20.3586C179.374 19.4459 179.284 18.5087 178.795 17.833C177.722 16.3503 177.708 15.1093 177.708 15.0565C177.708 14.9016 177.799 14.762 177.94 14.6999C178.082 14.6377 178.246 14.6659 178.36 14.7703C178.432 14.8359 180.166 16.389 181.793 15.0846C182.736 14.3292 183.523 14.0043 184.133 14.1204C184.279 14.1474 184.396 14.1966 184.49 14.2518C184.753 14.0958 185.163 13.9233 185.564 14.0406C185.803 14.1098 186.123 14.3093 186.292 14.8571C186.584 15.8037 186.098 16.5685 185.858 16.8711C185.887 17.4143 185.898 17.6383 185.826 18.0137C189.053 21.8424 189.684 22.5087 189.807 22.6202C191.031 23.229 192.662 23.8424 192.679 23.8483C192.803 23.8941 192.895 24.0008 192.923 24.1298C192.951 24.2589 192.911 24.3938 192.817 24.4864C192.718 24.5861 190.518 26.7492 187.591 26.7492L187.593 26.7527ZM184.382 24.4477C184.442 24.8125 184.813 25.6501 186.922 25.9304C189.088 26.219 190.962 25.0049 191.8 24.3433C191.191 24.1017 190.232 23.704 189.428 23.3017C189.315 23.2442 189.142 23.1586 185.11 18.3715C185.032 18.2776 185.001 18.1533 185.03 18.0336C185.123 17.6266 185.116 17.5116 185.082 16.877L185.075 16.7597C185.069 16.6494 185.11 16.5415 185.188 16.4641C185.211 16.4406 185.783 15.8424 185.55 15.0881C185.52 14.9896 185.453 14.8195 185.347 14.7879C185.191 14.7409 184.878 14.9052 184.714 15.0424C184.618 15.1222 184.501 15.175 184.382 15.1445C184.262 15.114 184.174 15.053 184.127 14.9392C184.124 14.9392 184.072 14.8934 183.954 14.8794C183.74 14.8547 183.236 14.9263 182.281 15.6923C181.012 16.7104 179.624 16.4313 178.667 15.9233C178.8 16.3233 179.028 16.8301 179.425 17.3767C179.953 18.1052 180.108 19.0037 180.159 19.9011L180.807 19.8084C180.94 19.7896 181.073 19.8401 181.159 19.9421C181.695 20.5767 182.078 20.877 182.735 21.1633C182.922 21.1081 183.338 20.9556 183.764 20.6037C183.858 20.5263 183.983 20.497 184.102 20.5251C184.22 20.5533 184.319 20.6354 184.368 20.7468L185.545 23.4272C185.627 23.6137 185.55 23.8331 185.37 23.9281L184.382 24.4466V24.4477Z" fill="black"/>
<path d="M184.013 21.2936C183.907 21.2936 183.8 21.2502 183.724 21.1645C183.58 21.005 183.593 20.7598 183.752 20.6155L184.099 20.3035C184.258 20.1604 184.504 20.1721 184.648 20.3317C184.793 20.4912 184.78 20.7364 184.62 20.8806L184.273 21.1927C184.199 21.2595 184.105 21.2924 184.013 21.2924V21.2936Z" fill="black"/>
<path d="M151.962 23.3673C151.962 25.1538 150.546 26.4113 148.842 26.1814C147.184 25.9574 145.874 24.4031 145.874 22.7034C145.874 21.0037 147.184 19.7345 148.842 19.8729C150.545 20.0148 151.962 21.5808 151.962 23.3673Z" fill="#5479F7"/>
<path d="M153.884 19.5081C153.652 19.5081 153.418 19.4483 153.202 19.3239C151.789 18.504 150.288 18.0406 148.738 17.9468C147.246 17.8553 145.839 18.1157 144.554 18.7198C143.874 19.0401 143.062 18.748 142.742 18.0664C142.422 17.3861 142.714 16.5744 143.395 16.2541C145.099 15.4529 146.952 15.1081 148.905 15.2277C150.882 15.3485 152.787 15.9339 154.57 16.9685C155.221 17.3462 155.442 18.1802 155.065 18.8301C154.812 19.2653 154.355 19.5093 153.884 19.5093V19.5081Z" fill="#5479F7"/>
<path d="M157.033 13.4002C156.812 13.4002 156.588 13.3462 156.381 13.2336C153.961 11.9116 151.404 11.2007 148.778 11.1198C146.272 11.0424 143.916 11.5503 141.777 12.6283C141.104 12.9673 140.286 12.6963 139.947 12.0254C139.608 11.3532 139.879 10.5345 140.55 10.1954C143.099 8.91099 145.895 8.3057 148.862 8.3972C151.919 8.49104 154.886 9.31451 157.686 10.843C158.347 11.2043 158.59 12.0312 158.228 12.6917C157.981 13.1444 157.514 13.4013 157.032 13.4013L157.033 13.4002Z" fill="#5479F7"/>
<path d="M160.269 7.12347C160.061 7.12347 159.848 7.07538 159.649 6.97333C156.179 5.19619 152.536 4.29296 148.821 4.29062H148.807C145.303 4.29062 142.028 5.09648 139.072 6.68711C138.409 7.04371 137.583 6.79503 137.226 6.13227C136.87 5.46951 137.119 4.6437 137.781 4.2871C141.138 2.48181 144.848 1.56567 148.807 1.56567H148.822C152.973 1.56802 157.034 2.57096 160.891 4.54751C161.561 4.89003 161.826 5.71115 161.482 6.38095C161.241 6.85133 160.763 7.1223 160.268 7.1223L160.269 7.12347Z" fill="#5479F7"/>
<path d="M93.2449 75.0777C93.0854 75.0777 92.9353 74.978 92.879 74.8185C92.8074 74.6167 92.913 74.3938 93.1147 74.3223L95.0057 73.6513C95.2086 73.5797 95.4303 73.6853 95.5019 73.8871C95.5734 74.0888 95.4678 74.3117 95.2661 74.3833L93.3752 75.0542C93.3318 75.0695 93.2884 75.0765 93.2449 75.0765V75.0777Z" fill="black"/>
<path d="M88.8391 76.6417C88.6795 76.6417 88.5294 76.542 88.4731 76.3824C88.4015 76.1807 88.5071 75.9578 88.7089 75.8862L90.5998 75.2153C90.8027 75.1437 91.0244 75.2493 91.096 75.451C91.1675 75.6528 91.0619 75.8757 90.8602 75.9472L88.9693 76.6182C88.9259 76.6335 88.8825 76.6405 88.8391 76.6405V76.6417Z" fill="black"/>
<path d="M91.5418 74.2671C91.3823 74.2671 91.2321 74.1674 91.1758 74.0079L90.5037 72.117C90.4321 71.914 90.5377 71.6923 90.7394 71.6208C90.9412 71.5492 91.1641 71.6548 91.2356 71.8566L91.9078 73.7475C91.9793 73.9492 91.8738 74.1721 91.672 74.2437C91.6286 74.2589 91.5852 74.266 91.5418 74.266V74.2671Z" fill="black"/>
<path d="M93.1065 78.6722C92.947 78.6722 92.7968 78.5725 92.7405 78.4129L92.0684 76.522C91.9968 76.3202 92.1024 76.0974 92.3041 76.0258C92.5059 75.9543 92.7288 76.0598 92.8003 76.2616L93.4725 78.1525C93.544 78.3543 93.4385 78.5771 93.2367 78.6487C93.1933 78.664 93.1499 78.671 93.1065 78.671V78.6722Z" fill="black"/>
<path d="M79.1605 22.5706C79.1523 22.5706 79.144 22.5706 79.137 22.5706L77.1335 22.4486C76.9188 22.4357 76.7558 22.2516 76.7687 22.0369C76.7816 21.8223 76.9704 21.6592 77.1804 21.6721L79.1839 21.7941C79.3986 21.807 79.5616 21.9912 79.5487 22.2058C79.5358 22.4123 79.3646 22.5706 79.1616 22.5706H79.1605Z" fill="black"/>
<path d="M74.4941 22.2868C74.4859 22.2868 74.4777 22.2868 74.4707 22.2868L72.4671 22.1648C72.2525 22.1519 72.0894 21.9678 72.1023 21.7531C72.1152 21.5384 72.3041 21.3766 72.5141 21.3883L74.5176 21.5103C74.7323 21.5232 74.8953 21.7074 74.8824 21.922C74.8695 22.1285 74.6982 22.2868 74.4953 22.2868H74.4941Z" fill="black"/>
<path d="M75.9064 21.0364C75.8982 21.0364 75.89 21.0364 75.883 21.0364C75.6683 21.0235 75.5053 20.8393 75.5182 20.6247L75.6402 18.6211C75.6531 18.4065 75.8419 18.2434 76.0519 18.2563C76.2666 18.2692 76.4296 18.4534 76.4167 18.6681L76.2947 20.6716C76.2818 20.878 76.1106 21.0364 75.9076 21.0364H75.9064Z" fill="black"/>
<path d="M75.6226 25.7027C75.6144 25.7027 75.6061 25.7027 75.5991 25.7027C75.3844 25.6898 75.2214 25.5056 75.2343 25.2909L75.3563 23.2874C75.3692 23.0727 75.5557 22.9097 75.768 22.9226C75.9827 22.9355 76.1457 23.1197 76.1328 23.3343L76.0108 25.3379C75.9979 25.5443 75.8267 25.7027 75.6237 25.7027H75.6226Z" fill="black"/>
<path d="M17.0745 67.5835C17.0663 67.5835 17.0581 67.5835 17.0511 67.5835L15.0475 67.4615C14.8329 67.4486 14.6698 67.2644 14.6827 67.0497C14.6956 66.8351 14.8833 66.6708 15.0945 66.6849L17.098 66.8069C17.3126 66.8198 17.4757 67.004 17.4628 67.2186C17.4499 67.4251 17.2786 67.5835 17.0757 67.5835H17.0745Z" fill="black"/>
<path d="M12.4081 67.2994C12.3999 67.2994 12.3917 67.2994 12.3847 67.2994L10.3812 67.1774C10.1665 67.1645 10.0034 66.9803 10.0163 66.7657C10.0292 66.551 10.2169 66.388 10.4281 66.4009L12.4316 66.5229C12.6463 66.5358 12.8093 66.7199 12.7964 66.9346C12.7835 67.141 12.6122 67.2994 12.4093 67.2994H12.4081Z" fill="black"/>
<path d="M13.8204 66.049C13.8122 66.049 13.804 66.049 13.7969 66.049C13.5823 66.0361 13.4192 65.8519 13.4321 65.6372L13.5541 63.6337C13.567 63.4191 13.7535 63.2548 13.9658 63.2689C14.1805 63.2818 14.3436 63.466 14.3307 63.6806L14.2087 65.6842C14.1958 65.8906 14.0245 66.049 13.8216 66.049H13.8204Z" fill="black"/>
<path d="M13.5364 70.7154C13.5282 70.7154 13.52 70.7154 13.513 70.7154C13.2983 70.7025 13.1353 70.5183 13.1482 70.3036L13.2702 68.3001C13.2831 68.0854 13.4708 67.9224 13.6819 67.9353C13.8966 67.9482 14.0596 68.1323 14.0467 68.347L13.9247 70.3505C13.9118 70.557 13.7406 70.7154 13.5376 70.7154H13.5364Z" fill="black"/>
<path d="M194.269 135.488C194.11 135.488 193.96 135.388 193.904 135.228C193.832 135.027 193.938 134.804 194.139 134.732L196.03 134.061C196.232 133.99 196.455 134.095 196.526 134.297C196.598 134.499 196.492 134.722 196.291 134.793L194.4 135.464C194.356 135.479 194.313 135.486 194.269 135.486V135.488Z" fill="black"/>
<path d="M189.864 137.053C189.704 137.053 189.554 136.953 189.498 136.794C189.426 136.592 189.532 136.369 189.733 136.297L191.624 135.625C191.826 135.554 192.049 135.659 192.121 135.861C192.192 136.063 192.087 136.286 191.885 136.357L189.994 137.029C189.95 137.045 189.907 137.052 189.864 137.052V137.053Z" fill="black"/>
<path d="M192.566 134.677C192.407 134.677 192.257 134.578 192.2 134.418L191.528 132.527C191.457 132.325 191.562 132.102 191.764 132.031C191.966 131.959 192.189 132.065 192.26 132.267L192.932 134.158C193.004 134.359 192.898 134.582 192.697 134.654C192.653 134.669 192.61 134.676 192.566 134.676V134.677Z" fill="black"/>
<path d="M194.13 139.083C193.97 139.083 193.82 138.984 193.764 138.824L193.092 136.933C193.02 136.731 193.126 136.508 193.328 136.437C193.529 136.364 193.752 136.471 193.824 136.673L194.496 138.564C194.567 138.765 194.462 138.988 194.26 139.06C194.217 139.075 194.173 139.082 194.13 139.082V139.083Z" fill="black"/>
<path d="M176.754 209.245C176.449 209.245 176.144 209.189 175.852 209.075C175.215 208.828 174.714 208.342 174.44 207.708C173.881 206.412 174.462 204.895 175.732 204.323C176.346 204.048 177.028 204.03 177.655 204.274C178.292 204.522 178.793 205.007 179.066 205.642C179.624 206.937 179.045 208.455 177.773 209.026C177.447 209.173 177.101 209.247 176.754 209.247V209.245ZM176.051 205.032C175.164 205.429 174.762 206.491 175.154 207.399C175.345 207.841 175.692 208.179 176.133 208.35C176.564 208.518 177.033 208.505 177.455 208.316C178.342 207.919 178.745 206.857 178.353 205.949C178.162 205.507 177.814 205.169 177.373 204.998C176.943 204.83 176.474 204.843 176.051 205.032Z" fill="black"/>
<path d="M181.633 205.547C181.48 205.547 181.336 205.457 181.274 205.308C181.191 205.109 181.284 204.882 181.482 204.8C193.614 199.737 204.517 191.562 213.014 181.157C213.151 180.991 213.395 180.966 213.561 181.102C213.728 181.238 213.752 181.482 213.616 181.649C205.038 192.152 194.03 200.406 181.781 205.516C181.732 205.536 181.682 205.547 181.633 205.547Z" fill="black"/>
<path d="M176.635 213.316C176.476 213.316 176.327 213.217 176.269 213.058C176.197 212.856 176.302 212.633 176.504 212.56C189.439 207.923 201.222 199.957 210.58 189.521C210.724 189.361 210.97 189.347 211.129 189.491C211.289 189.635 211.303 189.881 211.16 190.04C201.716 200.572 189.823 208.613 176.767 213.292C176.723 213.307 176.679 213.314 176.635 213.314V213.316Z" fill="black"/>
<path d="M27.7536 134.405C27.6739 134.405 27.5941 134.38 27.5249 134.33C17.8216 127.243 10.8785 119.671 5.00983 109.778C4.90073 109.594 4.96173 109.355 5.1459 109.246C5.33006 109.136 5.56936 109.196 5.67845 109.382C11.4908 119.18 18.3694 126.68 27.9836 133.702C28.1572 133.829 28.1947 134.072 28.068 134.245C27.9918 134.35 27.8733 134.405 27.7536 134.405Z" fill="black"/>
<path d="M28.726 141.871C28.6521 141.871 28.5782 141.85 28.5114 141.807C17.2749 134.368 7.62797 124.186 0.61444 112.362C0.505348 112.177 0.566346 111.938 0.750511 111.829C0.934676 111.719 1.17397 111.78 1.28306 111.965C8.23794 123.69 17.8016 133.785 28.9407 141.159C29.1202 141.278 29.1683 141.52 29.0498 141.698C28.9747 141.81 28.8515 141.871 28.7249 141.871H28.726Z" fill="black"/>
<path d="M2.86079 106.076C1.66665 106.076 0.694214 105.105 0.694214 103.91C0.694214 102.714 1.66548 101.743 2.86079 101.743C4.05611 101.743 5.02738 102.714 5.02738 103.91C5.02738 105.105 4.05611 106.076 2.86079 106.076ZM2.86079 102.521C2.09481 102.521 1.47193 103.144 1.47193 103.91C1.47193 104.676 2.09481 105.299 2.86079 105.299C3.62678 105.299 4.24966 104.676 4.24966 103.91C4.24966 103.144 3.62678 102.521 2.86079 102.521Z" fill="black"/>
<path d="M125.141 12.3093C124.88 12.3093 124.62 12.2613 124.37 12.1639C123.827 11.9527 123.399 11.5375 123.164 10.9967C122.688 9.89174 123.183 8.59672 124.268 8.10991C124.791 7.87414 125.375 7.85889 125.91 8.06769C126.453 8.27883 126.882 8.69408 127.116 9.23485C127.592 10.3398 127.097 11.6349 126.012 12.1217C125.733 12.2472 125.438 12.3105 125.141 12.3105V12.3093ZM124.586 8.81842C123.886 9.13279 123.568 9.97151 123.877 10.6882C124.028 11.0378 124.302 11.3041 124.65 11.439C124.991 11.5715 125.36 11.561 125.692 11.412C126.392 11.0976 126.709 10.2589 126.401 9.54218C126.25 9.19262 125.976 8.92634 125.628 8.79144C125.289 8.66006 124.919 8.66945 124.586 8.81842Z" fill="black"/>
</g>
<defs>
<clipPath id="clip0_483_6630">
<rect width="214.806" height="214.952" fill="white" transform="translate(0.560669 0.47583)"/>
</clipPath>
</defs>
</svg>
